<svg width="160" height="160" viewBox="0 0 160 160" fill="none" xmlns="http://www.w3.org/2000/svg">
<g filter="url(#filter0_d_155_171)">
<circle cx="80" cy="73" r="50" fill="url(#paint0_linear_155_171)"/>
<path d="M91.4926 81.95C91.4926 83.6833 91.0426 85.3167 90.1426 86.85C89.2759 88.35 87.9759 89.6 86.2426 90.6C84.5426 91.5667 82.5259 92.1333 80.1926 92.3V96.35H76.9926V92.25C73.6592 91.95 70.9759 90.95 68.9426 89.25C66.9092 87.5167 65.8592 85.1833 65.7926 82.25H73.2926C73.4926 84.65 74.7259 86.1 76.9926 86.6V77.05C74.5926 76.45 72.6592 75.85 71.1926 75.25C69.7259 74.65 68.4592 73.6833 67.3926 72.35C66.3259 71.0167 65.7926 69.2 65.7926 66.9C65.7926 64 66.8259 61.6333 68.8926 59.8C70.9926 57.9667 73.6926 56.9167 76.9926 56.65V52.6H80.1926V56.65C83.3926 56.9167 85.9426 57.8833 87.8426 59.55C89.7759 61.2167 90.8592 63.5167 91.0926 66.45H83.5426C83.4426 65.4833 83.0926 64.65 82.4926 63.95C81.9259 63.2167 81.1592 62.7 80.1926 62.4V71.85C82.6926 72.4833 84.6592 73.1 86.0926 73.7C87.5592 74.2667 88.8259 75.2167 89.8926 76.55C90.9592 77.85 91.4926 79.65 91.4926 81.95ZM73.0926 66.55C73.0926 67.65 73.4259 68.55 74.0926 69.25C74.7592 69.9167 75.7259 70.4667 76.9926 70.9V62.25C75.7926 62.4167 74.8426 62.8667 74.1426 63.6C73.4426 64.3333 73.0926 65.3167 73.0926 66.55ZM80.1926 86.7C81.4592 86.4667 82.4426 85.95 83.1426 85.15C83.8759 84.35 84.2426 83.3833 84.2426 82.25C84.2426 81.15 83.8926 80.2667 83.1926 79.6C82.4926 78.9333 81.4926 78.3833 80.1926 77.95V86.7Z" fill="white"/>
</g>
<defs>
<filter id="filter0_d_155_171" x="0" y="0" width="160" height="160" filterUnits="userSpaceOnUse" color-interpolation-filters="sRGB">
<feFlood flood-opacity="0" result="BackgroundImageFix"/>
<feColorMatrix in="SourceAlpha" type="matrix" values="0 0 0 0 0 0 0 0 0 0 0 0 0 0 0 0 0 0 127 0" result="hardAlpha"/>
<feOffset dy="7"/>
<feGaussianBlur stdDeviation="15"/>
<feComposite in2="hardAlpha" operator="out"/>
<feColorMatrix type="matrix" values="0 0 0 0 0 0 0 0 0 0 0 0 0 0 0 0 0 0 0.15 0"/>
<feBlend mode="normal" in2="BackgroundImageFix" result="effect1_dropShadow_155_171"/>
<feBlend mode="normal" in="SourceGraphic" in2="effect1_dropShadow_155_171" result="shape"/>
</filter>
<linearGradient id="paint0_linear_155_171" x1="132.533" y1="21.6453" x2="107.077" y2="139.63" gradientUnits="userSpaceOnUse">
<stop stop-color="#933BCB"/>
<stop offset="1" stop-color="#A636FF"/>
</linearGradient>
</defs>
</svg>
