<svg width="297" height="192" viewBox="0 0 297 192" fill="none" xmlns="http://www.w3.org/2000/svg">
<g clip-path="url(#clip0_101_9087)">
<path d="M147.723 191.6C216.741 191.6 272.691 188.934 272.691 185.646C272.691 182.357 216.741 179.692 147.723 179.692C78.7042 179.692 22.7538 182.357 22.7538 185.646C22.7538 188.934 78.7042 191.6 147.723 191.6Z" fill="#E9ECF2"/>
<path d="M65.2844 165.515C43.5938 158.781 14.2478 125.182 26.1563 92.3977C32.9258 73.7551 54.2619 72.3729 70.9906 69.254C94.276 64.93 104.767 51.2494 120.149 34.3789C137.374 15.5592 176.502 -6.45036 211.093 22.8603C220.414 30.7638 221.903 46.0039 233.918 56.7429C246.004 67.5173 261.775 67.5527 268.864 88.8889C274.393 105.511 250.576 140.103 234.45 150.416C204.643 169.484 114.159 180.684 65.2844 165.515Z" fill="#F3FAFF"/>
<path d="M282.332 96.7925C282.332 96.8988 282.332 97.0406 282.332 97.1469C281.977 112.21 279.815 123.87 276.732 132.873L268.722 137.303L275.137 136.665L275.314 136.629C271.345 146.482 266.206 152.72 261.456 156.69C258.515 159.135 255.715 160.695 253.411 161.687C253.269 161.758 253.128 161.829 252.95 161.864C252.596 162.006 252.241 162.148 251.887 162.289H247.599C247.563 162.077 247.492 161.9 247.457 161.687C247.421 161.545 247.386 161.439 247.386 161.297C247.35 161.12 247.315 160.978 247.28 160.801C243.239 141.095 250.434 125.926 259.294 115.329C259.33 115.293 259.365 115.258 259.365 115.222C262.449 111.536 265.745 108.417 268.864 105.83L270.494 110.721L271.132 104.023C276.519 99.8405 280.914 97.4659 282.013 96.9342C282.261 96.8279 282.332 96.7925 282.332 96.7925Z" fill="url(#paint0_linear_101_9087)"/>
<path d="M282.474 96.8633L282.332 97.1823L272.621 115.045L272.443 115.364L269.785 120.255L269.679 120.397L261.244 135.956V135.991L247.457 161.333L247.244 161.687L246.925 162.289H246.535L246.89 161.687L247.35 160.836L260.96 135.814L261.208 135.353L282.084 96.9342L282.19 96.7216L282.474 96.8633Z" fill="white"/>
<path d="M280.905 113.41L269.637 120.322L269.785 120.563L281.054 113.652L280.905 113.41Z" fill="white"/>
<path d="M281.159 109.803L272.338 115.213L272.486 115.455L281.308 110.045L281.159 109.803Z" fill="white"/>
<path d="M259.642 115.247L259.359 115.269L260.952 136.013L261.235 135.992L259.642 115.247Z" fill="white"/>
<path d="M245.791 165.55C245.791 165.55 255.644 170.867 270.494 163.034L265.958 160.588L273.542 161.297C279.355 157.647 285.841 152.011 292.716 143.328L290.98 142.406L293.283 142.619C294.453 141.131 295.623 139.571 296.792 137.905C296.792 137.905 292.575 137.303 286.514 137.693L283.182 141.733L284.281 137.87C271.806 139.04 253.482 144.568 245.791 165.55Z" fill="url(#paint1_linear_101_9087)"/>
<path d="M296.693 137.715L244.985 164.416L245.132 164.699L296.839 137.999L296.693 137.715Z" fill="white"/>
<path d="M283.337 144.807L283.293 145.087L290.436 146.204L290.48 145.924L283.337 144.807Z" fill="white"/>
<path d="M279.789 146.566L279.725 146.843L288.01 148.77L288.074 148.494L279.789 146.566Z" fill="white"/>
<path d="M258.586 147.723L258.338 147.439C262.732 143.93 268.013 141.272 274.038 139.571L274.145 139.925C268.19 141.591 262.945 144.214 258.586 147.723Z" fill="url(#paint2_linear_101_9087)"/>
<path d="M255.857 52.1707V181.995C255.857 183.803 254.403 185.291 252.56 185.291H188.765C186.957 185.291 185.469 183.838 185.469 181.995V52.1707C185.469 50.3632 186.922 48.8746 188.765 48.8746H252.56C254.403 48.8746 255.857 50.3632 255.857 52.1707Z" fill="url(#paint3_linear_101_9087)"/>
<path d="M252.809 52.1707V181.995C252.809 183.803 251.355 185.291 249.512 185.291H185.717C183.909 185.291 182.421 183.838 182.421 181.995V52.1707C182.421 50.3632 183.874 48.8746 185.717 48.8746H249.512C251.355 48.8746 252.809 50.3632 252.809 52.1707Z" fill="url(#paint4_linear_101_9087)"/>
<path d="M247.988 65.6389V168.527C247.988 170.618 246.393 172.32 244.444 172.32H190.82C188.871 172.32 187.276 170.618 187.276 168.527V65.6389C187.276 63.5478 188.871 61.8466 190.82 61.8466H244.409C246.393 61.8466 247.988 63.5478 247.988 65.6389Z" fill="#E1EAFF"/>
<path d="M226.51 55.1481H208.789C208.612 55.1481 208.47 55.0063 208.47 54.8291C208.47 54.6519 208.612 54.5101 208.789 54.5101H226.51C226.688 54.5101 226.829 54.6519 226.829 54.8291C226.829 55.0063 226.688 55.1481 226.51 55.1481Z" fill="url(#paint5_linear_101_9087)"/>
<path d="M233.351 138.153H201.914C199.964 138.153 198.369 136.558 198.369 134.609V133.262C198.369 131.313 199.964 129.718 201.914 129.718H233.351C235.3 129.718 236.895 131.313 236.895 133.262V134.609C236.86 136.558 235.3 138.153 233.351 138.153Z" fill="url(#paint6_linear_101_9087)"/>
<path d="M245.118 173.064H190.147C187.737 173.064 185.752 171.008 185.752 168.527V65.6388C185.752 63.1224 187.737 61.1022 190.147 61.1022H245.118C247.528 61.1022 249.512 63.1578 249.512 65.6388V168.527C249.512 171.044 247.528 173.064 245.118 173.064ZM190.147 62.5907C188.552 62.5907 187.276 63.9375 187.276 65.6388V168.527C187.276 170.193 188.552 171.575 190.147 171.575H245.118C246.712 171.575 247.988 170.228 247.988 168.527V65.6388C247.988 63.973 246.712 62.5907 245.118 62.5907H190.147Z" fill="white"/>
<path d="M192.238 116.392H243.027C244.09 116.392 244.94 115.541 244.94 114.478V81.7648C244.94 80.7016 244.09 79.851 243.027 79.851H192.238C191.175 79.851 190.324 80.7016 190.324 81.7648V114.478C190.36 115.541 191.21 116.392 192.238 116.392Z" fill="url(#paint7_linear_101_9087)"/>
<path d="M204.076 104.98H194.932C194.648 104.98 194.4 104.731 194.4 104.448V102.676C194.4 102.392 194.648 102.144 194.932 102.144H204.076C204.359 102.144 204.607 102.392 204.607 102.676V104.448C204.607 104.767 204.359 104.98 204.076 104.98Z" fill="white"/>
<path d="M216.197 104.98H207.053C206.769 104.98 206.521 104.731 206.521 104.448V102.676C206.521 102.392 206.769 102.144 207.053 102.144H216.197C216.48 102.144 216.728 102.392 216.728 102.676V104.448C216.693 104.767 216.48 104.98 216.197 104.98Z" fill="white"/>
<path d="M228.283 104.98H219.138C218.855 104.98 218.607 104.731 218.607 104.448V102.676C218.607 102.392 218.855 102.144 219.138 102.144H228.283C228.566 102.144 228.814 102.392 228.814 102.676V104.448C228.779 104.767 228.566 104.98 228.283 104.98Z" fill="white"/>
<path d="M240.368 104.98H231.224C230.941 104.98 230.693 104.731 230.693 104.448V102.676C230.693 102.392 230.941 102.144 231.224 102.144H240.368C240.652 102.144 240.9 102.392 240.9 102.676V104.448C240.865 104.767 240.652 104.98 240.368 104.98Z" fill="white"/>
<path d="M240.262 110.438H228.212C227.857 110.438 227.574 110.154 227.574 109.8V108.276C227.574 107.921 227.857 107.638 228.212 107.638H240.262C240.616 107.638 240.9 107.921 240.9 108.276V109.8C240.865 110.154 240.581 110.438 240.262 110.438Z" fill="white"/>
<path d="M196.739 90.661V87.0105C196.739 86.1953 197.377 85.5574 198.192 85.5574H205.316C206.131 85.5574 206.769 86.1953 206.769 87.0105V90.661C206.769 91.4762 206.131 92.1142 205.316 92.1142H198.192C197.413 92.1142 196.739 91.4762 196.739 90.661ZM198.192 85.9472C197.59 85.9472 197.129 86.408 197.129 87.0105V90.661C197.129 91.2636 197.59 91.7243 198.192 91.7243H205.316C205.919 91.7243 206.379 91.2636 206.379 90.661V87.0105C206.379 86.408 205.919 85.9472 205.316 85.9472H198.192Z" fill="white"/>
<path d="M239.199 88.3218C239.199 88.2864 239.199 88.2155 239.234 88.18C240.829 86.5852 240.829 83.9624 239.234 82.3675C239.163 82.2967 239.163 82.1903 239.234 82.1194C239.305 82.0486 239.411 82.0486 239.482 82.1194C241.219 83.8561 241.219 86.6915 239.482 88.4281C239.411 88.499 239.305 88.499 239.234 88.4281C239.199 88.3927 239.199 88.3573 239.199 88.3218Z" fill="white"/>
<path d="M238.313 83.289C238.313 83.2536 238.313 83.1827 238.348 83.1473C238.419 83.0764 238.525 83.0764 238.596 83.1473C239.766 84.3169 239.766 86.2662 238.596 87.4358C238.525 87.5067 238.419 87.5067 238.348 87.4358C238.277 87.3649 238.277 87.2586 238.348 87.1877C239.376 86.1599 239.376 84.4586 238.348 83.3954C238.313 83.3599 238.313 83.3245 238.313 83.289Z" fill="white"/>
<path d="M237.462 86.3724C237.462 86.337 237.462 86.2661 237.497 86.2306C238.029 85.699 238.029 84.8484 237.497 84.3168C237.427 84.2459 237.427 84.1396 237.497 84.0687C237.568 83.9978 237.675 83.9978 237.746 84.0687C238.419 84.7421 238.419 85.8053 237.746 86.4787C237.675 86.5496 237.568 86.5496 237.497 86.4787C237.462 86.4787 237.462 86.4078 237.462 86.3724Z" fill="white"/>
<path d="M253.092 156.3H252.525V52.1708C252.525 50.5051 251.178 49.1583 249.512 49.1583H185.717C184.051 49.1583 182.704 50.5051 182.704 52.1708V141.343H182.172V52.1708C182.172 50.1861 183.767 48.5912 185.752 48.5912H249.548C251.533 48.5912 253.127 50.1861 253.127 52.1708V156.3H253.092Z" fill="url(#paint8_linear_101_9087)"/>
<path d="M193.053 185.539H185.717C183.732 185.539 182.137 183.944 182.137 181.96V166.932H182.704V181.96C182.704 183.625 184.051 184.972 185.717 184.972H193.053V185.539Z" fill="url(#paint9_linear_101_9087)"/>
<path d="M222.186 184.972H215.382V185.539H222.186V184.972Z" fill="url(#paint10_linear_101_9087)"/>
<path d="M257.31 184.689C257.31 185.681 250.115 186.461 241.219 186.461C232.323 186.461 225.128 185.646 225.128 184.689C225.128 184.653 225.128 184.653 225.128 184.618V179.798H257.31V184.583C257.31 184.653 257.31 184.653 257.31 184.689Z" fill="#F49B51"/>
<path d="M241.219 181.641C250.106 181.641 257.31 180.847 257.31 179.869C257.31 178.89 250.106 178.096 241.219 178.096C232.332 178.096 225.128 178.89 225.128 179.869C225.128 180.847 232.332 181.641 241.219 181.641Z" fill="#FCC659"/>
<path d="M261.102 178.876C261.102 179.869 253.907 180.648 245.011 180.648C236.115 180.648 228.921 179.833 228.921 178.876C228.921 178.841 228.921 178.841 228.921 178.805V174.021H261.067V178.805C261.102 178.841 261.102 178.876 261.102 178.876Z" fill="#F49B51"/>
<path d="M245.011 175.828C253.898 175.828 261.102 175.035 261.102 174.056C261.102 173.077 253.898 172.284 245.011 172.284C236.125 172.284 228.921 173.077 228.921 174.056C228.921 175.035 236.125 175.828 245.011 175.828Z" fill="#FCC659"/>
<path d="M257.31 173.099C257.31 174.092 250.115 174.871 241.219 174.871C232.323 174.871 225.128 174.056 225.128 173.099C225.128 173.064 225.128 173.064 225.128 173.028V168.208H257.31V172.993C257.31 173.064 257.31 173.064 257.31 173.099Z" fill="#F49B51"/>
<path d="M241.219 170.051C250.106 170.051 257.31 169.258 257.31 168.279C257.31 167.3 250.106 166.507 241.219 166.507C232.332 166.507 225.128 167.3 225.128 168.279C225.128 169.258 232.332 170.051 241.219 170.051Z" fill="#FCC659"/>
<path d="M241.219 186.673C234.662 186.673 224.951 186.142 224.951 184.689H225.341C225.341 185.256 230.799 186.284 241.219 186.284C241.609 186.284 241.963 186.284 242.353 186.284V186.673C241.999 186.638 241.609 186.673 241.219 186.673Z" fill="url(#paint11_linear_101_9087)"/>
<path d="M247.599 186.496L247.563 186.106C249.193 186.035 250.682 185.929 251.993 185.787L252.029 186.177C250.753 186.319 249.229 186.425 247.599 186.496Z" fill="url(#paint12_linear_101_9087)"/>
<path d="M234.875 180.436C228.85 179.869 228.85 179.124 228.85 178.876H229.239C229.239 179.053 230.267 179.621 234.946 180.046L234.875 180.436Z" fill="url(#paint13_linear_101_9087)"/>
<path d="M245.118 180.825C243.31 180.825 241.538 180.79 239.837 180.719V180.329C242.849 180.436 246.216 180.471 249.335 180.365V180.755C247.953 180.825 246.535 180.825 245.118 180.825Z" fill="url(#paint14_linear_101_9087)"/>
<path d="M253.34 180.577L253.305 180.188C255.006 180.081 256.53 179.94 257.735 179.762L257.806 180.152C256.565 180.329 255.041 180.471 253.34 180.577Z" fill="url(#paint15_linear_101_9087)"/>
<path d="M230.409 169.803C225.057 169.271 225.057 168.563 225.057 168.314H225.447C225.447 168.314 225.589 168.952 230.48 169.449L230.409 169.803Z" fill="url(#paint16_linear_101_9087)"/>
<path d="M241.325 170.264C239.482 170.264 237.675 170.228 235.938 170.157V169.768C237.639 169.838 239.447 169.874 241.29 169.874C244.586 169.874 247.776 169.768 250.469 169.555L250.505 169.945C247.811 170.157 244.621 170.264 241.325 170.264Z" fill="url(#paint17_linear_101_9087)"/>
<path d="M263.016 167.287C263.016 168.279 255.821 169.059 246.925 169.059C238.029 169.059 230.834 168.244 230.834 167.287C230.834 167.251 230.834 167.251 230.834 167.216V162.396H262.98V167.18C263.016 167.251 263.016 167.251 263.016 167.287Z" fill="#F49B51"/>
<path d="M246.925 164.239C255.812 164.239 263.016 163.445 263.016 162.467C263.016 161.488 255.812 160.695 246.925 160.695C238.039 160.695 230.834 161.488 230.834 162.467C230.834 163.445 238.039 164.239 246.925 164.239Z" fill="#FCC659"/>
<path d="M260.003 162.467C260.003 163.14 254.155 163.672 246.89 163.672C239.66 163.672 233.776 163.14 233.776 162.467C233.776 161.793 239.624 161.262 246.89 161.262C254.155 161.262 260.003 161.829 260.003 162.467Z" fill="#F49B51"/>
<path d="M205.21 153.925C196.243 153.677 188.765 160.765 188.517 169.732C188.268 178.699 195.357 186.177 204.324 186.425C213.291 186.674 220.769 179.585 221.017 170.618C221.23 161.616 214.177 154.173 205.21 153.925ZM217.827 170.512C217.721 173.985 216.268 177.246 213.751 179.656C211.199 182.066 207.903 183.342 204.395 183.236C197.2 183.023 191.494 177.033 191.671 169.803C191.777 166.33 193.195 163.069 195.747 160.659C198.192 158.355 201.382 157.079 204.714 157.079C204.82 157.079 204.962 157.079 205.068 157.079C212.156 157.257 217.792 163.105 217.792 170.158C217.827 170.264 217.827 170.37 217.827 170.512Z" fill="#FCC659"/>
<path d="M217.827 170.157C217.827 170.264 217.827 170.406 217.827 170.512C217.721 173.985 216.268 177.246 213.751 179.656C211.199 182.066 207.903 183.342 204.395 183.236C197.2 183.023 191.494 177.033 191.671 169.803C191.777 166.33 193.195 163.069 195.747 160.659C198.192 158.355 201.382 157.079 204.714 157.079C204.82 157.079 204.962 157.079 205.068 157.079C212.192 157.257 217.827 163.105 217.827 170.157Z" fill="#F49B51"/>
<path d="M203.934 180.152V177.707C202.516 177.671 201.063 177.246 200.212 176.643L200.779 175.013C201.666 175.58 202.906 176.076 204.288 176.076C206.025 176.076 207.194 175.084 207.194 173.702C207.194 172.355 206.238 171.54 204.43 170.795C201.949 169.838 200.425 168.704 200.425 166.578C200.425 164.558 201.878 163.034 204.111 162.644V160.198H205.635V162.573C207.088 162.608 208.081 162.998 208.789 163.423L208.187 165.018C207.691 164.735 206.663 164.203 205.103 164.203C203.225 164.203 202.516 165.337 202.516 166.294C202.516 167.57 203.402 168.208 205.529 169.059C208.045 170.087 209.321 171.363 209.321 173.524C209.321 175.438 207.974 177.246 205.458 177.671V180.188H203.934V180.152Z" fill="#FCC659"/>
<path d="M217.295 166.861C217.26 166.755 217.225 166.649 217.225 166.542C216.197 162.963 213.645 160.021 210.278 158.426L210.42 158.107C213.893 159.738 216.48 162.75 217.544 166.436C217.579 166.578 217.614 166.684 217.65 166.79L217.295 166.861Z" fill="url(#paint18_linear_101_9087)"/>
<path d="M210.278 158.462C207.549 157.186 204.466 156.902 201.595 157.646L201.488 157.292C204.466 156.512 207.655 156.796 210.42 158.107L210.278 158.462Z" fill="url(#paint19_linear_101_9087)"/>
<path d="M216.232 176.821L215.913 176.643C216.799 175.155 217.331 173.56 217.579 171.894L217.934 171.93C217.721 173.666 217.118 175.297 216.232 176.821Z" fill="url(#paint20_linear_101_9087)"/>
<path d="M215.346 158.072C214.106 156.973 212.688 156.087 211.164 155.414L211.306 155.059C212.865 155.732 214.318 156.654 215.594 157.788L215.346 158.072Z" fill="url(#paint21_linear_101_9087)"/>
<path d="M213.929 183.803L213.716 183.484C218.004 180.577 220.663 175.757 220.804 170.583C220.875 167.358 220.025 164.239 218.323 161.545L218.642 161.332C220.415 164.097 221.301 167.287 221.194 170.583C221.052 175.899 218.323 180.826 213.929 183.803Z" fill="url(#paint22_linear_101_9087)"/>
<path d="M245.153 88.818H244.763V81.5878C244.763 80.6308 243.983 79.8866 243.062 79.8866H210.703V79.4967H243.062C244.231 79.4967 245.153 80.4182 245.153 81.5878V88.818Z" fill="url(#paint23_linear_101_9087)"/>
<path d="M245.153 92.6102H244.763V96.7924H245.153V92.6102Z" fill="url(#paint24_linear_101_9087)"/>
<path d="M206.521 79.4967H199.929V79.8866H206.521V79.4967Z" fill="url(#paint25_linear_101_9087)"/>
<path d="M88.5699 40.3332C91.1926 38.2067 93.6026 35.6194 94.7722 32.4296C95.9064 29.2398 95.5165 25.3412 93.1065 22.9666C91.1571 21.0173 88.18 20.3793 85.451 20.6628C82.7219 20.9818 80.1346 22.1514 77.6891 23.4273C73.0108 25.8728 45.7558 42.7433 55.2189 48.3077C64.3629 53.6594 81.5169 46.0748 88.5699 40.3332Z" fill="#F3FAFF"/>
<path d="M25.9436 85.3804L25.6246 85.1677C29.4524 78.7527 35.6547 74.3933 45.1178 71.4871L45.2241 71.8415C35.8674 74.7832 29.7359 79.0717 25.9436 85.3804Z" fill="url(#paint26_linear_101_9087)"/>
<path d="M21.0171 87.8966L20.6627 87.7548C25.6246 74.1096 38.3483 69.7502 50.1505 67.2693L50.2214 67.6237C38.5255 70.1047 25.9082 74.4286 21.0171 87.8966Z" fill="url(#paint27_linear_101_9087)"/>
<path d="M192.77 8.47085C184.051 4.00515 176.679 2.80012 169.555 4.67855L169.449 4.32413C176.679 2.41025 184.157 3.61529 192.947 8.11643L192.77 8.47085Z" fill="url(#paint28_linear_101_9087)"/>
<path d="M199.326 8.96701C189.225 2.55199 177.175 -3.15419 164.274 3.04818L164.097 2.69376C177.175 -3.61494 189.332 2.16213 199.504 8.61259L199.326 8.96701Z" fill="url(#paint29_linear_101_9087)"/>
<path d="M151.799 26.2628C142.832 26.0147 135.353 33.1031 135.105 42.07C134.857 51.0368 141.946 58.5151 150.912 58.7632C159.879 59.0113 167.358 51.9229 167.606 42.956C167.818 33.9892 160.765 26.5109 151.799 26.2628ZM164.416 42.8497C164.31 46.323 162.856 49.5837 160.34 51.9938C157.824 54.4038 154.492 55.6797 150.983 55.5734C143.789 55.3608 138.082 49.371 138.26 42.1409C138.366 38.6675 139.784 35.4068 142.336 32.9968C144.816 30.6931 147.971 29.4171 151.338 29.4171C151.444 29.4171 151.586 29.4171 151.692 29.4171C158.781 29.5943 164.416 35.4423 164.416 42.4953C164.416 42.6016 164.416 42.7434 164.416 42.8497Z" fill="#FCC659"/>
<path d="M164.416 42.4951C164.416 42.6015 164.416 42.7432 164.416 42.8495C164.31 46.3229 162.856 49.5835 160.34 51.9936C157.788 54.4037 154.492 55.6796 150.983 55.5733C143.789 55.3606 138.082 49.3709 138.26 42.1407C138.366 38.6674 139.784 35.4067 142.335 32.9966C144.816 30.6929 147.971 29.417 151.338 29.417C151.444 29.417 151.586 29.417 151.692 29.417C158.781 29.6296 164.416 35.4421 164.416 42.4951Z" fill="#F49B51"/>
<path d="M150.523 52.4898V50.0443C149.105 50.0088 147.652 49.5835 146.801 48.981L147.368 47.3507C148.254 47.9178 149.495 48.4139 150.877 48.4139C152.614 48.4139 153.783 47.4216 153.783 46.0393C153.783 44.6925 152.826 43.8774 151.019 43.1331C148.538 42.1761 147.014 41.042 147.014 38.9155C147.014 36.8953 148.467 35.3713 150.7 34.9814V32.5359H152.224V34.9105C153.677 34.946 154.669 35.3358 155.378 35.7611L154.776 37.356C154.28 37.0725 153.252 36.5408 151.692 36.5408C149.814 36.5408 149.105 37.675 149.105 38.6319C149.105 39.9078 149.991 40.5458 152.118 41.3964C154.634 42.4242 155.91 43.7001 155.91 45.8621C155.91 47.776 154.563 49.5835 152.047 50.0088V52.5252H150.523V52.4898Z" fill="#FCC659"/>
<path d="M163.92 39.2699C163.884 39.1636 163.849 39.0573 163.813 38.951C162.786 35.3713 160.269 32.4296 156.867 30.8347L157.009 30.5157C160.482 32.1461 163.069 35.1587 164.132 38.8446C164.168 38.951 164.203 39.0927 164.239 39.1991L163.92 39.2699Z" fill="url(#paint30_linear_101_9087)"/>
<path d="M156.867 30.8349C154.138 29.559 151.054 29.2755 148.148 30.0198L148.042 29.6654C151.019 28.8856 154.209 29.1692 156.973 30.4805L156.867 30.8349Z" fill="url(#paint31_linear_101_9087)"/>
<path d="M138.614 45.8267C137.728 42.3889 138.224 38.8447 139.996 35.7966L140.315 35.9738C138.579 38.951 138.082 42.4243 138.969 45.7559L138.614 45.8267Z" fill="url(#paint32_linear_101_9087)"/>
<path d="M161.935 30.7284C160.694 29.6297 159.277 28.7436 157.753 28.0702L157.895 27.7158C159.454 28.3892 160.907 29.3107 162.183 30.4449L161.935 30.7284Z" fill="url(#paint33_linear_101_9087)"/>
<path d="M160.517 56.424L160.305 56.105C164.593 53.1988 167.251 48.3787 167.393 43.2041C167.464 39.9789 166.613 36.86 164.912 34.1664L165.231 33.9537C167.003 36.7182 167.889 39.908 167.783 43.2041C167.641 48.5559 164.912 53.4823 160.517 56.424Z" fill="url(#paint34_linear_101_9087)"/>
<path d="M149.105 77.4766L150.558 71.3096L156.441 68.8641L157.505 77.4766C157.505 77.4766 156.619 83.0764 151.232 85.0612C145.773 87.0814 149.105 77.4766 149.105 77.4766Z" fill="#FCB47E"/>
<path d="M146.766 61.2795C146.766 61.2795 144.675 72.8691 148.077 72.9754C151.48 73.0463 154.28 71.7704 154.953 70.9552C155.662 70.1755 156.158 66.3477 156.158 66.3477C156.158 66.3477 156.583 61.3858 154.492 60.4289C152.437 59.4365 147.9 57.8062 146.766 61.2795Z" fill="#FCB47E"/>
<path d="M157.965 68.6514C157.292 69.8919 156.654 71.0969 156.654 71.0969C155.662 70.9551 154.563 69.7147 154.35 68.616C154.35 68.616 151.231 68.3324 151.125 64.4692C151.125 64.4692 145.702 64.5047 145.561 59.7909C145.419 55.0771 150.842 56.2821 152.649 57.7352C154.457 59.1884 155.52 59.8972 158.32 60.8187C161.297 61.7756 158.816 67.0565 157.965 68.6514Z" fill="url(#paint35_linear_101_9087)"/>
<path d="M155.414 180.613L154.74 173.773H147.51L149.07 180.436C149.07 180.436 149.92 182.669 152.33 182.598C154.705 182.491 155.414 180.613 155.414 180.613Z" fill="#FCB47E"/>
<path d="M191.068 159.206L185.504 155.166L180.719 160.553L187.843 164.168C187.843 164.168 188.729 164.345 190.501 162.786C192.273 161.262 191.068 159.206 191.068 159.206Z" fill="#FCB47E"/>
<path d="M161.51 175.899C157.328 177.494 151.976 177.033 146.199 175.899C146.022 175.509 145.88 175.084 145.703 174.694C134.715 146.908 142.477 106.504 142.477 106.504H159.773L159.383 119.865C158.639 123.374 158.107 126.954 157.753 130.498C155.591 153.783 161.51 175.899 161.51 175.899Z" fill="url(#paint36_linear_101_9087)"/>
<path d="M161.51 175.899C161.226 175.368 151.373 155.343 154.315 132.766L157.434 135.283C156.406 156.406 161.368 175.368 161.51 175.899Z" fill="url(#paint37_linear_101_9087)"/>
<path d="M189.474 151.94C187.879 156.406 186.177 159.844 184.37 161.864C183.519 162.786 182.633 163.424 181.712 163.707C179.054 162.36 176.644 160.872 174.411 159.312C174.092 159.1 173.808 158.887 173.525 158.674C173.135 158.391 172.745 158.107 172.355 157.788C172.178 157.646 172.001 157.505 171.859 157.398C171.504 157.115 171.185 156.867 170.866 156.583C170.583 156.335 170.299 156.087 170.016 155.839C168.527 154.563 167.145 153.216 165.869 151.869C165.763 151.728 165.621 151.621 165.515 151.48C165.444 151.373 165.338 151.302 165.267 151.196C147.829 131.809 151.019 106.504 151.019 106.504H166.188C167.429 130.781 189.474 151.94 189.474 151.94Z" fill="url(#paint38_linear_101_9087)"/>
<path d="M169.52 53.9784C168.208 53.0215 167.322 52.5253 167.11 52.3481C166.826 52.1354 166.755 51.6747 166.436 51.1785C165.692 50.0443 164.168 48.0241 162.573 47.4571C162.36 47.3862 162.219 47.5988 162.431 47.8469C162.821 48.2722 163.565 48.9102 163.459 48.9811C163.211 49.1937 161.474 47.1026 161.014 47.5988C160.659 47.9532 163.14 49.8317 163.034 49.938C162.821 50.1861 160.943 48.0596 160.517 48.5203C160.092 48.9811 162.325 50.1507 162.254 50.3633C162.148 50.576 160.588 49.2646 160.269 49.5836C159.809 50.0443 162.608 51.781 162.538 52.0291C162.431 52.4544 160.978 51.5683 160.765 52.0645C160.553 52.5253 162.608 53.4113 162.963 53.5885C163.849 54.0493 164.487 53.8366 165.231 54.9708C165.621 55.5733 166.011 56.1758 166.401 56.8138L169.52 53.9784Z" fill="#FCB47E"/>
<path d="M133.794 55.3606C134.964 54.2974 135.814 53.6594 136.027 53.4822C136.275 53.2695 136.275 52.7734 136.558 52.2417C137.161 51.0367 138.508 48.8747 140.032 48.1304C140.244 48.0241 140.422 48.2368 140.209 48.4849C139.855 48.9456 139.217 49.6545 139.323 49.7253C139.571 49.9025 141.095 47.6697 141.627 48.095C142.017 48.414 139.748 50.5405 139.855 50.6468C140.067 50.8595 141.733 48.5557 142.229 48.9811C142.725 49.3709 140.599 50.824 140.705 51.0013C140.811 51.1785 142.229 49.7253 142.584 50.0089C143.08 50.3987 140.493 52.4544 140.599 52.7025C140.741 53.0923 142.087 52.1 142.371 52.5607C142.619 52.986 140.705 54.0847 140.315 54.3328C139.465 54.8644 138.827 54.7581 138.224 55.9277C137.905 56.5657 137.586 57.2391 137.267 57.877L133.794 55.3606Z" fill="#FCB47E"/>
<path d="M166.294 108.488C164.948 109.339 162.573 110.757 159.631 111.962C157.009 113.025 153.961 113.982 150.771 114.265C147.687 114.549 144.498 114.194 141.52 112.741C141.698 111.324 141.91 110.119 142.052 109.162C144.781 110.615 147.758 111.217 150.735 111.324C153.854 111.43 156.938 110.934 159.702 110.189C162.219 109.516 164.487 108.701 166.224 107.921C166.259 108.098 166.259 108.311 166.294 108.488Z" fill="url(#paint39_linear_101_9087)"/>
<path d="M138.685 106.645V87.542C138.685 87.542 121.531 84.6358 124.898 68.0134C127.025 57.4517 134.574 53.6948 134.574 53.6948L138.756 57.0618C138.756 57.0618 129.86 70.6361 141.556 75.3499C141.556 75.3499 148.148 75.1373 149.849 76.9803C149.849 76.9803 153.606 79.9929 157.576 74.9955C157.576 74.9955 161.616 73.4361 165.054 74.3576C167.889 75.1373 171.54 68.0843 164.77 56.1758L169.023 52.348C169.023 52.348 193.904 76.2714 169.52 88.1091L168.173 107.177C168.137 107.177 149.282 117.88 138.685 106.645Z" fill="url(#paint40_linear_101_9087)"/>
<path d="M153.606 69.3247C154.35 69.3247 154.953 68.7217 154.953 67.9779C154.953 67.2341 154.35 66.6311 153.606 66.6311C152.862 66.6311 152.259 67.2341 152.259 67.9779C152.259 68.7217 152.862 69.3247 153.606 69.3247Z" fill="#FCB47E"/>
<path d="M157.292 139.996C154.102 133.794 152.011 126.918 151.09 119.546L151.373 119.511C152.295 126.847 154.386 133.723 157.54 139.855L157.292 139.996Z" fill="white"/>
<path d="M165.444 118.129C160.659 118.129 159.1 113.946 159.1 113.911L159.383 113.805C159.383 113.84 160.907 117.951 165.692 117.81V118.129C165.586 118.129 165.515 118.129 165.444 118.129Z" fill="white"/>
<path d="M152.259 79.4967C152.153 79.4967 152.082 79.4967 151.976 79.4967C149.814 79.284 148.715 76.7676 148.68 76.6613L148.963 76.555C148.963 76.5904 150.026 79.0005 152.011 79.2131C153.677 79.3549 155.52 77.9372 157.469 74.9601L157.717 75.1373C155.804 78.0081 153.961 79.4967 152.259 79.4967Z" fill="url(#paint41_linear_101_9087)"/>
<path d="M138.685 87.5776C138.685 87.5776 121.531 84.6713 124.898 68.049C125.075 67.1275 125.288 66.2769 125.571 65.4617C125.607 65.4263 125.642 65.3554 125.713 65.3199C125.43 69.0768 125.288 72.3375 126.954 75.9171C130.392 83.3245 138.933 87.5421 138.685 87.5776Z" fill="url(#paint42_linear_101_9087)"/>
<path d="M169.52 88.1091L168.173 107.177C168.173 107.177 164.239 109.41 158.993 110.757C159.915 110.048 163.743 104.2 164.38 101.223C165.55 95.9064 165.692 92.8583 165.834 87.1876C171.504 85.699 177.99 80.7017 180.223 72.3728C180.684 78.079 178.238 83.856 169.52 88.1091Z" fill="url(#paint43_linear_101_9087)"/>
<path d="M151.373 109.8C151.302 109.8 151.302 109.8 151.302 109.8V109.481C151.373 109.481 159.348 109.587 166.259 105.369L166.401 105.617C159.808 109.658 152.259 109.8 151.373 109.8Z" fill="url(#paint44_linear_101_9087)"/>
<path d="M184.37 161.9C183.519 162.821 182.633 163.459 181.712 163.743C179.054 162.396 176.644 160.907 174.411 159.348C174.092 159.135 173.808 158.922 173.525 158.71C173.135 158.426 172.745 158.143 172.355 157.824C172.178 157.682 172.001 157.54 171.859 157.434C171.504 157.15 171.185 156.902 170.866 156.619C170.583 156.371 170.299 156.122 170.016 155.874C168.527 154.598 167.145 153.252 165.869 151.905C165.763 151.763 165.621 151.657 165.515 151.515C165.444 151.409 165.337 151.338 165.267 151.231C175.58 159.808 182.208 161.545 184.37 161.9Z" fill="url(#paint45_linear_101_9087)"/>
<path d="M187.241 151.338C179.94 146.588 175.297 138.011 175.261 137.941L175.509 137.799C175.545 137.87 180.152 146.376 187.418 151.09L187.241 151.338Z" fill="white"/>
<path d="M156.335 186.071H139.925C139.358 186.071 138.898 185.575 138.933 185.008C138.933 185.008 138.933 185.008 138.933 184.972C138.933 184.831 138.969 184.724 138.969 184.582C139.039 184.157 139.146 183.696 139.358 183.448C140.138 182.42 141.662 181.96 144.356 180.861C146.057 180.188 147.475 179.302 148.113 178.876C148.325 178.735 148.573 178.77 148.751 178.947C152.011 182.137 153.996 181.464 154.598 180.152C155.059 179.16 155.697 179.372 155.874 179.656C156.406 180.578 156.725 183.271 156.831 184.582C156.831 184.724 156.867 184.866 156.867 184.972C156.902 185.22 156.902 185.362 156.902 185.362C156.973 185.752 156.69 186.071 156.335 186.071Z" fill="url(#paint46_linear_101_9087)"/>
<path d="M145.277 182.633C144.108 182.066 144.285 180.861 144.285 180.861L144.568 180.897C144.568 180.932 144.426 181.924 145.419 182.385L145.277 182.633Z" fill="white"/>
<path d="M143.824 183.129C142.761 182.527 142.867 181.464 142.867 181.428L143.151 181.464C143.151 181.499 143.044 182.385 143.966 182.881L143.824 183.129Z" fill="white"/>
<path d="M153.11 182.385C152.011 182.385 151.019 181.889 150.983 181.889L151.125 181.641C151.16 181.641 153.641 182.917 154.917 181.322L155.13 181.499C154.598 182.172 153.819 182.385 153.11 182.385Z" fill="white"/>
<path d="M154.882 184.795H145.313V185.079H154.882V184.795Z" fill="white"/>
<path d="M144.072 184.795H141.804V185.079H144.072V184.795Z" fill="white"/>
<path d="M195.995 160.198L187.985 174.517C187.701 175.013 187.063 175.19 186.567 174.871C186.461 174.801 186.355 174.73 186.248 174.659C185.894 174.375 185.575 174.092 185.433 173.773C184.901 172.603 185.256 171.044 185.61 168.173C185.858 166.365 185.788 164.7 185.717 163.92C185.681 163.672 185.858 163.459 186.106 163.388C190.466 162.112 190.856 160.021 190.005 158.887C189.367 158.001 189.863 157.54 190.182 157.54C191.246 157.505 193.727 158.568 194.967 159.1C195.109 159.171 195.215 159.206 195.321 159.242C195.534 159.348 195.676 159.419 195.676 159.419C195.995 159.49 196.137 159.879 195.995 160.198Z" fill="url(#paint47_linear_101_9087)"/>
<path d="M186.071 168.314C185.787 168.314 185.61 168.279 185.575 168.279L185.646 167.995C185.646 167.995 186.815 168.244 187.418 167.464L187.63 167.641C187.205 168.208 186.532 168.314 186.071 168.314Z" fill="white"/>
<path d="M185.929 169.874C185.646 169.874 185.469 169.838 185.433 169.838L185.504 169.555C185.504 169.555 186.674 169.803 187.276 169.023L187.489 169.201C187.063 169.768 186.39 169.874 185.929 169.874Z" fill="white"/>
<path d="M190.005 162.821L189.828 162.608C189.863 162.573 191.954 160.765 190.962 158.958L191.21 158.816C192.309 160.801 190.005 162.786 190.005 162.821Z" fill="white"/>
<path d="M193.951 161.167L189.366 169.566L189.615 169.702L194.2 161.303L193.951 161.167Z" fill="white"/>
<path d="M188.771 170.659L187.684 172.65L187.933 172.786L189.02 170.795L188.771 170.659Z" fill="white"/>
<path d="M141.52 75.5627C141.379 75.5273 137.87 74.4994 136.062 71.1324C134.822 68.8287 134.68 65.9933 135.672 62.7327L136.027 62.839C135.034 65.9933 135.176 68.7224 136.381 70.9552C138.118 74.1805 141.591 75.1728 141.627 75.2083L141.52 75.5627Z" fill="url(#paint48_linear_101_9087)"/>
<path d="M150.381 64.6819C149.07 64.6819 146.979 64.1148 145.88 62.768C145.206 61.9174 144.639 60.4288 145.88 58.1605L146.128 58.3023C145.206 60.039 145.206 61.4921 146.092 62.6262C147.368 64.1857 150.027 64.6464 151.054 64.3629L151.125 64.6464C150.948 64.6464 150.7 64.6819 150.381 64.6819Z" fill="url(#paint49_linear_101_9087)"/>
<path d="M149.176 64.9654C148.254 64.9654 147.156 64.7173 145.986 63.9375L146.128 63.6895C149.247 65.7451 151.621 63.973 151.657 63.9375L151.834 64.1502C151.799 64.1856 150.771 64.9654 149.176 64.9654Z" fill="url(#paint50_linear_101_9087)"/>
<path d="M12.4402 112.033C12.4402 112.139 12.4402 112.245 12.4402 112.352C12.7237 125.43 14.6022 135.531 17.2958 143.363L24.2424 147.191L18.678 146.624H18.5362C22.0096 155.166 26.4398 160.588 30.5511 164.026C33.1029 166.153 35.5484 167.499 37.5332 168.386C37.675 168.456 37.7813 168.492 37.9231 168.563C38.242 168.705 38.561 168.811 38.8445 168.917H42.5305C42.566 168.74 42.6014 168.563 42.6369 168.386C42.6723 168.279 42.6723 168.173 42.7077 168.067C42.7432 167.925 42.7786 167.783 42.8141 167.641C46.3228 150.558 40.085 137.409 32.3941 128.194C32.3586 128.159 32.3586 128.123 32.3232 128.088C29.6296 124.898 26.7942 122.169 24.1006 119.936L22.683 124.189L22.1513 118.377C17.473 114.762 13.6452 112.706 12.7237 112.21C12.5465 112.068 12.4402 112.033 12.4402 112.033Z" fill="url(#paint51_linear_101_9087)"/>
<path d="M12.3339 112.104L12.4756 112.352L20.9109 127.875L21.0526 128.123L23.3564 132.376L23.4272 132.518L30.7638 145.986V146.022L42.7077 167.996L42.885 168.315L43.1685 168.846H43.4875L43.2039 168.315L42.8141 167.57L31.0118 145.88L30.7992 145.455L12.6883 112.139L12.582 111.962L12.3339 112.104Z" fill="white"/>
<path d="M13.7047 126.455L13.575 126.666L23.3331 132.651L23.4628 132.44L13.7047 126.455Z" fill="white"/>
<path d="M13.4832 123.307L13.3535 123.519L20.9969 128.207L21.1266 127.995L13.4832 123.307Z" fill="white"/>
<path d="M31.9333 147.12L33.3156 129.222L33.0675 129.187L31.6498 147.12H31.9333Z" fill="white"/>
<path d="M44.3027 172.426C44.3027 172.426 35.7611 177.033 22.8602 170.229L26.7943 168.102L20.2375 168.705C15.2047 165.55 9.56941 160.624 3.61513 153.11L5.1037 152.295L3.11894 152.472C2.12656 151.196 1.09874 149.814 0.0709229 148.396C0.0709229 148.396 3.72146 147.865 9.00233 148.219L11.8731 151.728L10.9162 148.396C21.726 149.424 37.6041 154.244 44.3027 172.426Z" fill="url(#paint52_linear_101_9087)"/>
<path d="M0.140585 148.273L0.010498 148.525L44.8842 171.696L45.0143 171.445L0.140585 148.273Z" fill="white"/>
<path d="M11.7446 154.396L5.54663 155.364L5.58494 155.609L11.7829 154.641L11.7446 154.396Z" fill="white"/>
<path d="M14.7865 155.93L7.57166 157.609L7.62787 157.85L14.8427 156.172L14.7865 155.93Z" fill="white"/>
<path d="M118.625 180.329H40.2977C38.3838 180.329 36.8243 178.77 36.8243 176.856V123.551C36.8243 121.637 38.3838 120.078 40.2977 120.078H118.625C120.539 120.078 122.098 121.637 122.098 123.551V176.856C122.098 178.77 120.539 180.329 118.625 180.329Z" fill="url(#paint53_linear_101_9087)"/>
<path d="M119.511 126.316V174.056C119.511 176.076 117.88 177.707 115.86 177.707H110.331V125.749H41.5382C40.6876 125.749 39.9788 125.04 39.9788 124.189C39.9788 123.339 40.6876 122.63 41.5382 122.63H115.86C117.88 122.665 119.511 124.296 119.511 126.316Z" fill="url(#paint54_linear_101_9087)"/>
<path d="M98.6354 120.858C98.7063 120.964 98.7772 121.035 98.8481 121.141C100.975 123.906 101.932 127.344 101.471 130.781C101.045 134.255 99.2734 137.338 96.5089 139.465C90.8027 143.86 82.5802 142.832 78.1853 137.126C76.0588 134.361 75.1019 130.923 75.5626 127.485C75.9879 124.154 77.6537 121.141 80.241 119.015C80.3473 118.944 80.4182 118.873 80.5245 118.802C86.1244 114.443 94.1697 115.4 98.6354 120.858Z" fill="#F49B51"/>
<path d="M87.6837 139.323V136.878C86.266 136.842 84.8129 136.417 83.9623 135.814L84.5294 134.184C85.4154 134.751 86.6559 135.247 88.0381 135.247C89.7748 135.247 90.9444 134.255 90.9444 132.873C90.9444 131.526 89.9874 130.711 88.1799 129.966C85.6989 129.009 84.1749 127.875 84.1749 125.749C84.1749 123.729 85.6281 122.205 87.8609 121.815V119.369H89.3849V121.744C90.838 121.779 91.8304 122.169 92.5393 122.594L91.9368 124.189C91.4406 123.906 90.4127 123.374 88.8533 123.374C86.9749 123.374 86.266 124.508 86.266 125.465C86.266 126.741 87.1521 127.379 89.2786 128.23C91.795 129.257 93.0709 130.533 93.0709 132.695C93.0709 134.609 91.7241 136.417 89.2077 136.842V139.358H87.6837V139.323Z" fill="#FCC659"/>
<path d="M92.6102 113.415C83.9269 111.146 75.0664 116.321 72.7981 125.004C70.5298 133.688 75.7043 142.548 84.3876 144.816C93.071 147.085 101.931 141.91 104.2 133.227C106.504 124.579 101.294 115.683 92.6102 113.415ZM101.152 132.447C100.266 135.814 98.1037 138.65 95.0912 140.422C92.0786 142.194 88.5698 142.69 85.1674 141.804C78.1853 139.961 74.0031 132.837 75.8461 125.855C76.7321 122.488 78.8587 119.653 81.9067 117.88C84.8129 116.179 88.1799 115.683 91.4761 116.427C91.5824 116.463 91.7242 116.498 91.8305 116.534C98.7063 118.341 102.853 125.288 101.258 132.128C101.223 132.199 101.187 132.341 101.152 132.447Z" fill="#FCC659"/>
<path d="M64.7173 100.762C55.7504 100.514 48.2721 107.602 48.024 116.569C47.7759 125.536 54.8643 133.014 63.8312 133.262C72.798 133.51 80.2763 126.422 80.5244 117.455C80.7371 108.488 73.6841 101.01 64.7173 100.762ZM77.3346 117.349C77.2283 120.822 75.7752 124.083 73.2588 126.493C70.7424 128.903 67.4108 130.179 63.9021 130.073C56.7073 129.86 51.0012 123.87 51.1784 116.64C51.2847 113.167 52.7024 109.906 55.2542 107.496C57.6997 105.192 60.8895 103.916 64.2211 103.916C64.3274 103.916 64.4692 103.916 64.5755 103.916C71.6639 104.093 77.2992 109.941 77.2992 116.994C77.3346 117.136 77.3346 117.243 77.3346 117.349Z" fill="#FCC659"/>
<path d="M74.393 108.736C74.4639 108.843 74.5348 108.914 74.6056 109.02C76.7322 111.784 77.6891 115.222 77.2284 118.66C76.803 122.133 75.0309 125.217 72.2665 127.343C66.5603 131.738 58.3377 130.71 53.9429 125.004C51.8164 122.24 50.8594 118.802 51.3202 115.364C51.7455 112.032 53.4113 109.02 55.9985 106.893C56.1049 106.822 56.1757 106.752 56.2821 106.681C61.8819 102.321 69.9273 103.278 74.393 108.736Z" fill="#F49B51"/>
<path d="M63.4414 126.989V124.544C62.0237 124.508 60.5706 124.083 59.72 123.48L60.287 121.85C61.1731 122.417 62.4136 122.913 63.7958 122.913C65.5325 122.913 66.7021 121.921 66.7021 120.539C66.7021 119.192 65.7451 118.377 63.9376 117.632C61.4566 116.676 59.9326 115.541 59.9326 113.415C59.9326 111.395 61.3857 109.871 63.6186 109.481V107.035H65.1426V109.41C66.5957 109.445 67.5881 109.835 68.297 110.261L67.6944 111.855C67.1983 111.572 66.1704 111.04 64.611 111.04C62.7325 111.04 62.0237 112.174 62.0237 113.131C62.0237 114.407 62.9098 115.045 65.0363 115.896C67.5527 116.924 68.8286 118.2 68.8286 120.362C68.8286 122.275 67.4818 124.083 64.9654 124.508V127.025H63.4414V126.989Z" fill="#FCC659"/>
<path d="M74.8183 105.015C73.5778 103.916 72.1601 103.03 70.6361 102.357L70.7779 102.002C72.3373 102.676 73.7905 103.597 75.0664 104.731L74.8183 105.015Z" fill="url(#paint55_linear_101_9087)"/>
<path d="M73.436 130.746L73.2234 130.427C77.5119 127.521 80.17 122.701 80.3118 117.526C80.3827 114.301 79.5321 111.182 77.8309 108.488L78.1498 108.276C79.9219 111.04 80.808 114.23 80.7017 117.526C80.5599 122.842 77.8309 127.769 73.436 130.746Z" fill="url(#paint56_linear_101_9087)"/>
<path d="M76.6613 113.663C76.6258 113.557 76.5904 113.45 76.5549 113.344C75.5271 109.764 73.0107 106.823 69.6083 105.228L69.75 104.909C73.2234 106.539 75.8106 109.552 76.8739 113.238C76.9093 113.344 76.9448 113.486 76.9802 113.592L76.6613 113.663Z" fill="url(#paint57_linear_101_9087)"/>
<path d="M69.6438 105.228C66.9147 103.952 63.8313 103.668 60.9605 104.412L60.8541 104.058C63.8313 103.278 67.021 103.562 69.7855 104.873L69.6438 105.228Z" fill="url(#paint58_linear_101_9087)"/>
<path d="M75.6334 123.622L75.3145 123.445C76.2005 121.956 76.7321 120.361 76.9802 118.696L77.3347 118.731C77.0866 120.468 76.5195 122.098 75.6334 123.622Z" fill="url(#paint59_linear_101_9087)"/>
<path d="M113.167 185.327H40.2267C38.3838 185.327 36.8597 183.803 36.8597 181.96V129.187C36.8597 127.344 38.3838 125.82 40.2267 125.82H113.202C115.045 125.82 116.569 127.344 116.569 129.187V181.96C116.569 183.803 115.045 185.327 113.167 185.327Z" fill="url(#paint60_linear_101_9087)"/>
<path d="M67.2691 182.988H43.3102C41.5027 182.988 40.0496 181.535 40.0496 179.727V175.12H40.4394V179.727C40.4394 181.322 41.7508 182.633 43.3457 182.633H67.3045V182.988H67.2691Z" fill="url(#paint61_linear_101_9087)"/>
<path d="M80.4536 182.598H73.0817V182.988H80.4536V182.598Z" fill="url(#paint62_linear_101_9087)"/>
<path d="M113.379 137.799H112.989V131.455C112.989 129.86 111.678 128.549 110.083 128.549H78.7878V128.159H110.083C111.891 128.159 113.344 129.612 113.344 131.419V137.799H113.379Z" fill="url(#paint63_linear_101_9087)"/>
<path d="M73.1525 128.159H66.0995V128.549H73.1525V128.159Z" fill="url(#paint64_linear_101_9087)"/>
<path d="M40.404 161.085H40.0142V170.051H40.404V161.085Z" fill="url(#paint65_linear_101_9087)"/>
<path d="M122.027 143.363V160.163C122.027 162.289 120.326 163.991 118.199 163.991H103.668C99.0252 163.991 95.2329 160.234 95.2329 155.555C95.2329 153.216 96.1898 151.125 97.7139 149.601C99.2379 148.077 101.329 147.12 103.668 147.12H118.199C118.306 147.12 118.412 147.12 118.518 147.12C120.468 147.014 122.027 145.348 122.027 143.363Z" fill="url(#paint66_linear_101_9087)"/>
<path d="M105.649 158.38C107.185 156.844 107.185 154.353 105.649 152.817C104.113 151.28 101.622 151.28 100.085 152.817C98.5492 154.353 98.5492 156.844 100.085 158.38C101.622 159.917 104.113 159.917 105.649 158.38Z" fill="white"/>
<path d="M102.888 159.702V159.312C104.944 159.312 106.645 157.646 106.645 155.555C106.645 153.5 104.98 151.798 102.888 151.798V151.409C105.157 151.409 107 153.252 107 155.52C107 157.859 105.157 159.702 102.888 159.702Z" fill="url(#paint67_linear_101_9087)"/>
<path d="M99.1316 155.591H98.7417C98.7417 154.492 99.167 153.464 99.9467 152.684L100.23 152.968C99.5214 153.641 99.1316 154.563 99.1316 155.591Z" fill="url(#paint68_linear_101_9087)"/>
<path d="M35.3003 158.816C33.2447 156.902 30.9409 155.201 28.4246 153.784L28.6018 153.465C31.1536 154.882 33.4928 156.619 35.5839 158.568L35.3003 158.816Z" fill="url(#paint69_linear_101_9087)"/>
<path d="M24.2424 151.763C22.8602 151.196 21.407 150.7 19.9185 150.275L20.0248 149.92C21.5134 150.345 23.0019 150.877 24.3842 151.444L24.2424 151.763Z" fill="url(#paint70_linear_101_9087)"/>
<path d="M118.767 46.323C112.6 44.6572 106.043 44.3382 99.7696 45.6496C96.6507 46.2875 93.5672 47.2799 90.6964 48.6621C87.7901 50.0089 85.0611 51.6747 82.5447 53.6949C80.0638 55.6797 77.76 57.948 75.7753 60.4644C73.826 62.9808 72.1247 65.7452 70.8134 68.6515C70.4944 69.3603 70.1754 70.1046 69.8919 70.8489C69.6438 71.5932 69.3248 72.3375 69.1122 73.1172C68.616 74.6412 68.1907 76.1652 67.9071 77.7601C67.7654 78.5398 67.6236 79.3196 67.5173 80.1347C67.4818 80.3474 67.4464 80.5246 67.4464 80.7372L67.4109 80.9499V81.0917C67.3755 81.2689 67.3755 81.4461 67.34 81.6233L64.3629 81.3398C65.6034 84.4941 67.1983 87.3649 69.0413 89.8813C70.3172 87.0459 71.8766 84.4941 73.6487 82.2967L70.6716 82.0132C70.6716 81.8359 70.7071 81.6942 70.7425 81.517V81.4106L70.7779 81.198C70.8134 81.0208 70.8134 80.8436 70.8488 80.6664C70.9551 79.9221 71.0615 79.2132 71.2032 78.5044C71.4868 77.0513 71.8766 75.6336 72.3019 74.2513C72.5146 73.5425 72.7981 72.8691 73.0462 72.1603C73.3298 71.4869 73.6133 70.8135 73.8968 70.1401C75.1373 67.4819 76.6613 64.9655 78.4689 62.6618C80.2764 60.358 82.3675 58.267 84.6712 56.4594C86.975 54.6164 89.4914 53.0924 92.1495 51.8519C94.8077 50.6115 97.6076 49.69 100.478 49.0874C106.22 47.8824 112.245 48.166 117.88 49.69L118.767 46.323Z" fill="url(#paint71_linear_101_9087)"/>
<path d="M87.6129 50.3279L87.4357 50.0089C88.428 49.4064 89.4559 48.8748 90.4837 48.3431C93.071 47.1027 95.8709 46.1457 98.8126 45.4723C101.542 44.8698 104.519 44.5863 107.602 44.6217C110.473 44.6572 113.415 45.0825 116.321 45.8268L116.215 46.1812C113.308 45.4369 110.402 45.0116 107.567 44.9761C104.519 44.9407 101.577 45.1888 98.8835 45.8268C95.9418 46.4647 93.1773 47.4217 90.6255 48.6621C89.5976 49.1938 88.5698 49.7254 87.6129 50.3279Z" fill="url(#paint72_linear_101_9087)"/>
<path d="M80.0282 56.3532L79.7802 56.1051C80.0991 55.7507 80.4535 55.4317 80.7725 55.1127C80.9497 54.9355 81.1624 54.7583 81.3396 54.5457C81.5168 54.4039 81.6586 54.2621 81.8358 54.1203C82.2257 53.7659 82.6155 53.4115 83.0408 53.0925L83.2535 53.3761C82.8636 53.695 82.4383 54.0495 82.0839 54.4039C81.9421 54.5457 81.7649 54.6874 81.6231 54.8292C81.4459 55.0064 81.2333 55.1836 81.0561 55.3963C80.7016 55.6798 80.3472 55.9988 80.0282 56.3532Z" fill="url(#paint73_linear_101_9087)"/>
<path d="M69.0412 90.1648L68.864 89.9168C67.2691 87.7548 65.8514 85.3447 64.7173 82.7929L65.0363 82.6511C66.135 85.0966 67.4463 87.4004 68.9703 89.456C69.7855 87.5776 70.7779 85.8055 71.8766 84.1751L72.1601 84.3878C70.9905 86.089 69.9982 87.9674 69.1475 89.8813L69.0412 90.1648Z" fill="url(#paint74_linear_101_9087)"/>
<path d="M67.4817 81.5879L67.1273 81.5524C67.1273 81.517 67.3754 77.9019 68.4032 74.7476L68.7577 74.8539C67.7298 77.9728 67.4817 81.5524 67.4817 81.5879Z" fill="url(#paint75_linear_101_9087)"/>
<path d="M42.8141 153.181C34.1308 155.449 28.9208 164.31 31.1891 172.993C33.4574 181.676 42.3179 186.886 51.0012 184.618C59.6846 182.35 64.8945 173.489 62.6262 164.806C60.358 156.123 51.4974 150.913 42.8141 153.181ZM59.5428 165.586C60.4288 168.953 59.9327 172.497 58.1605 175.509C56.3884 178.522 53.5531 180.649 50.1861 181.535C43.204 183.342 36.0447 179.16 34.2371 172.178C33.3511 168.811 33.8473 165.267 35.6194 162.254C37.3206 159.348 40.0142 157.257 43.2394 156.335C43.3457 156.3 43.4875 156.264 43.5938 156.229C50.4696 154.457 57.4871 158.462 59.4365 165.231C59.5073 165.373 59.5428 165.479 59.5428 165.586Z" fill="#FCC659"/>
<path d="M59.4719 165.266C59.5073 165.373 59.5428 165.479 59.5782 165.621C60.4643 168.988 59.9681 172.532 58.196 175.545C56.4239 178.557 53.5885 180.684 50.2215 181.57C43.2394 183.377 36.0801 179.195 34.2726 172.213C33.3865 168.846 33.8827 165.302 35.6548 162.289C37.356 159.383 40.0496 157.292 43.2749 156.371C43.3812 156.335 43.523 156.3 43.6293 156.264C50.4696 154.457 57.4872 158.497 59.4719 165.266Z" fill="#F49B51"/>
<path d="M58.2668 180.719L58.0188 180.471C62.2009 176.431 63.9021 170.441 62.449 164.841C61.9528 162.857 61.0668 161.049 59.8972 159.419L60.1807 159.206C61.3858 160.872 62.2718 162.75 62.8034 164.735C64.292 170.512 62.5553 176.608 58.2668 180.719ZM56.1403 155.733C54.6163 154.669 52.9151 153.854 51.1075 153.358L51.2139 153.004C53.0569 153.5 54.7935 154.315 56.353 155.414L56.1403 155.733Z" fill="url(#paint76_linear_101_9087)"/>
<path d="M48.8747 178.734L48.2013 176.36C46.8545 176.714 45.295 176.714 44.3381 176.36L44.4444 174.623C45.4368 174.942 46.7836 175.049 48.095 174.659C49.7607 174.162 50.6113 172.887 50.2215 171.575C49.8316 170.299 48.6975 169.768 46.7836 169.555C44.1254 169.307 42.3533 168.669 41.7508 166.613C41.1838 164.664 42.1407 162.786 44.1963 161.829L43.5229 159.454L44.9761 159.029L45.6495 161.297C47.0671 160.943 48.1304 161.049 48.9456 161.226L48.8038 162.927C48.2367 162.786 47.138 162.537 45.614 162.998C43.8065 163.53 43.452 164.806 43.7001 165.727C44.0546 166.932 45.0824 167.287 47.3861 167.57C50.0797 167.854 51.6392 168.704 52.2417 170.795C52.7733 172.638 51.9936 174.765 49.6899 175.828L50.3987 178.274L48.8747 178.734Z" fill="#FCC659"/>
<path d="M35.3358 159.809C36.5408 160.411 37.356 161.368 37.9231 162.538C38.4902 161.368 39.3053 160.411 40.5104 159.809C39.3053 159.206 38.4902 158.249 37.9231 157.079C37.356 158.249 36.5408 159.206 35.3358 159.809Z" fill="#FFE6A6"/>
<path d="M40.6167 164.026C41.3255 164.38 41.7863 164.912 42.1053 165.621C42.4242 164.948 42.9204 164.38 43.6293 164.026C42.9204 163.672 42.4597 163.14 42.1053 162.431C41.8217 163.14 41.3255 163.672 40.6167 164.026Z" fill="#FFE6A6"/>
<path d="M59.401 165.656C59.3656 165.55 59.3301 165.444 59.2947 165.302C58.2669 161.722 55.7505 158.781 52.348 157.221L52.4898 156.902C55.9631 158.532 58.5504 161.545 59.6137 165.231C59.6491 165.337 59.6845 165.479 59.72 165.585L59.401 165.656Z" fill="url(#paint77_linear_101_9087)"/>
<path d="M52.348 157.221C49.619 155.945 46.5355 155.662 43.6293 156.406L43.5229 156.052C46.5001 155.272 49.6899 155.555 52.4544 156.867L52.348 157.221Z" fill="url(#paint78_linear_101_9087)"/>
<path d="M34.0953 172.213C33.2093 168.775 33.7055 165.231 35.4776 162.183L35.7965 162.36C34.0599 165.337 33.5637 168.811 34.4497 172.142L34.0953 172.213Z" fill="url(#paint79_linear_101_9087)"/>
<path d="M58.3378 175.616L58.0188 175.438C58.9049 173.95 59.4365 172.355 59.6846 170.689L60.039 170.725C59.7909 172.426 59.2238 174.092 58.3378 175.616Z" fill="url(#paint80_linear_101_9087)"/>
<path d="M52.5251 107.921C53.7302 108.524 54.5453 109.481 55.1124 110.65C55.6795 109.481 56.4947 108.524 57.6997 107.921C56.4947 107.319 55.6795 106.362 55.1124 105.192C54.5453 106.362 53.7302 107.319 52.5251 107.921Z" fill="#FFE6A6"/>
<path d="M70.0336 122.807C70.7424 123.161 71.2032 123.693 71.5221 124.402C71.8411 123.729 72.3373 123.161 73.0461 122.807C72.3373 122.453 71.8766 121.921 71.5221 121.212C71.2032 121.921 70.707 122.453 70.0336 122.807Z" fill="#FFE6A6"/>
<path d="M141.946 32.0751C143.151 32.6776 143.966 33.6346 144.533 34.8042C145.1 33.6346 145.915 32.6776 147.12 32.0751C145.915 31.4726 145.1 30.5157 144.533 29.3461C143.966 30.5157 143.151 31.4372 141.946 32.0751Z" fill="#FFE6A6"/>
<path d="M210.845 174.198C212.05 174.801 212.865 175.757 213.432 176.927C213.999 175.757 214.815 174.801 216.02 174.198C214.815 173.596 213.999 172.639 213.432 171.469C212.865 172.639 212.05 173.596 210.845 174.198Z" fill="#FFE6A6"/>
<path d="M209.073 182.35C209.782 182.704 210.243 183.236 210.562 183.945C210.881 183.271 211.377 182.704 212.086 182.35C211.377 181.995 210.916 181.464 210.562 180.755C210.278 181.428 209.782 181.995 209.073 182.35Z" fill="#FFE6A6"/>
</g>
<defs>
<linearGradient id="paint0_linear_101_9087" x1="283.249" y1="95.9052" x2="255.856" y2="166.087" gradientUnits="userSpaceOnUse">
<stop stop-color="#933BCB"/>
<stop offset="1" stop-color="#A636FF"/>
</linearGradient>
<linearGradient id="paint1_linear_101_9087" x1="298.084" y1="137.158" x2="293.533" y2="173.322" gradientUnits="userSpaceOnUse">
<stop stop-color="#933BCB"/>
<stop offset="1" stop-color="#A636FF"/>
</linearGradient>
<linearGradient id="paint2_linear_101_9087" x1="274.545" y1="139.461" x2="273.439" y2="149.403" gradientUnits="userSpaceOnUse">
<stop stop-color="#933BCB"/>
<stop offset="1" stop-color="#A636FF"/>
</linearGradient>
<linearGradient id="paint3_linear_101_9087" x1="257.64" y1="47.0266" x2="197.687" y2="190.4" gradientUnits="userSpaceOnUse">
<stop stop-color="#933BCB"/>
<stop offset="1" stop-color="#A636FF"/>
</linearGradient>
<linearGradient id="paint4_linear_101_9087" x1="254.592" y1="47.0266" x2="194.639" y2="190.4" gradientUnits="userSpaceOnUse">
<stop stop-color="#933BCB"/>
<stop offset="1" stop-color="#A636FF"/>
</linearGradient>
<linearGradient id="paint5_linear_101_9087" x1="227.295" y1="54.5015" x2="227.289" y2="55.2892" gradientUnits="userSpaceOnUse">
<stop stop-color="#933BCB"/>
<stop offset="1" stop-color="#A636FF"/>
</linearGradient>
<linearGradient id="paint6_linear_101_9087" x1="237.871" y1="129.604" x2="237.38" y2="139.996" gradientUnits="userSpaceOnUse">
<stop stop-color="#933BCB"/>
<stop offset="1" stop-color="#A636FF"/>
</linearGradient>
<linearGradient id="paint7_linear_101_9087" x1="246.324" y1="79.3559" x2="239.944" y2="123.555" gradientUnits="userSpaceOnUse">
<stop stop-color="#933BCB"/>
<stop offset="1" stop-color="#A636FF"/>
</linearGradient>
<linearGradient id="paint8_linear_101_9087" x1="254.925" y1="47.1321" x2="215.586" y2="167.243" gradientUnits="userSpaceOnUse">
<stop stop-color="#933BCB"/>
<stop offset="1" stop-color="#A636FF"/>
</linearGradient>
<linearGradient id="paint9_linear_101_9087" x1="193.33" y1="166.68" x2="185.887" y2="186.918" gradientUnits="userSpaceOnUse">
<stop stop-color="#933BCB"/>
<stop offset="1" stop-color="#A636FF"/>
</linearGradient>
<linearGradient id="paint10_linear_101_9087" x1="222.359" y1="184.965" x2="222.346" y2="185.665" gradientUnits="userSpaceOnUse">
<stop stop-color="#933BCB"/>
<stop offset="1" stop-color="#A636FF"/>
</linearGradient>
<linearGradient id="paint11_linear_101_9087" x1="242.794" y1="184.662" x2="242.734" y2="187.111" gradientUnits="userSpaceOnUse">
<stop stop-color="#933BCB"/>
<stop offset="1" stop-color="#A636FF"/>
</linearGradient>
<linearGradient id="paint12_linear_101_9087" x1="252.142" y1="185.778" x2="252.112" y2="186.652" gradientUnits="userSpaceOnUse">
<stop stop-color="#933BCB"/>
<stop offset="1" stop-color="#A636FF"/>
</linearGradient>
<linearGradient id="paint13_linear_101_9087" x1="235.1" y1="178.855" x2="234.994" y2="180.775" gradientUnits="userSpaceOnUse">
<stop stop-color="#933BCB"/>
<stop offset="1" stop-color="#A636FF"/>
</linearGradient>
<linearGradient id="paint14_linear_101_9087" x1="249.576" y1="180.323" x2="249.569" y2="180.935" gradientUnits="userSpaceOnUse">
<stop stop-color="#933BCB"/>
<stop offset="1" stop-color="#A636FF"/>
</linearGradient>
<linearGradient id="paint15_linear_101_9087" x1="257.92" y1="179.751" x2="257.881" y2="180.756" gradientUnits="userSpaceOnUse">
<stop stop-color="#933BCB"/>
<stop offset="1" stop-color="#A636FF"/>
</linearGradient>
<linearGradient id="paint16_linear_101_9087" x1="230.617" y1="168.294" x2="230.509" y2="170.126" gradientUnits="userSpaceOnUse">
<stop stop-color="#933BCB"/>
<stop offset="1" stop-color="#A636FF"/>
</linearGradient>
<linearGradient id="paint17_linear_101_9087" x1="250.874" y1="169.545" x2="250.865" y2="170.42" gradientUnits="userSpaceOnUse">
<stop stop-color="#933BCB"/>
<stop offset="1" stop-color="#A636FF"/>
</linearGradient>
<linearGradient id="paint18_linear_101_9087" x1="217.837" y1="157.989" x2="215.238" y2="168.132" gradientUnits="userSpaceOnUse">
<stop stop-color="#933BCB"/>
<stop offset="1" stop-color="#A636FF"/>
</linearGradient>
<linearGradient id="paint19_linear_101_9087" x1="210.646" y1="156.84" x2="210.57" y2="158.813" gradientUnits="userSpaceOnUse">
<stop stop-color="#933BCB"/>
<stop offset="1" stop-color="#A636FF"/>
</linearGradient>
<linearGradient id="paint20_linear_101_9087" x1="217.985" y1="171.827" x2="215.478" y2="176.592" gradientUnits="userSpaceOnUse">
<stop stop-color="#933BCB"/>
<stop offset="1" stop-color="#A636FF"/>
</linearGradient>
<linearGradient id="paint21_linear_101_9087" x1="215.707" y1="155.018" x2="215.172" y2="158.66" gradientUnits="userSpaceOnUse">
<stop stop-color="#933BCB"/>
<stop offset="1" stop-color="#A636FF"/>
</linearGradient>
<linearGradient id="paint22_linear_101_9087" x1="221.392" y1="161.028" x2="208.734" y2="180.576" gradientUnits="userSpaceOnUse">
<stop stop-color="#933BCB"/>
<stop offset="1" stop-color="#A636FF"/>
</linearGradient>
<linearGradient id="paint23_linear_101_9087" x1="246.026" y1="79.3704" x2="245.356" y2="90.841" gradientUnits="userSpaceOnUse">
<stop stop-color="#933BCB"/>
<stop offset="1" stop-color="#A636FF"/>
</linearGradient>
<linearGradient id="paint24_linear_101_9087" x1="245.163" y1="92.5536" x2="243.283" y2="93.366" gradientUnits="userSpaceOnUse">
<stop stop-color="#933BCB"/>
<stop offset="1" stop-color="#A636FF"/>
</linearGradient>
<linearGradient id="paint25_linear_101_9087" x1="206.688" y1="79.4914" x2="206.682" y2="79.9727" gradientUnits="userSpaceOnUse">
<stop stop-color="#933BCB"/>
<stop offset="1" stop-color="#A636FF"/>
</linearGradient>
<linearGradient id="paint26_linear_101_9087" x1="45.7206" y1="71.2989" x2="43.1568" y2="88.0618" gradientUnits="userSpaceOnUse">
<stop stop-color="#933BCB"/>
<stop offset="1" stop-color="#A636FF"/>
</linearGradient>
<linearGradient id="paint27_linear_101_9087" x1="50.9703" y1="66.9899" x2="47.2203" y2="91.8953" gradientUnits="userSpaceOnUse">
<stop stop-color="#933BCB"/>
<stop offset="1" stop-color="#A636FF"/>
</linearGradient>
<linearGradient id="paint28_linear_101_9087" x1="193.542" y1="3.38033" x2="193.257" y2="9.5688" gradientUnits="userSpaceOnUse">
<stop stop-color="#933BCB"/>
<stop offset="1" stop-color="#A636FF"/>
</linearGradient>
<linearGradient id="paint29_linear_101_9087" x1="200.401" y1="-0.151539" x2="199.793" y2="10.924" gradientUnits="userSpaceOnUse">
<stop stop-color="#933BCB"/>
<stop offset="1" stop-color="#A636FF"/>
</linearGradient>
<linearGradient id="paint30_linear_101_9087" x1="164.426" y1="30.3972" x2="161.827" y2="40.5407" gradientUnits="userSpaceOnUse">
<stop stop-color="#933BCB"/>
<stop offset="1" stop-color="#A636FF"/>
</linearGradient>
<linearGradient id="paint31_linear_101_9087" x1="157.199" y1="29.2131" x2="157.123" y2="31.186" gradientUnits="userSpaceOnUse">
<stop stop-color="#933BCB"/>
<stop offset="1" stop-color="#A636FF"/>
</linearGradient>
<linearGradient id="paint32_linear_101_9087" x1="140.369" y1="35.6608" x2="134.178" y2="41.7571" gradientUnits="userSpaceOnUse">
<stop stop-color="#933BCB"/>
<stop offset="1" stop-color="#A636FF"/>
</linearGradient>
<linearGradient id="paint33_linear_101_9087" x1="162.295" y1="27.675" x2="161.761" y2="31.3165" gradientUnits="userSpaceOnUse">
<stop stop-color="#933BCB"/>
<stop offset="1" stop-color="#A636FF"/>
</linearGradient>
<linearGradient id="paint34_linear_101_9087" x1="167.981" y1="33.6493" x2="155.322" y2="53.1977" gradientUnits="userSpaceOnUse">
<stop stop-color="#933BCB"/>
<stop offset="1" stop-color="#A636FF"/>
</linearGradient>
<linearGradient id="paint35_linear_101_9087" x1="160.103" y1="56.2406" x2="156.26" y2="73.4827" gradientUnits="userSpaceOnUse">
<stop stop-color="#933BCB"/>
<stop offset="1" stop-color="#A636FF"/>
</linearGradient>
<linearGradient id="paint36_linear_101_9087" x1="162.059" y1="105.549" x2="121.197" y2="163.888" gradientUnits="userSpaceOnUse">
<stop stop-color="#933BCB"/>
<stop offset="1" stop-color="#A636FF"/>
</linearGradient>
<linearGradient id="paint37_linear_101_9087" x1="161.706" y1="132.182" x2="135.52" y2="153.967" gradientUnits="userSpaceOnUse">
<stop stop-color="#933BCB"/>
<stop offset="1" stop-color="#A636FF"/>
</linearGradient>
<linearGradient id="paint38_linear_101_9087" x1="190.454" y1="105.729" x2="170" y2="169.836" gradientUnits="userSpaceOnUse">
<stop stop-color="#933BCB"/>
<stop offset="1" stop-color="#A636FF"/>
</linearGradient>
<linearGradient id="paint39_linear_101_9087" x1="166.922" y1="107.834" x2="166.478" y2="115.754" gradientUnits="userSpaceOnUse">
<stop stop-color="#933BCB"/>
<stop offset="1" stop-color="#A636FF"/>
</linearGradient>
<linearGradient id="paint40_linear_101_9087" x1="181.643" y1="51.5429" x2="165.616" y2="121.243" gradientUnits="userSpaceOnUse">
<stop stop-color="#933BCB"/>
<stop offset="1" stop-color="#A636FF"/>
</linearGradient>
<linearGradient id="paint41_linear_101_9087" x1="157.946" y1="74.8986" x2="157.347" y2="80.4353" gradientUnits="userSpaceOnUse">
<stop stop-color="#933BCB"/>
<stop offset="1" stop-color="#A636FF"/>
</linearGradient>
<linearGradient id="paint42_linear_101_9087" x1="139.051" y1="65.0184" x2="130.724" y2="89.6916" gradientUnits="userSpaceOnUse">
<stop stop-color="#933BCB"/>
<stop offset="1" stop-color="#A636FF"/>
</linearGradient>
<linearGradient id="paint43_linear_101_9087" x1="180.815" y1="71.8528" x2="164.798" y2="113.015" gradientUnits="userSpaceOnUse">
<stop stop-color="#933BCB"/>
<stop offset="1" stop-color="#A636FF"/>
</linearGradient>
<linearGradient id="paint44_linear_101_9087" x1="166.783" y1="105.309" x2="166.438" y2="110.758" gradientUnits="userSpaceOnUse">
<stop stop-color="#933BCB"/>
<stop offset="1" stop-color="#A636FF"/>
</linearGradient>
<linearGradient id="paint45_linear_101_9087" x1="184.854" y1="151.062" x2="182.714" y2="166.208" gradientUnits="userSpaceOnUse">
<stop stop-color="#933BCB"/>
<stop offset="1" stop-color="#A636FF"/>
</linearGradient>
<linearGradient id="paint46_linear_101_9087" x1="157.369" y1="178.69" x2="156.589" y2="187.614" gradientUnits="userSpaceOnUse">
<stop stop-color="#933BCB"/>
<stop offset="1" stop-color="#A636FF"/>
</linearGradient>
<linearGradient id="paint47_linear_101_9087" x1="196.326" y1="157.302" x2="189.642" y2="176.585" gradientUnits="userSpaceOnUse">
<stop stop-color="#933BCB"/>
<stop offset="1" stop-color="#A636FF"/>
</linearGradient>
<linearGradient id="paint48_linear_101_9087" x1="141.794" y1="62.5589" x2="136.149" y2="76.0362" gradientUnits="userSpaceOnUse">
<stop stop-color="#933BCB"/>
<stop offset="1" stop-color="#A636FF"/>
</linearGradient>
<linearGradient id="paint49_linear_101_9087" x1="151.277" y1="58.0722" x2="149.481" y2="65.7019" gradientUnits="userSpaceOnUse">
<stop stop-color="#933BCB"/>
<stop offset="1" stop-color="#A636FF"/>
</linearGradient>
<linearGradient id="paint50_linear_101_9087" x1="151.982" y1="63.6722" x2="151.908" y2="65.2442" gradientUnits="userSpaceOnUse">
<stop stop-color="#933BCB"/>
<stop offset="1" stop-color="#A636FF"/>
</linearGradient>
<linearGradient id="paint51_linear_101_9087" x1="44.6113" y1="111.262" x2="20.7819" y2="172.18" gradientUnits="userSpaceOnUse">
<stop stop-color="#933BCB"/>
<stop offset="1" stop-color="#A636FF"/>
</linearGradient>
<linearGradient id="paint52_linear_101_9087" x1="45.4232" y1="147.747" x2="41.4604" y2="179.17" gradientUnits="userSpaceOnUse">
<stop stop-color="#933BCB"/>
<stop offset="1" stop-color="#A636FF"/>
</linearGradient>
<linearGradient id="paint53_linear_101_9087" x1="124.258" y1="119.262" x2="113.174" y2="191.969" gradientUnits="userSpaceOnUse">
<stop stop-color="#933BCB"/>
<stop offset="1" stop-color="#A636FF"/>
</linearGradient>
<linearGradient id="paint54_linear_101_9087" x1="121.526" y1="121.884" x2="111.586" y2="188.406" gradientUnits="userSpaceOnUse">
<stop stop-color="#933BCB"/>
<stop offset="1" stop-color="#A636FF"/>
</linearGradient>
<linearGradient id="paint55_linear_101_9087" x1="75.1786" y1="101.962" x2="74.6443" y2="105.603" gradientUnits="userSpaceOnUse">
<stop stop-color="#933BCB"/>
<stop offset="1" stop-color="#A636FF"/>
</linearGradient>
<linearGradient id="paint56_linear_101_9087" x1="80.8999" y1="107.971" x2="68.2411" y2="127.52" gradientUnits="userSpaceOnUse">
<stop stop-color="#933BCB"/>
<stop offset="1" stop-color="#A636FF"/>
</linearGradient>
<linearGradient id="paint57_linear_101_9087" x1="77.167" y1="104.79" x2="74.5681" y2="114.934" gradientUnits="userSpaceOnUse">
<stop stop-color="#933BCB"/>
<stop offset="1" stop-color="#A636FF"/>
</linearGradient>
<linearGradient id="paint58_linear_101_9087" x1="70.0118" y1="103.606" x2="69.9355" y2="105.579" gradientUnits="userSpaceOnUse">
<stop stop-color="#933BCB"/>
<stop offset="1" stop-color="#A636FF"/>
</linearGradient>
<linearGradient id="paint59_linear_101_9087" x1="77.3858" y1="118.629" x2="74.8792" y2="123.393" gradientUnits="userSpaceOnUse">
<stop stop-color="#933BCB"/>
<stop offset="1" stop-color="#A636FF"/>
</linearGradient>
<linearGradient id="paint60_linear_101_9087" x1="118.588" y1="125.013" x2="107.052" y2="196.633" gradientUnits="userSpaceOnUse">
<stop stop-color="#933BCB"/>
<stop offset="1" stop-color="#A636FF"/>
</linearGradient>
<linearGradient id="paint61_linear_101_9087" x1="67.995" y1="175.013" x2="67.3922" y2="184.691" gradientUnits="userSpaceOnUse">
<stop stop-color="#933BCB"/>
<stop offset="1" stop-color="#A636FF"/>
</linearGradient>
<linearGradient id="paint62_linear_101_9087" x1="80.6404" y1="182.593" x2="80.6349" y2="183.074" gradientUnits="userSpaceOnUse">
<stop stop-color="#933BCB"/>
<stop offset="1" stop-color="#A636FF"/>
</linearGradient>
<linearGradient id="paint63_linear_101_9087" x1="114.256" y1="128.028" x2="113.542" y2="139.889" gradientUnits="userSpaceOnUse">
<stop stop-color="#933BCB"/>
<stop offset="1" stop-color="#A636FF"/>
</linearGradient>
<linearGradient id="paint64_linear_101_9087" x1="73.3311" y1="128.154" x2="73.3254" y2="128.635" gradientUnits="userSpaceOnUse">
<stop stop-color="#933BCB"/>
<stop offset="1" stop-color="#A636FF"/>
</linearGradient>
<linearGradient id="paint65_linear_101_9087" x1="40.4139" y1="160.963" x2="38.2698" y2="161.395" gradientUnits="userSpaceOnUse">
<stop stop-color="#933BCB"/>
<stop offset="1" stop-color="#A636FF"/>
</linearGradient>
<linearGradient id="paint66_linear_101_9087" x1="122.706" y1="143.084" x2="118.589" y2="167.87" gradientUnits="userSpaceOnUse">
<stop stop-color="#933BCB"/>
<stop offset="1" stop-color="#A636FF"/>
</linearGradient>
<linearGradient id="paint67_linear_101_9087" x1="107.104" y1="151.296" x2="103.357" y2="159.906" gradientUnits="userSpaceOnUse">
<stop stop-color="#933BCB"/>
<stop offset="1" stop-color="#A636FF"/>
</linearGradient>
<linearGradient id="paint68_linear_101_9087" x1="100.268" y1="152.645" x2="98.9841" y2="155.693" gradientUnits="userSpaceOnUse">
<stop stop-color="#933BCB"/>
<stop offset="1" stop-color="#A636FF"/>
</linearGradient>
<linearGradient id="paint69_linear_101_9087" x1="35.7652" y1="153.392" x2="34.7264" y2="159.833" gradientUnits="userSpaceOnUse">
<stop stop-color="#933BCB"/>
<stop offset="1" stop-color="#A636FF"/>
</linearGradient>
<linearGradient id="paint70_linear_101_9087" x1="24.4973" y1="149.895" x2="24.2963" y2="152.153" gradientUnits="userSpaceOnUse">
<stop stop-color="#933BCB"/>
<stop offset="1" stop-color="#A636FF"/>
</linearGradient>
<linearGradient id="paint71_linear_101_9087" x1="120.145" y1="44.2288" x2="110.517" y2="98.126" gradientUnits="userSpaceOnUse">
<stop stop-color="#933BCB"/>
<stop offset="1" stop-color="#A636FF"/>
</linearGradient>
<linearGradient id="paint72_linear_101_9087" x1="117.053" y1="44.5414" x2="116.753" y2="51.5781" gradientUnits="userSpaceOnUse">
<stop stop-color="#933BCB"/>
<stop offset="1" stop-color="#A636FF"/>
</linearGradient>
<linearGradient id="paint73_linear_101_9087" x1="83.3415" y1="53.0484" x2="82.5581" y2="56.9159" gradientUnits="userSpaceOnUse">
<stop stop-color="#933BCB"/>
<stop offset="1" stop-color="#A636FF"/>
</linearGradient>
<linearGradient id="paint74_linear_101_9087" x1="72.3487" y1="82.5493" x2="70.4194" y2="91.4068" gradientUnits="userSpaceOnUse">
<stop stop-color="#933BCB"/>
<stop offset="1" stop-color="#A636FF"/>
</linearGradient>
<linearGradient id="paint75_linear_101_9087" x1="68.799" y1="74.6549" x2="64.5967" y2="79.297" gradientUnits="userSpaceOnUse">
<stop stop-color="#933BCB"/>
<stop offset="1" stop-color="#A636FF"/>
</linearGradient>
<linearGradient id="paint76_linear_101_9087" x1="63.6369" y1="152.628" x2="50.1252" y2="180.239" gradientUnits="userSpaceOnUse">
<stop stop-color="#933BCB"/>
<stop offset="1" stop-color="#A636FF"/>
</linearGradient>
<linearGradient id="paint77_linear_101_9087" x1="59.9067" y1="156.784" x2="57.3078" y2="166.927" gradientUnits="userSpaceOnUse">
<stop stop-color="#933BCB"/>
<stop offset="1" stop-color="#A636FF"/>
</linearGradient>
<linearGradient id="paint78_linear_101_9087" x1="52.6806" y1="155.599" x2="52.6044" y2="157.572" gradientUnits="userSpaceOnUse">
<stop stop-color="#933BCB"/>
<stop offset="1" stop-color="#A636FF"/>
</linearGradient>
<linearGradient id="paint79_linear_101_9087" x1="35.8505" y1="162.047" x2="29.6588" y2="168.143" gradientUnits="userSpaceOnUse">
<stop stop-color="#933BCB"/>
<stop offset="1" stop-color="#A636FF"/>
</linearGradient>
<linearGradient id="paint80_linear_101_9087" x1="60.0902" y1="170.622" x2="57.5835" y2="175.387" gradientUnits="userSpaceOnUse">
<stop stop-color="#933BCB"/>
<stop offset="1" stop-color="#A636FF"/>
</linearGradient>
<clipPath id="clip0_101_9087">
<rect width="296.863" height="191.6" fill="white"/>
</clipPath>
</defs>
</svg>
