<svg width="234" height="174" viewBox="0 0 234 174" fill="none" xmlns="http://www.w3.org/2000/svg">
<g clip-path="url(#clip0_101_5993)">
<path d="M233.494 152.892H0V153.032H233.494V152.892Z" fill="#EBEBEB"/>
<path d="M76.8664 160.13H61.4091V160.271H76.8664V160.13Z" fill="#EBEBEB"/>
<path d="M120.903 158.87H116.841V159.01H120.903V158.87Z" fill="#EBEBEB"/>
<path d="M33.483 156.862H24.5168V157.002H33.483V156.862Z" fill="#EBEBEB"/>
<path d="M194.174 156.114H181.986V156.254H194.174V156.114Z" fill="#EBEBEB"/>
<path d="M177.783 156.114H166.855V156.254H177.783V156.114Z" fill="#EBEBEB"/>
<path d="M210.098 161.718H166.341V161.858H210.098V161.718Z" fill="#EBEBEB"/>
<path d="M110.676 132.064H20.5008C19.0532 132.064 17.839 130.85 17.839 129.403V2.66184C17.839 1.21417 19.0532 0 20.5008 0H110.676C112.124 0 113.338 1.21417 113.338 2.66184V129.403C113.338 130.897 112.171 132.064 110.676 132.064ZM20.5008 0.140097C19.0999 0.140097 17.9324 1.26087 17.9324 2.70853V129.449C17.9324 130.85 19.0532 132.018 20.5008 132.018H110.676C112.077 132.018 113.245 130.897 113.245 129.449V2.66184C113.245 1.26087 112.124 0.0933977 110.676 0.0933977H20.5008V0.140097Z" fill="#EBEBEB"/>
<path d="M211.686 132.064H121.51C120.063 132.064 118.849 130.85 118.849 129.403V2.66184C118.849 1.21417 120.063 0 121.51 0H211.686C213.134 0 214.348 1.21417 214.348 2.66184V129.403C214.348 130.897 213.18 132.064 211.686 132.064ZM121.51 0.140097C120.11 0.140097 118.942 1.26087 118.942 2.70853V129.449C118.942 130.85 120.063 132.018 121.51 132.018H211.686C213.087 132.018 214.254 130.897 214.254 129.449V2.66184C214.254 1.26087 213.134 0.0933977 211.686 0.0933977H121.51V0.140097Z" fill="#EBEBEB"/>
<path d="M148.766 151.537H159.787V103.438H148.766V151.537Z" fill="#F0F0F0"/>
<path d="M109.266 152.899H157.693V151.498H109.266V152.899Z" fill="#F0F0F0"/>
<path d="M148.783 103.391H107.127V151.491H148.783V103.391Z" fill="#F5F5F5"/>
<path d="M144.486 106.1H111.47V126.367H144.486V106.1Z" fill="#F0F0F0"/>
<path d="M144.486 128.515H111.47V148.783H144.486V128.515Z" fill="#F0F0F0"/>
<path d="M136.501 109.649H119.409C117.167 109.649 115.346 107.828 115.346 105.586H140.564C140.564 107.828 138.742 109.649 136.501 109.649Z" fill="#F5F5F5"/>
<path d="M136.501 132.064H119.409C117.167 132.064 115.346 130.243 115.346 128.002H140.564C140.564 130.243 138.742 132.064 136.501 132.064Z" fill="#F5F5F5"/>
<path d="M193.667 151.537H204.688V103.438H193.667V151.537Z" fill="#F0F0F0"/>
<path d="M154.167 152.899H202.594V151.498H154.167V152.899Z" fill="#F0F0F0"/>
<path d="M193.707 103.391H152.052V151.491H193.707V103.391Z" fill="#F5F5F5"/>
<path d="M189.411 106.1H156.395V126.367H189.411V106.1Z" fill="#F0F0F0"/>
<path d="M189.411 128.515H156.395V148.783H189.411V128.515Z" fill="#F0F0F0"/>
<path d="M181.425 109.649H164.333C162.092 109.649 160.271 107.828 160.271 105.586H185.488C185.488 107.828 183.667 109.649 181.425 109.649Z" fill="#F5F5F5"/>
<path d="M181.425 132.064H164.333C162.092 132.064 160.271 130.243 160.271 128.002H185.488C185.488 130.243 183.667 132.064 181.425 132.064Z" fill="#F5F5F5"/>
<path d="M52.058 38.7402H70.8777V16.9786L52.058 16.9786V38.7402Z" fill="#E6E6E6"/>
<path d="M49.8754 38.7402H70.3762V16.9786L49.8754 16.9786V38.7402Z" fill="#F5F5F5"/>
<path d="M68.6613 37.0451V18.6924L51.6162 18.6924V37.0451H68.6613Z" fill="white"/>
<path d="M64.5378 32.5958V31.942C64.5378 27.0854 60.6151 23.1627 55.7585 23.1627V23.8164C55.7118 28.6731 59.6812 32.5958 64.5378 32.5958Z" fill="#F5F5F5"/>
<path d="M133.87 79.8586L204.712 79.8586V13.5929L133.87 13.5929V79.8586Z" fill="#E6E6E6"/>
<path d="M131.676 79.8586L203.685 79.8586V13.5929L131.676 13.5929V79.8586Z" fill="#F0F0F0"/>
<path d="M133.87 82.2177L204.712 82.2177V79.836L133.87 79.836V82.2177Z" fill="#E6E6E6"/>
<path d="M128.002 82.2177L200.011 82.2177V79.836L128.002 79.836V82.2177Z" fill="#F0F0F0"/>
<path d="M200.613 76.3152V17.1477L134.767 17.1477V76.3152L200.613 76.3152Z" fill="#FAFAFA"/>
<path d="M181.939 76.3059L170.965 17.1384H152.892L163.866 76.3059H181.939Z" fill="white"/>
<path d="M199.171 56.2254C199.311 56.2254 199.404 56.132 199.404 55.9919V19.4734C199.404 19.3333 199.311 19.2399 199.171 19.2399C199.031 19.2399 198.937 19.3333 198.937 19.4734V55.9919C198.937 56.132 199.031 56.2254 199.171 56.2254Z" fill="#F0F0F0"/>
<path d="M159.944 76.3059L149.016 17.1384H141.964L152.939 76.3059H159.944Z" fill="white"/>
<path d="M135.14 76.3157V17.1483H134.767V76.3157H135.14Z" fill="#E6E6E6"/>
<path opacity="0.4" d="M130.944 21.715H201.786L202.066 18.5395H131.224L130.944 21.715Z" fill="#E6E6E6"/>
<path opacity="0.4" d="M130.944 25.3575H201.786L202.066 22.1819H131.224L130.944 25.3575Z" fill="#E6E6E6"/>
<path opacity="0.4" d="M130.944 29H201.786L202.066 25.8245H131.224L130.944 29Z" fill="#E6E6E6"/>
<path opacity="0.4" d="M130.944 32.6425H201.786L202.066 29.467H131.224L130.944 32.6425Z" fill="#E6E6E6"/>
<path opacity="0.4" d="M130.944 36.285H201.786L202.066 33.1095H131.224L130.944 36.285Z" fill="#E6E6E6"/>
<path opacity="0.4" d="M130.944 39.9275H201.786L202.066 36.752H131.224L130.944 39.9275Z" fill="#E6E6E6"/>
<path opacity="0.4" d="M130.944 43.5701H201.786L202.066 40.3946H131.224L130.944 43.5701Z" fill="#E6E6E6"/>
<path opacity="0.4" d="M130.944 47.2127H201.786L202.066 44.0371H131.224L130.944 47.2127Z" fill="#E6E6E6"/>
<path opacity="0.4" d="M130.944 50.855H201.786L202.066 47.6795H131.224L130.944 50.855Z" fill="#E6E6E6"/>
<path d="M38.6723 74.2985H53.3824V57.4402H38.6723V74.2985Z" fill="#E6E6E6"/>
<path d="M36.9799 74.2985H52.8575V57.4402H36.9799V74.2985Z" fill="#F5F5F5"/>
<path d="M51.5298 72.9233V58.7269H38.314V72.9233H51.5298Z" fill="white"/>
<path d="M48.3334 66.1257V65.612C48.3334 63.744 46.7924 62.2029 44.9244 62.2029C43.0564 62.2029 41.5154 63.744 41.5154 65.612V66.1257C41.5154 67.9936 43.0564 69.5347 44.9244 69.5347C46.839 69.488 48.3334 67.9936 48.3334 66.1257Z" fill="#F5F5F5"/>
<path d="M75.3462 68.2592H95.5201V45.0032H75.3462V68.2592Z" fill="#E6E6E6"/>
<path d="M73.0575 68.2592H94.9125V45.0032H73.0575V68.2592Z" fill="#F5F5F5"/>
<path d="M93.0972 66.4117V46.8449H74.8846V66.4117H93.0972Z" fill="white"/>
<path d="M84.7585 53.0033L88.2142 58.9807C88.5411 59.5878 88.1208 60.2883 87.4671 60.2883H80.5556C79.9018 60.2883 79.4348 59.5411 79.8084 58.9807L83.2642 53.0033C83.5443 52.3962 84.3849 52.3962 84.7585 53.0033Z" fill="#F5F5F5"/>
<path d="M42.0721 152.897H53.1398L53.1398 117.919H42.0721V152.897Z" fill="#E6E6E6"/>
<path d="M44.1304 152.892H42.0289V146.915H46.3719L44.1304 152.892Z" fill="#F0F0F0"/>
<path d="M83.4918 152.897H94.5594V117.919H83.4918V152.897Z" fill="#E6E6E6"/>
<path d="M42.0433 149.221H85.3331V117.932H42.0433L42.0433 149.221Z" fill="#F0F0F0"/>
<path d="M43.6808 119.893V141.748H62.9674V119.893H43.6808Z" fill="#E6E6E6"/>
<path d="M64.3947 119.873V141.728H83.6813V119.873H64.3947Z" fill="#E6E6E6"/>
<path d="M72.1498 121.604H75.9791C77.6603 121.604 79.2014 120.903 80.3688 119.736H67.7601C68.8809 120.903 70.4687 121.604 72.1498 121.604Z" fill="#F0F0F0"/>
<path d="M51.2287 121.604H55.058C56.7391 121.604 58.2802 120.903 59.4477 119.736H46.839C47.9598 120.903 49.5475 121.604 51.2287 121.604Z" fill="#F0F0F0"/>
<path d="M83.2174 152.892H85.3189V146.915H81.0226L83.2174 152.892Z" fill="#F0F0F0"/>
<path d="M71.8228 113.245C71.8228 114.552 72.8968 115.626 74.2044 115.626C75.512 115.626 76.586 114.552 76.586 113.245C76.586 111.937 75.512 110.863 74.2044 110.863C72.8968 110.863 71.8228 111.937 71.8228 113.245Z" fill="#E0E0E0"/>
<path d="M75.2785 114.085C76.5938 114.085 77.6601 113.019 77.6601 111.704C77.6601 110.388 76.5938 109.322 75.2785 109.322C73.9631 109.322 72.8969 110.388 72.8969 111.704C72.8969 113.019 73.9631 114.085 75.2785 114.085Z" fill="#E0E0E0"/>
<path d="M59.7279 113.665C59.7279 114.973 60.802 116.047 62.1095 116.047C63.4171 116.047 64.4912 114.973 64.4912 113.665C64.4912 112.358 63.4171 111.284 62.1095 111.284C60.802 111.237 59.7279 112.311 59.7279 113.665Z" fill="#E0E0E0"/>
<path d="M78.5007 115.019C80.1256 115.019 81.4428 113.702 81.4428 112.077C81.4428 110.453 80.1256 109.135 78.5007 109.135C76.8759 109.135 75.5587 110.453 75.5587 112.077C75.5587 113.702 76.8759 115.019 78.5007 115.019Z" fill="#E0E0E0"/>
<path d="M69.7213 109.369C69.7213 111.003 71.0289 112.311 72.6633 112.311C74.2978 112.311 75.6054 111.003 75.6054 109.369C75.6054 107.734 74.2978 106.427 72.6633 106.427C71.0289 106.427 69.7213 107.734 69.7213 109.369Z" fill="#E0E0E0"/>
<path d="M65.0515 110.116C65.0515 111.75 66.3591 113.058 67.9935 113.058C69.628 113.058 70.9356 111.75 70.9356 110.116C70.9356 108.481 69.628 107.174 67.9935 107.174C66.3591 107.174 65.0515 108.481 65.0515 110.116Z" fill="#E0E0E0"/>
<path d="M67.0128 112.498C67.0128 114.039 68.2737 115.3 69.8147 115.3C71.3558 115.3 72.6167 114.039 72.6167 112.498C72.6167 110.957 71.3558 109.696 69.8147 109.696C68.2737 109.696 67.0128 110.957 67.0128 112.498Z" fill="#E0E0E0"/>
<path d="M62.1562 112.311C62.1562 113.992 63.5105 115.346 65.1917 115.346C66.8728 115.346 68.2271 113.992 68.2271 112.311C68.2271 110.63 66.8728 109.275 65.1917 109.275C63.5105 109.275 62.1562 110.63 62.1562 112.311Z" fill="#E0E0E0"/>
<path d="M83.2175 113.245C83.2175 113.245 82.8906 117.915 70.2352 117.915C57.5798 117.915 57.2529 113.245 57.2529 113.245H83.2175Z" fill="#F0F0F0"/>
<path d="M116.747 174C166.756 174 207.296 171.637 207.296 168.723C207.296 165.809 166.756 163.446 116.747 163.446C66.7383 163.446 26.1981 165.809 26.1981 168.723C26.1981 171.637 66.7383 174 116.747 174Z" fill="#F5F5F5"/>
<path d="M143.739 30.3075C143.366 29.0467 142.852 27.8325 142.245 26.665L143.179 23.5829L137.155 17.5587L134.072 18.4927C132.905 17.8856 131.738 17.3719 130.43 16.9984L128.936 14.1497H120.39L118.895 16.9984C117.634 17.3719 116.42 17.8856 115.253 18.4927L112.171 17.5587L106.147 23.5829L107.081 26.665C106.473 27.8325 105.96 29 105.586 30.3075L102.738 31.8019V40.3478L105.586 41.8421C105.96 43.103 106.473 44.3172 107.081 45.4847L106.147 48.5668L112.171 54.5909L115.253 53.657C116.42 54.264 117.588 54.7777 118.895 55.1513L120.39 58H128.936L130.43 55.1513C131.691 54.7777 132.905 54.264 134.072 53.657L137.155 54.5909L143.179 48.5668L142.245 45.4847C142.852 44.3172 143.366 43.1497 143.739 41.8421L146.588 40.3478V31.8486L143.739 30.3075ZM124.639 48.2399C117.915 48.2399 112.498 42.8228 112.498 36.0982C112.498 29.3736 117.915 23.9565 124.639 23.9565C131.364 23.9565 136.781 29.3736 136.781 36.0982C136.781 42.8228 131.364 48.2399 124.639 48.2399Z" fill="url(#paint0_linear_101_5993)"/>
<path opacity="0.2" d="M143.739 30.3075C143.366 29.0467 142.852 27.8325 142.245 26.665L143.179 23.5829L137.155 17.5587L134.072 18.4927C132.905 17.8856 131.738 17.3719 130.43 16.9984L128.936 14.1497H120.39L118.895 16.9984C117.634 17.3719 116.42 17.8856 115.253 18.4927L112.171 17.5587L106.147 23.5829L107.081 26.665C106.473 27.8325 105.96 29 105.586 30.3075L102.738 31.8019V40.3478L105.586 41.8421C105.96 43.103 106.473 44.3172 107.081 45.4847L106.147 48.5668L112.171 54.5909L115.253 53.657C116.42 54.264 117.588 54.7777 118.895 55.1513L120.39 58H128.936L130.43 55.1513C131.691 54.7777 132.905 54.264 134.072 53.657L137.155 54.5909L143.179 48.5668L142.245 45.4847C142.852 44.3172 143.366 43.1497 143.739 41.8421L146.588 40.3478V31.8486L143.739 30.3075ZM124.639 48.2399C117.915 48.2399 112.498 42.8228 112.498 36.0982C112.498 29.3736 117.915 23.9565 124.639 23.9565C131.364 23.9565 136.781 29.3736 136.781 36.0982C136.781 42.8228 131.364 48.2399 124.639 48.2399Z" fill="white"/>
<path d="M124.639 32.0822C122.398 32.0822 120.623 33.9034 120.623 36.0983C120.623 38.3398 122.444 40.1144 124.639 40.1144C126.881 40.1144 128.655 38.2931 128.655 36.0983C128.702 33.9034 126.881 32.0822 124.639 32.0822Z" fill="url(#paint1_linear_101_5993)"/>
<path d="M204.541 43.8971C203.981 42.0758 203.28 40.348 202.393 38.7135L203.747 34.3238L195.108 25.6845L190.718 27.0388C189.084 26.1515 187.356 25.451 185.535 24.8906L183.386 20.8745H171.151L169.003 24.8906C167.182 25.451 165.454 26.1515 163.82 27.0388L159.43 25.6845L150.791 34.3238L152.145 38.7135C151.258 40.348 150.557 42.0758 149.997 43.8971L145.981 46.0452V58.2803L149.997 60.4285C150.557 62.2497 151.258 63.9776 152.145 65.6121L150.791 70.0017L159.43 78.641L163.82 77.2868C165.454 78.1741 167.182 78.8745 169.003 79.4349L171.151 83.451H183.386L185.535 79.4349C187.356 78.8745 189.084 78.1741 190.718 77.2868L195.108 78.641L203.747 70.0017L202.393 65.6121C203.28 63.9776 203.981 62.2497 204.541 60.4285L208.557 58.2803V46.0452L204.541 43.8971ZM177.316 74.298C165.08 74.298 155.18 64.3979 155.18 52.1628C155.18 39.9277 165.08 30.0275 177.316 30.0275C189.551 30.0275 199.451 39.9277 199.451 52.1628C199.451 64.3512 189.551 74.298 177.316 74.298Z" fill="url(#paint2_linear_101_5993)"/>
<path d="M177.316 33.1095C166.808 33.1095 158.262 41.6554 158.262 52.1626C158.262 62.6699 166.808 71.2158 177.316 71.2158C187.823 71.2158 196.369 62.6699 196.369 52.1626C196.369 41.6554 187.823 33.1095 177.316 33.1095ZM177.316 68.6473C168.209 68.6473 160.831 61.2222 160.831 52.1626C160.831 43.0564 168.256 35.6779 177.316 35.6779C186.422 35.6779 193.8 43.1031 193.8 52.1626C193.8 61.2222 186.422 68.6473 177.316 68.6473Z" fill="url(#paint3_linear_101_5993)"/>
<path opacity="0.2" d="M177.316 33.1095C166.808 33.1095 158.262 41.6554 158.262 52.1626C158.262 62.6699 166.808 71.2158 177.316 71.2158C187.823 71.2158 196.369 62.6699 196.369 52.1626C196.369 41.6554 187.823 33.1095 177.316 33.1095ZM177.316 68.6473C168.209 68.6473 160.831 61.2222 160.831 52.1626C160.831 43.0564 168.256 35.6779 177.316 35.6779C186.422 35.6779 193.8 43.1031 193.8 52.1626C193.8 61.2222 186.422 68.6473 177.316 68.6473Z" fill="black"/>
<path d="M133.559 84.6184C133.279 84.6184 133.092 84.4316 133.092 84.1515V83.2175C133.092 82.9373 133.279 82.7505 133.559 82.7505C133.839 82.7505 134.026 82.9373 134.026 83.2175V84.1515C134.026 84.4316 133.839 84.6184 133.559 84.6184Z" fill="url(#paint4_linear_101_5993)"/>
<path d="M126.274 72.5701C125.854 72.2899 125.527 71.9164 125.293 71.4494C125.2 71.2159 124.92 71.1225 124.686 71.2159C124.453 71.3093 124.359 71.5895 124.453 71.823C124.733 72.4767 125.2 72.9904 125.76 73.364C125.853 73.4107 125.947 73.4574 125.994 73.4574C126.134 73.4574 126.274 73.364 126.367 73.2239C126.554 72.9904 126.507 72.7102 126.274 72.5701Z" fill="url(#paint5_linear_101_5993)"/>
<path d="M124.639 66.7328C124.92 66.7328 125.106 66.546 125.106 66.2658V64.4446C125.106 64.1644 124.92 63.9776 124.639 63.9776C124.359 63.9776 124.172 64.1644 124.172 64.4446V66.2191C124.172 66.4993 124.406 66.7328 124.639 66.7328Z" fill="url(#paint6_linear_101_5993)"/>
<path d="M129.496 72.9904H127.721C127.441 72.9904 127.254 73.1772 127.254 73.4574C127.254 73.7376 127.441 73.9244 127.721 73.9244H129.496C129.776 73.9244 129.963 73.7376 129.963 73.4574C129.963 73.1772 129.776 72.9904 129.496 72.9904Z" fill="url(#paint7_linear_101_5993)"/>
<path d="M125.106 69.8149V68.0403C125.106 67.7601 124.92 67.5733 124.639 67.5733C124.359 67.5733 124.172 67.7601 124.172 68.0403V69.8149C124.172 70.0951 124.359 70.2819 124.639 70.2819C124.92 70.2819 125.106 70.0951 125.106 69.8149Z" fill="url(#paint8_linear_101_5993)"/>
<path d="M133.979 75.9791C133.932 75.7456 133.699 75.5588 133.465 75.5588C133.232 75.6055 133.045 75.839 133.045 76.0725C133.045 76.1659 133.045 76.306 133.045 76.3994V77.8004C133.045 78.0805 133.232 78.2673 133.512 78.2673C133.792 78.2673 133.979 78.0805 133.979 77.8004V76.3994C134.026 76.306 134.026 76.1659 133.979 75.9791Z" fill="url(#paint9_linear_101_5993)"/>
<path d="M133.559 79.1548C133.279 79.1548 133.092 79.3416 133.092 79.6217V81.3963C133.092 81.6765 133.279 81.8633 133.559 81.8633C133.839 81.8633 134.026 81.6765 134.026 81.3963V79.6217C134.026 79.3882 133.839 79.1548 133.559 79.1548Z" fill="url(#paint10_linear_101_5993)"/>
<path d="M133.139 74.1579C132.672 73.6442 132.064 73.2706 131.411 73.0838C131.177 73.0371 130.897 73.1772 130.85 73.4107C130.804 73.6442 130.944 73.9244 131.177 73.9711C131.691 74.1112 132.111 74.3914 132.438 74.765C132.531 74.8584 132.672 74.9051 132.812 74.9051C132.905 74.9051 133.045 74.8584 133.139 74.765C133.325 74.6249 133.325 74.3447 133.139 74.1579Z" fill="url(#paint11_linear_101_5993)"/>
<path d="M124.639 63.1369C124.359 63.1369 124.172 62.9501 124.172 62.6699V61.736C124.172 61.4558 124.359 61.269 124.639 61.269C124.92 61.269 125.106 61.4558 125.106 61.736V62.6699C125.106 62.9034 124.92 63.1369 124.639 63.1369Z" fill="url(#paint12_linear_101_5993)"/>
<path d="M155.647 108.155H47.5396V109.882H155.647V108.155Z" fill="url(#paint13_linear_101_5993)"/>
<path d="M155.683 109.847H179.126V108.119H155.683V109.847Z" fill="url(#paint14_linear_101_5993)"/>
<path opacity="0.2" d="M155.683 109.847H179.126V108.119H155.683V109.847Z" fill="black"/>
<path d="M171.291 111.704H55.3848L51.5088 109.883H175.167L171.291 111.704Z" fill="url(#paint15_linear_101_5993)"/>
<path opacity="0.6" d="M171.291 111.704H55.3848L51.5088 109.883H175.167L171.291 111.704Z" fill="white"/>
<path d="M58.8873 111.704V166.995H60.3817L62.2496 111.704H58.8873Z" fill="url(#paint16_linear_101_5993)"/>
<path d="M76.3995 111.704V166.995H77.8939L79.7619 111.704H76.3995Z" fill="url(#paint17_linear_101_5993)"/>
<path d="M171.291 111.704V166.995H169.844L167.976 111.704H171.291Z" fill="url(#paint18_linear_101_5993)"/>
<path d="M153.779 111.704V166.995H152.285L150.417 111.704H153.779Z" fill="url(#paint19_linear_101_5993)"/>
<path d="M118.475 87.1402L113.618 107.034L113.478 108.155H147.148L147.288 107.034L152.145 87.1402H118.475Z" fill="url(#paint20_linear_101_5993)"/>
<path opacity="0.3" d="M118.475 87.1402L113.618 107.034L113.478 108.155H147.148L147.288 107.034L152.145 87.1402H118.475Z" fill="black"/>
<path d="M151.118 87.1402H117.448L112.591 107.034H146.261L151.118 87.1402Z" fill="url(#paint21_linear_101_5993)"/>
<path d="M145.514 106.147L149.95 88.0742H118.148L113.758 106.147H145.514Z" fill="white"/>
<path d="M137.482 107.034L137.341 108.155H100.263L100.403 107.034H137.482Z" fill="url(#paint22_linear_101_5993)"/>
<path opacity="0.6" d="M137.482 107.034L137.341 108.155H100.263L100.403 107.034H137.482Z" fill="white"/>
<path d="M67.4332 104.512C67.4332 103.064 66.3124 101.897 64.8181 101.664V101.103C64.8181 100.963 64.7247 100.87 64.5846 100.87H59.5411C59.401 100.87 59.3076 100.963 59.3076 101.103V108.108H64.8648V107.361C66.3124 107.174 67.4332 105.96 67.4332 104.512ZM64.8181 106.473V102.597C65.7521 102.784 66.4992 103.578 66.4992 104.559C66.4992 105.493 65.7988 106.287 64.8181 106.473Z" fill="url(#paint23_linear_101_5993)"/>
<path d="M161.858 108.155H166.528L165.127 97.8808H161.858V108.155Z" fill="#263238"/>
<path d="M154.947 108.155H163.866L165.501 96.1062H156.628L154.947 108.155Z" fill="url(#paint24_linear_101_5993)"/>
<path opacity="0.3" d="M154.947 108.155H163.866L165.501 96.1062H156.628L154.947 108.155Z" fill="black"/>
<path d="M153.779 108.155H163.026L164.66 96.1062H155.414L153.779 108.155Z" fill="url(#paint25_linear_101_5993)"/>
<path opacity="0.4" d="M162.185 107.174L163.586 97.0403H156.254L154.854 107.174H162.185Z" fill="white"/>
<path d="M92.2303 90.4091L91.8567 90.8294L91.4364 91.2963C91.1562 91.6232 90.876 91.9501 90.6426 92.277C90.1289 92.9308 89.6152 93.6313 89.1482 94.3318C88.2142 95.7327 87.4203 97.1804 86.8132 98.6281C86.533 99.3752 86.2996 100.122 86.1595 100.87C86.0661 101.29 86.0194 101.477 86.0194 101.663C85.9727 101.85 85.9727 101.944 86.0194 102.084C86.0661 102.364 86.393 102.784 86.9533 103.158C87.2335 103.345 87.5604 103.485 87.934 103.672C88.1208 103.765 88.3076 103.812 88.4944 103.905C88.6812 103.952 88.9147 104.045 89.0548 104.092V106.66C88.7279 106.707 88.4944 106.754 88.2142 106.754C87.934 106.754 87.6538 106.8 87.4203 106.754C86.8599 106.754 86.2996 106.66 85.7392 106.52C85.1788 106.38 84.5717 106.147 83.9646 105.82C83.3575 105.446 82.7971 104.979 82.3302 104.325C81.8632 103.672 81.583 102.878 81.4896 102.13C81.4429 101.944 81.4429 101.757 81.4429 101.57C81.4429 101.383 81.4429 101.197 81.4429 101.056V100.776C81.4429 100.683 81.4429 100.636 81.4429 100.543L81.4896 100.122C81.6297 99.0484 81.8632 97.9743 82.1434 96.9936C82.7971 94.9856 83.6844 93.1176 84.8052 91.4364C85.3656 90.5959 85.926 89.7553 86.5797 89.0081C86.9066 88.6345 87.2335 88.2142 87.5604 87.8406C87.7472 87.6538 87.8873 87.467 88.0741 87.2802C88.2609 87.0934 88.401 86.9067 88.6345 86.6732L92.2303 90.4091Z" fill="#B55B52"/>
<path d="M88.0741 103.952L90.2689 102.364L91.5298 106.847C91.5298 106.847 89.6152 107.547 88.1208 106.614L88.0741 103.952Z" fill="#B55B52"/>
<path d="M93.3044 101.29L94.145 105.026L91.5299 106.847L90.269 102.364L93.3044 101.29Z" fill="#B55B52"/>
<path d="M107.081 73.2238C106.987 73.504 107.034 73.7842 107.221 73.8309C107.407 73.8776 107.641 73.7375 107.734 73.4573C107.828 73.1771 107.781 72.8969 107.594 72.8502C107.407 72.8036 107.174 72.9436 107.081 73.2238Z" fill="#263238"/>
<path d="M106.987 73.7842C106.987 73.7842 107.081 75.6054 107.501 76.6328C106.847 76.913 106.1 76.3993 106.1 76.3993L106.987 73.7842Z" fill="#A02724"/>
<path d="M106.614 71.3559C106.66 71.3559 106.66 71.3559 106.707 71.3559C107.454 71.1224 107.921 71.5427 107.921 71.5427C108.015 71.5894 108.108 71.5894 108.155 71.5427C108.201 71.4493 108.201 71.3559 108.155 71.3092C108.108 71.3092 107.501 70.7955 106.614 71.029C106.52 71.0757 106.473 71.1691 106.52 71.2625C106.52 71.3092 106.567 71.3092 106.614 71.3559Z" fill="#263238"/>
<path d="M96.8068 74.2511C97.3205 76.913 97.8341 81.7696 95.9662 83.5442C95.9662 83.5442 96.7134 86.2527 101.617 86.2527C107.034 86.2527 104.232 83.5442 104.232 83.5442C101.29 82.8437 101.337 80.6489 101.85 78.5941L96.8068 74.2511Z" fill="#B55B52"/>
<path d="M95.2658 84.4783C94.8922 83.6377 94.4252 82.657 95.3125 82.3301C96.2931 82.0032 101.617 81.6297 103.485 82.2834C105.306 82.9372 104.792 84.6651 104.792 84.6651L95.2658 84.4783Z" fill="#263238"/>
<path d="M113.945 89.008C115.066 91.0627 116.327 93.1642 117.541 95.2189C118.802 97.2737 120.063 99.2817 121.464 101.15C121.791 101.617 122.164 102.037 122.538 102.504C122.725 102.737 122.911 102.924 123.098 103.111L123.378 103.438L123.425 103.531L123.472 103.578L123.519 103.625C123.612 103.765 123.892 103.952 124.266 104.092C124.639 104.232 125.106 104.325 125.62 104.419C127.675 104.699 130.15 104.559 132.438 104.325L133.139 106.8C132.485 107.08 131.924 107.267 131.317 107.501C130.71 107.734 130.056 107.874 129.449 108.061C128.188 108.388 126.834 108.575 125.386 108.622C124.686 108.622 123.892 108.575 123.098 108.388C122.304 108.201 121.417 107.921 120.577 107.267L120.25 106.987L120.156 106.94L120.11 106.894L120.016 106.8L119.643 106.427C119.409 106.193 119.129 105.96 118.942 105.726C118.475 105.259 118.055 104.746 117.634 104.232C115.953 102.224 114.506 100.169 113.151 98.0209C112.451 96.9468 111.797 95.8727 111.19 94.7987C110.536 93.7246 109.929 92.6505 109.369 91.483L113.945 89.008Z" fill="#B55B52"/>
<path d="M89.475 84.3848C86.066 85.1787 82.1433 94.4717 82.1433 94.4717L88.9613 99.1416C88.9613 99.1416 91.5298 95.4991 93.4911 91.483C95.5459 87.1867 92.9775 83.5442 89.475 84.3848Z" fill="url(#paint26_linear_101_5993)"/>
<path opacity="0.2" d="M91.9501 90.2689L88.7278 98.8615L89.0547 99.095C89.0547 99.095 90.4557 97.1337 91.9501 94.4718V90.2689Z" fill="black"/>
<path d="M109.836 84.5716C109.836 84.5716 113.712 88.9613 110.069 116C104.232 116 93.4913 116 90.6426 116C90.5025 113.011 92.3705 98.4412 89.5219 84.3848C89.5219 84.3848 92.8375 83.731 96.013 83.5442C98.488 83.4041 102.084 83.3574 104.279 83.5442C107.127 83.8244 109.836 84.5716 109.836 84.5716Z" fill="url(#paint27_linear_101_5993)"/>
<path opacity="0.2" d="M107.688 92.3704C107.734 92.4638 108.155 96.8535 111.517 100.683C111.61 98.9549 111.61 97.3671 111.61 95.9662L107.688 92.3704Z" fill="black"/>
<path d="M106.006 87.5137C105.539 90.9694 112.311 99.7488 112.311 99.7488L119.129 95.0789C119.129 95.0789 117.261 90.2222 114.039 87.0467C110.443 83.4042 106.52 83.731 106.006 87.5137Z" fill="url(#paint28_linear_101_5993)"/>
<path d="M131.691 104.325L134.446 103.204L137.295 105.353C137.295 105.353 134.586 107.781 132.111 106.847L131.691 104.325Z" fill="#B55B52"/>
<path d="M136.314 103.111L138.369 104.605L137.295 105.353L134.446 103.204L136.314 103.111Z" fill="#B55B52"/>
<path d="M98.0211 69.4412C97.0404 72.8969 96.2932 74.905 97.414 77.2399C99.0951 80.7423 103.812 80.6489 105.82 77.5668C107.594 74.7649 108.902 69.5346 106.053 67.0596C103.251 64.5378 99.0017 65.9388 98.0211 69.4412Z" fill="#B55B52"/>
<path d="M105.399 69.4412C103.998 73.4106 102.364 77.8003 98.3479 76.9597C95.7327 76.446 95.5459 72.2431 94.612 70.3285C93.7714 68.6473 93.8181 65.285 95.5459 65.285C94.7988 64.1642 98.6748 60.1014 101.29 62.2496C101.944 61.3156 106.847 58.5604 110.443 62.9501C113.852 67.1063 112.217 70.562 105.399 69.4412Z" fill="#263238"/>
<path d="M102.271 72.0097C102.177 72.9436 102.411 73.8776 102.831 74.5781C103.438 75.5588 104.372 75.1852 104.699 74.1578C104.979 73.2238 105.026 71.5894 104.185 70.9823C103.298 70.3285 102.411 70.9356 102.271 72.0097Z" fill="#B55B52"/>
<path d="M132.111 164.333C132.578 164.333 133.045 164.286 133.185 164.053C133.232 163.96 133.279 163.866 133.185 163.679C133.139 163.586 133.045 163.493 132.905 163.493C132.298 163.306 131.037 164.053 130.99 164.1C130.944 164.1 130.944 164.146 130.944 164.193C130.944 164.24 130.99 164.24 130.99 164.286C131.224 164.286 131.691 164.333 132.111 164.333ZM132.672 163.633C132.718 163.633 132.765 163.633 132.858 163.633C132.952 163.633 132.998 163.679 133.045 163.773C133.092 163.866 133.092 163.913 133.045 163.96C132.858 164.193 131.971 164.193 131.271 164.1C131.597 163.96 132.251 163.633 132.672 163.633Z" fill="url(#paint29_linear_101_5993)"/>
<path d="M130.99 164.24C131.037 164.24 131.037 164.24 130.99 164.24C131.457 164.053 132.345 163.259 132.251 162.839C132.251 162.745 132.158 162.605 131.924 162.605C131.737 162.605 131.597 162.652 131.457 162.745C130.99 163.119 130.897 164.1 130.897 164.146C130.897 164.193 130.897 164.193 130.944 164.24C130.99 164.24 130.99 164.24 130.99 164.24ZM131.878 162.792H131.924C132.064 162.792 132.111 162.885 132.111 162.885C132.158 163.119 131.551 163.773 131.13 164.006C131.177 163.726 131.317 163.119 131.597 162.885C131.691 162.792 131.784 162.792 131.878 162.792Z" fill="url(#paint30_linear_101_5993)"/>
<path d="M126.787 164.146H130.43L131.224 155.741H127.581L126.787 164.146Z" fill="#B55B52"/>
<path d="M130.617 163.726H126.647C126.507 163.726 126.367 163.82 126.32 163.96L125.62 167.182C125.527 167.509 125.807 167.836 126.134 167.836C127.581 167.789 129.636 167.742 131.411 167.742C133.512 167.742 135.333 167.836 137.808 167.836C139.303 167.836 139.723 166.341 139.069 166.201C136.221 165.594 133.886 165.501 131.457 164.006C131.224 163.866 130.944 163.726 130.617 163.726Z" fill="#263238"/>
<path opacity="0.2" d="M131.224 155.741L130.804 160.084H127.161L127.581 155.741H131.224Z" fill="black"/>
<path d="M117.541 164.333C117.915 164.333 118.288 164.287 118.428 164.1C118.475 164.006 118.522 163.866 118.428 163.679C118.382 163.586 118.288 163.493 118.148 163.493C117.635 163.353 116.607 164.053 116.56 164.1C116.514 164.1 116.514 164.146 116.514 164.193C116.514 164.24 116.56 164.24 116.56 164.24C116.794 164.287 117.168 164.333 117.541 164.333ZM118.008 163.633C118.055 163.633 118.101 163.633 118.101 163.633C118.195 163.633 118.242 163.679 118.242 163.726C118.335 163.866 118.288 163.913 118.242 163.96C118.101 164.146 117.354 164.146 116.794 164.053C117.168 163.913 117.681 163.633 118.008 163.633Z" fill="url(#paint31_linear_101_5993)"/>
<path d="M116.607 164.24C117.027 164.006 117.775 163.212 117.681 162.839C117.681 162.745 117.635 162.652 117.401 162.605C117.261 162.605 117.168 162.605 117.027 162.699C116.607 163.026 116.514 164.1 116.514 164.146C116.514 164.193 116.514 164.193 116.56 164.24H116.607ZM117.354 162.792C117.494 162.792 117.494 162.839 117.541 162.886C117.588 163.119 117.121 163.726 116.747 164.006C116.794 163.679 116.887 163.072 117.168 162.886C117.214 162.792 117.261 162.792 117.354 162.792Z" fill="url(#paint32_linear_101_5993)"/>
<path d="M112.451 164.147H116.093L117.915 155.741H114.272L112.451 164.147Z" fill="#B55B52"/>
<path d="M116.327 163.726H112.264C112.124 163.726 111.984 163.82 111.937 163.96L111.237 167.182C111.143 167.509 111.424 167.836 111.75 167.836C113.198 167.789 113.852 167.742 115.673 167.742C116.794 167.742 118.195 167.836 119.736 167.836C121.23 167.836 121.464 166.341 120.857 166.201C118.055 165.594 117.868 164.754 116.981 163.96C116.747 163.82 116.56 163.726 116.327 163.726Z" fill="#263238"/>
<g opacity="0.2">
<path d="M114.272 155.741H117.915L116.981 160.084H113.338L114.272 155.741Z" fill="black"/>
</g>
<path d="M110.069 115.953C110.069 115.953 137.295 118.849 137.014 132.718C136.688 147.148 132.064 158.216 132.064 158.216H126.647C126.647 158.216 126.928 149.39 126.741 135.193C126.694 130.944 118.055 129.543 109.649 129.029C102.364 128.609 96.0129 124.032 93.211 117.308L92.6506 115.953H110.069Z" fill="#263238"/>
<path d="M133.372 156.768C133.419 156.768 133.045 159.337 133.045 159.337H125.573L125.386 157.048L133.372 156.768Z" fill="url(#paint33_linear_101_5993)"/>
<path d="M104.232 115.953C104.232 115.953 123.986 122.491 124.453 130.617C125.386 145.514 118.055 158.263 118.055 158.263H112.591C112.591 158.263 114.646 151.958 115.393 138.462C116.327 121.464 84.6651 138.415 90.5958 116H104.232V115.953Z" fill="#263238"/>
<path d="M119.736 156.768C119.783 156.768 119.035 159.337 119.035 159.337H111.564L111.704 157.048L119.736 156.768Z" fill="url(#paint34_linear_101_5993)"/>
<path d="M118.475 130.243H88.1207C88.1207 128.328 89.6618 126.787 91.5764 126.787H115.019C116.934 126.787 118.475 128.328 118.475 130.243Z" fill="url(#paint35_linear_101_5993)"/>
<path d="M89.5217 130.243L84.9452 168.63H85.9259L91.7165 130.243H89.5217Z" fill="url(#paint36_linear_101_5993)"/>
<path opacity="0.4" d="M89.5217 130.243L84.9452 168.63H85.9259L91.7165 130.243H89.5217Z" fill="black"/>
<path d="M95.6393 130.243L95.5459 168.63H96.5266L97.8341 130.243H95.6393Z" fill="url(#paint37_linear_101_5993)"/>
<path opacity="0.4" d="M95.6393 130.243L95.5459 168.63H96.5266L97.8341 130.243H95.6393Z" fill="black"/>
<path d="M117.074 130.243L121.65 168.63H120.67L114.879 130.243H117.074Z" fill="url(#paint38_linear_101_5993)"/>
<path opacity="0.4" d="M117.074 130.243L121.65 168.63H120.67L114.879 130.243H117.074Z" fill="black"/>
<path d="M110.957 130.243L111.05 168.63H110.069L108.762 130.243H110.957Z" fill="url(#paint39_linear_101_5993)"/>
<path opacity="0.4" d="M110.957 130.243L111.05 168.63H110.069L108.762 130.243H110.957Z" fill="black"/>
</g>
<defs>
<linearGradient id="paint0_linear_101_5993" x1="147.699" y1="13.5557" x2="136.536" y2="65.2923" gradientUnits="userSpaceOnUse">
<stop stop-color="#933BCB"/>
<stop offset="1" stop-color="#A636FF"/>
</linearGradient>
<linearGradient id="paint1_linear_101_5993" x1="128.86" y1="31.9734" x2="126.815" y2="41.4503" gradientUnits="userSpaceOnUse">
<stop stop-color="#933BCB"/>
<stop offset="1" stop-color="#A636FF"/>
</linearGradient>
<linearGradient id="paint2_linear_101_5993" x1="210.142" y1="20.0268" x2="194.213" y2="93.8576" gradientUnits="userSpaceOnUse">
<stop stop-color="#933BCB"/>
<stop offset="1" stop-color="#A636FF"/>
</linearGradient>
<linearGradient id="paint3_linear_101_5993" x1="197.334" y1="32.5933" x2="187.634" y2="77.5529" gradientUnits="userSpaceOnUse">
<stop stop-color="#933BCB"/>
<stop offset="1" stop-color="#A636FF"/>
</linearGradient>
<linearGradient id="paint4_linear_101_5993" x1="134.049" y1="82.7252" x2="133.21" y2="84.6696" gradientUnits="userSpaceOnUse">
<stop stop-color="#933BCB"/>
<stop offset="1" stop-color="#A636FF"/>
</linearGradient>
<linearGradient id="paint5_linear_101_5993" x1="126.535" y1="71.1492" x2="125.902" y2="73.8106" gradientUnits="userSpaceOnUse">
<stop stop-color="#933BCB"/>
<stop offset="1" stop-color="#A636FF"/>
</linearGradient>
<linearGradient id="paint6_linear_101_5993" x1="125.13" y1="63.9402" x2="123.589" y2="66.3614" gradientUnits="userSpaceOnUse">
<stop stop-color="#933BCB"/>
<stop offset="1" stop-color="#A636FF"/>
</linearGradient>
<linearGradient id="paint7_linear_101_5993" x1="130.032" y1="72.9778" x2="129.946" y2="74.1247" gradientUnits="userSpaceOnUse">
<stop stop-color="#933BCB"/>
<stop offset="1" stop-color="#A636FF"/>
</linearGradient>
<linearGradient id="paint8_linear_101_5993" x1="125.13" y1="67.5366" x2="123.626" y2="69.9401" gradientUnits="userSpaceOnUse">
<stop stop-color="#933BCB"/>
<stop offset="1" stop-color="#A636FF"/>
</linearGradient>
<linearGradient id="paint9_linear_101_5993" x1="134.039" y1="75.5221" x2="132.56" y2="77.9746" gradientUnits="userSpaceOnUse">
<stop stop-color="#933BCB"/>
<stop offset="1" stop-color="#A636FF"/>
</linearGradient>
<linearGradient id="paint10_linear_101_5993" x1="134.049" y1="79.1181" x2="132.546" y2="81.5215" gradientUnits="userSpaceOnUse">
<stop stop-color="#933BCB"/>
<stop offset="1" stop-color="#A636FF"/>
</linearGradient>
<linearGradient id="paint11_linear_101_5993" x1="133.34" y1="73.0501" x2="132.984" y2="75.2521" gradientUnits="userSpaceOnUse">
<stop stop-color="#933BCB"/>
<stop offset="1" stop-color="#A636FF"/>
</linearGradient>
<linearGradient id="paint12_linear_101_5993" x1="125.13" y1="61.2437" x2="124.291" y2="63.1881" gradientUnits="userSpaceOnUse">
<stop stop-color="#933BCB"/>
<stop offset="1" stop-color="#A636FF"/>
</linearGradient>
<linearGradient id="paint13_linear_101_5993" x1="158.386" y1="108.131" x2="158.379" y2="110.265" gradientUnits="userSpaceOnUse">
<stop stop-color="#933BCB"/>
<stop offset="1" stop-color="#A636FF"/>
</linearGradient>
<linearGradient id="paint14_linear_101_5993" x1="155.089" y1="109.87" x2="155.123" y2="107.737" gradientUnits="userSpaceOnUse">
<stop stop-color="#933BCB"/>
<stop offset="1" stop-color="#A636FF"/>
</linearGradient>
<linearGradient id="paint15_linear_101_5993" x1="178.3" y1="109.858" x2="178.293" y2="112.107" gradientUnits="userSpaceOnUse">
<stop stop-color="#933BCB"/>
<stop offset="1" stop-color="#A636FF"/>
</linearGradient>
<linearGradient id="paint16_linear_101_5993" x1="62.3348" y1="110.955" x2="44.5087" y2="115.979" gradientUnits="userSpaceOnUse">
<stop stop-color="#933BCB"/>
<stop offset="1" stop-color="#A636FF"/>
</linearGradient>
<linearGradient id="paint17_linear_101_5993" x1="79.847" y1="110.955" x2="62.0209" y2="115.979" gradientUnits="userSpaceOnUse">
<stop stop-color="#933BCB"/>
<stop offset="1" stop-color="#A636FF"/>
</linearGradient>
<linearGradient id="paint18_linear_101_5993" x1="171.375" y1="110.955" x2="153.761" y2="115.85" gradientUnits="userSpaceOnUse">
<stop stop-color="#933BCB"/>
<stop offset="1" stop-color="#A636FF"/>
</linearGradient>
<linearGradient id="paint19_linear_101_5993" x1="153.865" y1="110.955" x2="136.039" y2="115.979" gradientUnits="userSpaceOnUse">
<stop stop-color="#933BCB"/>
<stop offset="1" stop-color="#A636FF"/>
</linearGradient>
<linearGradient id="paint20_linear_101_5993" x1="153.125" y1="86.8555" x2="150.123" y2="112.452" gradientUnits="userSpaceOnUse">
<stop stop-color="#933BCB"/>
<stop offset="1" stop-color="#A636FF"/>
</linearGradient>
<linearGradient id="paint21_linear_101_5993" x1="152.094" y1="86.8707" x2="149.39" y2="111.134" gradientUnits="userSpaceOnUse">
<stop stop-color="#933BCB"/>
<stop offset="1" stop-color="#A636FF"/>
</linearGradient>
<linearGradient id="paint22_linear_101_5993" x1="138.424" y1="107.019" x2="138.415" y2="108.403" gradientUnits="userSpaceOnUse">
<stop stop-color="#933BCB"/>
<stop offset="1" stop-color="#A636FF"/>
</linearGradient>
<linearGradient id="paint23_linear_101_5993" x1="67.6391" y1="100.772" x2="65.9824" y2="109.391" gradientUnits="userSpaceOnUse">
<stop stop-color="#933BCB"/>
<stop offset="1" stop-color="#A636FF"/>
</linearGradient>
<linearGradient id="paint24_linear_101_5993" x1="165.768" y1="95.943" x2="162.313" y2="109.969" gradientUnits="userSpaceOnUse">
<stop stop-color="#933BCB"/>
<stop offset="1" stop-color="#A636FF"/>
</linearGradient>
<linearGradient id="paint25_linear_101_5993" x1="164.936" y1="95.943" x2="161.574" y2="110.017" gradientUnits="userSpaceOnUse">
<stop stop-color="#933BCB"/>
<stop offset="1" stop-color="#A636FF"/>
</linearGradient>
<linearGradient id="paint26_linear_101_5993" x1="94.5292" y1="84.0617" x2="89.969" y2="101.221" gradientUnits="userSpaceOnUse">
<stop stop-color="#933BCB"/>
<stop offset="1" stop-color="#A636FF"/>
</linearGradient>
<linearGradient id="paint27_linear_101_5993" x1="112.19" y1="82.9797" x2="100.574" y2="119.514" gradientUnits="userSpaceOnUse">
<stop stop-color="#933BCB"/>
<stop offset="1" stop-color="#A636FF"/>
</linearGradient>
<linearGradient id="paint28_linear_101_5993" x1="119.462" y1="84.2811" x2="115.02" y2="102.012" gradientUnits="userSpaceOnUse">
<stop stop-color="#933BCB"/>
<stop offset="1" stop-color="#A636FF"/>
</linearGradient>
<linearGradient id="paint29_linear_101_5993" x1="133.297" y1="163.451" x2="133.21" y2="164.519" gradientUnits="userSpaceOnUse">
<stop stop-color="#933BCB"/>
<stop offset="1" stop-color="#A636FF"/>
</linearGradient>
<linearGradient id="paint30_linear_101_5993" x1="132.293" y1="162.583" x2="131.803" y2="164.474" gradientUnits="userSpaceOnUse">
<stop stop-color="#933BCB"/>
<stop offset="1" stop-color="#A636FF"/>
</linearGradient>
<linearGradient id="paint31_linear_101_5993" x1="118.532" y1="163.463" x2="118.433" y2="164.514" gradientUnits="userSpaceOnUse">
<stop stop-color="#933BCB"/>
<stop offset="1" stop-color="#A636FF"/>
</linearGradient>
<linearGradient id="paint32_linear_101_5993" x1="117.719" y1="162.583" x2="117.163" y2="164.435" gradientUnits="userSpaceOnUse">
<stop stop-color="#933BCB"/>
<stop offset="1" stop-color="#A636FF"/>
</linearGradient>
<linearGradient id="paint33_linear_101_5993" x1="133.578" y1="156.733" x2="133.36" y2="159.89" gradientUnits="userSpaceOnUse">
<stop stop-color="#933BCB"/>
<stop offset="1" stop-color="#A636FF"/>
</linearGradient>
<linearGradient id="paint34_linear_101_5993" x1="119.945" y1="156.733" x2="119.731" y2="159.89" gradientUnits="userSpaceOnUse">
<stop stop-color="#933BCB"/>
<stop offset="1" stop-color="#A636FF"/>
</linearGradient>
<linearGradient id="paint35_linear_101_5993" x1="119.244" y1="126.741" x2="119.139" y2="131.005" gradientUnits="userSpaceOnUse">
<stop stop-color="#933BCB"/>
<stop offset="1" stop-color="#A636FF"/>
</linearGradient>
<linearGradient id="paint36_linear_101_5993" x1="91.8881" y1="129.723" x2="68.6615" y2="148.712" gradientUnits="userSpaceOnUse">
<stop stop-color="#933BCB"/>
<stop offset="1" stop-color="#A636FF"/>
</linearGradient>
<linearGradient id="paint37_linear_101_5993" x1="97.8921" y1="129.723" x2="85.7255" y2="133.084" gradientUnits="userSpaceOnUse">
<stop stop-color="#933BCB"/>
<stop offset="1" stop-color="#A636FF"/>
</linearGradient>
<linearGradient id="paint38_linear_101_5993" x1="121.822" y1="129.723" x2="98.5955" y2="148.712" gradientUnits="userSpaceOnUse">
<stop stop-color="#933BCB"/>
<stop offset="1" stop-color="#A636FF"/>
</linearGradient>
<linearGradient id="paint39_linear_101_5993" x1="111.108" y1="129.723" x2="98.9412" y2="133.084" gradientUnits="userSpaceOnUse">
<stop stop-color="#933BCB"/>
<stop offset="1" stop-color="#A636FF"/>
</linearGradient>
<clipPath id="clip0_101_5993">
<rect width="233.494" height="174" fill="white"/>
</clipPath>
</defs>
</svg>
