<svg width="210" height="206" viewBox="0 0 210 206" fill="none" xmlns="http://www.w3.org/2000/svg">
<g clip-path="url(#clip0_101_3085)">
<path d="M198.628 52.8365C197.557 44.447 195.459 36.4144 191.041 29.1405C182.875 15.5297 168.193 7.31863 153.288 3.16847C140.793 -0.312314 127.316 -1.3387 114.866 2.27596C101.166 6.24762 89.6971 15.3512 77.3805 22.4913C68.4108 27.6678 58.9056 31.9965 49.2219 35.7004C41.3678 38.6903 31.4164 40.3861 24.9457 46.0981C20.974 49.5789 17.4932 53.6398 14.5033 57.9685C2.4991 75.5509 -1.42794 97.9528 0.446328 118.882C1.74046 133.475 5.75675 148.201 14.7265 159.759C27.3554 175.958 48.9988 183.946 69.4372 181.938C92.6424 179.662 114.598 165.783 137.669 169.13C149.138 170.782 160.116 176.672 171.674 175.601C183.053 174.53 192.782 166.676 199.654 157.528C205.143 150.209 208.847 141.329 209.159 132.091C209.516 122.095 205.009 112.992 202.733 103.442C198.806 86.7519 200.814 69.6603 198.628 52.8365Z" fill="url(#paint0_linear_101_3085)"/>
<path opacity="0.7" d="M198.628 52.8365C197.557 44.447 195.459 36.4144 191.041 29.1405C182.875 15.5297 168.193 7.31863 153.288 3.16847C140.793 -0.312314 127.316 -1.3387 114.866 2.27596C101.166 6.24762 89.6971 15.3512 77.3805 22.4913C68.4108 27.6678 58.9056 31.9965 49.2219 35.7004C41.3678 38.6903 31.4164 40.3861 24.9457 46.0981C20.974 49.5789 17.4932 53.6398 14.5033 57.9685C2.4991 75.5509 -1.42794 97.9528 0.446328 118.882C1.74046 133.475 5.75675 148.201 14.7265 159.759C27.3554 175.958 48.9988 183.946 69.4372 181.938C92.6424 179.662 114.598 165.783 137.669 169.13C149.138 170.782 160.116 176.672 171.674 175.601C183.053 174.53 192.782 166.676 199.654 157.528C205.143 150.209 208.847 141.329 209.159 132.091C209.516 122.095 205.009 112.992 202.733 103.442C198.806 86.7519 200.814 69.6603 198.628 52.8365Z" fill="white"/>
<path d="M143.17 132.144H208.279V129.689H143.17V132.144Z" stroke="#263238" stroke-width="0.446254" stroke-miterlimit="10" stroke-linecap="round" stroke-linejoin="round"/>
<path d="M146.16 198.509H205.245V132.195H146.16V198.509Z" stroke="#263238" stroke-width="0.446254" stroke-miterlimit="10" stroke-linecap="round" stroke-linejoin="round"/>
<path d="M148.326 149.675H203.216V135.306H148.326V149.675Z" stroke="#263238" stroke-width="0.446254" stroke-miterlimit="10" stroke-linecap="round" stroke-linejoin="round"/>
<path d="M173.104 143.829H178.593V141.196H173.104V143.829Z" fill="#263238" stroke="#263238" stroke-width="0.446254" stroke-miterlimit="10" stroke-linecap="round" stroke-linejoin="round"/>
<path d="M148.326 167.863H203.216V153.493H148.326V167.863Z" stroke="#263238" stroke-width="0.446254" stroke-miterlimit="10" stroke-linecap="round" stroke-linejoin="round"/>
<path d="M173.104 161.972H178.593V159.339H173.104V161.972Z" fill="#263238" stroke="#263238" stroke-width="0.446254" stroke-miterlimit="10" stroke-linecap="round" stroke-linejoin="round"/>
<path d="M148.326 186.129H203.216V171.759H148.326V186.129Z" stroke="#263238" stroke-width="0.446254" stroke-miterlimit="10" stroke-linecap="round" stroke-linejoin="round"/>
<path d="M173.104 180.238H178.593V177.605H173.104V180.238Z" fill="#263238" stroke="#263238" stroke-width="0.446254" stroke-miterlimit="10" stroke-linecap="round" stroke-linejoin="round"/>
<path d="M178.413 100.675C179.082 100.987 180.689 100.943 180.689 100.943C180.689 100.943 180.332 99.8717 180.287 99.827C179.93 99.0684 178.814 97.8635 177.877 97.9528C177.208 98.042 176.851 98.7114 176.985 99.3362C177.208 99.9609 177.877 100.407 178.413 100.675Z" fill="#263238"/>
<path d="M194.88 101.032C194.88 101.032 195.192 99.9609 195.192 99.8717C195.326 99.0684 195.058 97.4173 194.21 97.0156C193.63 96.7033 192.916 97.0603 192.737 97.685C192.514 98.3098 192.782 99.0684 193.139 99.5593C193.496 100.184 194.88 101.032 194.88 101.032Z" fill="#263238"/>
<path d="M199.744 95.1414C198.807 95.0521 197.736 96.3016 197.379 97.0603C197.334 97.1049 197.022 98.2205 197.022 98.2205C196.843 98.399 196.665 98.6222 196.486 98.8899C196.129 99.3362 195.727 99.827 195.326 100.407C194.924 100.987 194.478 101.612 194.121 102.326C193.719 103.04 193.362 103.799 193.094 104.647C193.094 104.647 193.094 104.647 193.094 104.691C193.094 104.423 193.094 103.665 193.094 103.62C193.005 102.817 192.291 101.255 191.399 101.121C190.729 100.987 190.194 101.523 190.149 102.148C190.105 102.817 190.551 103.442 191.042 103.843C191.577 104.29 193.005 104.78 193.139 104.78C192.871 105.584 192.693 106.432 192.514 107.279C192.425 107.77 192.336 108.261 192.291 108.797C192.291 108.574 192.291 108.35 192.291 108.306C192.202 107.503 191.488 105.941 190.595 105.807C189.926 105.673 189.391 106.208 189.346 106.833C189.301 107.503 189.748 108.127 190.238 108.574C190.685 108.975 191.934 109.422 192.247 109.511C192.202 109.689 192.202 109.912 192.157 110.091C192.068 111.028 191.934 111.965 191.8 112.858C191.756 113.17 191.711 113.482 191.622 113.795C191.622 113.572 191.622 113.393 191.622 113.393C191.533 112.59 190.819 111.028 189.926 110.894C189.257 110.76 188.721 111.296 188.677 111.921C188.632 112.59 189.078 113.215 189.569 113.616C190.015 114.018 191.131 114.42 191.533 114.509C191.443 114.821 191.399 115.134 191.309 115.446C191.265 115.669 191.22 115.848 191.131 116.071C191.086 116.294 190.997 116.472 190.952 116.695C190.819 117.097 190.685 117.454 190.506 117.856C190.417 118.123 190.328 118.347 190.194 118.614C190.238 118.302 190.328 117.677 190.328 117.633C190.328 117.097 190.149 116.205 189.748 115.58C189.748 115.491 189.748 115.401 189.748 115.357C189.658 114.732 189.034 114.241 188.409 114.42C187.516 114.643 186.936 116.249 186.892 117.052C186.892 117.097 186.936 117.633 186.936 117.99C186.892 117.811 186.847 117.588 186.802 117.409C186.713 117.008 186.624 116.606 186.49 116.205C186.445 115.981 186.356 115.803 186.311 115.58C186.267 115.357 186.178 115.178 186.088 114.955C185.91 114.464 185.687 113.973 185.508 113.527C185.865 113.438 187.07 113.125 187.561 112.768C188.052 112.411 188.587 111.787 188.587 111.117C188.587 110.493 188.052 109.912 187.382 110.002C186.445 110.091 185.642 111.564 185.508 112.367C185.508 112.411 185.464 112.992 185.419 113.349C185.285 113.081 185.151 112.768 185.017 112.501C184.616 111.653 184.169 110.85 183.723 110.002C183.589 109.734 183.455 109.511 183.322 109.243C183.455 109.198 184.928 108.886 185.464 108.44C185.954 108.083 186.49 107.458 186.49 106.789C186.49 106.164 185.954 105.584 185.285 105.673C184.348 105.762 183.545 107.235 183.411 108.038C183.411 108.083 183.322 108.975 183.322 109.154C183.009 108.574 182.741 108.038 182.474 107.458C182.117 106.699 181.804 105.896 181.581 105.137C181.626 105.137 183.188 104.78 183.723 104.334C184.214 103.977 184.75 103.352 184.75 102.683C184.75 102.058 184.214 101.478 183.545 101.567C182.608 101.657 181.804 103.129 181.67 103.933C181.67 103.977 181.581 104.647 181.581 104.959C181.537 104.959 181.537 104.959 181.537 104.959C181.269 104.111 181.135 103.263 181.046 102.46C181.001 102.014 180.956 101.567 180.956 101.121C181.269 101.077 182.563 100.898 183.143 100.586C183.679 100.273 184.259 99.6932 184.303 99.0684C184.348 98.4437 183.902 97.8189 183.232 97.8189C182.295 97.8189 181.358 99.2023 181.09 99.9609C181.09 100.006 181.001 100.452 180.912 100.764C180.912 100.586 180.912 100.363 180.912 100.184C180.912 99.47 180.956 98.8453 181.001 98.2652C181.046 97.9528 181.046 97.6404 181.09 97.3726C181.358 97.1941 182.429 96.4355 182.741 95.9C183.054 95.3645 183.322 94.6059 183.098 93.9811C182.875 93.401 182.161 93.044 181.581 93.3564C180.778 93.8026 180.555 95.4538 180.689 96.257C180.689 96.3463 181.001 97.4173 181.046 97.4173C181.001 97.685 180.956 97.9528 180.956 98.2652C180.912 98.8453 180.823 99.47 180.823 100.184C180.823 100.898 180.822 101.657 180.867 102.46C180.956 103.263 181.046 104.111 181.269 104.959C181.269 104.959 181.269 104.959 181.269 105.004C181.135 104.78 180.689 104.156 180.644 104.111C180.108 103.486 178.68 102.594 177.833 102.951C177.208 103.219 177.029 103.933 177.342 104.513C177.654 105.093 178.413 105.361 179.037 105.45C179.707 105.539 181.18 105.137 181.313 105.093C181.537 105.896 181.849 106.744 182.206 107.547C182.384 107.993 182.608 108.484 182.831 108.931C182.697 108.752 182.563 108.574 182.563 108.529C182.027 107.904 180.599 107.012 179.751 107.369C179.127 107.636 178.948 108.351 179.261 108.931C179.573 109.511 180.332 109.779 180.956 109.868C181.581 109.957 182.831 109.645 183.143 109.511C183.232 109.689 183.322 109.868 183.411 110.046C183.812 110.894 184.259 111.697 184.66 112.545C184.794 112.858 184.928 113.125 185.062 113.438C184.928 113.259 184.839 113.125 184.839 113.081C184.303 112.456 182.875 111.564 182.027 111.921C181.403 112.188 181.224 112.902 181.537 113.482C181.849 114.063 182.608 114.33 183.232 114.42C183.812 114.509 184.973 114.196 185.374 114.107C185.508 114.42 185.597 114.732 185.731 115C185.776 115.223 185.865 115.401 185.91 115.624C185.954 115.848 186.044 116.026 186.088 116.249C186.178 116.651 186.267 117.052 186.356 117.454C186.401 117.722 186.49 117.99 186.535 118.257C186.401 117.945 186.133 117.409 186.088 117.365C185.642 116.651 184.393 115.58 183.5 115.803C182.831 115.981 182.563 116.651 182.786 117.276C183.009 117.9 183.723 118.302 184.303 118.48C184.973 118.659 186.401 118.48 186.579 118.48C186.668 118.927 186.758 119.328 186.802 119.73C186.936 120.622 187.07 121.381 187.159 122.05H183.5V129.726H193.094V122.05H189.391C189.614 121.515 189.881 120.89 190.149 120.221C190.328 119.819 190.506 119.373 190.685 118.927C190.863 118.971 192.291 119.239 192.961 119.105C193.585 118.971 194.299 118.614 194.567 118.034C194.835 117.454 194.612 116.74 193.942 116.517C193.05 116.205 191.711 117.231 191.22 117.9C191.176 117.945 190.908 118.391 190.774 118.704C190.863 118.525 190.908 118.347 190.997 118.123C191.131 117.722 191.265 117.365 191.399 116.919C191.443 116.695 191.533 116.517 191.577 116.294C191.622 116.071 191.666 115.848 191.756 115.669C191.89 115.178 191.979 114.643 192.068 114.152C192.425 114.286 193.585 114.687 194.21 114.643C194.835 114.598 195.594 114.375 195.951 113.839C196.308 113.304 196.174 112.545 195.594 112.233C194.79 111.787 193.273 112.59 192.693 113.17C192.648 113.215 192.291 113.661 192.068 113.929C192.113 113.616 192.157 113.304 192.202 112.992C192.336 112.054 192.425 111.117 192.514 110.225C192.559 109.957 192.559 109.645 192.604 109.377C192.737 109.422 194.121 109.957 194.835 109.912C195.46 109.868 196.218 109.645 196.575 109.109C196.932 108.574 196.798 107.815 196.218 107.503C195.415 107.056 193.898 107.86 193.318 108.44C193.273 108.484 192.737 109.154 192.604 109.332C192.648 108.708 192.737 108.083 192.827 107.458C192.961 106.61 193.139 105.807 193.362 105.004C193.407 105.004 194.88 105.584 195.594 105.539C196.218 105.494 196.977 105.271 197.334 104.736C197.691 104.2 197.557 103.442 196.977 103.129C196.174 102.683 194.656 103.486 194.076 104.066C194.032 104.111 193.63 104.602 193.451 104.87C193.407 104.87 193.451 104.87 193.407 104.825C193.675 103.977 194.032 103.219 194.389 102.505C194.612 102.103 194.835 101.701 195.058 101.344C195.326 101.478 196.531 102.058 197.155 102.103C197.78 102.148 198.583 101.969 198.985 101.478C199.387 100.987 199.342 100.229 198.807 99.8717C198.048 99.3362 196.486 99.9609 195.817 100.496C195.772 100.541 195.46 100.853 195.237 101.077C195.326 100.898 195.46 100.72 195.549 100.586C195.951 100.006 196.308 99.47 196.665 99.0238C196.888 98.756 197.066 98.5329 197.245 98.3544C197.557 98.3544 198.896 98.3098 199.476 98.042C200.056 97.7743 200.681 97.2834 200.815 96.6586C200.815 95.8554 200.413 95.186 199.744 95.1414ZM189.524 119.908C189.212 120.667 188.855 121.336 188.587 121.961H187.606C187.516 121.292 187.382 120.444 187.159 119.551C187.07 119.105 186.981 118.659 186.847 118.168C186.936 118.123 187.561 117.856 188.096 117.588C188.587 118.123 189.792 118.704 189.926 118.793C189.881 119.15 189.703 119.551 189.524 119.908Z" fill="#263238"/>
<path d="M6.38135 132.894L11.5579 182.518" stroke="#263238" stroke-width="0.892508" stroke-miterlimit="10"/>
<path d="M10.7546 173.013L8.3894 170.514" stroke="#263238" stroke-width="0.892508" stroke-miterlimit="10"/>
<path d="M9.10346 171.272C9.10346 171.272 9.19272 170.157 8.16633 169.264C7.5862 168.729 4.37317 167.39 4.10542 168.506C3.74842 169.755 7.00607 172.12 9.10346 171.272Z" fill="url(#paint1_linear_101_3085)" stroke="#263238" stroke-width="0.446254" stroke-miterlimit="10"/>
<path d="M9.10338 171.272L6.06885 169.398" stroke="#263238" stroke-width="0.223127" stroke-miterlimit="10"/>
<path d="M11.3348 178.635L8.9696 176.181" stroke="#263238" stroke-width="0.892508" stroke-miterlimit="10"/>
<path d="M9.68366 176.895C9.68366 176.895 9.77291 175.779 8.74652 174.887C8.16639 174.351 4.95336 173.013 4.68561 174.128C4.37323 175.378 7.58626 177.788 9.68366 176.895Z" fill="url(#paint2_linear_101_3085)" stroke="#263238" stroke-width="0.446254" stroke-miterlimit="10"/>
<path d="M9.68363 176.895L6.69373 175.021" stroke="#263238" stroke-width="0.223127" stroke-miterlimit="10"/>
<path d="M9.28207 159.223L6.96155 156.769" stroke="#263238" stroke-width="0.892508" stroke-miterlimit="10"/>
<path d="M7.67549 157.528C7.67549 157.528 7.76474 156.412 6.73835 155.52C6.15822 154.984 2.94519 153.645 2.67744 154.761C2.32044 155.966 5.57809 158.376 7.67549 157.528Z" fill="url(#paint3_linear_101_3085)" stroke="#263238" stroke-width="0.446254" stroke-miterlimit="10"/>
<path d="M7.67564 157.528L4.64111 155.609" stroke="#263238" stroke-width="0.223127" stroke-miterlimit="10"/>
<path d="M9.90677 164.891L7.54163 162.392" stroke="#263238" stroke-width="0.892508" stroke-miterlimit="10"/>
<path d="M8.25569 163.15C8.25569 163.15 8.34494 162.035 7.31855 161.142C6.73842 160.607 3.52539 159.268 3.25764 160.384C2.90064 161.633 6.15829 163.998 8.25569 163.15Z" fill="url(#paint4_linear_101_3085)" stroke="#263238" stroke-width="0.446254" stroke-miterlimit="10"/>
<path d="M8.25572 163.15L5.22119 161.276" stroke="#263238" stroke-width="0.223127" stroke-miterlimit="10"/>
<path d="M8.34501 150.075L5.97986 147.621" stroke="#263238" stroke-width="0.892508" stroke-miterlimit="10"/>
<path d="M6.69377 148.335C6.69377 148.335 6.78302 147.219 5.75664 146.327C5.1765 145.791 1.96348 144.452 1.69572 145.568C1.38335 146.818 4.641 149.183 6.69377 148.335Z" fill="url(#paint5_linear_101_3085)" stroke="#263238" stroke-width="0.446254" stroke-miterlimit="10"/>
<path d="M6.69388 148.335L3.70398 146.461" stroke="#263238" stroke-width="0.223127" stroke-miterlimit="10"/>
<path d="M7.363 140.882L5.04248 138.383" stroke="#263238" stroke-width="0.892508" stroke-miterlimit="10"/>
<path d="M5.75654 139.142C5.75654 139.142 5.84579 138.026 4.81941 137.134C4.23928 136.598 1.02625 135.26 0.758495 136.375C0.401492 137.625 3.65915 139.99 5.75654 139.142Z" fill="url(#paint6_linear_101_3085)" stroke="#263238" stroke-width="0.446254" stroke-miterlimit="10"/>
<path d="M5.75645 139.142L2.72192 137.268" stroke="#263238" stroke-width="0.223127" stroke-miterlimit="10"/>
<path d="M10.3529 169.666L12.1379 166.765" stroke="#263238" stroke-width="0.892508" stroke-miterlimit="10"/>
<path d="M11.6025 167.613C11.6025 167.613 11.2901 166.542 12.0934 165.471C12.5843 164.802 15.3957 162.883 15.9312 163.909C16.4667 165.025 13.7892 168.059 11.6025 167.613Z" fill="url(#paint7_linear_101_3085)" stroke="#263238" stroke-width="0.446254" stroke-miterlimit="10"/>
<path d="M11.6025 167.613L14.2801 165.025" stroke="#263238" stroke-width="0.223127" stroke-miterlimit="10"/>
<path d="M8.79089 154.806L10.5759 151.905" stroke="#263238" stroke-width="0.892508" stroke-miterlimit="10"/>
<path d="M10.0405 152.797C10.0405 152.797 9.72813 151.726 10.5314 150.655C11.0223 149.986 13.8337 148.067 14.3692 149.093C14.9493 150.209 12.2718 153.199 10.0405 152.797Z" fill="url(#paint8_linear_101_3085)" stroke="#263238" stroke-width="0.446254" stroke-miterlimit="10"/>
<path d="M10.0405 152.797L12.7627 150.209" stroke="#263238" stroke-width="0.223127" stroke-miterlimit="10"/>
<path d="M8.1217 148.29L9.90672 145.39" stroke="#263238" stroke-width="0.892508" stroke-miterlimit="10"/>
<path d="M9.37119 146.282C9.37119 146.282 9.05881 145.211 9.86207 144.14C10.353 143.471 13.1644 141.552 13.6999 142.578C14.2354 143.649 11.5578 146.684 9.37119 146.282Z" fill="url(#paint9_linear_101_3085)" stroke="#263238" stroke-width="0.446254" stroke-miterlimit="10"/>
<path d="M9.37122 146.282L12.0487 143.694" stroke="#263238" stroke-width="0.223127" stroke-miterlimit="10"/>
<path d="M7.09521 138.74L8.88023 135.84" stroke="#263238" stroke-width="0.892508" stroke-miterlimit="10"/>
<path d="M8.34483 136.688C8.34483 136.688 8.03245 135.617 8.8357 134.546C9.32658 133.876 12.138 131.957 12.6735 132.984C13.2536 134.099 10.5761 137.089 8.34483 136.688Z" fill="url(#paint10_linear_101_3085)" stroke="#263238" stroke-width="0.446254" stroke-miterlimit="10"/>
<path d="M8.34485 136.688L11.067 134.099" stroke="#263238" stroke-width="0.223127" stroke-miterlimit="10"/>
<path d="M6.33665 132.627C6.33665 132.627 6.02427 131.556 6.82753 130.485C7.31841 129.815 10.1298 127.896 10.6653 128.923C11.2454 130.038 8.56792 133.028 6.33665 132.627Z" fill="url(#paint11_linear_101_3085)" stroke="#263238" stroke-width="0.446254" stroke-miterlimit="10"/>
<path d="M6.33667 132.627L9.05882 130.038" stroke="#263238" stroke-width="0.223127" stroke-miterlimit="10"/>
<path d="M6.51513 132.761C6.51513 132.761 5.44412 132.939 4.41773 132.047C3.8376 131.511 2.18646 128.477 3.25747 128.075C4.41773 127.584 7.13988 130.574 6.51513 132.761Z" fill="url(#paint12_linear_101_3085)" stroke="#263238" stroke-width="0.446254" stroke-miterlimit="10"/>
<path d="M6.5151 132.761L4.19458 129.771" stroke="#263238" stroke-width="0.223127" stroke-miterlimit="10"/>
<path d="M20.0367 139.722L14.9048 189.346" stroke="#263238" stroke-width="0.892508" stroke-miterlimit="10"/>
<path d="M16.0204 179.885L14.2354 176.984" stroke="#263238" stroke-width="0.892508" stroke-miterlimit="10"/>
<path d="M14.8155 177.832C14.8155 177.832 15.1279 176.761 14.3246 175.69C13.8337 175.021 11.0223 173.102 10.4868 174.128C9.90668 175.244 12.5842 178.234 14.8155 177.832Z" fill="url(#paint13_linear_101_3085)" stroke="#263238" stroke-width="0.446254" stroke-miterlimit="10"/>
<path d="M14.8154 177.832L12.2272 175.378" stroke="#263238" stroke-width="0.223127" stroke-miterlimit="10"/>
<path d="M17.4485 166.096L15.6635 163.195" stroke="#263238" stroke-width="0.892508" stroke-miterlimit="10"/>
<path d="M16.2436 164.088C16.2436 164.088 16.556 163.017 15.7527 161.946C15.2618 161.276 12.4504 159.357 11.9149 160.384C11.3348 161.455 14.0123 164.489 16.2436 164.088Z" fill="url(#paint14_linear_101_3085)" stroke="#263238" stroke-width="0.446254" stroke-miterlimit="10"/>
<path d="M16.2435 164.088L13.6553 161.633" stroke="#263238" stroke-width="0.223127" stroke-miterlimit="10"/>
<path d="M16.8683 171.763L15.0833 168.818" stroke="#263238" stroke-width="0.892508" stroke-miterlimit="10"/>
<path d="M15.6187 169.71C15.6187 169.71 15.9311 168.639 15.1279 167.568C14.637 166.899 11.8256 164.98 11.2901 166.007C10.7546 167.122 13.4321 170.112 15.6187 169.71Z" fill="url(#paint15_linear_101_3085)" stroke="#263238" stroke-width="0.446254" stroke-miterlimit="10"/>
<path d="M15.6188 169.71L13.0752 167.256" stroke="#263238" stroke-width="0.223127" stroke-miterlimit="10"/>
<path d="M18.4303 156.948L16.6453 154.047" stroke="#263238" stroke-width="0.892508" stroke-miterlimit="10"/>
<path d="M17.1807 154.895C17.1807 154.895 17.4931 153.824 16.6898 152.753C16.199 152.083 13.3876 150.164 12.852 151.191C12.2719 152.307 14.9494 155.296 17.1807 154.895Z" fill="url(#paint16_linear_101_3085)" stroke="#263238" stroke-width="0.446254" stroke-miterlimit="10"/>
<path d="M17.1809 154.895L14.5927 152.44" stroke="#263238" stroke-width="0.223127" stroke-miterlimit="10"/>
<path d="M19.3673 147.755L17.5823 144.854" stroke="#263238" stroke-width="0.892508" stroke-miterlimit="10"/>
<path d="M18.1178 145.702C18.1178 145.702 18.4301 144.631 17.6269 143.56C17.136 142.891 14.3246 140.972 13.7891 141.998C13.209 143.114 15.9311 146.104 18.1178 145.702Z" fill="url(#paint17_linear_101_3085)" stroke="#263238" stroke-width="0.446254" stroke-miterlimit="10"/>
<path d="M18.1177 145.702L15.5741 143.248" stroke="#263238" stroke-width="0.223127" stroke-miterlimit="10"/>
<path d="M16.3326 176.538L18.6978 174.039" stroke="#263238" stroke-width="0.892508" stroke-miterlimit="10"/>
<path d="M17.9838 174.798C17.9838 174.798 17.8945 173.682 18.9209 172.79C19.501 172.254 22.6694 170.915 22.9818 172.031C23.2942 173.236 20.0812 175.646 17.9838 174.798Z" fill="url(#paint18_linear_101_3085)" stroke="#263238" stroke-width="0.446254" stroke-miterlimit="10"/>
<path d="M17.9838 174.798L21.1522 172.79" stroke="#263238" stroke-width="0.223127" stroke-miterlimit="10"/>
<path d="M17.8947 161.678L20.2152 159.223" stroke="#263238" stroke-width="0.892508" stroke-miterlimit="10"/>
<path d="M19.5012 159.937C19.5012 159.937 19.412 158.822 20.4384 157.929C21.0185 157.394 24.1869 156.055 24.4993 157.171C24.8563 158.42 21.5986 160.785 19.5012 159.937Z" fill="url(#paint19_linear_101_3085)" stroke="#263238" stroke-width="0.446254" stroke-miterlimit="10"/>
<path d="M19.5012 159.937L22.7143 157.974" stroke="#263238" stroke-width="0.223127" stroke-miterlimit="10"/>
<path d="M18.5641 155.163L20.8846 152.664" stroke="#263238" stroke-width="0.892508" stroke-miterlimit="10"/>
<path d="M20.1707 153.422C20.1707 153.422 20.0814 152.307 21.1078 151.414C21.6879 150.879 24.8563 149.54 25.1687 150.655C25.5257 151.905 22.2681 154.27 20.1707 153.422Z" fill="url(#paint20_linear_101_3085)" stroke="#263238" stroke-width="0.446254" stroke-miterlimit="10"/>
<path d="M20.1707 153.422L23.3837 151.459" stroke="#263238" stroke-width="0.223127" stroke-miterlimit="10"/>
<path d="M19.5458 145.613L21.9109 143.114" stroke="#263238" stroke-width="0.892508" stroke-miterlimit="10"/>
<path d="M21.197 143.872C21.197 143.872 21.1078 142.757 22.1342 141.864C22.7143 141.329 25.8827 139.99 26.1951 141.106C26.5075 142.31 23.2498 144.72 21.197 143.872Z" fill="url(#paint21_linear_101_3085)" stroke="#263238" stroke-width="0.446254" stroke-miterlimit="10"/>
<path d="M21.197 143.872L24.3654 141.864" stroke="#263238" stroke-width="0.223127" stroke-miterlimit="10"/>
<path d="M20.0814 139.454C20.0814 139.454 19.9922 138.339 21.0186 137.446C21.5987 136.911 24.7671 135.572 25.0795 136.688C25.3919 137.937 22.1342 140.302 20.0814 139.454Z" fill="url(#paint22_linear_101_3085)" stroke="#263238" stroke-width="0.446254" stroke-miterlimit="10"/>
<path d="M20.0814 139.454L23.2498 137.491" stroke="#263238" stroke-width="0.223127" stroke-miterlimit="10"/>
<path d="M20.1706 139.588C20.1706 139.588 19.055 139.544 18.2963 138.473C17.8055 137.803 16.8237 134.546 17.984 134.322C19.2335 134.144 21.2416 137.625 20.1706 139.588Z" fill="url(#paint23_linear_101_3085)" stroke="#263238" stroke-width="0.446254" stroke-miterlimit="10"/>
<path d="M20.1706 139.588L18.5641 136.197" stroke="#263238" stroke-width="0.223127" stroke-miterlimit="10"/>
<path d="M14.1462 119.551V182.25" stroke="#263238" stroke-width="0.892508" stroke-miterlimit="10"/>
<path d="M14.1906 172.834L12.1378 170.112" stroke="#263238" stroke-width="0.892508" stroke-miterlimit="10"/>
<path d="M12.7627 170.915C12.7627 170.915 12.9412 169.844 12.0487 168.818C11.5132 168.238 8.47866 166.587 8.07704 167.658C7.63078 168.863 10.5761 171.585 12.7627 170.915Z" fill="url(#paint24_linear_101_3085)" stroke="#263238" stroke-width="0.446254" stroke-miterlimit="10"/>
<path d="M12.7627 170.915L9.95129 168.729" stroke="#263238" stroke-width="0.223127" stroke-miterlimit="10"/>
<path d="M14.1906 161.053L12.1378 158.331" stroke="#263238" stroke-width="0.892508" stroke-miterlimit="10"/>
<path d="M12.7627 159.134C12.7627 159.134 12.9412 158.063 12.0487 157.037C11.5132 156.457 8.47866 154.806 8.07704 155.877C7.63078 157.081 10.5761 159.759 12.7627 159.134Z" fill="url(#paint25_linear_101_3085)" stroke="#263238" stroke-width="0.446254" stroke-miterlimit="10"/>
<path d="M12.7627 159.134L9.95129 156.948" stroke="#263238" stroke-width="0.223127" stroke-miterlimit="10"/>
<path d="M14.1906 147.219L12.1378 144.497" stroke="#263238" stroke-width="0.892508" stroke-miterlimit="10"/>
<path d="M12.7627 145.3C12.7627 145.3 12.9412 144.229 12.0487 143.203C11.5132 142.623 8.47866 140.972 8.07704 142.043C7.63078 143.248 10.5761 145.925 12.7627 145.3Z" fill="url(#paint26_linear_101_3085)" stroke="#263238" stroke-width="0.446254" stroke-miterlimit="10"/>
<path d="M12.7627 145.3L9.95129 143.114" stroke="#263238" stroke-width="0.223127" stroke-miterlimit="10"/>
<path d="M14.1906 137.982L12.1378 135.26" stroke="#263238" stroke-width="0.892508" stroke-miterlimit="10"/>
<path d="M12.7627 136.107C12.7627 136.107 12.9412 135.036 12.0487 134.01C11.5132 133.43 8.47866 131.779 8.07704 132.85C7.63078 134.01 10.5761 136.732 12.7627 136.107Z" fill="url(#paint27_linear_101_3085)" stroke="#263238" stroke-width="0.446254" stroke-miterlimit="10"/>
<path d="M12.7627 136.107L9.95129 133.921" stroke="#263238" stroke-width="0.223127" stroke-miterlimit="10"/>
<path d="M14.1906 128.744L12.1378 126.022" stroke="#263238" stroke-width="0.892508" stroke-miterlimit="10"/>
<path d="M12.7627 126.825C12.7627 126.825 12.9412 125.754 12.0487 124.728C11.5132 124.148 8.47866 122.497 8.07704 123.568C7.63078 124.773 10.5761 127.495 12.7627 126.825Z" fill="url(#paint28_linear_101_3085)" stroke="#263238" stroke-width="0.446254" stroke-miterlimit="10"/>
<path d="M12.7627 126.825L9.95129 124.639" stroke="#263238" stroke-width="0.223127" stroke-miterlimit="10"/>
<path d="M14.1461 176.404L16.2435 173.727" stroke="#263238" stroke-width="0.892508" stroke-miterlimit="10"/>
<path d="M15.6187 174.53C15.6187 174.53 15.4402 173.459 16.3327 172.433C16.8682 171.852 19.9027 170.201 20.3044 171.272C20.7506 172.433 17.7607 175.155 15.6187 174.53Z" fill="url(#paint29_linear_101_3085)" stroke="#263238" stroke-width="0.446254" stroke-miterlimit="10"/>
<path d="M15.6188 174.53L18.5641 172.209" stroke="#263238" stroke-width="0.223127" stroke-miterlimit="10"/>
<path d="M14.1461 157.662L16.2435 154.984" stroke="#263238" stroke-width="0.892508" stroke-miterlimit="10"/>
<path d="M15.6187 155.787C15.6187 155.787 15.4402 154.716 16.3327 153.69C16.8682 153.11 19.9027 151.459 20.3044 152.53C20.7506 153.69 17.7607 156.412 15.6187 155.787Z" fill="url(#paint30_linear_101_3085)" stroke="#263238" stroke-width="0.446254" stroke-miterlimit="10"/>
<path d="M15.6188 155.787L18.5641 153.467" stroke="#263238" stroke-width="0.223127" stroke-miterlimit="10"/>
<path d="M14.1461 148.424L16.2435 145.702" stroke="#263238" stroke-width="0.892508" stroke-miterlimit="10"/>
<path d="M15.6187 146.55C15.6187 146.55 15.4402 145.479 16.3327 144.452C16.8682 143.872 19.9027 142.221 20.3044 143.292C20.7506 144.452 17.7607 147.175 15.6187 146.55Z" fill="url(#paint31_linear_101_3085)" stroke="#263238" stroke-width="0.446254" stroke-miterlimit="10"/>
<path d="M15.6188 146.55L18.5641 144.229" stroke="#263238" stroke-width="0.223127" stroke-miterlimit="10"/>
<path d="M14.1461 136.197L16.2435 133.475" stroke="#263238" stroke-width="0.892508" stroke-miterlimit="10"/>
<path d="M15.6187 134.322C15.6187 134.322 15.4402 133.251 16.3327 132.225C16.8682 131.645 19.9027 129.994 20.3044 131.065C20.7506 132.225 17.7607 134.947 15.6187 134.322Z" fill="url(#paint32_linear_101_3085)" stroke="#263238" stroke-width="0.446254" stroke-miterlimit="10"/>
<path d="M15.6188 134.322L18.5641 132.002" stroke="#263238" stroke-width="0.223127" stroke-miterlimit="10"/>
<path d="M14.1461 126.602L16.2435 123.88" stroke="#263238" stroke-width="0.892508" stroke-miterlimit="10"/>
<path d="M15.6187 124.683C15.6187 124.683 15.4402 123.612 16.3327 122.586C16.8682 122.006 19.9027 120.355 20.3044 121.426C20.7506 122.631 17.7607 125.308 15.6187 124.683Z" fill="url(#paint33_linear_101_3085)" stroke="#263238" stroke-width="0.446254" stroke-miterlimit="10"/>
<path d="M15.6188 124.683L18.5641 122.408" stroke="#263238" stroke-width="0.223127" stroke-miterlimit="10"/>
<path d="M14.0121 120.444C14.0121 120.444 13.8336 119.373 14.7261 118.347C15.2616 117.766 18.2962 116.115 18.6978 117.186C19.1887 118.347 16.1988 121.069 14.0121 120.444Z" fill="url(#paint34_linear_101_3085)" stroke="#263238" stroke-width="0.446254" stroke-miterlimit="10"/>
<path d="M14.0122 120.444L17.0021 118.123" stroke="#263238" stroke-width="0.223127" stroke-miterlimit="10"/>
<path d="M14.1907 120.533C14.1907 120.533 13.0751 120.578 12.1826 119.596C11.6471 118.971 10.3083 115.803 11.4239 115.535C12.6288 115.223 15.0386 118.48 14.1907 120.533Z" fill="url(#paint35_linear_101_3085)" stroke="#263238" stroke-width="0.446254" stroke-miterlimit="10"/>
<path d="M14.1908 120.533L12.1826 117.365" stroke="#263238" stroke-width="0.223127" stroke-miterlimit="10"/>
<path d="M16.7345 198.538H10.0853L9.23743 181.759H17.5378L16.7345 198.538Z" fill="#263238" stroke="#263238" stroke-width="0.446254" stroke-miterlimit="10"/>
<path d="M137.402 198.538H208.356" stroke="#263238" stroke-width="0.446254" stroke-miterlimit="10"/>
<path d="M0.848022 198.538H133.832" stroke="#263238" stroke-width="0.446254" stroke-miterlimit="10"/>
<path d="M170.202 10.4424H80.1475V177.297H170.202V10.4424Z" fill="white"/>
<path d="M170.202 148.826H80.1475V177.297H170.202V148.826Z" fill="#DEDEDE"/>
<path d="M172.879 43.242C173.504 43.242 173.995 42.7511 173.995 42.1264V31.0146C173.995 30.3899 173.504 29.899 172.879 29.899C172.79 29.899 172.745 29.899 172.656 29.899V9.10357C172.656 5.13191 169.443 1.91888 165.471 1.91888H86.4843C82.5126 1.91888 79.2996 5.13191 79.2996 9.10357V177.029C79.2996 181.001 82.5126 184.214 86.4843 184.214H165.56C169.532 184.214 172.745 181.001 172.745 177.029V74.8814C172.834 74.8814 172.879 74.8814 172.968 74.8814C173.593 74.8814 174.084 74.3905 174.084 73.7658V62.6541C174.084 62.0293 173.593 61.5384 172.968 61.5384C172.879 61.5384 172.834 61.5384 172.745 61.5384V59.0394C172.834 59.0394 172.879 59.0394 172.968 59.0394C173.593 59.0394 174.084 58.5485 174.084 57.9238V46.8567C174.084 46.2319 173.593 45.741 172.968 45.741C172.879 45.741 172.834 45.741 172.745 45.741V43.242C172.745 43.242 172.834 43.242 172.879 43.242ZM168.55 173.414H83.4497V14.3247H168.55V173.414Z" fill="#263238"/>
<path d="M165.65 15.9759H158.599V19.8583H165.65V15.9759Z" stroke="#263238" stroke-width="0.366419" stroke-miterlimit="10" stroke-linecap="round" stroke-linejoin="round"/>
<path d="M164.088 15.9759H158.599V19.8583H164.088V15.9759Z" fill="#263238" stroke="#263238" stroke-width="0.323579" stroke-miterlimit="10" stroke-linecap="round" stroke-linejoin="round"/>
<path d="M166.632 17.0469H165.65V18.7427H166.632V17.0469Z" fill="#263238" stroke="#263238" stroke-width="0.323579" stroke-miterlimit="10" stroke-linecap="round" stroke-linejoin="round"/>
<path d="M86.6628 17.1808H85.3687V19.4121H86.6628V17.1808Z" fill="#263238" stroke="#263238" stroke-width="0.394087" stroke-miterlimit="10" stroke-linecap="round" stroke-linejoin="round"/>
<path d="M88.671 16.3775H87.3768V19.3674H88.671V16.3775Z" fill="#263238" stroke="#263238" stroke-width="0.394087" stroke-miterlimit="10" stroke-linecap="round" stroke-linejoin="round"/>
<path d="M90.7237 15.485H89.4296V19.4121H90.7237V15.485Z" fill="#263238" stroke="#263238" stroke-width="0.394087" stroke-miterlimit="10" stroke-linecap="round" stroke-linejoin="round"/>
<path d="M166.542 22.0003H84.8331V43.4652H166.542V22.0003Z" fill="url(#paint36_linear_101_3085)"/>
<path d="M105.45 25.0795V40.8322" stroke="white" stroke-width="0.446254" stroke-miterlimit="10"/>
<path d="M126.29 25.0795V40.8322" stroke="white" stroke-width="0.446254" stroke-miterlimit="10"/>
<path d="M147.13 25.0795V40.8322" stroke="white" stroke-width="0.446254" stroke-miterlimit="10"/>
<path opacity="0.15" d="M171.942 74.8814C172.031 74.8814 172.076 74.8814 172.165 74.8814C172.79 74.8814 173.281 74.3905 173.281 73.7658V69.7941L167.792 79.4778V173.414H114.554L108.44 184.214H164.847C168.818 184.214 172.031 181.001 172.031 177.029V74.8814H171.942Z" fill="white"/>
<path d="M122.542 117.499C122.542 115.803 122.542 114.063 122.542 112.367C123.389 112.367 124.237 112.367 125.085 112.367C125.085 111.519 125.085 110.671 125.085 109.823C124.237 109.823 123.389 109.823 122.542 109.823C122.542 108.975 122.542 108.127 122.542 107.279C124.237 107.279 125.933 107.279 127.674 107.279C127.674 106.432 127.674 105.584 127.674 104.736C128.521 104.736 129.369 104.736 130.217 104.736C130.217 105.584 130.217 106.432 130.217 107.279C131.065 107.279 131.913 107.279 132.761 107.279C132.761 105.584 132.761 103.888 132.761 102.192C132.85 102.192 132.984 102.192 133.073 102.192C135.528 102.192 137.982 102.192 140.436 102.192C140.436 103.04 140.436 103.888 140.436 104.736C141.284 104.736 142.132 104.736 142.98 104.736C142.98 103.888 142.98 103.04 142.98 102.192C142.132 102.192 141.284 102.192 140.436 102.192C140.436 101.344 140.436 100.496 140.436 99.6039C138.696 99.6039 137.045 99.6039 135.304 99.6039C135.304 97.9082 135.304 96.2124 135.304 94.5166C132.761 94.5166 130.217 94.5166 127.629 94.5166C127.629 95.3645 127.629 96.2124 127.629 97.0603C125.933 97.0603 124.237 97.0603 122.542 97.0603C122.542 98.756 122.542 100.452 122.542 102.192C123.389 102.192 124.237 102.192 125.085 102.192C125.085 103.04 125.085 103.888 125.085 104.736C124.237 104.736 123.389 104.736 122.542 104.736C122.542 105.584 122.542 106.432 122.542 107.279C121.694 107.279 120.846 107.279 119.998 107.279C119.998 106.432 119.998 105.584 119.998 104.736C117.41 104.736 114.866 104.736 112.322 104.736C112.322 103.888 112.322 103.04 112.322 102.192C114.866 102.192 117.41 102.192 119.998 102.192C119.998 95.3645 119.998 88.5368 119.998 81.7091C120.846 81.7091 121.738 81.7091 122.586 81.7091C122.586 84.1635 122.586 86.6179 122.586 89.117C122.586 89.2062 122.586 89.2955 122.586 89.3847C123.434 89.3847 124.282 89.3847 125.13 89.3847C125.13 87.6889 125.13 85.9932 125.13 84.2974C125.978 84.2974 126.826 84.2974 127.674 84.2974C127.674 85.9932 127.674 87.6889 127.674 89.4293C128.566 89.4293 129.414 89.4293 130.262 89.4293C130.262 90.2772 130.262 91.1251 130.262 91.973C134.546 91.973 138.785 91.973 143.069 91.973C143.069 92.8209 143.069 93.6687 143.069 94.5166C143.917 94.5166 144.765 94.5166 145.613 94.5166C145.613 95.4091 145.613 96.257 145.613 97.1049C144.765 97.1049 143.917 97.1049 143.069 97.1049C143.069 97.9528 143.069 98.8007 143.069 99.6486C143.917 99.6486 144.765 99.6486 145.613 99.6486C145.613 101.344 145.613 103.04 145.613 104.78C146.461 104.78 147.309 104.78 148.157 104.78C148.157 106.476 148.157 108.172 148.157 109.912C147.309 109.912 146.461 109.912 145.613 109.912C145.613 111.608 145.613 113.304 145.613 115.044C146.461 115.044 147.309 115.044 148.157 115.044C148.157 115.892 148.157 116.74 148.157 117.588C149.852 117.588 151.548 117.588 153.244 117.588C153.244 118.436 153.244 119.284 153.244 120.132C150.7 120.132 148.157 120.132 145.568 120.132C145.568 121.827 145.568 123.523 145.568 125.264C144.72 125.264 143.873 125.264 143.025 125.264C143.025 124.416 143.025 123.568 143.025 122.72C141.284 122.72 139.589 122.72 137.893 122.72C137.893 121.872 137.893 121.024 137.893 120.176C137.045 120.176 136.197 120.176 135.349 120.176C135.349 119.328 135.349 118.48 135.349 117.633C137.045 117.633 138.741 117.633 140.436 117.633C140.436 116.785 140.436 115.937 140.436 115.089C136.197 115.089 131.958 115.089 127.674 115.089C127.674 115.937 127.674 116.785 127.674 117.633C125.933 117.499 124.237 117.499 122.542 117.499ZM137.893 109.823C137.893 108.975 137.893 108.127 137.893 107.279C137.045 107.279 136.197 107.279 135.349 107.279C135.349 108.127 135.349 108.975 135.349 109.823C136.197 109.823 137.045 109.823 137.893 109.823C137.893 110.671 137.893 111.519 137.893 112.367C139.589 112.367 141.284 112.367 142.98 112.367C142.98 111.519 142.98 110.671 142.98 109.823C141.284 109.823 139.589 109.823 137.893 109.823ZM132.761 109.823C131.913 109.823 131.065 109.823 130.217 109.823C130.217 110.671 130.217 111.519 130.217 112.367C131.065 112.367 131.913 112.367 132.761 112.367C132.761 111.519 132.761 110.671 132.761 109.823ZM137.893 97.0156C138.741 97.0156 139.589 97.0156 140.436 97.0156C140.436 96.1678 140.436 95.3199 140.436 94.472C139.589 94.472 138.741 94.472 137.893 94.472C137.893 95.3199 137.893 96.1678 137.893 97.0156Z" fill="#263238"/>
<path d="M99.5149 89.3401C99.5149 83.3603 99.5149 77.4251 99.5149 71.4453C105.495 71.4453 111.43 71.4453 117.41 71.4453C117.41 77.3805 117.41 83.3603 117.41 89.3401C111.43 89.3401 105.495 89.3401 99.5149 89.3401ZM102.059 73.9889C102.059 78.273 102.059 82.5124 102.059 86.7518C106.343 86.7518 110.582 86.7518 114.821 86.7518C114.821 82.4678 114.821 78.2283 114.821 73.9889C110.582 73.9889 106.343 73.9889 102.059 73.9889Z" fill="#263238"/>
<path d="M153.199 89.3401C147.219 89.3401 141.284 89.3401 135.304 89.3401C135.304 83.3603 135.304 77.4251 135.304 71.4453C141.24 71.4453 147.219 71.4453 153.199 71.4453C153.199 77.4251 153.199 83.3603 153.199 89.3401ZM150.656 74.0336C146.372 74.0336 142.132 74.0336 137.893 74.0336C137.893 78.3176 137.893 82.557 137.893 86.7964C142.177 86.7964 146.416 86.7964 150.656 86.7964C150.656 82.5124 150.656 78.273 150.656 74.0336Z" fill="#263238"/>
<path d="M99.5149 107.279C105.495 107.279 111.43 107.279 117.41 107.279C117.41 113.259 117.41 119.194 117.41 125.174C111.475 125.174 105.495 125.174 99.5149 125.174C99.5149 119.194 99.5149 113.259 99.5149 107.279ZM114.866 109.823C110.582 109.823 106.343 109.823 102.103 109.823C102.103 114.107 102.103 118.347 102.103 122.586C106.387 122.586 110.627 122.586 114.866 122.586C114.866 118.347 114.866 114.107 114.866 109.823Z" fill="#263238"/>
<path d="M122.542 81.6645C122.542 79.9687 122.542 78.273 122.542 76.5326C121.694 76.5326 120.846 76.5326 119.998 76.5326C119.998 74.8368 119.998 73.141 119.998 71.4453C124.237 71.4453 128.477 71.4453 132.761 71.4453C132.761 73.141 132.761 74.8368 132.761 76.5326C131.913 76.5326 131.065 76.5326 130.217 76.5326C130.217 77.3805 130.217 78.2283 130.217 79.0762C131.065 79.0762 131.913 79.0762 132.761 79.0762C132.761 80.772 132.761 82.4678 132.761 84.1635C131.913 84.1635 131.065 84.1635 130.217 84.1635C130.217 83.3156 130.217 82.4678 130.217 81.6199C129.369 81.6199 128.521 81.6199 127.674 81.6199C127.674 80.772 127.674 79.9241 127.674 79.0762C126.826 79.0762 125.978 79.0762 125.13 79.0762C125.13 79.9241 125.13 80.772 125.13 81.6199C124.237 81.6645 123.389 81.6645 122.542 81.6645ZM125.085 76.5326C125.933 76.5326 126.781 76.5326 127.629 76.5326C127.629 75.6847 127.629 74.8368 127.629 73.9889C126.781 73.9889 125.933 73.9889 125.085 73.9889C125.085 74.8368 125.085 75.6847 125.085 76.5326Z" fill="#263238"/>
<path d="M112.278 94.472C112.278 95.3199 112.278 96.1677 112.278 97.0156C113.973 97.0156 115.669 97.0156 117.365 97.0156C117.365 97.8635 117.365 98.7114 117.365 99.5593C114.821 99.5593 112.278 99.5593 109.689 99.5593C109.689 101.255 109.689 102.951 109.689 104.691C106.253 104.691 102.862 104.691 99.4702 104.691C99.4702 102.995 99.4702 101.3 99.4702 99.6039C100.318 99.6039 101.166 99.6039 102.014 99.6039C102.014 100.452 102.014 101.3 102.014 102.148C103.71 102.148 105.405 102.148 107.146 102.148C107.146 99.6039 107.146 97.0603 107.146 94.472C108.886 94.472 110.582 94.472 112.278 94.472Z" fill="#263238"/>
<path d="M122.542 117.499C122.542 118.347 122.542 119.194 122.542 120.042C123.389 120.042 124.237 120.042 125.085 120.042C125.085 120.89 125.085 121.738 125.085 122.586C125.933 122.586 126.781 122.586 127.629 122.586C127.629 123.434 127.629 124.282 127.629 125.13C125.085 125.13 122.542 125.13 119.998 125.13C119.998 122.586 119.998 120.042 119.998 117.454C120.846 117.499 121.694 117.499 122.542 117.499Z" fill="#263238"/>
<path d="M107.19 94.472C105.495 94.472 103.799 94.472 102.059 94.472C102.059 95.3199 102.059 96.1678 102.059 97.0156C101.211 97.0156 100.363 97.0156 99.5149 97.0156C99.5149 95.3199 99.5149 93.6241 99.5149 91.9283C102.059 91.9283 104.602 91.9283 107.19 91.9283C107.19 92.7762 107.19 93.6241 107.19 94.472Z" fill="#263238"/>
<path d="M153.199 99.5593C152.351 99.5593 151.503 99.5593 150.656 99.5593C150.656 97.8635 150.656 96.1678 150.656 94.472C149.808 94.472 148.96 94.472 148.112 94.472C148.112 93.6241 148.112 92.7762 148.112 91.9283C149.808 91.9283 151.503 91.9283 153.199 91.9283C153.199 94.472 153.199 97.0156 153.199 99.5593Z" fill="#263238"/>
<path d="M112.322 94.472C112.322 93.6241 112.322 92.7762 112.322 91.9283C114.018 91.9283 115.714 91.9283 117.41 91.9283C117.41 92.7762 117.41 93.6241 117.41 94.472C115.714 94.472 114.018 94.472 112.322 94.472Z" fill="#263238"/>
<path d="M148.112 104.691C148.112 103.843 148.112 102.995 148.112 102.148C148.96 102.148 149.808 102.148 150.656 102.148C150.656 102.995 150.656 103.843 150.656 104.691C149.808 104.691 148.96 104.691 148.112 104.691Z" fill="#263238"/>
<path d="M150.7 107.279C151.548 107.279 152.396 107.279 153.244 107.279C153.244 108.127 153.244 108.975 153.244 109.823C152.396 109.823 151.548 109.823 150.7 109.823C150.7 108.975 150.7 108.127 150.7 107.279Z" fill="#263238"/>
<path d="M130.217 89.3401C130.217 88.4922 130.217 87.6443 130.217 86.7964C131.065 86.7964 131.913 86.7964 132.761 86.7964C132.761 87.6443 132.761 88.4922 132.761 89.3401C131.913 89.3401 131.065 89.3401 130.217 89.3401Z" fill="#263238"/>
<path d="M122.542 112.367C121.694 112.367 120.846 112.367 119.998 112.367C119.998 111.519 119.998 110.671 119.998 109.823C120.846 109.823 121.694 109.823 122.542 109.823C122.542 110.671 122.542 111.519 122.542 112.367Z" fill="#263238"/>
<path d="M148.112 114.955C148.112 114.107 148.112 113.259 148.112 112.411C148.96 112.411 149.808 112.411 150.656 112.411C150.656 113.259 150.656 114.107 150.656 114.955C149.808 114.955 148.96 114.955 148.112 114.955Z" fill="#263238"/>
<path d="M145.568 97.0156C146.416 97.0156 147.264 97.0156 148.112 97.0156C148.112 97.8635 148.112 98.7114 148.112 99.5593C147.264 99.5593 146.416 99.5593 145.568 99.5593C145.568 98.756 145.568 97.8635 145.568 97.0156Z" fill="#263238"/>
<path d="M132.761 122.586C131.913 122.586 131.065 122.586 130.217 122.586C130.217 121.738 130.217 120.89 130.217 120.042C131.065 120.042 131.913 120.042 132.761 120.042C132.761 120.89 132.761 121.738 132.761 122.586Z" fill="#263238"/>
<path d="M137.893 122.631C137.893 123.478 137.893 124.326 137.893 125.174C137.045 125.174 136.197 125.174 135.349 125.174C135.349 124.326 135.349 123.478 135.349 122.631C136.197 122.631 137.045 122.631 137.893 122.631Z" fill="#263238"/>
<path d="M153.199 125.174C152.351 125.174 151.503 125.174 150.656 125.174C150.656 124.326 150.656 123.478 150.656 122.631C151.503 122.631 152.351 122.631 153.199 122.631C153.199 123.478 153.199 124.282 153.199 125.174Z" fill="#263238"/>
<path d="M132.761 102.148C131.913 102.148 131.065 102.148 130.217 102.148C130.217 101.3 130.217 100.452 130.217 99.6039C131.065 99.6039 131.913 99.6039 132.761 99.6039C132.761 100.452 132.761 101.3 132.761 102.148Z" fill="#263238"/>
<path d="M112.278 84.2081C109.734 84.2081 107.19 84.2081 104.647 84.2081C104.647 81.6645 104.647 79.1209 104.647 76.5772C107.19 76.5772 109.734 76.5772 112.278 76.5772C112.278 79.1209 112.278 81.6645 112.278 84.2081Z" fill="#263238"/>
<path d="M140.436 84.2081C140.436 81.6645 140.436 79.1209 140.436 76.5772C142.98 76.5772 145.524 76.5772 148.067 76.5772C148.067 79.1209 148.067 81.6645 148.067 84.2081C145.568 84.2081 143.025 84.2081 140.436 84.2081Z" fill="#263238"/>
<path d="M104.647 120.042C104.647 117.499 104.647 114.955 104.647 112.411C107.19 112.411 109.734 112.411 112.278 112.411C112.278 114.955 112.278 117.499 112.278 120.042C109.734 120.042 107.19 120.042 104.647 120.042Z" fill="#263238"/>
<path d="M106.923 65.3762H95.7664V77.7375" stroke="url(#paint37_linear_101_3085)" stroke-width="0.892508" stroke-miterlimit="10"/>
<path d="M147.666 65.3762H158.867V77.7375" stroke="url(#paint38_linear_101_3085)" stroke-width="0.892508" stroke-miterlimit="10"/>
<path d="M106.923 130.485H95.7664V118.123" stroke="url(#paint39_linear_101_3085)" stroke-width="0.892508" stroke-miterlimit="10"/>
<path d="M147.666 130.485H158.867V118.123" stroke="url(#paint40_linear_101_3085)" stroke-width="0.892508" stroke-miterlimit="10"/>
<path d="M72.8734 80.8612H69.1695C68.5001 80.8612 67.9646 80.3257 67.9646 79.6563V69.2586C67.9646 68.5892 68.5001 68.0537 69.1695 68.0537H72.8734C73.5428 68.0537 74.0783 68.5892 74.0783 69.2586V79.6563C74.0337 80.3257 73.5428 80.8612 72.8734 80.8612Z" fill="#263238" stroke="#263238" stroke-width="0.446254" stroke-miterlimit="10"/>
<path d="M73.5428 69.214H68.5001V79.7456H73.5428V69.214Z" fill="white" stroke="#263238" stroke-width="0.446254" stroke-miterlimit="10"/>
<path d="M19.4122 130.752C21.465 130.797 23.2946 129.994 24.4549 129.28C24.3657 132.136 24.2764 134.278 24.2764 134.278C24.2764 134.278 24.7673 135.126 24.9904 135.483C25.2135 135.84 27.3109 137.089 27.5787 138.16C27.8018 139.276 28.9174 139.856 28.7836 141.463C28.6497 143.069 27.3109 141.329 27.5787 141.686C27.8018 142.043 28.5604 143.292 28.5604 144.363C28.5604 145.434 26.2399 145.479 25.392 144.72C24.5442 144.006 21.7328 142.266 21.465 140.659L20.5279 137.089L19.4122 130.752Z" fill="white" stroke="#263238" stroke-width="0.446254" stroke-miterlimit="10"/>
<path d="M24.4994 139.633L25.0795 142.31C25.0795 142.31 26.9984 143.783 27.1769 144.854" fill="white"/>
<path d="M24.4994 139.633L25.0795 142.31C25.0795 142.31 26.9984 143.783 27.1769 144.854" stroke="#263238" stroke-width="0.446254" stroke-miterlimit="10"/>
<path d="M27.6232 141.775L26.7307 140.079" stroke="#263238" stroke-width="0.446254" stroke-miterlimit="10"/>
<path d="M34.1833 196.173C34.1833 196.173 33.4693 201.93 34.0494 202.599C34.585 203.313 35.4328 204.161 36.6823 204.295C37.9319 204.429 40.0292 203.76 40.0292 203.76C40.0292 203.76 42.1266 204.384 44.3579 204.161C46.5892 203.938 48.0618 203.09 48.2403 201.975C48.3742 200.904 46.4553 200.413 45.3843 199.252C44.3133 198.092 42.5729 196.039 42.5729 196.039L42.1266 194.522C42.1266 194.522 39.4937 195.861 37.798 195.906C36.1022 195.995 34.942 195.682 34.942 195.682L34.1833 196.173Z" fill="white" stroke="#263238" stroke-width="0.446254" stroke-miterlimit="10"/>
<path d="M48.1957 202.019C48.1957 201.885 48.1957 201.751 48.151 201.618C47.6155 201.841 46.9908 202.108 46.1875 202.376C43.867 203.224 42.7067 202.51 41.5465 202.51C40.3862 202.51 40.297 203.76 37.0393 202.912C34.8973 202.376 34.094 201.618 33.8263 201.216C33.8263 201.885 33.8709 202.421 34.0494 202.599C34.5849 203.313 35.4328 204.161 36.6823 204.295C37.9318 204.429 40.0292 203.76 40.0292 203.76C40.0292 203.76 42.1266 204.384 44.3579 204.161C46.5892 203.938 48.0618 203.09 48.1957 202.019Z" fill="white" stroke="#263238" stroke-width="0.446254" stroke-miterlimit="10"/>
<path d="M30.0331 124.907C30.0331 124.907 26.9093 135.393 28.0249 142.757C29.1406 150.12 34.4956 163.954 34.4956 163.954C34.4956 163.954 33.8262 169.086 33.8262 170.871C33.8262 172.656 32.2643 176.003 33.38 179.573C34.4956 183.143 34.4956 192.514 34.4956 193.183C34.4956 193.853 34.0494 197.423 34.0494 197.423C34.0494 197.423 34.9419 198.762 38.2888 198.762C41.6357 198.762 42.5282 196.084 42.5282 196.084C42.5282 196.084 45.8751 176.226 45.8751 173.102C45.8751 169.978 49.4451 158.376 50.7839 153.69C52.1227 149.004 53.7738 146.014 54.6663 144.452C55.5588 142.891 55.0233 124.014 55.0233 124.014L29.5868 121.783L30.0331 124.907Z" fill="#737373" stroke="#263238" stroke-width="0.446254" stroke-miterlimit="10"/>
<path d="M47.5708 197.646C47.5708 197.646 50.9177 198.985 52.5242 199.743C54.1307 200.502 55.2464 200.591 55.2464 201.841C55.2464 203.09 52.3011 204.34 50.5161 204.652C48.731 204.965 45.875 204.875 45.5626 204.964C45.2503 205.054 39.449 205.902 38.735 204.429C38.0209 202.956 38.8242 197.914 38.8242 197.914C38.8242 197.914 42.8405 198.762 47.5708 197.646Z" fill="white" stroke="#263238" stroke-width="0.446254" stroke-miterlimit="10"/>
<path d="M45.5627 204.964C45.875 204.875 48.7311 204.964 50.5161 204.652C52.3011 204.34 55.2464 203.09 55.2464 201.841C55.2464 201.662 55.2017 201.484 55.1571 201.35C54.5324 201.707 53.7291 202.108 52.8366 202.51C50.65 203.447 47.7939 204.072 43.4653 203.983C41.1001 203.938 39.4936 203.626 38.5118 203.358C38.5565 203.76 38.6457 204.117 38.735 204.384C39.449 205.902 45.2503 205.054 45.5627 204.964Z" fill="white" stroke="#263238" stroke-width="0.446254" stroke-miterlimit="10"/>
<path d="M55.2464 125.799C55.2464 125.799 56.5851 143.872 53.9076 157.483C51.2301 171.094 46.7676 189.613 46.5444 190.506C46.3213 191.398 48.1063 193.853 48.1063 193.853V197.423C48.1063 197.423 46.5444 198.985 42.9744 199.431C39.4044 199.877 38.2887 198.762 38.2887 198.762C38.2887 198.762 37.3962 192.737 37.3962 188.498C37.3962 184.258 38.2887 169.755 38.2887 169.755C38.2887 169.755 40.2969 155.029 40.0737 152.797C39.8506 150.566 39.1812 143.649 39.1812 143.649L35.6112 139.41" fill="#737373"/>
<path d="M55.2464 125.799C55.2464 125.799 56.5851 143.872 53.9076 157.483C51.2301 171.094 46.7676 189.613 46.5444 190.506C46.3213 191.398 48.1063 193.853 48.1063 193.853V197.423C48.1063 197.423 46.5444 198.985 42.9744 199.431C39.4044 199.877 38.2887 198.762 38.2887 198.762C38.2887 198.762 37.3962 192.737 37.3962 188.498C37.3962 184.258 38.2887 169.755 38.2887 169.755C38.2887 169.755 40.2969 155.029 40.0737 152.797C39.8506 150.566 39.1812 143.649 39.1812 143.649L35.6112 139.41" stroke="#263238" stroke-width="0.446254" stroke-miterlimit="10"/>
<path d="M17.7164 122.407L24.7226 121.158C24.678 122.095 24.9011 116.115 24.9011 115.669C24.9011 114.687 27.2217 108.574 27.2217 108.574C27.2217 108.574 29.0513 116.562 29.0513 117.543C29.0513 118.525 28.3373 126.022 29.2744 127.004C30.2562 127.986 33.6923 129.949 41.2787 129.681C48.865 129.458 54.5324 128.834 56.005 127.361C57.4777 125.888 55.7373 121.336 55.648 120.756C55.5142 120.132 57.6116 104.066 57.6116 104.066C57.6116 104.066 65.8226 112.635 70.7314 111.43C75.6402 110.225 73.3197 91.0805 73.3197 91.0805L73.5428 85.5469C73.5428 85.5469 75.1493 81.486 75.1493 80.9059C75.1493 80.2811 73.5428 75.8632 73.5428 75.8632C73.5428 75.8632 72.5611 75.0153 71.9363 77.0681C71.3116 79.1655 71.2223 80.5042 71.2223 80.5042C71.2223 80.5042 69.7497 81.6199 69.8836 83.1817C70.0174 84.7883 70.5083 85.9932 70.5083 85.9932L67.206 96.7925C67.206 96.7925 63.5467 92.6423 63.279 91.8837C63.0112 91.1697 63.1451 88.4476 60.1106 86.841C57.0314 85.2345 50.7839 85.1453 50.7839 85.1453L33.5138 85.2345C33.5138 85.2345 25.4366 85.9485 23.5624 87.555C21.7327 89.1616 16.0653 109.377 16.0653 112.456C16.0653 113.393 16.5562 116.383 17.2702 120.042L17.7164 122.407Z" fill="white" stroke="#263238" stroke-width="0.446254" stroke-miterlimit="10"/>
<path d="M73.632 75.774C73.632 75.774 73.275 78.8531 73.4982 79.4332C73.7659 80.058 73.9891 81.5306 73.7659 82.7355" stroke="#263238" stroke-width="0.446254" stroke-miterlimit="10"/>
<path d="M70.8207 111.34C75.7295 110.135 73.409 90.9912 73.409 90.9912L73.4536 89.7417C72.0702 88.7153 70.6868 88.7153 69.6604 88.9831L67.2953 96.7479C67.2953 96.7479 63.636 92.5977 63.3682 91.8391C63.1005 91.1251 63.2344 88.4029 60.1998 86.7964C57.1207 85.1899 50.8731 85.1006 50.8731 85.1006L33.5138 85.2345C33.5138 85.2345 25.4366 85.9485 23.5624 87.555C21.7327 89.1616 16.0653 109.377 16.0653 112.456C16.0653 114.286 17.8949 123.345 19.4122 130.752C21.465 130.797 23.2946 129.994 24.4549 129.28C24.6334 123.969 24.9011 116.249 24.9011 115.624C24.9011 114.643 27.2217 108.529 27.2217 108.529C27.2217 108.529 29.0513 116.517 29.0513 117.499C29.0513 118.48 28.3373 125.978 29.2744 126.959C30.2562 127.941 33.6923 129.905 41.2787 129.637C48.865 129.414 54.5324 128.789 56.005 127.316C57.4777 125.844 55.7373 121.292 55.648 120.712C55.5142 120.087 57.6116 104.022 57.6116 104.022C57.6116 104.022 65.9119 112.59 70.8207 111.34Z" fill="url(#paint41_linear_101_3085)" stroke="#263238" stroke-width="0.446254" stroke-miterlimit="10"/>
<path d="M24.8565 101.791L27.2662 108.529L22.2682 100.05" stroke="#263238" stroke-width="0.446254" stroke-miterlimit="10"/>
<path d="M23.473 97.9528L24.3209 100.363" stroke="#263238" stroke-width="0.446254" stroke-miterlimit="10"/>
<path d="M40.4753 102.237C41.5464 104.691 43.1529 107.726 45.0718 109.689" stroke="#263238" stroke-width="0.446254" stroke-miterlimit="10"/>
<path d="M38.958 98.399C38.958 98.399 39.315 99.4254 39.8951 100.853" stroke="#263238" stroke-width="0.446254" stroke-miterlimit="10"/>
<path d="M41.6355 106.61C41.6355 106.61 44.313 111.965 45.6518 112.992" stroke="#263238" stroke-width="0.446254" stroke-miterlimit="10"/>
<path d="M61.8955 100.095L62.8773 99.1577" stroke="#263238" stroke-width="0.446254" stroke-miterlimit="10"/>
<path d="M60.1997 98.7114L57.7007 103.977L60.9583 100.943" stroke="#263238" stroke-width="0.446254" stroke-miterlimit="10"/>
<path d="M71.8024 101.701C71.6685 100.675 67.2506 96.7479 67.2506 96.7479C67.2506 96.7479 71.8024 98.5775 73.0073 100.184" stroke="#263238" stroke-width="0.446254" stroke-miterlimit="10"/>
<path d="M52.5242 69.0355C52.5242 69.0355 52.7473 72.1147 53.149 72.6055C53.506 73.0964 53.7737 76.8896 53.149 78.0052C52.5242 79.1208 52.1672 80.4596 51.8102 80.8166C51.4532 81.1736 50.1144 81.1736 49.6236 81.1736C49.1327 81.1736 43.5991 80.9059 43.5991 80.9059L43.733 73.1857C43.6884 73.1857 45.0271 67.429 52.5242 69.0355Z" fill="white" stroke="#263238" stroke-width="0.446254" stroke-miterlimit="10"/>
<path d="M42.7067 60.4228C42.7067 60.4228 37.664 62.0293 36.593 66.4472C35.4774 70.8652 39.0474 75.9078 39.0474 75.9078C39.0474 75.9078 40.0292 79.4779 40.8771 80.1919C41.725 80.9059 45.1611 80.1919 46.2767 79.9687C47.3924 79.7456 49.8468 73.0964 49.8468 73.0964C49.8468 73.0964 49.8468 74.7029 50.5608 74.7029C51.2748 74.7029 51.1855 72.6055 51.1855 72.2485C51.1855 71.8915 54.6217 69.3033 54.6217 64.8853C54.6217 60.4674 50.8285 58.5039 47.2585 58.7717C43.6885 58.9502 42.7067 60.4228 42.7067 60.4228Z" fill="#263238" stroke="#263238" stroke-width="0.446254" stroke-miterlimit="10"/>
<path d="M53.149 84.8329C53.149 84.8329 52.435 82.2446 52.0333 81.8876C51.6763 81.5306 49.3558 80.058 45.518 79.7902C41.7249 79.5671 36.0574 79.6563 35.5666 79.9241C35.0757 80.1472 34.9418 82.2446 34.9418 82.2446C34.9418 82.2446 33.3353 83.7173 32.9783 84.5651C32.6213 85.413 32.2643 85.77 35.6558 88.6261C39.092 91.4375 40.9216 92.5531 44.4916 91.7052C48.0617 90.8573 53.1936 85.6808 53.1936 85.6808L53.149 84.8329Z" fill="url(#paint42_linear_101_3085)" stroke="#263238" stroke-width="0.446254" stroke-miterlimit="10"/>
<path d="M44.3578 86.5733C47.7939 85.5023 51.2747 83.3603 51.2747 83.3603" stroke="#263238" stroke-width="0.446254" stroke-miterlimit="10"/>
<path d="M34.9865 82.7801C34.9865 82.7801 37.1731 87.198 41.1001 87.198C41.591 87.198 42.1265 87.1534 42.7066 87.0195" stroke="#263238" stroke-width="0.446254" stroke-miterlimit="10"/>
</g>
<defs>
<linearGradient id="paint0_linear_101_3085" x1="214.479" y1="-2.45518" x2="173.628" y2="214.878" gradientUnits="userSpaceOnUse">
<stop stop-color="#933BCB"/>
<stop offset="1" stop-color="#A636FF"/>
</linearGradient>
<linearGradient id="paint1_linear_101_3085" x1="9.23278" y1="168.028" x2="8.64065" y2="172.113" gradientUnits="userSpaceOnUse">
<stop stop-color="#933BCB"/>
<stop offset="1" stop-color="#A636FF"/>
</linearGradient>
<linearGradient id="paint2_linear_101_3085" x1="9.81282" y1="173.651" x2="9.21507" y2="177.752" gradientUnits="userSpaceOnUse">
<stop stop-color="#933BCB"/>
<stop offset="1" stop-color="#A636FF"/>
</linearGradient>
<linearGradient id="paint3_linear_101_3085" x1="7.8048" y1="154.284" x2="7.2135" y2="158.366" gradientUnits="userSpaceOnUse">
<stop stop-color="#933BCB"/>
<stop offset="1" stop-color="#A636FF"/>
</linearGradient>
<linearGradient id="paint4_linear_101_3085" x1="8.385" y1="159.907" x2="7.79287" y2="163.991" gradientUnits="userSpaceOnUse">
<stop stop-color="#933BCB"/>
<stop offset="1" stop-color="#A636FF"/>
</linearGradient>
<linearGradient id="paint5_linear_101_3085" x1="6.82292" y1="145.091" x2="6.23011" y2="149.175" gradientUnits="userSpaceOnUse">
<stop stop-color="#933BCB"/>
<stop offset="1" stop-color="#A636FF"/>
</linearGradient>
<linearGradient id="paint6_linear_101_3085" x1="5.88585" y1="135.898" x2="5.29373" y2="139.983" gradientUnits="userSpaceOnUse">
<stop stop-color="#933BCB"/>
<stop offset="1" stop-color="#A636FF"/>
</linearGradient>
<linearGradient id="paint7_linear_101_3085" x1="16.1134" y1="163.558" x2="15.1718" y2="168.368" gradientUnits="userSpaceOnUse">
<stop stop-color="#933BCB"/>
<stop offset="1" stop-color="#A636FF"/>
</linearGradient>
<linearGradient id="paint8_linear_101_3085" x1="14.5627" y1="148.743" x2="13.6267" y2="153.545" gradientUnits="userSpaceOnUse">
<stop stop-color="#933BCB"/>
<stop offset="1" stop-color="#A636FF"/>
</linearGradient>
<linearGradient id="paint9_linear_101_3085" x1="13.882" y1="142.227" x2="12.9442" y2="147.028" gradientUnits="userSpaceOnUse">
<stop stop-color="#933BCB"/>
<stop offset="1" stop-color="#A636FF"/>
</linearGradient>
<linearGradient id="paint10_linear_101_3085" x1="12.867" y1="132.633" x2="11.9311" y2="137.435" gradientUnits="userSpaceOnUse">
<stop stop-color="#933BCB"/>
<stop offset="1" stop-color="#A636FF"/>
</linearGradient>
<linearGradient id="paint11_linear_101_3085" x1="10.8588" y1="128.572" x2="9.92288" y2="133.374" gradientUnits="userSpaceOnUse">
<stop stop-color="#933BCB"/>
<stop offset="1" stop-color="#A636FF"/>
</linearGradient>
<linearGradient id="paint12_linear_101_3085" x1="6.70087" y1="127.957" x2="5.19082" y2="133.409" gradientUnits="userSpaceOnUse">
<stop stop-color="#933BCB"/>
<stop offset="1" stop-color="#A636FF"/>
</linearGradient>
<linearGradient id="paint13_linear_101_3085" x1="14.9885" y1="173.778" x2="14.0525" y2="178.58" gradientUnits="userSpaceOnUse">
<stop stop-color="#933BCB"/>
<stop offset="1" stop-color="#A636FF"/>
</linearGradient>
<linearGradient id="paint14_linear_101_3085" x1="16.4166" y1="160.033" x2="15.4808" y2="164.835" gradientUnits="userSpaceOnUse">
<stop stop-color="#933BCB"/>
<stop offset="1" stop-color="#A636FF"/>
</linearGradient>
<linearGradient id="paint15_linear_101_3085" x1="15.7915" y1="165.656" x2="14.8534" y2="170.457" gradientUnits="userSpaceOnUse">
<stop stop-color="#933BCB"/>
<stop offset="1" stop-color="#A636FF"/>
</linearGradient>
<linearGradient id="paint16_linear_101_3085" x1="17.3537" y1="150.84" x2="16.4178" y2="155.642" gradientUnits="userSpaceOnUse">
<stop stop-color="#933BCB"/>
<stop offset="1" stop-color="#A636FF"/>
</linearGradient>
<linearGradient id="paint17_linear_101_3085" x1="18.2907" y1="141.647" x2="17.3546" y2="146.449" gradientUnits="userSpaceOnUse">
<stop stop-color="#933BCB"/>
<stop offset="1" stop-color="#A636FF"/>
</linearGradient>
<linearGradient id="paint18_linear_101_3085" x1="23.1302" y1="171.554" x2="22.5382" y2="175.636" gradientUnits="userSpaceOnUse">
<stop stop-color="#933BCB"/>
<stop offset="1" stop-color="#A636FF"/>
</linearGradient>
<linearGradient id="paint19_linear_101_3085" x1="24.6537" y1="156.694" x2="24.0616" y2="160.778" gradientUnits="userSpaceOnUse">
<stop stop-color="#933BCB"/>
<stop offset="1" stop-color="#A636FF"/>
</linearGradient>
<linearGradient id="paint20_linear_101_3085" x1="25.3231" y1="150.178" x2="24.731" y2="154.263" gradientUnits="userSpaceOnUse">
<stop stop-color="#933BCB"/>
<stop offset="1" stop-color="#A636FF"/>
</linearGradient>
<linearGradient id="paint21_linear_101_3085" x1="26.3432" y1="140.628" x2="25.7512" y2="144.71" gradientUnits="userSpaceOnUse">
<stop stop-color="#933BCB"/>
<stop offset="1" stop-color="#A636FF"/>
</linearGradient>
<linearGradient id="paint22_linear_101_3085" x1="25.2276" y1="136.211" x2="24.6348" y2="140.295" gradientUnits="userSpaceOnUse">
<stop stop-color="#933BCB"/>
<stop offset="1" stop-color="#A636FF"/>
</linearGradient>
<linearGradient id="paint23_linear_101_3085" x1="20.5513" y1="134.244" x2="18.4115" y2="139.953" gradientUnits="userSpaceOnUse">
<stop stop-color="#933BCB"/>
<stop offset="1" stop-color="#A636FF"/>
</linearGradient>
<linearGradient id="paint24_linear_101_3085" x1="12.8975" y1="167.254" x2="12.144" y2="171.714" gradientUnits="userSpaceOnUse">
<stop stop-color="#933BCB"/>
<stop offset="1" stop-color="#A636FF"/>
</linearGradient>
<linearGradient id="paint25_linear_101_3085" x1="12.8975" y1="155.473" x2="12.1485" y2="159.921" gradientUnits="userSpaceOnUse">
<stop stop-color="#933BCB"/>
<stop offset="1" stop-color="#A636FF"/>
</linearGradient>
<linearGradient id="paint26_linear_101_3085" x1="12.8975" y1="141.639" x2="12.1485" y2="146.087" gradientUnits="userSpaceOnUse">
<stop stop-color="#933BCB"/>
<stop offset="1" stop-color="#A636FF"/>
</linearGradient>
<linearGradient id="paint27_linear_101_3085" x1="12.8975" y1="132.446" x2="12.149" y2="136.893" gradientUnits="userSpaceOnUse">
<stop stop-color="#933BCB"/>
<stop offset="1" stop-color="#A636FF"/>
</linearGradient>
<linearGradient id="paint28_linear_101_3085" x1="12.8975" y1="123.164" x2="12.144" y2="127.624" gradientUnits="userSpaceOnUse">
<stop stop-color="#933BCB"/>
<stop offset="1" stop-color="#A636FF"/>
</linearGradient>
<linearGradient id="paint29_linear_101_3085" x1="20.4693" y1="170.869" x2="19.7207" y2="175.315" gradientUnits="userSpaceOnUse">
<stop stop-color="#933BCB"/>
<stop offset="1" stop-color="#A636FF"/>
</linearGradient>
<linearGradient id="paint30_linear_101_3085" x1="20.4693" y1="152.126" x2="19.7207" y2="156.572" gradientUnits="userSpaceOnUse">
<stop stop-color="#933BCB"/>
<stop offset="1" stop-color="#A636FF"/>
</linearGradient>
<linearGradient id="paint31_linear_101_3085" x1="20.4693" y1="142.889" x2="19.7207" y2="147.335" gradientUnits="userSpaceOnUse">
<stop stop-color="#933BCB"/>
<stop offset="1" stop-color="#A636FF"/>
</linearGradient>
<linearGradient id="paint32_linear_101_3085" x1="20.4693" y1="130.661" x2="19.7207" y2="135.108" gradientUnits="userSpaceOnUse">
<stop stop-color="#933BCB"/>
<stop offset="1" stop-color="#A636FF"/>
</linearGradient>
<linearGradient id="paint33_linear_101_3085" x1="20.4693" y1="121.022" x2="19.7202" y2="125.47" gradientUnits="userSpaceOnUse">
<stop stop-color="#933BCB"/>
<stop offset="1" stop-color="#A636FF"/>
</linearGradient>
<linearGradient id="paint34_linear_101_3085" x1="18.8718" y1="116.783" x2="18.1244" y2="121.229" gradientUnits="userSpaceOnUse">
<stop stop-color="#933BCB"/>
<stop offset="1" stop-color="#A636FF"/>
</linearGradient>
<linearGradient id="paint35_linear_101_3085" x1="14.4532" y1="115.446" x2="12.6502" y2="121.065" gradientUnits="userSpaceOnUse">
<stop stop-color="#933BCB"/>
<stop offset="1" stop-color="#A636FF"/>
</linearGradient>
<linearGradient id="paint36_linear_101_3085" x1="168.612" y1="21.7096" x2="167.115" y2="48.1289" gradientUnits="userSpaceOnUse">
<stop stop-color="#933BCB"/>
<stop offset="1" stop-color="#A636FF"/>
</linearGradient>
<linearGradient id="paint37_linear_101_3085" x1="107.205" y1="65.2088" x2="103.754" y2="79.6469" gradientUnits="userSpaceOnUse">
<stop stop-color="#933BCB"/>
<stop offset="1" stop-color="#A636FF"/>
</linearGradient>
<linearGradient id="paint38_linear_101_3085" x1="159.151" y1="65.2088" x2="155.711" y2="79.6531" gradientUnits="userSpaceOnUse">
<stop stop-color="#933BCB"/>
<stop offset="1" stop-color="#A636FF"/>
</linearGradient>
<linearGradient id="paint39_linear_101_3085" x1="107.205" y1="117.956" x2="103.754" y2="132.394" gradientUnits="userSpaceOnUse">
<stop stop-color="#933BCB"/>
<stop offset="1" stop-color="#A636FF"/>
</linearGradient>
<linearGradient id="paint40_linear_101_3085" x1="159.151" y1="117.956" x2="155.711" y2="132.4" gradientUnits="userSpaceOnUse">
<stop stop-color="#933BCB"/>
<stop offset="1" stop-color="#A636FF"/>
</linearGradient>
<linearGradient id="paint41_linear_101_3085" x1="75.4236" y1="84.4822" x2="66.1019" y2="139.268" gradientUnits="userSpaceOnUse">
<stop stop-color="#933BCB"/>
<stop offset="1" stop-color="#A636FF"/>
</linearGradient>
<linearGradient id="paint42_linear_101_3085" x1="53.7113" y1="79.4969" x2="51.7658" y2="94.4548" gradientUnits="userSpaceOnUse">
<stop stop-color="#933BCB"/>
<stop offset="1" stop-color="#A636FF"/>
</linearGradient>
<clipPath id="clip0_101_3085">
<rect width="209.249" height="205.5" fill="white"/>
</clipPath>
</defs>
</svg>
