<svg width="277" height="186" viewBox="0 0 277 186" fill="none" xmlns="http://www.w3.org/2000/svg">
<g clip-path="url(#clip0_101_4949)">
<path d="M206.001 165.11C228.67 166.696 257.027 157.721 269.561 137.991C274.745 129.829 278.188 119.345 274.59 110.292C271.843 103.445 260.315 95.708 257.8 88.7833C255.286 81.7426 255.634 73.812 256.911 66.4231C260.624 45.1461 239.889 11.9926 196.097 8.43349C162.866 5.76419 147.856 31.5674 119.577 35.0878C91.0658 38.6469 57.6028 17.2925 37.2156 35.0878C11.8766 57.1772 23.753 79.2667 26.8479 89.5957C30.7938 102.865 11.451 118.03 15.4356 137.604C24.372 181.319 89.2476 151.841 108.281 149.984C127.585 148.127 146.773 153.62 165.69 158.03C184.607 162.441 204.685 165.768 223.177 159.694L206.001 165.11Z" fill="#E1C4F5"/>
<path d="M136.405 186C211.74 186 272.81 183.09 272.81 179.501C272.81 175.911 211.74 173.002 136.405 173.002C61.0707 173.002 0 175.911 0 179.501C0 183.09 61.0707 186 136.405 186Z" fill="#E1C4F5"/>
<path d="M17.6792 68.1639L17.2536 68.2026C16.3252 60.1173 18.8011 52.2255 25.0681 43.4052L25.4163 43.6373C19.2266 52.3802 16.7507 60.1947 17.6792 68.1639Z" fill="url(#paint0_linear_101_4949)"/>
<path d="M15.0487 73.6186L14.6619 73.7346C9.90354 58.6473 18.0662 46.384 26.6544 36.4031L26.9639 36.6739C18.453 46.5774 10.3678 58.686 15.0487 73.6186Z" fill="url(#paint1_linear_101_4949)"/>
<path d="M215.169 9.24592C205.653 4.37155 197.606 3.05624 189.83 5.10657L189.714 4.71972C197.606 2.6307 205.769 3.94601 215.363 8.85907L215.169 9.24592Z" fill="url(#paint2_linear_101_4949)"/>
<path d="M222.326 9.78747C211.301 2.78539 198.148 -3.44298 184.066 3.32699L183.873 2.94013C198.148 -3.94589 211.417 2.35985 222.519 9.40062L222.326 9.78747Z" fill="url(#paint3_linear_101_4949)"/>
<path d="M101.433 51.2197H100.814C100.814 50.9102 100.853 50.6007 100.853 50.2912L101.472 50.3299C101.433 50.6394 101.433 50.9102 101.433 51.2197Z" fill="url(#paint4_linear_101_4949)"/>
<path d="M142.556 46.1906C142.401 45.6103 142.208 45.03 141.976 44.4497L142.556 44.2563C142.788 44.8366 142.982 45.4555 143.136 46.0358L142.556 46.1906ZM101.665 48.5117L101.085 48.4343C101.201 47.8154 101.317 47.1964 101.472 46.5774L102.052 46.7322C101.898 47.3125 101.782 47.9314 101.665 48.5117ZM141.279 42.7476C141.009 42.206 140.738 41.6644 140.428 41.1228L140.931 40.8133C141.241 41.3549 141.55 41.8965 141.821 42.4768L141.279 42.7476ZM102.555 44.9526L101.975 44.7592C102.168 44.1789 102.401 43.56 102.671 43.0184L103.213 43.2505C102.981 43.8308 102.749 44.3724 102.555 44.9526ZM139.384 39.614C139.036 39.1111 138.649 38.6469 138.262 38.1827L138.726 37.7958C139.152 38.26 139.539 38.763 139.887 39.2659L139.384 39.614ZM104.064 41.6257L103.522 41.3162C103.832 40.7746 104.141 40.233 104.528 39.7301L105.031 40.0783C104.683 40.5812 104.373 41.0841 104.064 41.6257ZM137.024 36.8287C136.599 36.4031 136.134 35.9776 135.67 35.5907L136.057 35.1265C136.56 35.5134 137.024 35.9389 137.45 36.3645L137.024 36.8287ZM106.114 38.6082L105.65 38.2214C106.037 37.7184 106.462 37.2542 106.888 36.8287L107.314 37.2542C106.927 37.6798 106.501 38.1053 106.114 38.6082ZM134.161 34.5075C133.658 34.1594 133.117 33.8499 132.614 33.5404L132.923 32.9988C133.465 33.3083 134.007 33.6565 134.51 34.0046L134.161 34.5075ZM108.668 35.9776L108.281 35.5134C108.745 35.0878 109.248 34.701 109.751 34.3528L110.099 34.8557C109.596 35.2039 109.132 35.5521 108.668 35.9776ZM130.989 32.728C130.448 32.4959 129.867 32.2638 129.287 32.0317L129.48 31.4514C130.061 31.6448 130.641 31.8769 131.221 32.1477L130.989 32.728ZM111.646 33.8112L111.337 33.3083C111.878 32.9988 112.42 32.6893 113 32.4185L113.271 32.9601C112.691 33.2309 112.149 33.5017 111.646 33.8112ZM127.546 31.4901C126.966 31.3353 126.347 31.2193 125.767 31.1032L125.883 30.5229C126.502 30.639 127.121 30.755 127.74 30.9098L127.546 31.4901ZM114.935 32.2251L114.703 31.6448C115.283 31.4127 115.902 31.2193 116.482 31.0645L116.637 31.6448C116.095 31.8382 115.476 32.0317 114.935 32.2251ZM123.91 30.9098C123.291 30.8711 122.672 30.8324 122.091 30.8711V30.2521C122.71 30.2521 123.368 30.2521 123.987 30.2908L123.91 30.9098ZM118.455 31.2193L118.339 30.639C118.958 30.5229 119.577 30.4456 120.196 30.3682L120.273 30.9872C119.654 31.0258 119.035 31.1419 118.455 31.2193Z" fill="url(#paint5_linear_101_4949)"/>
<path d="M143.717 48.7825L143.136 48.8599C143.098 48.5504 143.059 48.2796 142.982 47.9701L143.562 47.854C143.601 48.1635 143.678 48.473 143.717 48.7825Z" fill="url(#paint6_linear_101_4949)"/>
<path d="M103.252 51.4131L101.085 52.4576L98.803 51.6065L101.279 56.7904L103.252 51.4131Z" fill="url(#paint7_linear_101_4949)"/>
<path d="M82.7098 81.2783C82.6325 79.8856 83.1741 78.2995 83.5609 78.4543C83.9091 78.609 83.5996 79.8856 83.8317 80.2725C84.1799 80.7754 84.4507 81.2396 84.2186 82.4389L82.7098 81.2783Z" fill="#FCB47E"/>
<path d="M70.3301 177.141L69.2083 168.282H75.7074L76.0169 177.141H70.3301Z" fill="#FCB47E"/>
<path d="M75.8623 173.311C73.4251 173.969 69.7886 172.77 69.7886 172.77L69.5178 170.681L75.7849 171.222L75.8623 173.311Z" fill="#FCA377"/>
<path d="M39.3818 177.141L39.9621 168.282H46.4613L45.0686 177.141H39.3818Z" fill="#FCB47E"/>
<path d="M46.1519 170.178L45.7264 172.963C42.7476 173.156 40.6199 172.035 39.7688 171.493L39.9622 168.785L46.1519 170.178Z" fill="#FCA377"/>
<path d="M84.1413 171.57C84.1413 171.57 79.8085 117.14 68.1255 90.6789L57.2549 91.2205C57.2549 91.2205 58.1833 129.519 66.346 171.532C66.3073 171.57 76.5203 174.008 84.1413 171.57Z" fill="url(#paint8_linear_101_4949)"/>
<path d="M53.3087 171.57C53.3087 171.57 42.5928 173.311 36.4805 169.133C36.4805 169.133 39.73 110.138 49.6722 90.7949H61.3939C61.3939 90.7949 61.0071 122.594 53.3087 171.57Z" fill="url(#paint9_linear_101_4949)"/>
<path d="M49.9432 62.7866C50.214 61.7421 50.7556 60.4268 50.7556 60.4268C50.5621 61.3939 50.5621 62.5158 50.6008 63.0961C53.1541 64.2567 58.454 65.7654 66.694 63.7538C66.5779 62.9027 66.5393 62.0903 66.5393 62.0903C66.694 62.6319 66.8874 63.1735 67.0809 63.6377C67.3903 63.5603 67.6611 63.483 67.9706 63.4056C67.7385 62.3611 67.6225 60.5429 67.6225 60.5429C67.8933 61.6261 68.4735 62.7479 68.7057 63.2122C69.2086 63.0574 69.7115 62.9027 70.2531 62.7093C70.2531 62.7093 68.6283 60.1947 67.5451 53.6568C66.6553 48.2796 63.9086 45.765 59.7306 45.8811C51.1424 46.1132 48.8213 62.0903 48.8213 62.0903C48.8213 62.0903 49.2081 62.3998 49.9432 62.7866Z" fill="url(#paint10_linear_101_4949)"/>
<path d="M79.6924 81.7039C79.6924 81.7039 76.2494 66.191 62.5547 65.3786C41.4711 64.1406 34.9719 77.874 34.9719 77.874L79.6924 81.7039Z" fill="white"/>
<path d="M57.8739 49.8656C60.195 48.5503 64.2956 48.473 65.2241 51.6452C66.0752 54.5466 65.9591 63.3282 62.0519 63.1735C57.9899 63.0187 56.7133 59.9239 56.3264 58.0283C56.2104 57.2933 55.514 51.1809 57.8739 49.8656Z" fill="#FCB47E"/>
<path d="M56.4422 57.7962C56.4422 57.7962 54.624 58.3378 54.2758 56.713C53.9663 55.2429 55.7072 54.6626 56.2875 55.3203L56.4422 57.7962Z" fill="#FCB47E"/>
<path d="M81.588 100.428C84.1799 95.3212 86.2302 83.406 86.2302 83.406C86.5397 82.9418 87.8163 80.8915 87.8937 79.344C87.9324 78.6477 87.5842 78.2609 87.12 78.4543C86.9653 77.9127 86.6171 77.7966 86.1915 78.1061C85.9594 77.6032 85.6499 77.6419 85.3405 77.874C84.6828 76.7521 83.3288 80.3112 83.3675 80.7367C83.3675 81.0462 83.4449 82.1294 83.5222 82.4389C83.5996 82.8644 75.7078 96.2883 75.7078 96.2883L81.588 100.428Z" fill="#FCB47E"/>
<path d="M38.6082 170.1L38.26 170.062C38.2987 169.481 42.2446 110.834 52.3415 91.8008L52.651 91.9556C42.6315 110.95 38.6469 169.52 38.6082 170.1Z" fill="white"/>
<path d="M47.1575 81.3557L43.4824 102.478C53.1151 105.379 63.9857 102.787 72.8834 96.8686L69.2083 76.0558L62.361 65.6107C62.361 65.6107 59.034 69.4405 55.3202 65.5333L45.7262 69.5566L47.1575 81.3557Z" fill="white"/>
<path d="M82.2069 85.9206L80.2726 81.0849C80.2726 81.0849 75.3982 71.1814 71.4136 68.6281L68.8604 85.9593L82.2069 85.9206Z" fill="white"/>
<path d="M59.4597 124.142L59.1116 124.103C59.6532 118.184 60.1174 112.42 60.4656 106.927L60.8137 106.966C60.5042 112.459 60.04 118.223 59.4597 124.142Z" fill="#47393D"/>
<path d="M68.899 171.686C68.8216 171.338 61.5874 136.715 59.5371 119.229L59.8853 119.19C61.9356 136.637 69.1698 171.261 69.2085 171.609L68.899 171.686Z" fill="white"/>
<path d="M69.337 75.9992L68.9941 76.0597L72.6719 96.8991L73.0148 96.8385L69.337 75.9992Z" fill="url(#paint11_linear_101_4949)"/>
<path d="M54.9333 55.0108C54.9333 55.0108 55.591 54.624 56.2487 55.3203C56.2487 55.3203 56.4034 53.9276 56.8676 53.0766L57.1771 54.624C57.6413 54.7014 59.1501 54.9335 60.7749 54.9722C61.2391 54.9722 62.5544 54.9722 62.5544 54.9722L62.8639 52.4189L63.4055 54.9335C63.7923 54.8948 64.1018 54.8561 64.3726 54.8174L64.6047 53.3087L65.0303 54.74C65.4558 54.6627 65.7266 54.624 65.8814 54.5853C65.9587 53.5021 65.9974 50.6007 64.0631 48.8985C61.8581 46.9643 57.1771 48.0088 56.0939 50.3299C55.0107 52.651 54.9333 55.0108 54.9333 55.0108Z" fill="url(#paint12_linear_101_4949)"/>
<path d="M59.3049 67.3129C61.2392 67.3129 62.3997 65.6107 62.3997 65.6107L61.8968 60.04L56.5969 56.8678L55.2429 65.5333C55.2429 65.5333 56.9064 67.3129 59.3049 67.3129Z" fill="#FCB47E"/>
<path d="M61.8583 63.4443V63.0961C59.4211 62.9801 57.8737 61.1619 57.0226 59.6144L56.7131 59.7692C57.6416 61.394 59.3051 63.3282 61.8583 63.4443Z" fill="url(#paint13_linear_101_4949)"/>
<path d="M68.8217 181.28L85.2244 181.358C85.8047 181.358 86.2689 180.894 86.2302 180.313C86.2302 180.313 86.2302 180.313 86.2302 180.275C86.2302 180.158 86.1915 180.004 86.1915 179.888C86.1529 179.462 86.0368 178.998 85.8047 178.727C85.031 177.683 83.5222 177.218 80.8529 176.135C79.1508 175.439 77.7194 174.549 77.1004 174.124C76.907 173.969 76.6362 174.007 76.4428 174.201C73.1932 177.373 71.1816 176.677 70.6013 175.361C70.137 174.356 69.5181 174.549 69.3246 174.859C68.783 175.787 68.4736 178.456 68.3575 179.772C68.3575 179.926 68.3188 180.042 68.3188 180.158C68.2801 180.391 68.2801 180.545 68.2801 180.545C68.2028 180.971 68.4736 181.28 68.8217 181.28Z" fill="url(#paint14_linear_101_4949)"/>
<path d="M79.8858 177.876C81.0464 177.334 80.8917 176.096 80.8917 176.096L80.6209 176.135C80.6209 176.174 80.7369 177.141 79.7698 177.605L79.8858 177.876Z" fill="white"/>
<path d="M81.3558 178.379C82.439 177.76 82.3229 176.715 82.3229 176.677L82.0521 176.715C82.0521 176.754 82.1295 177.605 81.2397 178.108L81.3558 178.379Z" fill="white"/>
<path d="M72.071 177.605C73.1542 177.605 74.16 177.102 74.1987 177.102L74.0826 176.831C74.0439 176.831 71.5681 178.069 70.2914 176.483L70.0593 176.677C70.6009 177.412 71.3746 177.605 72.071 177.605Z" fill="white"/>
<path d="M70.3167 180.043L70.3157 180.314L79.871 180.349L79.872 180.078L70.3167 180.043Z" fill="white"/>
<path d="M81.1001 180.061L81.0991 180.332L83.3429 180.34L83.3439 180.069L81.1001 180.061Z" fill="white"/>
<path d="M38.144 181.28L54.5467 181.358C55.1269 181.358 55.5912 180.894 55.5525 180.313C55.5525 180.313 55.5525 180.313 55.5525 180.275C55.5525 180.158 55.5138 180.004 55.5138 179.888C55.4751 179.462 55.3591 178.998 55.1269 178.727C54.3532 177.683 52.8445 177.218 50.1752 176.135C48.473 175.439 47.0417 174.549 46.4227 174.124C46.2293 173.969 45.9585 174.007 45.7651 174.201C42.5155 177.373 40.5038 176.677 39.9235 175.361C39.4593 174.356 38.8403 174.549 38.6469 174.859C38.1053 175.787 37.7958 178.456 37.6798 179.772C37.6798 179.926 37.6411 180.042 37.6411 180.158C37.6024 180.391 37.6024 180.545 37.6024 180.545C37.525 180.971 37.7958 181.28 38.144 181.28Z" fill="url(#paint15_linear_101_4949)"/>
<path d="M49.2081 177.876C50.3687 177.334 50.2139 176.096 50.2139 176.096L49.9431 176.135C49.9431 176.174 50.0592 177.141 49.092 177.605L49.2081 177.876Z" fill="white"/>
<path d="M50.6395 178.379C51.7227 177.76 51.6066 176.715 51.6066 176.677L51.3358 176.715C51.3358 176.754 51.4132 177.605 50.5234 178.108L50.6395 178.379Z" fill="white"/>
<path d="M41.3935 177.605C42.4767 177.605 43.4825 177.102 43.5212 177.102L43.4051 176.831C43.3664 176.831 40.8906 178.069 39.6139 176.483L39.3818 176.677C39.8847 177.412 40.6585 177.605 41.3935 177.605Z" fill="white"/>
<path d="M39.6062 180.011L39.6052 180.282L49.1606 180.317L49.1616 180.046L39.6062 180.011Z" fill="white"/>
<path d="M50.3899 180.067L50.3889 180.338L52.6327 180.346L52.6337 180.075L50.3899 180.067Z" fill="white"/>
<path d="M47.854 126.154L102.633 117.488C103.755 117.295 104.528 116.25 104.374 115.128L98.8029 79.8856C98.6094 78.7638 97.5649 77.99 96.4431 78.1448L41.6643 86.8103C40.5425 87.0038 39.7688 88.0483 39.9235 89.1702L45.4942 124.413C45.6876 125.573 46.7322 126.347 47.854 126.154Z" fill="url(#paint16_linear_101_4949)"/>
<path d="M58.6862 111.84L48.8214 113.387C48.5119 113.426 48.2411 113.233 48.1638 112.923L47.8543 111.028C47.8156 110.718 48.009 110.447 48.3185 110.37L58.1833 108.822C58.4928 108.784 58.7636 108.977 58.841 109.287L59.1504 111.182C59.2278 111.492 58.9957 111.801 58.6862 111.84Z" fill="white"/>
<path d="M71.7231 109.79L61.8583 111.337C61.5488 111.376 61.278 111.182 61.2006 110.873L60.8911 108.977C60.8524 108.668 61.0459 108.397 61.3554 108.32L71.2202 106.772C71.5297 106.733 71.8005 106.927 71.8778 107.236L72.1873 109.132C72.2647 109.441 72.0326 109.751 71.7231 109.79Z" fill="white"/>
<path d="M84.7599 107.739L74.8951 109.287C74.5857 109.325 74.3149 109.132 74.2375 108.822L73.928 106.927C73.8893 106.617 74.0827 106.347 74.3922 106.269L84.257 104.722C84.5665 104.683 84.8373 104.877 84.9147 105.186L85.2242 107.082C85.3015 107.391 85.0694 107.701 84.7599 107.739Z" fill="white"/>
<path d="M97.7973 105.689L87.9325 107.236C87.623 107.275 87.3522 107.082 87.2748 106.772L86.9654 104.877C86.9267 104.567 87.1201 104.296 87.4296 104.219L97.2944 102.671C97.6039 102.633 97.8747 102.826 97.952 103.136L98.2615 105.031C98.3002 105.341 98.1068 105.612 97.7973 105.689Z" fill="white"/>
<path d="M98.6097 111.569L85.65 113.619C85.2632 113.697 84.915 113.426 84.8763 113.039L84.6055 111.376C84.5281 110.989 84.7989 110.641 85.1858 110.602L98.1455 108.552C98.5323 108.474 98.8805 108.745 98.9192 109.132L99.19 110.795C99.2286 111.144 98.9965 111.53 98.6097 111.569Z" fill="white"/>
<path d="M48.3569 97.6423L47.7379 93.6964C47.5832 92.8453 48.2021 92.0329 49.0532 91.8782L56.7129 90.6789C57.564 90.5242 58.3764 91.1431 58.5312 91.9942L59.1501 95.9401C59.3049 96.7912 58.6859 97.6036 57.8348 97.7583L50.1751 98.9576C49.2853 99.1123 48.4729 98.5321 48.3569 97.6423ZM49.0919 92.3037C48.4729 92.4197 48.0474 93 48.1248 93.619L48.7437 97.5649C48.8598 98.1839 49.4401 98.6094 50.059 98.5321L57.7188 97.3328C58.3377 97.2168 58.7633 96.6365 58.6859 96.0175L58.0669 92.0716C57.9509 91.4526 57.3706 91.0271 56.7516 91.1044L49.0919 92.3037Z" fill="white"/>
<path d="M99.4197 82.4599L99.0376 82.5202L100.371 90.9654L100.753 90.9051L99.4197 82.4599Z" fill="url(#paint17_linear_101_4949)"/>
<path d="M71.6069 122.595L71.5295 122.208L102.594 117.295C103.097 117.217 103.522 116.946 103.832 116.56C104.141 116.134 104.257 115.67 104.18 115.167L101.472 98.0679L101.859 97.9905L104.567 115.09C104.644 115.67 104.528 116.289 104.141 116.792C103.793 117.295 103.252 117.604 102.671 117.681L71.6069 122.595Z" fill="url(#paint18_linear_101_4949)"/>
<path d="M66.2042 123.079L54.7031 124.896L54.7635 125.278L66.2646 123.461L66.2042 123.079Z" fill="url(#paint19_linear_101_4949)"/>
<path d="M87.468 78.4156C87.7001 78.493 87.8161 78.7638 87.7388 78.9959C87.5453 79.4215 87.2358 79.847 87.0037 79.847C86.6169 79.8857 86.8103 79.1894 86.965 78.6864C87.0037 78.493 87.2358 78.377 87.468 78.4156Z" fill="#FCB47E"/>
<path d="M86.8105 78.4157C86.9653 78.5317 87.0426 78.7251 86.9653 78.9186C86.8105 79.3828 86.4237 80.0404 86.0368 79.9631C85.8047 79.9244 85.9595 79.2281 86.1142 78.6478C86.1916 78.377 86.5397 78.2609 86.8105 78.4157Z" fill="#FCB47E"/>
<path d="M85.8045 78.1835C86.0366 78.2222 86.1913 78.4543 86.114 78.6864C86.0366 79.1506 85.7658 79.8083 85.2629 79.963C84.8373 80.1178 85.0695 79.112 85.2242 78.493C85.2629 78.2609 85.495 78.1448 85.7271 78.1835H85.8045Z" fill="#FCB47E"/>
<path d="M85.0309 77.6419C85.4565 77.7193 85.4952 78.1061 85.3791 78.3769C85.1857 78.8798 84.8375 79.4214 84.528 79.4988C84.1799 79.5762 84.3733 78.7638 84.4893 78.1448C84.5667 77.874 84.7601 77.6032 85.0309 77.6419Z" fill="#FCB47E"/>
<path d="M43.2893 99.7313C43.2893 99.7313 36.8675 90.3307 46.8096 83.6381L52.4964 67.661V67.545C45.8425 67.5063 38.6857 71.5682 34.8171 77.2937C28.3566 86.849 28.9756 98.2613 39.8462 104.141L43.2893 99.7313Z" fill="white"/>
<path d="M46.5388 85.6498L46.1907 85.6111L47.1578 80.6981L47.506 80.7367L46.5388 85.6498Z" fill="url(#paint20_linear_101_4949)"/>
<path d="M42.2059 104.296C37.5249 101.743 34.4688 98.0292 33.3856 93.5416C32.1476 88.3965 33.4629 82.5936 37.1381 77.2163L37.4089 77.4098C33.8111 82.7097 32.4958 88.4351 33.7337 93.4643C34.8169 97.8744 37.7957 101.511 42.3606 103.987L42.2059 104.296Z" fill="url(#paint21_linear_101_4949)"/>
<path d="M42.7089 100.505C43.0184 100.776 44.0629 101.627 44.4498 101.704C44.8366 101.782 46.9257 101.859 46.887 102.285C46.8096 102.749 45.3782 102.401 45.4169 102.749C45.4169 102.981 48.241 103.755 47.9315 104.219C47.7381 104.528 46.1133 103.871 46.0746 104.064C46.0359 104.257 48.241 104.683 47.9702 105.186C47.6994 105.689 45.6104 104.412 45.4943 104.644C45.4556 104.76 48.0089 105.689 47.7767 106.076C47.5059 106.617 45.533 105.302 45.3782 105.534C45.3009 105.65 46.0746 105.998 46.5001 106.23C46.7322 106.385 46.6549 106.579 46.4614 106.579C44.4885 106.501 42.0126 104.103 41.7031 103.987C41.2389 103.832 40.7747 103.639 40.3491 103.445L42.7089 100.505Z" fill="#FCB47E"/>
<path d="M42.7475 88.0483L42.438 87.8549C43.3664 86.2301 44.7978 84.76 46.6934 83.5221L46.8868 83.8316C45.0686 85.0695 43.6759 86.4622 42.7475 88.0483Z" fill="url(#paint22_linear_101_4949)"/>
<path d="M251.649 68.4734C251.649 68.5895 251.649 68.7442 251.649 68.8603C252.114 85.3016 250.45 98.1452 247.587 108.126L239.115 113.387L246.079 112.304L246.272 112.265C242.481 123.252 237.258 130.332 232.307 134.896C229.25 137.759 226.272 139.616 223.834 140.815C223.68 140.893 223.525 140.97 223.37 141.047C222.983 141.241 222.596 141.396 222.248 141.55L217.567 141.782C217.49 141.55 217.451 141.357 217.374 141.125C217.335 140.97 217.297 140.854 217.258 140.699C217.219 140.506 217.142 140.351 217.103 140.158C211.61 118.919 218.534 101.975 227.626 89.9052C227.664 89.8665 227.664 89.8278 227.703 89.7891C230.875 85.6111 234.279 82.0134 237.49 78.9959L239.541 84.2571L239.85 76.9069C245.46 72.0325 250.141 69.2084 251.301 68.5508C251.572 68.5121 251.649 68.4734 251.649 68.4734Z" fill="url(#paint23_linear_101_4949)"/>
<path d="M251.804 68.5508L251.649 68.8603L242.094 88.8994L241.901 89.2863L239.309 94.7409L239.231 94.9343L230.875 112.343V112.382L217.297 140.777L217.103 141.202L216.794 141.899H216.368L216.716 141.241L217.181 140.235L230.566 112.227L230.798 111.685L251.379 68.6282L251.495 68.3961L251.804 68.5508Z" fill="white"/>
<path d="M251.052 86.6581L239.164 94.8354L239.339 95.0904L251.228 86.913L251.052 86.6581Z" fill="white"/>
<path d="M251.103 82.705L241.796 89.1066L241.972 89.3616L251.279 82.96L251.103 82.705Z" fill="white"/>
<path d="M227.982 89.8173L227.675 89.8571L230.596 112.377L230.903 112.337L227.982 89.8173Z" fill="white"/>
<path d="M215.749 145.496C215.749 145.496 226.813 150.719 242.519 141.357L237.413 138.92L245.73 139.268C251.881 134.974 258.613 128.436 265.615 118.571L263.68 117.643L266.195 117.759C267.355 116.057 268.555 114.277 269.754 112.42C269.754 112.42 265.15 111.995 258.535 112.768L255.131 117.372L256.098 113.117C242.597 115.128 222.945 122.208 215.749 145.496Z" fill="url(#paint24_linear_101_4949)"/>
<path d="M269.67 112.241L214.825 144.294L215.001 144.595L269.845 112.542L269.67 112.241Z" fill="white"/>
<path d="M255.468 120.713L255.437 121.021L263.287 121.83L263.319 121.522L255.468 120.713Z" fill="white"/>
<path d="M251.711 122.854L251.657 123.158L260.797 124.787L260.852 124.482L251.711 122.854Z" fill="white"/>
<path d="M228.67 125.302L228.399 124.993C233.003 120.892 238.612 117.72 245.073 115.515L245.189 115.902C238.767 118.107 233.196 121.279 228.67 125.302Z" fill="url(#paint25_linear_101_4949)"/>
<path d="M118.803 99.1511C118.803 99.2671 118.842 99.4219 118.842 99.5379C121.124 115.825 124.916 128.204 129.403 137.566L138.649 141.357L131.608 141.473H131.415C136.985 151.686 143.33 157.798 148.939 161.473C152.46 163.756 155.671 165.11 158.262 165.884C158.417 165.922 158.611 166 158.765 166.038C159.191 166.154 159.578 166.27 159.965 166.348L164.607 165.806C164.646 165.574 164.646 165.342 164.684 165.149C164.684 164.994 164.723 164.878 164.723 164.723C164.762 164.53 164.762 164.336 164.762 164.181C166.657 142.324 156.986 126.773 145.999 116.405C145.96 116.366 145.922 116.327 145.883 116.289C142.053 112.691 138.107 109.712 134.432 107.275L133.272 112.807L131.763 105.612C125.418 101.743 120.312 99.7314 119.074 99.2671C118.919 99.1511 118.803 99.1511 118.803 99.1511Z" fill="url(#paint26_linear_101_4949)"/>
<path d="M118.687 99.2284L118.881 99.5379L131.686 117.72L131.879 118.03L135.399 122.981L135.515 123.136L146.618 138.92V138.958L164.762 164.684L165.033 165.071L165.458 165.69L165.884 165.651L165.419 165.033L164.8 164.143L146.928 138.726L146.58 138.262L119.113 99.2284L118.958 99.035L118.687 99.2284Z" fill="white"/>
<path d="M122.475 116.991L122.345 117.271L135.433 123.348L135.563 123.067L122.475 116.991Z" fill="white"/>
<path d="M121.711 113.098L121.58 113.379L131.826 118.135L131.956 117.855L121.711 113.098Z" fill="white"/>
<path d="M146.054 116.247L145.745 116.259L146.628 138.95L146.937 138.938L146.054 116.247Z" fill="white"/>
<path d="M167.083 169.056C167.083 169.056 157.063 176.058 140.003 169.443L144.645 166.193L136.483 167.895C129.713 164.684 121.976 159.346 113.426 150.835L115.206 149.597L112.73 150.1C111.298 148.63 109.828 147.082 108.32 145.419C108.32 145.419 112.807 144.258 119.422 143.91L123.523 147.856L121.86 143.833C135.554 143.601 156.096 147.315 167.083 169.056Z" fill="url(#paint27_linear_101_4949)"/>
<path d="M108.382 145.29L108.259 145.616L167.683 168.058L167.806 167.733L108.382 145.29Z" fill="white"/>
<path d="M123.77 151.289L116.165 153.399L116.248 153.697L123.852 151.587L123.77 151.289Z" fill="white"/>
<path d="M127.808 152.773L119.067 155.906L119.172 156.197L127.912 153.065L127.808 152.773Z" fill="white"/>
<path d="M150.99 151.338L151.222 150.99C145.999 147.74 139.926 145.496 133.233 144.413L133.156 144.839C139.81 145.922 145.806 148.127 150.99 151.338Z" fill="url(#paint28_linear_101_4949)"/>
<path d="M169.288 179.191H158.108C154.471 179.191 151.493 176.367 151.338 172.77L145.032 62.7093C144.877 58.9181 147.972 55.7459 151.802 55.7459H164.684L169.288 179.191Z" fill="url(#paint29_linear_101_4949)"/>
<path d="M224.531 62.7093L221.243 172.77C221.088 176.367 218.109 179.191 214.473 179.191H164.994C161.357 179.191 157.063 176.367 156.909 172.77L153.62 62.7093C153.466 58.9181 156.56 55.7459 160.39 55.7459H217.761C221.629 55.7459 224.724 58.9181 224.531 62.7093Z" fill="#E1C4F5"/>
<path d="M167.276 63.367H164.646C164.297 63.367 163.949 63.5217 163.717 63.7538C163.485 63.9859 163.33 64.3341 163.33 64.6823C163.33 65.4173 163.911 65.9976 164.646 65.9976H167.276H210.527H213.157C213.505 65.9976 213.854 65.8428 214.086 65.6107C214.318 65.3786 214.473 65.0304 214.473 64.6823C214.473 63.9473 213.892 63.367 213.157 63.367H210.527H167.276Z" fill="url(#paint30_linear_101_4949)"/>
<path d="M212.616 106.656H165.535C164.646 106.656 163.911 105.96 163.872 105.031L162.711 74.3923C162.673 73.4252 163.446 72.6515 164.375 72.6515H213.815C214.782 72.6515 215.517 73.4252 215.478 74.3923L214.318 105.031C214.279 105.96 213.544 106.656 212.616 106.656Z" fill="white"/>
<path d="M177.296 127.353H170.023C168.746 127.353 167.702 126.308 167.702 125.032V121.705C167.702 120.428 168.746 119.384 170.023 119.384H177.296C178.573 119.384 179.617 120.428 179.617 121.705V125.032C179.578 126.308 178.573 127.353 177.296 127.353Z" fill="url(#paint31_linear_101_4949)"/>
<path d="M177.296 140.312H170.023C168.746 140.312 167.702 139.268 167.702 137.991V134.664C167.702 133.388 168.746 132.343 170.023 132.343H177.296C178.573 132.343 179.617 133.388 179.617 134.664V137.991C179.578 139.268 178.573 140.312 177.296 140.312Z" fill="url(#paint32_linear_101_4949)"/>
<path d="M177.296 153.272H170.023C168.746 153.272 167.702 152.228 167.702 150.951V147.624C167.702 146.347 168.746 145.303 170.023 145.303H177.296C178.573 145.303 179.617 146.347 179.617 147.624V150.951C179.578 152.266 178.573 153.272 177.296 153.272Z" fill="url(#paint33_linear_101_4949)"/>
<path d="M177.296 166.232H170.023C168.746 166.232 167.702 165.187 167.702 163.911V160.584C167.702 159.307 168.746 158.263 170.023 158.263H177.296C178.573 158.263 179.617 159.307 179.617 160.584V163.911C179.578 165.226 178.573 166.232 177.296 166.232Z" fill="url(#paint34_linear_101_4949)"/>
<path d="M192.383 127.353H185.11C183.834 127.353 182.789 126.308 182.789 125.032V121.705C182.789 120.428 183.834 119.384 185.11 119.384H192.383C193.66 119.384 194.704 120.428 194.704 121.705V125.032C194.704 126.308 193.698 127.353 192.383 127.353Z" fill="url(#paint35_linear_101_4949)"/>
<path d="M192.383 140.312H185.11C183.834 140.312 182.789 139.268 182.789 137.991V134.664C182.789 133.388 183.834 132.343 185.11 132.343H192.383C193.66 132.343 194.704 133.388 194.704 134.664V137.991C194.704 139.268 193.698 140.312 192.383 140.312Z" fill="url(#paint36_linear_101_4949)"/>
<path d="M192.383 153.272H185.11C183.834 153.272 182.789 152.228 182.789 150.951V147.624C182.789 146.347 183.834 145.303 185.11 145.303H192.383C193.66 145.303 194.704 146.347 194.704 147.624V150.951C194.704 152.266 193.698 153.272 192.383 153.272Z" fill="url(#paint37_linear_101_4949)"/>
<path d="M192.383 166.232H185.11C183.834 166.232 182.789 165.187 182.789 163.911V160.584C182.789 159.307 183.834 158.263 185.11 158.263H192.383C193.66 158.263 194.704 159.307 194.704 160.584V163.911C194.704 165.226 193.698 166.232 192.383 166.232Z" fill="url(#paint38_linear_101_4949)"/>
<path d="M207.509 127.353H200.236C198.96 127.353 197.915 126.308 197.915 125.032V121.705C197.915 120.428 198.96 119.384 200.236 119.384H207.509C208.786 119.384 209.83 120.428 209.83 121.705V125.032C209.83 126.308 208.825 127.353 207.509 127.353Z" fill="url(#paint39_linear_101_4949)"/>
<path d="M207.509 140.312H200.236C198.96 140.312 197.915 139.268 197.915 137.991V134.664C197.915 133.388 198.96 132.343 200.236 132.343H207.509C208.786 132.343 209.83 133.388 209.83 134.664V137.991C209.83 139.268 208.825 140.312 207.509 140.312Z" fill="url(#paint40_linear_101_4949)"/>
<path d="M207.509 153.272H200.236C198.96 153.272 197.915 152.228 197.915 150.951V147.624C197.915 146.347 198.96 145.303 200.236 145.303H207.509C208.786 145.303 209.83 146.347 209.83 147.624V150.951C209.83 152.266 208.825 153.272 207.509 153.272Z" fill="url(#paint41_linear_101_4949)"/>
<path d="M207.509 166.232H200.236C198.96 166.232 197.915 165.187 197.915 163.911V160.584C197.915 159.307 198.96 158.263 200.236 158.263H207.509C208.786 158.263 209.83 159.307 209.83 160.584V163.911C209.83 165.226 208.825 166.232 207.509 166.232Z" fill="url(#paint42_linear_101_4949)"/>
<path d="M179.423 127.353H172.15C170.874 127.353 169.829 126.308 169.829 125.032V121.705C169.829 120.428 170.874 119.384 172.15 119.384H179.423C180.7 119.384 181.744 120.428 181.744 121.705V125.032C181.744 126.308 180.7 127.353 179.423 127.353Z" fill="url(#paint43_linear_101_4949)"/>
<path d="M179.423 140.312H172.15C170.874 140.312 169.829 139.268 169.829 137.991V134.664C169.829 133.388 170.874 132.343 172.15 132.343H179.423C180.7 132.343 181.744 133.388 181.744 134.664V137.991C181.744 139.268 180.7 140.312 179.423 140.312Z" fill="url(#paint44_linear_101_4949)"/>
<path d="M179.423 153.272H172.15C170.874 153.272 169.829 152.228 169.829 150.951V147.624C169.829 146.347 170.874 145.303 172.15 145.303H179.423C180.7 145.303 181.744 146.347 181.744 147.624V150.951C181.744 152.266 180.7 153.272 179.423 153.272Z" fill="url(#paint45_linear_101_4949)"/>
<path d="M179.423 166.232H172.15C170.874 166.232 169.829 165.187 169.829 163.911V160.584C169.829 159.307 170.874 158.263 172.15 158.263H179.423C180.7 158.263 181.744 159.307 181.744 160.584V163.911C181.744 165.226 180.7 166.232 179.423 166.232Z" fill="url(#paint46_linear_101_4949)"/>
<path d="M194.55 127.353H187.277C186 127.353 184.956 126.308 184.956 125.032V121.705C184.956 120.428 186 119.384 187.277 119.384H194.55C195.826 119.384 196.871 120.428 196.871 121.705V125.032C196.871 126.308 195.826 127.353 194.55 127.353Z" fill="url(#paint47_linear_101_4949)"/>
<path d="M194.55 140.312H187.277C186 140.312 184.956 139.268 184.956 137.991V134.664C184.956 133.388 186 132.343 187.277 132.343H194.55C195.826 132.343 196.871 133.388 196.871 134.664V137.991C196.871 139.268 195.826 140.312 194.55 140.312Z" fill="url(#paint48_linear_101_4949)"/>
<path d="M194.55 153.272H187.277C186 153.272 184.956 152.228 184.956 150.951V147.624C184.956 146.347 186 145.303 187.277 145.303H194.55C195.826 145.303 196.871 146.347 196.871 147.624V150.951C196.871 152.266 195.826 153.272 194.55 153.272Z" fill="url(#paint49_linear_101_4949)"/>
<path d="M194.55 166.232H187.277C186 166.232 184.956 165.187 184.956 163.911V160.584C184.956 159.307 186 158.263 187.277 158.263H194.55C195.826 158.263 196.871 159.307 196.871 160.584V163.911C196.871 165.226 195.826 166.232 194.55 166.232Z" fill="url(#paint50_linear_101_4949)"/>
<path d="M209.676 127.353H202.403C201.126 127.353 200.082 126.308 200.082 125.032V121.705C200.082 120.428 201.126 119.384 202.403 119.384H209.676C210.952 119.384 211.997 120.428 211.997 121.705V125.032C211.997 126.308 210.952 127.353 209.676 127.353Z" fill="url(#paint51_linear_101_4949)"/>
<path d="M209.676 140.312H202.403C201.126 140.312 200.082 139.268 200.082 137.991V134.664C200.082 133.388 201.126 132.343 202.403 132.343H209.676C210.952 132.343 211.997 133.388 211.997 134.664V137.991C211.997 139.268 210.952 140.312 209.676 140.312Z" fill="url(#paint52_linear_101_4949)"/>
<path d="M209.676 153.272H202.403C201.126 153.272 200.082 152.228 200.082 150.951V147.624C200.082 146.347 201.126 145.303 202.403 145.303H209.676C210.952 145.303 211.997 146.347 211.997 147.624V150.951C211.997 152.266 210.952 153.272 209.676 153.272Z" fill="url(#paint53_linear_101_4949)"/>
<path d="M209.676 166.232H202.403C201.126 166.232 200.082 165.187 200.082 163.911V160.584C200.082 159.307 201.126 158.263 202.403 158.263H209.676C210.952 158.263 211.997 159.307 211.997 160.584V163.911C211.997 165.226 210.952 166.232 209.676 166.232Z" fill="url(#paint54_linear_101_4949)"/>
<path d="M179.424 127.585H172.151C170.758 127.585 169.636 126.463 169.636 125.07V121.743C169.636 120.351 170.758 119.229 172.151 119.229H179.424C180.816 119.229 181.938 120.351 181.938 121.743V125.07C181.977 126.424 180.816 127.585 179.424 127.585ZM172.151 119.616C170.99 119.616 170.062 120.544 170.062 121.705V125.032C170.062 126.192 170.99 127.121 172.151 127.121H179.424C180.584 127.121 181.513 126.192 181.513 125.032V121.705C181.513 120.544 180.584 119.616 179.424 119.616H172.151Z" fill="white"/>
<path d="M179.424 140.545H172.151C170.758 140.545 169.636 139.423 169.636 138.03V134.703C169.636 133.31 170.758 132.189 172.151 132.189H179.424C180.816 132.189 181.938 133.31 181.938 134.703V138.03C181.977 139.384 180.816 140.545 179.424 140.545ZM172.151 132.575C170.99 132.575 170.062 133.504 170.062 134.664V137.991C170.062 139.152 170.99 140.08 172.151 140.08H179.424C180.584 140.08 181.513 139.152 181.513 137.991V134.664C181.513 133.504 180.584 132.575 179.424 132.575H172.151Z" fill="white"/>
<path d="M179.424 153.504H172.151C170.758 153.504 169.636 152.382 169.636 150.99V147.663C169.636 146.27 170.758 145.148 172.151 145.148H179.424C180.816 145.148 181.938 146.27 181.938 147.663V150.99C181.977 152.382 180.816 153.504 179.424 153.504ZM172.151 145.574C170.99 145.574 170.062 146.502 170.062 147.663V150.99C170.062 152.15 170.99 153.079 172.151 153.079H179.424C180.584 153.079 181.513 152.15 181.513 150.99V147.663C181.513 146.502 180.584 145.574 179.424 145.574H172.151Z" fill="white"/>
<path d="M179.424 166.464H172.151C170.758 166.464 169.636 165.342 169.636 163.949V160.622C169.636 159.23 170.758 158.108 172.151 158.108H179.424C180.816 158.108 181.938 159.23 181.938 160.622V163.949C181.977 165.342 180.816 166.464 179.424 166.464ZM172.151 158.533C170.99 158.533 170.062 159.462 170.062 160.622V163.949C170.062 165.11 170.99 166.038 172.151 166.038H179.424C180.584 166.038 181.513 165.11 181.513 163.949V160.622C181.513 159.462 180.584 158.533 179.424 158.533H172.151Z" fill="white"/>
<path d="M194.55 127.585H187.277C185.884 127.585 184.762 126.463 184.762 125.07V121.743C184.762 120.351 185.884 119.229 187.277 119.229H194.55C195.942 119.229 197.064 120.351 197.064 121.743V125.07C197.103 126.424 195.942 127.585 194.55 127.585ZM187.277 119.616C186.116 119.616 185.188 120.544 185.188 121.705V125.032C185.188 126.192 186.116 127.121 187.277 127.121H194.55C195.71 127.121 196.639 126.192 196.639 125.032V121.705C196.639 120.544 195.71 119.616 194.55 119.616H187.277Z" fill="white"/>
<path d="M194.55 140.545H187.277C185.884 140.545 184.762 139.423 184.762 138.03V134.703C184.762 133.31 185.884 132.189 187.277 132.189H194.55C195.942 132.189 197.064 133.31 197.064 134.703V138.03C197.103 139.384 195.942 140.545 194.55 140.545ZM187.277 132.575C186.116 132.575 185.188 133.504 185.188 134.664V137.991C185.188 139.152 186.116 140.08 187.277 140.08H194.55C195.71 140.08 196.639 139.152 196.639 137.991V134.664C196.639 133.504 195.71 132.575 194.55 132.575H187.277Z" fill="white"/>
<path d="M194.55 153.504H187.277C185.884 153.504 184.762 152.382 184.762 150.99V147.663C184.762 146.27 185.884 145.148 187.277 145.148H194.55C195.942 145.148 197.064 146.27 197.064 147.663V150.99C197.103 152.382 195.942 153.504 194.55 153.504ZM187.277 145.574C186.116 145.574 185.188 146.502 185.188 147.663V150.99C185.188 152.15 186.116 153.079 187.277 153.079H194.55C195.71 153.079 196.639 152.15 196.639 150.99V147.663C196.639 146.502 195.71 145.574 194.55 145.574H187.277Z" fill="white"/>
<path d="M194.55 166.464H187.277C185.884 166.464 184.762 165.342 184.762 163.949V160.622C184.762 159.23 185.884 158.108 187.277 158.108H194.55C195.942 158.108 197.064 159.23 197.064 160.622V163.949C197.103 165.342 195.942 166.464 194.55 166.464ZM187.277 158.533C186.116 158.533 185.188 159.462 185.188 160.622V163.949C185.188 165.11 186.116 166.038 187.277 166.038H194.55C195.71 166.038 196.639 165.11 196.639 163.949V160.622C196.639 159.462 195.71 158.533 194.55 158.533H187.277Z" fill="white"/>
<path d="M209.675 127.585H202.402C201.01 127.585 199.888 126.463 199.888 125.07V121.743C199.888 120.351 201.01 119.229 202.402 119.229H209.675C211.068 119.229 212.19 120.351 212.19 121.743V125.07C212.229 126.424 211.068 127.585 209.675 127.585ZM202.402 119.616C201.242 119.616 200.313 120.544 200.313 121.705V125.032C200.313 126.192 201.242 127.121 202.402 127.121H209.675C210.836 127.121 211.764 126.192 211.764 125.032V121.705C211.764 120.544 210.836 119.616 209.675 119.616H202.402Z" fill="white"/>
<path d="M209.675 140.545H202.402C201.01 140.545 199.888 139.423 199.888 138.03V134.703C199.888 133.31 201.01 132.189 202.402 132.189H209.675C211.068 132.189 212.19 133.31 212.19 134.703V138.03C212.229 139.384 211.068 140.545 209.675 140.545ZM202.402 132.575C201.242 132.575 200.313 133.504 200.313 134.664V137.991C200.313 139.152 201.242 140.08 202.402 140.08H209.675C210.836 140.08 211.764 139.152 211.764 137.991V134.664C211.764 133.504 210.836 132.575 209.675 132.575H202.402Z" fill="white"/>
<path d="M209.675 153.504H202.402C201.01 153.504 199.888 152.382 199.888 150.99V147.663C199.888 146.27 201.01 145.148 202.402 145.148H209.675C211.068 145.148 212.19 146.27 212.19 147.663V150.99C212.229 152.382 211.068 153.504 209.675 153.504ZM202.402 145.574C201.242 145.574 200.313 146.502 200.313 147.663V150.99C200.313 152.15 201.242 153.079 202.402 153.079H209.675C210.836 153.079 211.764 152.15 211.764 150.99V147.663C211.764 146.502 210.836 145.574 209.675 145.574H202.402Z" fill="white"/>
<path d="M209.675 166.464H202.402C201.01 166.464 199.888 165.342 199.888 163.949V160.622C199.888 159.23 201.01 158.108 202.402 158.108H209.675C211.068 158.108 212.19 159.23 212.19 160.622V163.949C212.229 165.342 211.068 166.464 209.675 166.464ZM202.402 158.533C201.242 158.533 200.313 159.462 200.313 160.622V163.949C200.313 165.11 201.242 166.038 202.402 166.038H209.675C210.836 166.038 211.764 165.11 211.764 163.949V160.622C211.764 159.462 210.836 158.533 209.675 158.533H202.402Z" fill="white"/>
<path d="M208.438 179.501H164.994C161.241 179.501 156.792 176.561 156.638 172.808L153.349 62.748C153.272 60.8524 153.968 59.0342 155.284 57.6415C156.638 56.2488 158.456 55.4751 160.429 55.4751H217.799C219.772 55.4751 221.591 56.2488 222.945 57.6415C224.26 59.0342 224.956 60.8137 224.879 62.748L224.685 68.7443H224.105L224.299 62.748C224.376 61.0072 223.757 59.3437 222.519 58.0671C221.281 56.7904 219.618 56.0554 217.799 56.0554H160.39C158.572 56.0554 156.908 56.7518 155.67 58.0671C154.471 59.3437 153.814 61.0072 153.891 62.748L157.179 172.808C157.334 176.251 161.473 178.959 164.955 178.959H208.399V179.501H208.438Z" fill="url(#paint55_linear_101_4949)"/>
<path d="M223.572 85.6151L221.656 149.614L222.237 149.631L224.152 85.6324L223.572 85.6151Z" fill="url(#paint56_linear_101_4949)"/>
<path d="M210.527 42.1673V65.9976H167.315V42.1673C167.199 40.5425 166.464 39.0725 165.342 37.9893C164.22 36.9448 162.673 36.2871 161.009 36.2871H204.182C205.846 36.2871 207.393 36.9448 208.515 37.9893C209.676 39.0725 210.411 40.5425 210.527 42.1673Z" fill="white"/>
<path d="M167.315 42.1673H154.665C154.781 40.5425 155.516 39.0725 156.677 37.9893C157.799 36.9448 159.346 36.2871 161.009 36.2871C162.673 36.2871 164.22 36.9448 165.342 37.9893C166.464 39.0725 167.238 40.5425 167.315 42.1673Z" fill="url(#paint57_linear_101_4949)"/>
<path d="M210.72 66.191H167.121V42.1673C167.044 40.6586 166.348 39.2272 165.187 38.144C164.027 37.0608 162.557 36.4805 160.97 36.4805V36.0937H204.144C205.807 36.0937 207.393 36.7126 208.631 37.8345C209.869 38.9564 210.565 40.5038 210.681 42.1286V66.191H210.72ZM167.508 65.8042H210.294V42.1673C210.178 40.6199 209.521 39.1885 208.36 38.144C207.2 37.0608 205.73 36.4805 204.144 36.4805H163.214C164.027 36.79 164.8 37.2542 165.458 37.8345C166.696 38.9564 167.392 40.5038 167.508 42.1286V65.8042Z" fill="url(#paint58_linear_101_4949)"/>
<path d="M213.157 66.191H164.646C163.795 66.191 163.137 65.4947 163.137 64.6823C163.137 64.2954 163.292 63.9086 163.601 63.5991C163.872 63.3283 164.259 63.1348 164.684 63.1348H167.315V63.5217H164.684C164.375 63.5217 164.104 63.6378 163.872 63.8699C163.64 64.102 163.524 64.3728 163.524 64.6823C163.524 65.3012 164.027 65.8041 164.646 65.8041H213.157C213.467 65.8041 213.738 65.6881 213.97 65.456C214.202 65.2625 214.318 64.9531 214.318 64.6436C214.318 64.0246 213.815 63.5217 213.196 63.5217H210.565V63.1348H213.196C214.047 63.1348 214.705 63.8312 214.705 64.6436C214.705 65.0691 214.55 65.4173 214.241 65.7268C213.97 66.0363 213.583 66.191 213.157 66.191Z" fill="url(#paint59_linear_101_4949)"/>
<path d="M215.014 180.894C215.014 181.977 222.867 182.828 232.577 182.828C242.287 182.828 250.14 181.938 250.14 180.894C250.14 180.855 250.14 180.855 250.14 180.816V175.555H215.053V180.778C215.014 180.816 215.014 180.855 215.014 180.894Z" fill="#F49B51"/>
<path d="M232.577 177.567C242.277 177.567 250.14 176.701 250.14 175.632C250.14 174.564 242.277 173.698 232.577 173.698C222.877 173.698 215.014 174.564 215.014 175.632C215.014 176.701 222.877 177.567 232.577 177.567Z" fill="#FCC659"/>
<path d="M210.875 174.549C210.875 175.632 218.728 176.483 228.438 176.483C238.148 176.483 246.001 175.594 246.001 174.549C246.001 174.511 246.001 174.511 246.001 174.472V169.211H210.913V174.472C210.875 174.511 210.875 174.511 210.875 174.549Z" fill="#F49B51"/>
<path d="M228.438 171.222C238.138 171.222 246.001 170.356 246.001 169.288C246.001 168.22 238.138 167.354 228.438 167.354C218.738 167.354 210.875 168.22 210.875 169.288C210.875 170.356 218.738 171.222 228.438 171.222Z" fill="#FCC659"/>
<path d="M215.014 168.205C215.014 169.288 222.867 170.139 232.577 170.139C242.287 170.139 250.14 169.249 250.14 168.205C250.14 168.166 250.14 168.166 250.14 168.127V162.866H215.053V168.089C215.014 168.166 215.014 168.205 215.014 168.205Z" fill="#F49B51"/>
<path d="M232.577 164.878C242.277 164.878 250.14 164.012 250.14 162.944C250.14 161.875 242.277 161.009 232.577 161.009C222.877 161.009 215.014 161.875 215.014 162.944C215.014 164.012 222.877 164.878 232.577 164.878Z" fill="#FCC659"/>
<path d="M232.577 183.021C239.734 183.021 250.334 182.441 250.334 180.855H249.908C249.908 181.474 243.951 182.596 232.577 182.596C232.152 182.596 231.765 182.596 231.339 182.596V183.021C231.726 183.021 232.152 183.021 232.577 183.021Z" fill="url(#paint60_linear_101_4949)"/>
<path d="M225.614 182.867L225.653 182.441C223.873 182.364 222.248 182.248 220.817 182.093L220.778 182.518C222.171 182.673 223.834 182.789 225.614 182.867Z" fill="url(#paint61_linear_101_4949)"/>
<path d="M239.502 176.213C246.079 175.594 246.079 174.781 246.079 174.511H245.653C245.653 174.704 244.531 175.323 239.425 175.787L239.502 176.213Z" fill="url(#paint62_linear_101_4949)"/>
<path d="M228.322 176.677C230.295 176.677 232.229 176.638 234.086 176.561V176.135C230.798 176.251 227.123 176.29 223.719 176.174V176.6C225.227 176.638 226.775 176.677 228.322 176.677Z" fill="url(#paint63_linear_101_4949)"/>
<path d="M219.347 176.406L219.386 175.981C217.529 175.865 215.865 175.71 214.55 175.516L214.473 175.942C215.827 176.097 217.451 176.29 219.347 176.406Z" fill="url(#paint64_linear_101_4949)"/>
<path d="M244.376 164.607C250.218 164.027 250.218 163.253 250.218 162.982H249.792C249.792 162.982 249.638 163.679 244.299 164.22L244.376 164.607Z" fill="url(#paint65_linear_101_4949)"/>
<path d="M232.461 165.149C234.473 165.149 236.446 165.11 238.341 165.033V164.607C236.484 164.684 234.512 164.723 232.5 164.723C228.902 164.723 225.42 164.607 222.48 164.375L222.442 164.8C225.382 164.994 228.863 165.149 232.461 165.149Z" fill="url(#paint66_linear_101_4949)"/>
<path d="M208.786 161.899C208.786 162.982 216.639 163.833 226.349 163.833C236.059 163.833 243.912 162.944 243.912 161.899C243.912 161.86 243.912 161.86 243.912 161.822V156.56H208.824V161.783C208.786 161.86 208.786 161.86 208.786 161.899Z" fill="#F49B51"/>
<path d="M226.349 158.572C236.049 158.572 243.912 157.706 243.912 156.638C243.912 155.57 236.049 154.704 226.349 154.704C216.649 154.704 208.786 155.57 208.786 156.638C208.786 157.706 216.649 158.572 226.349 158.572Z" fill="#FCC659"/>
<path d="M212.035 156.638C212.035 157.373 218.419 157.953 226.349 157.953C234.241 157.953 240.663 157.373 240.663 156.638C240.663 155.903 234.28 155.322 226.349 155.322C218.457 155.322 212.035 155.903 212.035 156.638Z" fill="#F49B51"/>
<path d="M205.923 46.7708H196.523V47.9314H205.923V46.7708Z" fill="url(#paint67_linear_101_4949)"/>
<path d="M192.19 46.7709H173.311V47.9314H192.19V46.7709Z" fill="url(#paint68_linear_101_4949)"/>
<path d="M205.923 51.8H184.182V52.9605H205.923V51.8Z" fill="url(#paint69_linear_101_4949)"/>
<path d="M181.512 51.8H173.311V52.9605H181.512V51.8Z" fill="url(#paint70_linear_101_4949)"/>
<path d="M201.861 57.2159H192.963V58.3765H201.861V57.2159Z" fill="url(#paint71_linear_101_4949)"/>
<path d="M189.211 57.2159H173.311V58.3765H189.211V57.2159Z" fill="url(#paint72_linear_101_4949)"/>
<path d="M188.553 106.385H176.793V106.966H188.553V106.385Z" fill="url(#paint73_linear_101_4949)"/>
<path d="M212.616 106.966H193.08V106.385H212.616C213.351 106.385 213.97 105.805 214.009 105.07L215.015 78.2609L215.595 78.2996L214.589 105.109C214.55 106.114 213.699 106.966 212.616 106.966Z" fill="url(#paint74_linear_101_4949)"/>
<path d="M103.832 66.0362C97.3715 64.7596 91.1431 68.9376 89.8278 75.3981C88.5512 81.8586 92.7293 88.1257 99.1897 89.4023C105.65 90.6789 111.917 86.5009 113.194 80.0404C114.432 73.5799 110.254 67.3128 103.832 66.0362ZM110.873 79.5761C110.37 82.0907 108.938 84.2571 106.811 85.6498C104.683 87.0811 102.13 87.5841 99.6153 87.0811C94.4314 86.0366 91.0658 81.0075 92.1103 75.8237C92.6132 73.3091 94.0446 71.1427 96.1723 69.75C98.2226 68.396 100.66 67.8544 103.097 68.28C103.174 68.28 103.252 68.3187 103.368 68.3187C108.474 69.3245 111.801 74.2375 110.95 79.3053C110.911 79.3827 110.911 79.4601 110.873 79.5761Z" fill="#FCC659"/>
<path d="M110.95 79.3054C110.95 79.3827 110.911 79.4601 110.911 79.5762C110.408 82.0907 108.977 84.2571 106.849 85.6498C104.722 87.0812 102.168 87.5841 99.6538 87.0812C94.47 86.0367 91.1043 81.0075 92.1488 75.8237C92.6517 73.3091 94.0831 71.1427 96.2108 69.7501C98.2611 68.3961 100.698 67.8545 103.136 68.28C103.213 68.28 103.29 68.3187 103.406 68.3187C108.474 69.3245 111.801 74.1989 110.95 79.3054Z" fill="#F49B51"/>
<path d="M99.6539 84.7987L99.9634 83.0192C98.9576 82.8258 97.9518 82.3228 97.4102 81.7812L98.0291 80.6594C98.5707 81.201 99.4605 81.6652 100.428 81.8586C101.666 82.0907 102.633 81.5104 102.826 80.5046C102.981 79.5375 102.401 78.8411 101.201 78.0674C99.5379 77.0616 98.5707 76.0558 98.8028 74.547C99.0349 73.077 100.273 72.1486 101.936 72.1872L102.246 70.4077L103.329 70.6011L103.02 72.3033C104.064 72.5354 104.76 72.9223 105.186 73.3091L104.528 74.3923C104.18 74.1215 103.522 73.6186 102.401 73.4252C101.047 73.1931 100.389 73.9281 100.273 74.6244C100.118 75.5529 100.698 76.0945 102.091 76.9842C103.793 78.0287 104.528 79.1119 104.257 80.6594C104.025 82.052 102.826 83.1739 100.969 83.1739L100.66 84.9921L99.6539 84.7987Z" fill="#FCC659"/>
<path d="M110.95 76.8682C110.95 76.7908 110.95 76.7134 110.911 76.636C110.602 73.9281 109.132 71.4909 106.888 69.9048L107.043 69.6727C109.364 71.2588 110.834 73.7733 111.144 76.5587C111.144 76.6747 111.182 76.7521 111.182 76.8295L110.95 76.8682Z" fill="url(#paint75_linear_101_4949)"/>
<path d="M106.927 69.9048C105.109 68.6668 102.942 68.0479 100.737 68.2413L100.698 67.9705C102.942 67.7771 105.186 68.396 107.043 69.6727L106.927 69.9048Z" fill="url(#paint76_linear_101_4949)"/>
<path d="M108.939 83.9476L108.745 83.7929C109.558 82.8257 110.138 81.7426 110.525 80.582L110.757 80.6594C110.409 81.8199 109.79 82.9418 108.939 83.9476Z" fill="url(#paint77_linear_101_4949)"/>
<path d="M110.602 70.2916C109.828 69.3245 108.939 68.5121 107.894 67.8544L108.049 67.6223C109.093 68.3187 110.022 69.1311 110.795 70.0982L110.602 70.2916Z" fill="url(#paint78_linear_101_4949)"/>
<path d="M106.424 88.6673L106.308 88.3965C109.751 86.849 112.265 83.6768 113.039 79.963C113.503 77.6419 113.271 75.2821 112.343 73.1157L112.614 72.9996C113.542 75.2047 113.774 77.6419 113.31 80.0017C112.536 83.8316 109.983 87.0811 106.424 88.6673Z" fill="url(#paint79_linear_101_4949)"/>
<path d="M188.565 100.496C194.65 100.254 199.385 95.1247 199.143 89.0405C198.9 82.9562 193.771 78.2206 187.687 78.4632C181.602 78.7059 176.867 83.8348 177.109 89.9191C177.352 96.0034 182.481 100.739 188.565 100.496Z" fill="url(#paint80_linear_101_4949)"/>
<path d="M187.741 95.1277L182.673 89.9051L183.214 89.3635L187.509 93.7737L193.041 82.3228L193.737 82.6709L187.741 95.1277Z" fill="white"/>
<path d="M93.7737 71.1814C94.8569 71.723 95.5919 72.5741 96.1335 73.6573C96.6364 72.6128 97.4101 71.7617 98.4933 71.1814C97.4101 70.6398 96.6751 69.7887 96.1335 68.7055C95.5919 69.7887 94.8569 70.6398 93.7737 71.1814Z" fill="#FFE6A6"/>
<path d="M103.291 86.3461C103.909 86.6555 104.374 87.1584 104.645 87.7774C104.954 87.1584 105.38 86.6555 105.999 86.3461C105.38 86.0366 104.915 85.5337 104.645 84.9147C104.374 85.5337 103.948 85.9979 103.291 86.3461Z" fill="#FFE6A6"/>
</g>
<defs>
<linearGradient id="paint0_linear_101_4949" x1="25.6279" y1="43.0693" x2="11.7201" y2="64.7787" gradientUnits="userSpaceOnUse">
<stop stop-color="#933BCB"/>
<stop offset="1" stop-color="#A636FF"/>
</linearGradient>
<linearGradient id="paint1_linear_101_4949" x1="27.3111" y1="35.8974" x2="7.17639" y2="70.1616" gradientUnits="userSpaceOnUse">
<stop stop-color="#933BCB"/>
<stop offset="1" stop-color="#A636FF"/>
</linearGradient>
<linearGradient id="paint2_linear_101_4949" x1="216.012" y1="3.68954" x2="215.701" y2="10.4443" gradientUnits="userSpaceOnUse">
<stop stop-color="#933BCB"/>
<stop offset="1" stop-color="#A636FF"/>
</linearGradient>
<linearGradient id="paint3_linear_101_4949" x1="223.498" y1="-0.165546" x2="222.836" y2="11.9236" gradientUnits="userSpaceOnUse">
<stop stop-color="#933BCB"/>
<stop offset="1" stop-color="#A636FF"/>
</linearGradient>
<linearGradient id="paint4_linear_101_4949" x1="101.489" y1="50.2787" x2="101.169" y2="51.3278" gradientUnits="userSpaceOnUse">
<stop stop-color="#933BCB"/>
<stop offset="1" stop-color="#A636FF"/>
</linearGradient>
<linearGradient id="paint5_linear_101_4949" x1="144.202" y1="30.0048" x2="142.108" y2="52.355" gradientUnits="userSpaceOnUse">
<stop stop-color="#933BCB"/>
<stop offset="1" stop-color="#A636FF"/>
</linearGradient>
<linearGradient id="paint6_linear_101_4949" x1="143.735" y1="47.8404" x2="143.398" y2="48.9828" gradientUnits="userSpaceOnUse">
<stop stop-color="#933BCB"/>
<stop offset="1" stop-color="#A636FF"/>
</linearGradient>
<linearGradient id="paint7_linear_101_4949" x1="103.365" y1="51.3403" x2="101.743" y2="57.5572" gradientUnits="userSpaceOnUse">
<stop stop-color="#933BCB"/>
<stop offset="1" stop-color="#A636FF"/>
</linearGradient>
<linearGradient id="paint8_linear_101_4949" x1="84.8224" y1="89.5684" x2="38.3491" y2="160.215" gradientUnits="userSpaceOnUse">
<stop stop-color="#933BCB"/>
<stop offset="1" stop-color="#A636FF"/>
</linearGradient>
<linearGradient id="paint9_linear_101_4949" x1="62.0251" y1="89.6958" x2="14.8982" y2="156.765" gradientUnits="userSpaceOnUse">
<stop stop-color="#933BCB"/>
<stop offset="1" stop-color="#A636FF"/>
</linearGradient>
<linearGradient id="paint10_linear_101_4949" x1="70.796" y1="45.6217" x2="66.5278" y2="68.1004" gradientUnits="userSpaceOnUse">
<stop stop-color="#933BCB"/>
<stop offset="1" stop-color="#A636FF"/>
</linearGradient>
<linearGradient id="paint11_linear_101_4949" x1="69.2959" y1="75.7154" x2="67.3712" y2="76.2084" gradientUnits="userSpaceOnUse">
<stop stop-color="#933BCB"/>
<stop offset="1" stop-color="#A636FF"/>
</linearGradient>
<linearGradient id="paint12_linear_101_4949" x1="66.1861" y1="47.7875" x2="64.8733" y2="56.7727" gradientUnits="userSpaceOnUse">
<stop stop-color="#933BCB"/>
<stop offset="1" stop-color="#A636FF"/>
</linearGradient>
<linearGradient id="paint13_linear_101_4949" x1="61.9886" y1="59.5626" x2="61.2483" y2="64.1727" gradientUnits="userSpaceOnUse">
<stop stop-color="#933BCB"/>
<stop offset="1" stop-color="#A636FF"/>
</linearGradient>
<linearGradient id="paint14_linear_101_4949" x1="86.6876" y1="173.929" x2="85.897" y2="182.91" gradientUnits="userSpaceOnUse">
<stop stop-color="#933BCB"/>
<stop offset="1" stop-color="#A636FF"/>
</linearGradient>
<linearGradient id="paint15_linear_101_4949" x1="56.0099" y1="173.929" x2="55.2193" y2="182.91" gradientUnits="userSpaceOnUse">
<stop stop-color="#933BCB"/>
<stop offset="1" stop-color="#A636FF"/>
</linearGradient>
<linearGradient id="paint16_linear_101_4949" x1="106.027" y1="77.4741" x2="96.7263" y2="135.319" gradientUnits="userSpaceOnUse">
<stop stop-color="#933BCB"/>
<stop offset="1" stop-color="#A636FF"/>
</linearGradient>
<linearGradient id="paint17_linear_101_4949" x1="99.4113" y1="82.344" x2="97.3859" y2="83.1141" gradientUnits="userSpaceOnUse">
<stop stop-color="#933BCB"/>
<stop offset="1" stop-color="#A636FF"/>
</linearGradient>
<linearGradient id="paint18_linear_101_4949" x1="105.427" y1="97.6572" x2="100.671" y2="127.274" gradientUnits="userSpaceOnUse">
<stop stop-color="#933BCB"/>
<stop offset="1" stop-color="#A636FF"/>
</linearGradient>
<linearGradient id="paint19_linear_101_4949" x1="66.4948" y1="123.027" x2="66.566" y2="123.5" gradientUnits="userSpaceOnUse">
<stop stop-color="#933BCB"/>
<stop offset="1" stop-color="#A636FF"/>
</linearGradient>
<linearGradient id="paint20_linear_101_4949" x1="47.5393" y1="80.631" x2="44.5471" y2="84.3147" gradientUnits="userSpaceOnUse">
<stop stop-color="#933BCB"/>
<stop offset="1" stop-color="#A636FF"/>
</linearGradient>
<linearGradient id="paint21_linear_101_4949" x1="42.5995" y1="76.8495" x2="27.6275" y2="101.009" gradientUnits="userSpaceOnUse">
<stop stop-color="#933BCB"/>
<stop offset="1" stop-color="#A636FF"/>
</linearGradient>
<linearGradient id="paint22_linear_101_4949" x1="46.9995" y1="83.4608" x2="45.8291" y2="88.7927" gradientUnits="userSpaceOnUse">
<stop stop-color="#933BCB"/>
<stop offset="1" stop-color="#A636FF"/>
</linearGradient>
<linearGradient id="paint23_linear_101_4949" x1="252.653" y1="67.4803" x2="219.675" y2="143.739" gradientUnits="userSpaceOnUse">
<stop stop-color="#933BCB"/>
<stop offset="1" stop-color="#A636FF"/>
</linearGradient>
<linearGradient id="paint24_linear_101_4949" x1="271.122" y1="111.834" x2="265.312" y2="153.809" gradientUnits="userSpaceOnUse">
<stop stop-color="#933BCB"/>
<stop offset="1" stop-color="#A636FF"/>
</linearGradient>
<linearGradient id="paint25_linear_101_4949" x1="245.614" y1="115.382" x2="244.118" y2="127.279" gradientUnits="userSpaceOnUse">
<stop stop-color="#933BCB"/>
<stop offset="1" stop-color="#A636FF"/>
</linearGradient>
<linearGradient id="paint26_linear_101_4949" x1="166.171" y1="98.2408" x2="142.466" y2="173.774" gradientUnits="userSpaceOnUse">
<stop stop-color="#933BCB"/>
<stop offset="1" stop-color="#A636FF"/>
</linearGradient>
<linearGradient id="paint27_linear_101_4949" x1="168.572" y1="143.437" x2="164.938" y2="178.203" gradientUnits="userSpaceOnUse">
<stop stop-color="#933BCB"/>
<stop offset="1" stop-color="#A636FF"/>
</linearGradient>
<linearGradient id="paint28_linear_101_4949" x1="151.68" y1="144.319" x2="150.977" y2="152.812" gradientUnits="userSpaceOnUse">
<stop stop-color="#933BCB"/>
<stop offset="1" stop-color="#A636FF"/>
</linearGradient>
<linearGradient id="paint29_linear_101_4949" x1="169.903" y1="54.0736" x2="94.0197" y2="123.195" gradientUnits="userSpaceOnUse">
<stop stop-color="#933BCB"/>
<stop offset="1" stop-color="#A636FF"/>
</linearGradient>
<linearGradient id="paint30_linear_101_4949" x1="215.768" y1="63.3313" x2="215.732" y2="66.5792" gradientUnits="userSpaceOnUse">
<stop stop-color="#933BCB"/>
<stop offset="1" stop-color="#A636FF"/>
</linearGradient>
<linearGradient id="paint31_linear_101_4949" x1="179.919" y1="119.276" x2="178.528" y2="128.915" gradientUnits="userSpaceOnUse">
<stop stop-color="#933BCB"/>
<stop offset="1" stop-color="#A636FF"/>
</linearGradient>
<linearGradient id="paint32_linear_101_4949" x1="179.919" y1="132.235" x2="178.528" y2="141.875" gradientUnits="userSpaceOnUse">
<stop stop-color="#933BCB"/>
<stop offset="1" stop-color="#A636FF"/>
</linearGradient>
<linearGradient id="paint33_linear_101_4949" x1="179.919" y1="145.195" x2="178.528" y2="154.834" gradientUnits="userSpaceOnUse">
<stop stop-color="#933BCB"/>
<stop offset="1" stop-color="#A636FF"/>
</linearGradient>
<linearGradient id="paint34_linear_101_4949" x1="179.919" y1="158.155" x2="178.528" y2="167.794" gradientUnits="userSpaceOnUse">
<stop stop-color="#933BCB"/>
<stop offset="1" stop-color="#A636FF"/>
</linearGradient>
<linearGradient id="paint35_linear_101_4949" x1="195.006" y1="119.276" x2="193.615" y2="128.915" gradientUnits="userSpaceOnUse">
<stop stop-color="#933BCB"/>
<stop offset="1" stop-color="#A636FF"/>
</linearGradient>
<linearGradient id="paint36_linear_101_4949" x1="195.006" y1="132.235" x2="193.615" y2="141.875" gradientUnits="userSpaceOnUse">
<stop stop-color="#933BCB"/>
<stop offset="1" stop-color="#A636FF"/>
</linearGradient>
<linearGradient id="paint37_linear_101_4949" x1="195.006" y1="145.195" x2="193.615" y2="154.834" gradientUnits="userSpaceOnUse">
<stop stop-color="#933BCB"/>
<stop offset="1" stop-color="#A636FF"/>
</linearGradient>
<linearGradient id="paint38_linear_101_4949" x1="195.006" y1="158.155" x2="193.615" y2="167.794" gradientUnits="userSpaceOnUse">
<stop stop-color="#933BCB"/>
<stop offset="1" stop-color="#A636FF"/>
</linearGradient>
<linearGradient id="paint39_linear_101_4949" x1="210.132" y1="119.276" x2="208.741" y2="128.915" gradientUnits="userSpaceOnUse">
<stop stop-color="#933BCB"/>
<stop offset="1" stop-color="#A636FF"/>
</linearGradient>
<linearGradient id="paint40_linear_101_4949" x1="210.132" y1="132.235" x2="208.741" y2="141.875" gradientUnits="userSpaceOnUse">
<stop stop-color="#933BCB"/>
<stop offset="1" stop-color="#A636FF"/>
</linearGradient>
<linearGradient id="paint41_linear_101_4949" x1="210.132" y1="145.195" x2="208.741" y2="154.834" gradientUnits="userSpaceOnUse">
<stop stop-color="#933BCB"/>
<stop offset="1" stop-color="#A636FF"/>
</linearGradient>
<linearGradient id="paint42_linear_101_4949" x1="210.132" y1="158.155" x2="208.741" y2="167.794" gradientUnits="userSpaceOnUse">
<stop stop-color="#933BCB"/>
<stop offset="1" stop-color="#A636FF"/>
</linearGradient>
<linearGradient id="paint43_linear_101_4949" x1="182.046" y1="119.276" x2="180.655" y2="128.915" gradientUnits="userSpaceOnUse">
<stop stop-color="#933BCB"/>
<stop offset="1" stop-color="#A636FF"/>
</linearGradient>
<linearGradient id="paint44_linear_101_4949" x1="182.046" y1="132.235" x2="180.655" y2="141.875" gradientUnits="userSpaceOnUse">
<stop stop-color="#933BCB"/>
<stop offset="1" stop-color="#A636FF"/>
</linearGradient>
<linearGradient id="paint45_linear_101_4949" x1="182.046" y1="145.195" x2="180.655" y2="154.834" gradientUnits="userSpaceOnUse">
<stop stop-color="#933BCB"/>
<stop offset="1" stop-color="#A636FF"/>
</linearGradient>
<linearGradient id="paint46_linear_101_4949" x1="182.046" y1="158.155" x2="180.655" y2="167.794" gradientUnits="userSpaceOnUse">
<stop stop-color="#933BCB"/>
<stop offset="1" stop-color="#A636FF"/>
</linearGradient>
<linearGradient id="paint47_linear_101_4949" x1="197.173" y1="119.276" x2="195.782" y2="128.915" gradientUnits="userSpaceOnUse">
<stop stop-color="#933BCB"/>
<stop offset="1" stop-color="#A636FF"/>
</linearGradient>
<linearGradient id="paint48_linear_101_4949" x1="197.173" y1="132.235" x2="195.782" y2="141.875" gradientUnits="userSpaceOnUse">
<stop stop-color="#933BCB"/>
<stop offset="1" stop-color="#A636FF"/>
</linearGradient>
<linearGradient id="paint49_linear_101_4949" x1="197.173" y1="145.195" x2="195.782" y2="154.834" gradientUnits="userSpaceOnUse">
<stop stop-color="#933BCB"/>
<stop offset="1" stop-color="#A636FF"/>
</linearGradient>
<linearGradient id="paint50_linear_101_4949" x1="197.173" y1="158.155" x2="195.782" y2="167.794" gradientUnits="userSpaceOnUse">
<stop stop-color="#933BCB"/>
<stop offset="1" stop-color="#A636FF"/>
</linearGradient>
<linearGradient id="paint51_linear_101_4949" x1="212.299" y1="119.276" x2="210.907" y2="128.915" gradientUnits="userSpaceOnUse">
<stop stop-color="#933BCB"/>
<stop offset="1" stop-color="#A636FF"/>
</linearGradient>
<linearGradient id="paint52_linear_101_4949" x1="212.299" y1="132.235" x2="210.907" y2="141.875" gradientUnits="userSpaceOnUse">
<stop stop-color="#933BCB"/>
<stop offset="1" stop-color="#A636FF"/>
</linearGradient>
<linearGradient id="paint53_linear_101_4949" x1="212.299" y1="145.195" x2="210.907" y2="154.834" gradientUnits="userSpaceOnUse">
<stop stop-color="#933BCB"/>
<stop offset="1" stop-color="#A636FF"/>
</linearGradient>
<linearGradient id="paint54_linear_101_4949" x1="212.299" y1="158.155" x2="210.907" y2="167.794" gradientUnits="userSpaceOnUse">
<stop stop-color="#933BCB"/>
<stop offset="1" stop-color="#A636FF"/>
</linearGradient>
<linearGradient id="paint55_linear_101_4949" x1="226.697" y1="53.795" x2="176.445" y2="188.142" gradientUnits="userSpaceOnUse">
<stop stop-color="#933BCB"/>
<stop offset="1" stop-color="#A636FF"/>
</linearGradient>
<linearGradient id="paint56_linear_101_4949" x1="223.613" y1="83.9935" x2="224.329" y2="84.0164" gradientUnits="userSpaceOnUse">
<stop stop-color="#933BCB"/>
<stop offset="1" stop-color="#A636FF"/>
</linearGradient>
<linearGradient id="paint57_linear_101_4949" x1="167.636" y1="36.2075" x2="166.915" y2="43.3959" gradientUnits="userSpaceOnUse">
<stop stop-color="#933BCB"/>
<stop offset="1" stop-color="#A636FF"/>
</linearGradient>
<linearGradient id="paint58_linear_101_4949" x1="211.98" y1="35.686" x2="207.211" y2="72.2268" gradientUnits="userSpaceOnUse">
<stop stop-color="#933BCB"/>
<stop offset="1" stop-color="#A636FF"/>
</linearGradient>
<linearGradient id="paint59_linear_101_4949" x1="216.011" y1="63.0934" x2="215.963" y2="66.8665" gradientUnits="userSpaceOnUse">
<stop stop-color="#933BCB"/>
<stop offset="1" stop-color="#A636FF"/>
</linearGradient>
<linearGradient id="paint60_linear_101_4949" x1="250.815" y1="180.826" x2="250.749" y2="183.499" gradientUnits="userSpaceOnUse">
<stop stop-color="#933BCB"/>
<stop offset="1" stop-color="#A636FF"/>
</linearGradient>
<linearGradient id="paint61_linear_101_4949" x1="225.776" y1="182.082" x2="225.743" y2="183.037" gradientUnits="userSpaceOnUse">
<stop stop-color="#933BCB"/>
<stop offset="1" stop-color="#A636FF"/>
</linearGradient>
<linearGradient id="paint62_linear_101_4949" x1="246.247" y1="174.488" x2="246.132" y2="176.583" gradientUnits="userSpaceOnUse">
<stop stop-color="#933BCB"/>
<stop offset="1" stop-color="#A636FF"/>
</linearGradient>
<linearGradient id="paint63_linear_101_4949" x1="234.349" y1="176.128" x2="234.341" y2="176.797" gradientUnits="userSpaceOnUse">
<stop stop-color="#933BCB"/>
<stop offset="1" stop-color="#A636FF"/>
</linearGradient>
<linearGradient id="paint64_linear_101_4949" x1="219.51" y1="175.504" x2="219.467" y2="176.601" gradientUnits="userSpaceOnUse">
<stop stop-color="#933BCB"/>
<stop offset="1" stop-color="#A636FF"/>
</linearGradient>
<linearGradient id="paint65_linear_101_4949" x1="250.368" y1="162.96" x2="250.249" y2="164.959" gradientUnits="userSpaceOnUse">
<stop stop-color="#933BCB"/>
<stop offset="1" stop-color="#A636FF"/>
</linearGradient>
<linearGradient id="paint66_linear_101_4949" x1="238.744" y1="164.364" x2="238.734" y2="165.32" gradientUnits="userSpaceOnUse">
<stop stop-color="#933BCB"/>
<stop offset="1" stop-color="#A636FF"/>
</linearGradient>
<linearGradient id="paint67_linear_101_4949" x1="206.161" y1="46.7551" x2="206.123" y2="48.1871" gradientUnits="userSpaceOnUse">
<stop stop-color="#933BCB"/>
<stop offset="1" stop-color="#A636FF"/>
</linearGradient>
<linearGradient id="paint68_linear_101_4949" x1="192.668" y1="46.7552" x2="192.649" y2="48.1879" gradientUnits="userSpaceOnUse">
<stop stop-color="#933BCB"/>
<stop offset="1" stop-color="#A636FF"/>
</linearGradient>
<linearGradient id="paint69_linear_101_4949" x1="206.474" y1="51.7842" x2="206.457" y2="53.2171" gradientUnits="userSpaceOnUse">
<stop stop-color="#933BCB"/>
<stop offset="1" stop-color="#A636FF"/>
</linearGradient>
<linearGradient id="paint70_linear_101_4949" x1="181.72" y1="51.7842" x2="181.676" y2="53.2159" gradientUnits="userSpaceOnUse">
<stop stop-color="#933BCB"/>
<stop offset="1" stop-color="#A636FF"/>
</linearGradient>
<linearGradient id="paint71_linear_101_4949" x1="202.086" y1="57.2002" x2="202.046" y2="58.6321" gradientUnits="userSpaceOnUse">
<stop stop-color="#933BCB"/>
<stop offset="1" stop-color="#A636FF"/>
</linearGradient>
<linearGradient id="paint72_linear_101_4949" x1="189.614" y1="57.2002" x2="189.591" y2="58.6329" gradientUnits="userSpaceOnUse">
<stop stop-color="#933BCB"/>
<stop offset="1" stop-color="#A636FF"/>
</linearGradient>
<linearGradient id="paint73_linear_101_4949" x1="188.851" y1="106.377" x2="188.843" y2="107.094" gradientUnits="userSpaceOnUse">
<stop stop-color="#933BCB"/>
<stop offset="1" stop-color="#A636FF"/>
</linearGradient>
<linearGradient id="paint74_linear_101_4949" x1="216.165" y1="77.8721" x2="207.101" y2="110.823" gradientUnits="userSpaceOnUse">
<stop stop-color="#933BCB"/>
<stop offset="1" stop-color="#A636FF"/>
</linearGradient>
<linearGradient id="paint75_linear_101_4949" x1="111.291" y1="69.5752" x2="108.45" y2="77.4329" gradientUnits="userSpaceOnUse">
<stop stop-color="#933BCB"/>
<stop offset="1" stop-color="#A636FF"/>
</linearGradient>
<linearGradient id="paint76_linear_101_4949" x1="107.204" y1="67.909" x2="107.042" y2="70.3295" gradientUnits="userSpaceOnUse">
<stop stop-color="#933BCB"/>
<stop offset="1" stop-color="#A636FF"/>
</linearGradient>
<linearGradient id="paint77_linear_101_4949" x1="110.808" y1="80.5364" x2="109.481" y2="84.2131" gradientUnits="userSpaceOnUse">
<stop stop-color="#933BCB"/>
<stop offset="1" stop-color="#A636FF"/>
</linearGradient>
<linearGradient id="paint78_linear_101_4949" x1="110.869" y1="67.5862" x2="110.24" y2="70.7572" gradientUnits="userSpaceOnUse">
<stop stop-color="#933BCB"/>
<stop offset="1" stop-color="#A636FF"/>
</linearGradient>
<linearGradient id="paint79_linear_101_4949" x1="113.725" y1="72.7874" x2="106.305" y2="88.6661" gradientUnits="userSpaceOnUse">
<stop stop-color="#933BCB"/>
<stop offset="1" stop-color="#A636FF"/>
</linearGradient>
<linearGradient id="paint80_linear_101_4949" x1="199.25" y1="77.7032" x2="194.677" y2="103.923" gradientUnits="userSpaceOnUse">
<stop stop-color="#933BCB"/>
<stop offset="1" stop-color="#A636FF"/>
</linearGradient>
<clipPath id="clip0_101_4949">
<rect width="276.06" height="186" fill="white"/>
</clipPath>
</defs>
</svg>
