<svg width="256" height="241" viewBox="0 0 256 241" fill="none" xmlns="http://www.w3.org/2000/svg">
<g clip-path="url(#clip0_101_10529)">
<path d="M241.326 104.607C241.326 104.607 206.494 19.6479 142.815 3.21114C79.1358 -13.2256 52.4125 36.9555 42.6702 71.7884C32.9278 106.567 -3.048 152.666 0.217586 184.288C3.31989 214.385 29.6623 228.591 54.3174 234.687C85.6126 242.47 121.153 243.014 152.557 236.591C160.013 235.068 167.361 232.999 174.654 230.605C189.404 225.815 203.881 222.06 218.848 218.086C247.259 210.521 258.525 179.988 255.314 150.761C253.464 134.27 247.477 119.575 241.326 104.607Z" fill="url(#paint0_linear_101_10529)"/>
<path opacity="0.7" d="M241.326 104.607C241.326 104.607 206.494 19.6479 142.815 3.21114C79.1358 -13.2256 52.4125 36.9555 42.6702 71.7884C32.9278 106.567 -3.048 152.666 0.217586 184.288C3.31989 214.385 29.6623 228.591 54.3174 234.687C85.6126 242.47 121.153 243.014 152.557 236.591C160.013 235.068 167.361 232.999 174.654 230.605C189.404 225.815 203.881 222.06 218.848 218.086C247.259 210.521 258.525 179.988 255.314 150.761C253.464 134.27 247.477 119.575 241.326 104.607Z" fill="white"/>
<path d="M15.7834 110.322L25.8523 206.548" stroke="white" stroke-width="1.08853" stroke-miterlimit="10"/>
<path d="M24.2198 188.098L19.6479 183.308" stroke="white" stroke-width="1.08853" stroke-miterlimit="10"/>
<path d="M21.0633 184.723C21.0633 184.723 21.1722 182.6 19.2672 180.859C18.1243 179.825 11.9741 177.212 11.3754 179.389C10.7223 181.784 16.9813 186.41 21.0633 184.723Z" fill="url(#paint1_linear_101_10529)" stroke="white" stroke-width="0.544264" stroke-miterlimit="10"/>
<path d="M21.0629 184.723L15.1848 181.077" stroke="white" stroke-width="0.272132" stroke-miterlimit="10"/>
<path d="M25.3626 199.037L20.7908 194.248" stroke="white" stroke-width="1.08853" stroke-miterlimit="10"/>
<path d="M22.2059 195.663C22.2059 195.663 22.3147 193.54 20.4098 191.799C19.2669 190.764 13.1167 188.152 12.518 190.329C11.8649 192.724 18.1239 197.35 22.2059 195.663Z" fill="url(#paint2_linear_101_10529)" stroke="white" stroke-width="0.544264" stroke-miterlimit="10"/>
<path d="M22.2059 195.663L16.3279 192.016" stroke="white" stroke-width="0.272132" stroke-miterlimit="10"/>
<path d="M21.4444 161.429L16.8726 156.639" stroke="white" stroke-width="1.08853" stroke-miterlimit="10"/>
<path d="M18.2872 158.054C18.2872 158.054 18.396 155.932 16.4911 154.19C15.3482 153.156 9.19798 150.543 8.59929 152.72C7.94618 155.061 14.2052 159.687 18.2872 158.054Z" fill="url(#paint3_linear_101_10529)" stroke="white" stroke-width="0.544264" stroke-miterlimit="10"/>
<path d="M18.2875 158.054L12.4094 154.408" stroke="white" stroke-width="0.272132" stroke-miterlimit="10"/>
<path d="M22.587 172.368L18.0151 167.579" stroke="white" stroke-width="1.08853" stroke-miterlimit="10"/>
<path d="M19.43 168.994C19.43 168.994 19.5389 166.871 17.6339 165.13C16.491 164.096 10.3408 161.483 9.74211 163.66C9.089 166 15.348 170.627 19.43 168.994Z" fill="url(#paint4_linear_101_10529)" stroke="white" stroke-width="0.544264" stroke-miterlimit="10"/>
<path d="M19.4303 168.994L13.5522 165.347" stroke="white" stroke-width="0.272132" stroke-miterlimit="10"/>
<path d="M19.5938 143.631L15.022 138.842" stroke="white" stroke-width="1.08853" stroke-miterlimit="10"/>
<path d="M16.4368 140.311C16.4368 140.311 16.5457 138.189 14.6408 136.447C13.4978 135.413 7.34764 132.8 6.74895 134.977C6.09583 137.318 12.3549 141.944 16.4368 140.311Z" fill="url(#paint5_linear_101_10529)" stroke="white" stroke-width="0.544264" stroke-miterlimit="10"/>
<path d="M16.4371 140.311L10.5591 136.665" stroke="white" stroke-width="0.272132" stroke-miterlimit="10"/>
<path d="M17.743 125.779L13.1711 120.99" stroke="white" stroke-width="1.08853" stroke-miterlimit="10"/>
<path d="M14.5317 122.459C14.5317 122.459 14.6405 120.337 12.7356 118.595C11.5927 117.561 5.44249 114.948 4.8438 117.126C4.19068 119.466 10.5041 124.092 14.5317 122.459Z" fill="url(#paint6_linear_101_10529)" stroke="white" stroke-width="0.544264" stroke-miterlimit="10"/>
<path d="M14.5319 122.459L8.70825 118.813" stroke="white" stroke-width="0.272132" stroke-miterlimit="10"/>
<path d="M23.458 181.621L26.9413 176.015" stroke="white" stroke-width="1.08853" stroke-miterlimit="10"/>
<path d="M25.8525 177.702C25.8525 177.702 25.3083 175.634 26.8322 173.566C27.7575 172.314 33.2545 168.504 34.2342 170.518C35.3772 172.64 30.1522 178.464 25.8525 177.702Z" fill="url(#paint7_linear_101_10529)" stroke="white" stroke-width="0.544264" stroke-miterlimit="10"/>
<path d="M25.8525 177.702L31.1319 172.641" stroke="white" stroke-width="0.272132" stroke-miterlimit="10"/>
<path d="M20.4644 152.829L23.8932 147.223" stroke="white" stroke-width="1.08853" stroke-miterlimit="10"/>
<path d="M22.8594 148.911C22.8594 148.911 22.3151 146.842 23.8391 144.774C24.7643 143.522 30.2614 139.712 31.241 141.726C32.384 143.849 27.1591 149.673 22.8594 148.911Z" fill="url(#paint8_linear_101_10529)" stroke="white" stroke-width="0.544264" stroke-miterlimit="10"/>
<path d="M22.8594 148.911L28.1387 143.849" stroke="white" stroke-width="0.272132" stroke-miterlimit="10"/>
<path d="M19.1582 140.202L22.5871 134.542" stroke="white" stroke-width="1.08853" stroke-miterlimit="10"/>
<path d="M21.5527 136.284C21.5527 136.284 21.0085 134.215 22.5324 132.147C23.4577 130.895 28.9547 127.086 29.9344 129.099C31.0229 131.222 25.8524 137.046 21.5527 136.284Z" fill="url(#paint9_linear_101_10529)" stroke="white" stroke-width="0.544264" stroke-miterlimit="10"/>
<path d="M21.5527 136.284L26.8321 131.222" stroke="white" stroke-width="0.272132" stroke-miterlimit="10"/>
<path d="M17.1987 121.643L20.682 116.037" stroke="white" stroke-width="1.08853" stroke-miterlimit="10"/>
<path d="M19.593 117.724C19.593 117.724 19.0488 115.656 20.5727 113.588C21.4979 112.336 26.995 108.526 27.9747 110.54C29.1176 112.663 23.8927 118.486 19.593 117.724Z" fill="url(#paint10_linear_101_10529)" stroke="white" stroke-width="0.544264" stroke-miterlimit="10"/>
<path d="M19.5935 117.724L24.8729 112.663" stroke="white" stroke-width="0.272132" stroke-miterlimit="10"/>
<path d="M15.729 109.778C15.729 109.778 15.1847 107.71 16.7087 105.642C17.6339 104.39 23.131 100.58 24.1107 102.594C25.2536 104.771 20.0287 110.594 15.729 109.778Z" fill="url(#paint11_linear_101_10529)" stroke="white" stroke-width="0.544264" stroke-miterlimit="10"/>
<path d="M15.729 109.778L21.0084 104.771" stroke="white" stroke-width="0.272132" stroke-miterlimit="10"/>
<path d="M16.0013 109.996C16.0013 109.996 13.8787 110.322 11.9737 108.581C10.8308 107.547 7.61962 101.668 9.68783 100.852C12.0282 100.036 17.2531 105.805 16.0013 109.996Z" fill="url(#paint12_linear_101_10529)" stroke="white" stroke-width="0.544264" stroke-miterlimit="10"/>
<path d="M16.0011 109.996L11.5925 104.227" stroke="white" stroke-width="0.272132" stroke-miterlimit="10"/>
<path d="M42.2896 123.602L32.2751 219.774" stroke="white" stroke-width="1.08853" stroke-miterlimit="10"/>
<path d="M34.507 201.432L31.0237 195.772" stroke="white" stroke-width="1.08853" stroke-miterlimit="10"/>
<path d="M32.112 197.459C32.112 197.459 32.6563 195.391 31.1324 193.322C30.2071 192.071 24.7101 188.261 23.7304 190.275C22.5874 192.452 27.8124 198.275 32.112 197.459Z" fill="url(#paint13_linear_101_10529)" stroke="white" stroke-width="0.544264" stroke-miterlimit="10"/>
<path d="M32.1122 197.459L27.105 192.724" stroke="white" stroke-width="0.272132" stroke-miterlimit="10"/>
<path d="M37.2824 174.709L33.7991 169.103" stroke="white" stroke-width="1.08853" stroke-miterlimit="10"/>
<path d="M34.8877 170.79C34.8877 170.79 35.4319 168.722 33.908 166.654C32.9828 165.402 27.4857 161.592 26.506 163.606C25.3631 165.728 30.588 171.552 34.8877 170.79Z" fill="url(#paint14_linear_101_10529)" stroke="white" stroke-width="0.544264" stroke-miterlimit="10"/>
<path d="M34.8876 170.79L29.8804 166" stroke="white" stroke-width="0.272132" stroke-miterlimit="10"/>
<path d="M36.1393 185.648L32.656 180.042" stroke="white" stroke-width="1.08853" stroke-miterlimit="10"/>
<path d="M33.7446 181.73C33.7446 181.73 34.2889 179.661 32.7649 177.593C31.8397 176.341 26.3426 172.532 25.363 174.545C24.22 176.668 29.4449 182.492 33.7446 181.73Z" fill="url(#paint15_linear_101_10529)" stroke="white" stroke-width="0.544264" stroke-miterlimit="10"/>
<path d="M33.7448 181.73L28.7375 176.94" stroke="white" stroke-width="0.272132" stroke-miterlimit="10"/>
<path d="M39.1327 156.966L35.6494 151.305" stroke="white" stroke-width="1.08853" stroke-miterlimit="10"/>
<path d="M36.7379 152.993C36.7379 152.993 37.2822 150.924 35.7582 148.856C34.833 147.604 29.3359 143.794 28.3562 145.808C27.2133 147.985 32.3838 153.809 36.7379 152.993Z" fill="url(#paint16_linear_101_10529)" stroke="white" stroke-width="0.544264" stroke-miterlimit="10"/>
<path d="M36.7377 152.993L31.7305 148.257" stroke="white" stroke-width="0.272132" stroke-miterlimit="10"/>
<path d="M40.9833 139.114L37.5 133.453" stroke="white" stroke-width="1.08853" stroke-miterlimit="10"/>
<path d="M38.5887 135.141C38.5887 135.141 39.133 133.072 37.6091 131.004C36.6838 129.752 31.1867 125.943 30.2071 127.956C29.0641 130.133 34.2346 135.957 38.5887 135.141Z" fill="url(#paint17_linear_101_10529)" stroke="white" stroke-width="0.544264" stroke-miterlimit="10"/>
<path d="M38.5888 135.141L33.5815 130.406" stroke="white" stroke-width="0.272132" stroke-miterlimit="10"/>
<path d="M35.1057 194.955L39.6231 190.111" stroke="white" stroke-width="1.08853" stroke-miterlimit="10"/>
<path d="M38.2626 191.581C38.2626 191.581 38.1538 189.458 40.0587 187.717C41.2016 186.682 47.3518 184.07 47.9505 186.247C48.6036 188.587 42.2902 193.214 38.2626 191.581Z" fill="url(#paint18_linear_101_10529)" stroke="white" stroke-width="0.544264" stroke-miterlimit="10"/>
<path d="M38.2622 191.581L44.4668 187.717" stroke="white" stroke-width="0.272132" stroke-miterlimit="10"/>
<path d="M38.0994 166.164L42.6168 161.32" stroke="white" stroke-width="1.08853" stroke-miterlimit="10"/>
<path d="M41.2558 162.789C41.2558 162.789 41.1469 160.667 43.0519 158.925C44.1948 157.891 50.345 155.278 50.9437 157.455C51.5968 159.796 45.2833 164.422 41.2558 162.789Z" fill="url(#paint19_linear_101_10529)" stroke="white" stroke-width="0.544264" stroke-miterlimit="10"/>
<path d="M41.2559 162.789L47.4605 158.925" stroke="white" stroke-width="0.272132" stroke-miterlimit="10"/>
<path d="M39.405 153.482L43.9224 148.693" stroke="white" stroke-width="1.08853" stroke-miterlimit="10"/>
<path d="M42.5619 150.108C42.5619 150.108 42.4531 147.985 44.358 146.244C45.501 145.21 51.6511 142.597 52.2498 144.774C52.903 147.169 46.5895 151.795 42.5619 150.108Z" fill="url(#paint20_linear_101_10529)" stroke="white" stroke-width="0.544264" stroke-miterlimit="10"/>
<path d="M42.5615 150.108L48.7661 146.298" stroke="white" stroke-width="0.272132" stroke-miterlimit="10"/>
<path d="M41.3096 134.923L45.8814 130.133" stroke="white" stroke-width="1.08853" stroke-miterlimit="10"/>
<path d="M44.4665 131.603C44.4665 131.603 44.3576 129.48 46.2625 127.739C47.4055 126.705 53.5557 124.092 54.1544 126.269C54.8075 128.609 48.5485 133.236 44.4665 131.603Z" fill="url(#paint21_linear_101_10529)" stroke="white" stroke-width="0.544264" stroke-miterlimit="10"/>
<path d="M44.4663 131.603L50.6709 127.739" stroke="white" stroke-width="0.272132" stroke-miterlimit="10"/>
<path d="M42.2895 123.058C42.2895 123.058 42.1806 120.935 44.0855 119.194C45.2285 118.16 51.3787 115.547 51.9774 117.724C52.6305 120.065 46.3715 124.691 42.2895 123.058Z" fill="url(#paint22_linear_101_10529)" stroke="white" stroke-width="0.544264" stroke-miterlimit="10"/>
<path d="M42.2891 123.058L48.4937 119.194" stroke="white" stroke-width="0.272132" stroke-miterlimit="10"/>
<path d="M42.5615 123.33C42.5615 123.33 40.4388 123.221 38.9149 121.153C37.9896 119.901 36.0847 113.479 38.2618 113.152C40.711 112.717 44.6297 119.466 42.5615 123.33Z" fill="url(#paint23_linear_101_10529)" stroke="white" stroke-width="0.544264" stroke-miterlimit="10"/>
<path d="M42.5615 123.33L39.4048 116.745" stroke="white" stroke-width="0.272132" stroke-miterlimit="10"/>
<path d="M30.8596 84.4153V206.058" stroke="white" stroke-width="1.08853" stroke-miterlimit="10"/>
<path d="M30.9135 187.771L26.886 182.492" stroke="white" stroke-width="1.08853" stroke-miterlimit="10"/>
<path d="M28.1381 184.07C28.1381 184.07 28.4647 181.947 26.723 180.042C25.6889 178.899 19.8109 175.688 18.9945 177.757C18.1781 180.042 23.9473 185.322 28.1381 184.07Z" fill="url(#paint24_linear_101_10529)" stroke="white" stroke-width="0.544264" stroke-miterlimit="10"/>
<path d="M28.138 184.07L22.6953 179.879" stroke="white" stroke-width="0.272132" stroke-miterlimit="10"/>
<path d="M30.9135 164.912L26.886 159.633" stroke="white" stroke-width="1.08853" stroke-miterlimit="10"/>
<path d="M28.1381 161.211C28.1381 161.211 28.4647 159.088 26.723 157.183C25.6889 156.04 19.8109 152.829 18.9945 154.897C18.1781 157.183 23.9473 162.463 28.1381 161.211Z" fill="url(#paint25_linear_101_10529)" stroke="white" stroke-width="0.544264" stroke-miterlimit="10"/>
<path d="M28.138 161.211L22.6953 157.02" stroke="white" stroke-width="0.272132" stroke-miterlimit="10"/>
<path d="M30.9135 138.08L26.886 132.8" stroke="white" stroke-width="1.08853" stroke-miterlimit="10"/>
<path d="M28.1381 134.379C28.1381 134.379 28.4647 132.256 26.723 130.351C25.6889 129.208 19.8109 125.997 18.9945 128.065C18.1781 130.351 23.9473 135.631 28.1381 134.379Z" fill="url(#paint26_linear_101_10529)" stroke="white" stroke-width="0.544264" stroke-miterlimit="10"/>
<path d="M28.138 134.379L22.6953 130.133" stroke="white" stroke-width="0.272132" stroke-miterlimit="10"/>
<path d="M30.9135 120.173L26.886 114.948" stroke="white" stroke-width="1.08853" stroke-miterlimit="10"/>
<path d="M28.1381 116.527C28.1381 116.527 28.4647 114.404 26.723 112.499C25.6889 111.356 19.8109 108.145 18.9945 110.213C18.1781 112.499 23.9473 117.724 28.1381 116.527Z" fill="url(#paint27_linear_101_10529)" stroke="white" stroke-width="0.544264" stroke-miterlimit="10"/>
<path d="M28.138 116.527L22.6953 112.282" stroke="white" stroke-width="0.272132" stroke-miterlimit="10"/>
<path d="M30.9135 102.267L26.886 96.9878" stroke="white" stroke-width="1.08853" stroke-miterlimit="10"/>
<path d="M28.1381 98.5662C28.1381 98.5662 28.4647 96.4435 26.723 94.5386C25.6889 93.3957 19.8109 90.1845 18.9945 92.2527C18.1781 94.5386 23.9473 99.818 28.1381 98.5662Z" fill="url(#paint28_linear_101_10529)" stroke="white" stroke-width="0.544264" stroke-miterlimit="10"/>
<path d="M28.138 98.5662L22.6953 94.3209" stroke="white" stroke-width="0.272132" stroke-miterlimit="10"/>
<path d="M30.8591 194.738L34.8867 189.513" stroke="white" stroke-width="1.08853" stroke-miterlimit="10"/>
<path d="M33.6349 191.091C33.6349 191.091 33.3083 188.968 35.05 187.063C36.0841 185.921 41.9621 182.709 42.7785 184.778C43.6493 187.063 37.8257 192.288 33.6349 191.091Z" fill="url(#paint29_linear_101_10529)" stroke="white" stroke-width="0.544264" stroke-miterlimit="10"/>
<path d="M33.635 191.091L39.4042 186.628" stroke="white" stroke-width="0.272132" stroke-miterlimit="10"/>
<path d="M30.8591 158.381L34.8867 153.156" stroke="white" stroke-width="1.08853" stroke-miterlimit="10"/>
<path d="M33.6349 154.734C33.6349 154.734 33.3083 152.612 35.05 150.707C36.0841 149.564 41.9621 146.353 42.7785 148.421C43.6493 150.707 37.8257 155.932 33.6349 154.734Z" fill="url(#paint30_linear_101_10529)" stroke="white" stroke-width="0.544264" stroke-miterlimit="10"/>
<path d="M33.635 154.734L39.4042 150.271" stroke="white" stroke-width="0.272132" stroke-miterlimit="10"/>
<path d="M30.8591 140.42L34.8867 135.195" stroke="white" stroke-width="1.08853" stroke-miterlimit="10"/>
<path d="M33.6349 136.774C33.6349 136.774 33.3083 134.651 35.05 132.746C36.0841 131.603 41.9621 128.392 42.7785 130.46C43.6493 132.746 37.8257 137.971 33.6349 136.774Z" fill="url(#paint31_linear_101_10529)" stroke="white" stroke-width="0.544264" stroke-miterlimit="10"/>
<path d="M33.635 136.774L39.4042 132.311" stroke="white" stroke-width="0.272132" stroke-miterlimit="10"/>
<path d="M30.8591 116.745L34.8867 111.465" stroke="white" stroke-width="1.08853" stroke-miterlimit="10"/>
<path d="M33.6349 113.044C33.6349 113.044 33.3083 110.921 35.05 109.016C36.0841 107.873 41.9621 104.662 42.7785 106.73C43.6493 109.016 37.8257 114.295 33.6349 113.044Z" fill="url(#paint32_linear_101_10529)" stroke="white" stroke-width="0.544264" stroke-miterlimit="10"/>
<path d="M33.635 113.044L39.4042 108.581" stroke="white" stroke-width="0.272132" stroke-miterlimit="10"/>
<path d="M30.8596 98.0764L34.8872 92.797" stroke="white" stroke-width="1.08853" stroke-miterlimit="10"/>
<path d="M33.6354 94.3753C33.6354 94.3753 33.3088 92.2527 35.0505 90.3478C36.0846 89.2048 41.9626 85.9936 42.779 88.0618C43.6498 90.3478 37.8262 95.6271 33.6354 94.3753Z" fill="url(#paint33_linear_101_10529)" stroke="white" stroke-width="0.544264" stroke-miterlimit="10"/>
<path d="M33.6355 94.3753L39.4047 89.9124" stroke="white" stroke-width="0.272132" stroke-miterlimit="10"/>
<path d="M30.5878 86.1025C30.5878 86.1025 30.2612 83.9799 32.0029 82.075C33.037 80.932 38.915 77.7209 39.7314 79.7891C40.6022 82.1294 34.833 87.3543 30.5878 86.1025Z" fill="url(#paint34_linear_101_10529)" stroke="white" stroke-width="0.544264" stroke-miterlimit="10"/>
<path d="M30.5876 86.1025L36.3568 81.694" stroke="white" stroke-width="0.272132" stroke-miterlimit="10"/>
<path d="M30.9141 86.3747C30.9141 86.3747 28.7915 86.4835 27.0498 84.5786C26.0157 83.4356 23.4033 77.2854 25.5803 76.6868C27.9206 76.0336 32.5469 82.3471 30.9141 86.3747Z" fill="url(#paint35_linear_101_10529)" stroke="white" stroke-width="0.544264" stroke-miterlimit="10"/>
<path d="M30.9141 86.3746L27.0498 80.17" stroke="white" stroke-width="0.272132" stroke-miterlimit="10"/>
<path d="M35.8671 237.626H22.968L21.3352 205.079H37.4454L35.8671 237.626Z" fill="white" stroke="white" stroke-width="0.544264" stroke-miterlimit="10"/>
<path d="M195.771 161.864C195.771 161.864 195.826 160.068 196.588 158.871C197.35 157.619 200.071 156.748 201.541 157.347C202.956 157.945 203.663 158.381 203.663 158.381C203.663 158.381 201.541 158.979 199.636 160.286C197.676 161.592 195.771 161.864 195.771 161.864Z" fill="url(#paint36_linear_101_10529)"/>
<path d="M192.887 162.789C192.887 162.789 194.52 161.211 194.792 159.034C195.064 156.857 192.724 159.959 192.724 159.959C192.724 159.959 191.581 155.551 190.873 158C190.22 160.449 192.887 162.789 192.887 162.789Z" fill="url(#paint37_linear_101_10529)"/>
<path d="M189.785 162.082C189.785 162.082 190.22 160.014 189.458 158.598C188.696 157.183 186.737 157.292 184.723 157.891C182.764 158.49 182.111 158.49 182.111 158.49C182.111 158.49 184.451 160.068 186.411 160.884C188.37 161.755 189.785 162.082 189.785 162.082Z" fill="url(#paint38_linear_101_10529)"/>
<path d="M192.887 169.484C192.996 169.484 193.05 169.429 193.05 169.32V159.524C193.05 159.415 192.996 159.36 192.887 159.36C192.778 159.36 192.724 159.415 192.724 159.524V169.32C192.724 169.375 192.778 169.484 192.887 169.484Z" fill="white"/>
<path d="M192.071 169.484C192.18 169.484 192.234 169.375 192.234 169.266C192.18 168.994 191.363 163.225 188.587 160.014C188.533 159.959 188.424 159.959 188.315 160.014C188.261 160.068 188.261 160.177 188.315 160.286C191.037 163.442 191.907 169.32 191.907 169.375C191.907 169.375 191.962 169.484 192.071 169.484Z" fill="white"/>
<path d="M193.703 169.32C193.812 169.32 193.867 169.266 193.867 169.157C193.867 169.103 193.867 163.551 197.132 160.884C197.187 160.83 197.241 160.721 197.187 160.612C197.132 160.558 197.023 160.503 196.914 160.558C193.486 163.334 193.486 168.885 193.486 169.103C193.54 169.266 193.594 169.32 193.703 169.32Z" fill="white"/>
<path d="M190.982 169.266C191.145 169.212 191.2 169.157 191.145 169.048C191.145 168.994 190.655 167.198 189.567 165.728C189.512 165.674 189.404 165.619 189.295 165.674C189.24 165.728 189.186 165.837 189.24 165.946C190.329 167.415 190.764 169.157 190.764 169.157C190.819 169.212 190.873 169.266 190.982 169.266Z" fill="white"/>
<path d="M189.894 166.545C189.894 166.545 189.948 164.64 189.132 164.368C188.315 164.095 187.553 164.803 186.955 165.184C186.356 165.619 185.648 166 185.648 167.252C185.648 168.504 186.138 170.736 186.138 170.736C186.138 170.736 186.846 168.613 187.989 167.633C189.132 166.654 189.894 166.545 189.894 166.545Z" fill="url(#paint39_linear_101_10529)"/>
<path d="M194.955 169.32C195.01 169.32 195.118 169.266 195.118 169.212C195.118 169.212 195.663 167.524 196.915 166.545C196.969 166.49 197.023 166.381 196.969 166.273C196.915 166.218 196.806 166.164 196.697 166.218C195.391 167.252 194.792 168.994 194.792 169.048C194.737 169.212 194.792 169.266 194.955 169.32C194.901 169.32 194.901 169.32 194.955 169.32Z" fill="white"/>
<path d="M195.772 167.143C195.772 167.143 195.5 165.892 196.207 165.021C196.915 164.15 198.547 164.313 199.364 165.293C200.18 166.273 201.323 169.103 201.323 169.103C201.323 169.103 199.69 167.796 197.785 167.796C195.826 167.851 195.772 167.143 195.772 167.143Z" fill="url(#paint40_linear_101_10529)"/>
<path d="M190.329 179.825H195.772L198.548 170.79H187.608L190.329 179.825Z" fill="white" stroke="white" stroke-width="0.544264" stroke-miterlimit="10" stroke-linecap="round" stroke-linejoin="round"/>
<path d="M187.572 170.8H198.566V169.276H187.572V170.8Z" fill="white" stroke="white" stroke-width="0.544264" stroke-miterlimit="10" stroke-linecap="round" stroke-linejoin="round"/>
<g opacity="0.2">
<path d="M197.35 142.325C196.969 142.216 196.86 141.944 196.969 141.617L197.024 141.563C197.132 141.236 197.405 141.128 197.731 141.236C198.058 141.345 198.602 141.617 198.983 141.89C198.874 141.454 198.765 140.801 198.765 140.42C198.765 140.093 198.983 139.821 199.31 139.821H199.364C199.691 139.821 199.908 140.039 199.908 140.42C199.908 140.801 199.799 141.4 199.691 141.89C200.126 141.617 200.616 141.345 200.942 141.236C201.269 141.128 201.541 141.236 201.65 141.563V141.617C201.759 141.944 201.65 142.216 201.269 142.325C200.942 142.434 200.344 142.543 199.854 142.543C200.235 142.815 200.67 143.25 200.888 143.522C201.106 143.794 201.051 144.121 200.779 144.284L200.725 144.339C200.452 144.556 200.18 144.502 199.963 144.175C199.745 143.903 199.527 143.413 199.31 142.869C199.092 143.359 198.874 143.849 198.656 144.175C198.439 144.448 198.167 144.556 197.894 144.339L197.84 144.284C197.568 144.067 197.568 143.794 197.731 143.522C197.949 143.25 198.384 142.815 198.765 142.543C198.33 142.488 197.731 142.434 197.35 142.325Z" fill="white"/>
<path d="M202.901 142.325C202.52 142.216 202.412 141.944 202.52 141.617L202.575 141.563C202.684 141.236 202.956 141.128 203.282 141.236C203.609 141.345 204.153 141.617 204.534 141.89C204.425 141.454 204.317 140.801 204.317 140.42C204.317 140.093 204.534 139.821 204.861 139.821H204.915C205.242 139.821 205.459 140.039 205.459 140.42C205.459 140.801 205.351 141.4 205.242 141.89C205.677 141.617 206.167 141.345 206.494 141.236C206.82 141.128 207.092 141.236 207.201 141.563V141.617C207.31 141.944 207.201 142.216 206.82 142.325C206.494 142.434 205.895 142.543 205.405 142.543C205.786 142.815 206.221 143.25 206.439 143.522C206.657 143.794 206.602 144.121 206.33 144.284L206.276 144.339C206.004 144.556 205.732 144.502 205.514 144.175C205.296 143.903 205.079 143.413 204.861 142.869C204.643 143.359 204.425 143.849 204.208 144.175C203.99 144.448 203.718 144.556 203.446 144.339L203.391 144.284C203.119 144.067 203.119 143.794 203.282 143.522C203.5 143.25 203.936 142.815 204.317 142.543C203.827 142.488 203.228 142.434 202.901 142.325Z" fill="white"/>
<path d="M208.399 142.325C208.018 142.216 207.909 141.944 208.018 141.617L208.072 141.563C208.181 141.236 208.453 141.128 208.78 141.236C209.106 141.345 209.65 141.617 210.031 141.89C209.922 141.454 209.814 140.801 209.814 140.42C209.814 140.093 210.031 139.821 210.358 139.821H210.412C210.739 139.821 210.957 140.039 210.957 140.42C210.957 140.801 210.848 141.4 210.739 141.89C211.174 141.617 211.664 141.345 211.991 141.236C212.317 141.128 212.589 141.236 212.698 141.563V141.617C212.807 141.944 212.698 142.216 212.317 142.325C211.991 142.434 211.392 142.543 210.902 142.543C211.283 142.815 211.719 143.25 211.936 143.522C212.154 143.794 212.1 144.121 211.827 144.284L211.773 144.339C211.501 144.556 211.229 144.502 211.011 144.175C210.793 143.903 210.576 143.413 210.358 142.869C210.14 143.359 209.922 143.849 209.705 144.175C209.487 144.448 209.215 144.556 208.943 144.339L208.888 144.284C208.616 144.067 208.616 143.794 208.78 143.522C208.997 143.25 209.433 142.815 209.814 142.543C209.324 142.488 208.78 142.434 208.399 142.325Z" fill="white"/>
<path d="M213.95 142.325C213.569 142.216 213.46 141.944 213.569 141.617L213.623 141.563C213.732 141.236 214.004 141.128 214.331 141.236C214.657 141.345 215.202 141.617 215.583 141.89C215.474 141.454 215.365 140.801 215.365 140.42C215.365 140.093 215.583 139.821 215.909 139.821H215.964C216.29 139.821 216.508 140.039 216.508 140.42C216.508 140.801 216.399 141.4 216.29 141.89C216.726 141.617 217.215 141.345 217.542 141.236C217.869 141.128 218.141 141.236 218.249 141.563V141.617C218.358 141.944 218.249 142.216 217.868 142.325C217.542 142.434 216.943 142.543 216.453 142.543C216.834 142.815 217.27 143.25 217.488 143.522C217.705 143.794 217.651 144.121 217.379 144.284L217.324 144.339C217.052 144.556 216.78 144.502 216.562 144.175C216.345 143.903 216.127 143.413 215.909 142.869C215.691 143.359 215.474 143.849 215.256 144.175C215.038 144.448 214.766 144.556 214.494 144.339L214.44 144.284C214.168 144.067 214.168 143.794 214.331 143.522C214.548 143.25 214.984 142.815 215.365 142.543C214.875 142.488 214.276 142.434 213.95 142.325Z" fill="white"/>
<path d="M219.447 142.325C219.066 142.216 218.957 141.944 219.066 141.617L219.121 141.563C219.229 141.236 219.502 141.128 219.828 141.236C220.155 141.345 220.699 141.617 221.08 141.89C220.971 141.454 220.862 140.801 220.862 140.42C220.862 140.093 221.08 139.821 221.406 139.821H221.461C221.787 139.821 222.005 140.039 222.005 140.42C222.005 140.801 221.896 141.4 221.787 141.89C222.223 141.617 222.713 141.345 223.039 141.236C223.366 141.128 223.638 141.236 223.747 141.563V141.617C223.856 141.944 223.747 142.216 223.366 142.325C223.039 142.434 222.441 142.543 221.951 142.543C222.332 142.815 222.767 143.25 222.985 143.522C223.203 143.794 223.148 144.121 222.876 144.284L222.822 144.339C222.549 144.556 222.277 144.502 222.06 144.175C221.842 143.903 221.624 143.413 221.406 142.869C221.189 143.359 220.971 143.849 220.753 144.175C220.536 144.448 220.264 144.556 219.991 144.339L219.937 144.284C219.665 144.067 219.665 143.794 219.828 143.522C220.046 143.25 220.481 142.815 220.862 142.543C220.372 142.488 219.774 142.434 219.447 142.325Z" fill="white"/>
<path d="M224.944 142.325C224.563 142.216 224.454 141.944 224.563 141.617L224.618 141.563C224.726 141.236 224.999 141.128 225.325 141.236C225.652 141.345 226.196 141.617 226.577 141.89C226.468 141.454 226.359 140.801 226.359 140.42C226.359 140.093 226.577 139.821 226.904 139.821H226.958C227.285 139.821 227.502 140.039 227.502 140.42C227.502 140.801 227.393 141.4 227.285 141.89C227.72 141.617 228.21 141.345 228.536 141.236C228.863 141.128 229.135 141.236 229.244 141.563V141.617C229.353 141.944 229.244 142.216 228.863 142.325C228.536 142.434 227.938 142.543 227.448 142.543C227.829 142.815 228.264 143.25 228.482 143.522C228.7 143.794 228.645 144.121 228.373 144.284L228.319 144.339C228.046 144.556 227.774 144.502 227.557 144.175C227.339 143.903 227.121 143.413 226.904 142.869C226.686 143.359 226.468 143.849 226.25 144.175C226.033 144.448 225.761 144.556 225.488 144.339L225.434 144.284C225.162 144.067 225.162 143.794 225.325 143.522C225.543 143.25 225.978 142.815 226.359 142.543C225.924 142.488 225.325 142.434 224.944 142.325Z" fill="white"/>
<path d="M230.495 142.325C230.114 142.216 230.006 141.944 230.114 141.617L230.169 141.563C230.278 141.236 230.55 141.128 230.876 141.236C231.203 141.345 231.747 141.617 232.128 141.89C232.019 141.454 231.911 140.801 231.911 140.42C231.911 140.093 232.128 139.821 232.455 139.821H232.509C232.836 139.821 233.054 140.039 233.054 140.42C233.054 140.801 232.945 141.4 232.836 141.89C233.271 141.617 233.761 141.345 234.088 141.236C234.414 141.128 234.686 141.236 234.795 141.563V141.617C234.904 141.944 234.795 142.216 234.414 142.325C234.088 142.434 233.489 142.543 232.999 142.543C233.38 142.815 233.815 143.25 234.033 143.522C234.251 143.794 234.196 144.121 233.924 144.284L233.87 144.339C233.598 144.556 233.326 144.502 233.108 144.175C232.89 143.903 232.673 143.413 232.455 142.869C232.237 143.359 232.019 143.849 231.802 144.175C231.584 144.448 231.312 144.556 231.04 144.339L230.985 144.284C230.713 144.067 230.713 143.794 230.876 143.522C231.094 143.25 231.53 142.815 231.911 142.543C231.421 142.488 230.822 142.434 230.495 142.325Z" fill="white"/>
<path d="M235.993 142.325C235.612 142.216 235.503 141.944 235.612 141.617L235.666 141.563C235.775 141.236 236.047 141.128 236.374 141.236C236.7 141.345 237.244 141.617 237.625 141.89C237.516 141.454 237.408 140.801 237.408 140.42C237.408 140.093 237.625 139.821 237.952 139.821H238.006C238.333 139.821 238.551 140.039 238.551 140.42C238.551 140.801 238.442 141.4 238.333 141.89C238.768 141.617 239.258 141.345 239.585 141.236C239.911 141.128 240.183 141.236 240.292 141.563V141.617C240.401 141.944 240.292 142.216 239.911 142.325C239.585 142.434 238.986 142.543 238.496 142.543C238.877 142.815 239.313 143.25 239.53 143.522C239.748 143.794 239.694 144.121 239.421 144.284L239.367 144.339C239.095 144.556 238.823 144.502 238.605 144.175C238.387 143.903 238.17 143.413 237.952 142.869C237.734 143.359 237.516 143.849 237.299 144.175C237.081 144.448 236.809 144.556 236.537 144.339L236.482 144.284C236.21 144.067 236.21 143.794 236.374 143.522C236.591 143.25 237.027 142.815 237.408 142.543C236.918 142.488 236.374 142.434 235.993 142.325Z" fill="white"/>
</g>
<g opacity="0.2">
<path d="M88.8241 20.1378C88.4431 20.0289 88.3342 19.7568 88.4431 19.4302L88.4975 19.3758C88.6064 19.0492 88.8785 18.9404 89.205 19.0492C89.5316 19.1581 90.0759 19.4302 90.4569 19.7024C90.348 19.2669 90.2392 18.6138 90.2392 18.2328C90.2392 17.9063 90.4569 17.6342 90.7834 17.6342H90.8378C91.1644 17.6342 91.3821 17.8519 91.3821 18.2328C91.3821 18.6138 91.2733 19.2125 91.1644 19.7024C91.5998 19.4302 92.0897 19.1581 92.4162 19.0492C92.7428 18.9404 93.0149 19.0492 93.1238 19.3758V19.4302C93.2326 19.7568 93.1237 20.0289 92.7428 20.1378C92.4162 20.2466 91.8175 20.3555 91.3277 20.3555C91.7087 20.6276 92.1441 21.063 92.3618 21.3351C92.5795 21.6073 92.5251 21.9338 92.2529 22.0971L92.1985 22.1515C91.9264 22.3693 91.6542 22.3148 91.4365 21.9883C91.2188 21.7161 91.0011 21.2263 90.7834 20.682C90.5657 21.1719 90.348 21.6617 90.1303 21.9883C89.9126 22.2604 89.6405 22.3693 89.3683 22.1515L89.3139 22.0971C89.0418 21.8794 89.0418 21.6073 89.205 21.3351C89.4228 21.063 89.8582 20.6276 90.2392 20.3555C89.7493 20.301 89.1506 20.2466 88.8241 20.1378Z" fill="white"/>
<path d="M94.3214 20.1378C93.9404 20.0289 93.8315 19.7568 93.9404 19.4302L93.9948 19.3758C94.1037 19.0492 94.3758 18.9404 94.7024 19.0492C95.0289 19.1581 95.5732 19.4302 95.9542 19.7024C95.8453 19.2669 95.7365 18.6138 95.7365 18.2328C95.7365 17.9063 95.9542 17.6342 96.2807 17.6342H96.3352C96.6617 17.6342 96.8794 17.8519 96.8794 18.2328C96.8794 18.6138 96.7706 19.2125 96.6617 19.7024C97.0971 19.4302 97.587 19.1581 97.9135 19.0492C98.2401 18.9404 98.5122 19.0492 98.6211 19.3758V19.4302C98.7299 19.7568 98.6211 20.0289 98.2401 20.1378C97.9135 20.2466 97.3148 20.3555 96.825 20.3555C97.206 20.6276 97.6414 21.063 97.8591 21.3351C98.0768 21.6073 98.0224 21.9338 97.7502 22.0971L97.6958 22.1515C97.4237 22.3693 97.1516 22.3148 96.9338 21.9883C96.7161 21.7161 96.4984 21.2263 96.2807 20.682C96.063 21.1719 95.8453 21.6617 95.6276 21.9883C95.4099 22.2604 95.1378 22.3693 94.8656 22.1515L94.8112 22.0971C94.5391 21.8794 94.5391 21.6073 94.7024 21.3351C94.9201 21.063 95.3555 20.6276 95.7365 20.3555C95.2466 20.301 94.6479 20.2466 94.3214 20.1378Z" fill="white"/>
<path d="M99.8727 20.1378C99.4917 20.0289 99.3828 19.7568 99.4917 19.4302L99.5461 19.3758C99.6549 19.0492 99.9271 18.9404 100.254 19.0492C100.58 19.1581 101.124 19.4302 101.505 19.7024C101.397 19.2669 101.288 18.6138 101.288 18.2328C101.288 17.9063 101.505 17.6342 101.832 17.6342H101.886C102.213 17.6342 102.431 17.8519 102.431 18.2328C102.431 18.6138 102.322 19.2125 102.213 19.7024C102.648 19.4302 103.138 19.1581 103.465 19.0492C103.791 18.9404 104.063 19.0492 104.172 19.3758V19.4302C104.281 19.7568 104.172 20.0289 103.791 20.1378C103.465 20.2466 102.866 20.3555 102.376 20.3555C102.757 20.6276 103.193 21.063 103.41 21.3351C103.628 21.6073 103.574 21.9338 103.302 22.0971L103.247 22.1515C102.975 22.3693 102.703 22.3148 102.485 21.9883C102.267 21.7161 102.05 21.2263 101.832 20.682C101.614 21.1719 101.397 21.6617 101.179 21.9883C100.961 22.2604 100.689 22.3693 100.417 22.1515L100.362 22.0971C100.09 21.8794 100.09 21.6073 100.254 21.3351C100.471 21.063 100.907 20.6276 101.288 20.3555C100.798 20.301 100.199 20.2466 99.8727 20.1378Z" fill="white"/>
<path d="M105.37 20.1378C104.989 20.0289 104.88 19.7568 104.989 19.4302L105.043 19.3758C105.152 19.0492 105.424 18.9404 105.751 19.0492C106.077 19.1581 106.622 19.4302 107.003 19.7024C106.894 19.2669 106.785 18.6138 106.785 18.2328C106.785 17.9063 107.003 17.6342 107.329 17.6342H107.384C107.71 17.6342 107.928 17.8519 107.928 18.2328C107.928 18.6138 107.819 19.2125 107.71 19.7024C108.145 19.4302 108.635 19.1581 108.962 19.0492C109.288 18.9404 109.561 19.0492 109.669 19.3758V19.4302C109.778 19.7568 109.669 20.0289 109.288 20.1378C108.962 20.2466 108.363 20.3555 107.873 20.3555C108.254 20.6276 108.69 21.063 108.907 21.3351C109.125 21.6073 109.071 21.9338 108.799 22.0971L108.744 22.1515C108.472 22.3693 108.2 22.3148 107.982 21.9883C107.764 21.7161 107.547 21.2263 107.329 20.682C107.111 21.1719 106.894 21.6617 106.676 21.9883C106.458 22.2604 106.186 22.3693 105.914 22.1515L105.86 22.0971C105.587 21.8794 105.587 21.6073 105.751 21.3351C105.968 21.063 106.404 20.6276 106.785 20.3555C106.295 20.301 105.696 20.2466 105.37 20.1378Z" fill="white"/>
<path d="M110.867 20.1378C110.486 20.0289 110.377 19.7568 110.486 19.4302L110.54 19.3758C110.649 19.0492 110.921 18.9404 111.248 19.0492C111.575 19.1581 112.119 19.4302 112.5 19.7024C112.391 19.2669 112.282 18.6138 112.282 18.2328C112.282 17.9063 112.5 17.6342 112.826 17.6342H112.881C113.207 17.6342 113.425 17.8519 113.425 18.2328C113.425 18.6138 113.316 19.2125 113.207 19.7024C113.643 19.4302 114.133 19.1581 114.459 19.0492C114.786 18.9404 115.058 19.0492 115.167 19.3758V19.4302C115.276 19.7568 115.167 20.0289 114.786 20.1378C114.459 20.2466 113.86 20.3555 113.371 20.3555C113.752 20.6276 114.187 21.063 114.405 21.3351C114.622 21.6073 114.568 21.9338 114.296 22.0971L114.241 22.1515C113.969 22.3693 113.697 22.3148 113.48 21.9883C113.262 21.7161 113.044 21.2263 112.826 20.682C112.609 21.1719 112.391 21.6617 112.173 21.9883C111.956 22.2604 111.683 22.3693 111.411 22.1515L111.357 22.0971C111.085 21.8794 111.085 21.6073 111.248 21.3351C111.466 21.063 111.901 20.6276 112.282 20.3555C111.792 20.301 111.248 20.2466 110.867 20.1378Z" fill="white"/>
<path d="M116.418 20.1378C116.037 20.0289 115.928 19.7568 116.037 19.4302L116.092 19.3758C116.201 19.0492 116.473 18.9404 116.799 19.0492C117.126 19.1581 117.67 19.4302 118.051 19.7024C117.942 19.2669 117.833 18.6138 117.833 18.2328C117.833 17.9063 118.051 17.6342 118.378 17.6342H118.432C118.759 17.6342 118.976 17.8519 118.976 18.2328C118.976 18.6138 118.867 19.2125 118.759 19.7024C119.194 19.4302 119.684 19.1581 120.01 19.0492C120.337 18.9404 120.609 19.0492 120.718 19.3758V19.4302C120.827 19.7568 120.718 20.0289 120.337 20.1378C120.01 20.2466 119.412 20.3555 118.922 20.3555C119.303 20.6276 119.738 21.063 119.956 21.3351C120.174 21.6073 120.119 21.9338 119.847 22.0971L119.793 22.1515C119.521 22.3693 119.248 22.3148 119.031 21.9883C118.813 21.7161 118.595 21.2263 118.378 20.682C118.16 21.1719 117.942 21.6617 117.725 21.9883C117.507 22.2604 117.235 22.3693 116.963 22.1515L116.908 22.0971C116.636 21.8794 116.636 21.6073 116.799 21.3351C117.017 21.063 117.452 20.6276 117.833 20.3555C117.344 20.301 116.745 20.2466 116.418 20.1378Z" fill="white"/>
<path d="M121.915 20.1378C121.534 20.0289 121.426 19.7568 121.534 19.4302L121.589 19.3758C121.698 19.0492 121.97 18.9404 122.296 19.0492C122.623 19.1581 123.167 19.4302 123.548 19.7024C123.439 19.2669 123.33 18.6138 123.33 18.2328C123.33 17.9063 123.548 17.6342 123.875 17.6342H123.929C124.256 17.6342 124.473 17.8519 124.473 18.2328C124.473 18.6138 124.365 19.2125 124.256 19.7024C124.691 19.4302 125.181 19.1581 125.508 19.0492C125.834 18.9404 126.106 19.0492 126.215 19.3758V19.4302C126.324 19.7568 126.215 20.0289 125.834 20.1378C125.508 20.2466 124.909 20.3555 124.419 20.3555C124.8 20.6276 125.235 21.063 125.453 21.3351C125.671 21.6073 125.616 21.9338 125.344 22.0971L125.29 22.1515C125.018 22.3693 124.746 22.3148 124.528 21.9883C124.31 21.7161 124.092 21.2263 123.875 20.682C123.657 21.1719 123.439 21.6617 123.222 21.9883C123.004 22.2604 122.732 22.3693 122.46 22.1515L122.405 22.0971C122.133 21.8794 122.133 21.6073 122.296 21.3351C122.514 21.063 122.949 20.6276 123.33 20.3555C122.841 20.301 122.242 20.2466 121.915 20.1378Z" fill="white"/>
<path d="M127.467 20.1378C127.086 20.0289 126.977 19.7568 127.086 19.4302L127.14 19.3758C127.249 19.0492 127.521 18.9404 127.848 19.0492C128.174 19.1581 128.718 19.4302 129.099 19.7024C128.991 19.2669 128.882 18.6138 128.882 18.2328C128.882 17.9063 129.099 17.6342 129.426 17.6342H129.48C129.807 17.6342 130.025 17.8519 130.025 18.2328C130.025 18.6138 129.916 19.2125 129.807 19.7024C130.242 19.4302 130.732 19.1581 131.059 19.0492C131.385 18.9404 131.657 19.0492 131.766 19.3758V19.4302C131.875 19.7568 131.766 20.0289 131.385 20.1378C131.059 20.2466 130.46 20.3555 129.97 20.3555C130.351 20.6276 130.787 21.063 131.004 21.3351C131.222 21.6073 131.168 21.9338 130.896 22.0971L130.841 22.1515C130.569 22.3693 130.297 22.3148 130.079 21.9883C129.861 21.7161 129.644 21.2263 129.426 20.682C129.208 21.1719 128.991 21.6617 128.773 21.9883C128.555 22.2604 128.283 22.3693 128.011 22.1515L127.956 22.0971C127.684 21.8794 127.684 21.6073 127.848 21.3351C128.065 21.063 128.501 20.6276 128.882 20.3555C128.392 20.301 127.793 20.2466 127.467 20.1378Z" fill="white"/>
</g>
<g opacity="0.2">
<path d="M134.977 192.452C134.596 192.343 134.487 192.071 134.596 191.744L134.651 191.69C134.759 191.363 135.032 191.254 135.358 191.363C135.685 191.472 136.229 191.744 136.61 192.016C136.501 191.581 136.392 190.928 136.392 190.547C136.392 190.22 136.61 189.948 136.936 189.948H136.991C137.317 189.948 137.535 190.166 137.535 190.547C137.535 190.928 137.426 191.526 137.317 192.016C137.753 191.744 138.243 191.472 138.569 191.363C138.896 191.254 139.168 191.363 139.277 191.69V191.744C139.386 192.071 139.277 192.343 138.896 192.452C138.569 192.561 137.971 192.669 137.481 192.669C137.862 192.942 138.297 193.377 138.515 193.649C138.733 193.921 138.678 194.248 138.406 194.411L138.352 194.465C138.079 194.683 137.807 194.629 137.59 194.302C137.372 194.03 137.154 193.54 136.936 192.996C136.719 193.486 136.501 193.976 136.283 194.302C136.066 194.574 135.794 194.683 135.521 194.465L135.467 194.411C135.195 194.193 135.195 193.921 135.358 193.649C135.576 193.377 136.011 192.942 136.392 192.669C135.957 192.615 135.358 192.561 134.977 192.452Z" fill="white"/>
<path d="M140.529 192.452C140.148 192.343 140.039 192.071 140.148 191.744L140.202 191.69C140.311 191.363 140.583 191.254 140.91 191.363C141.236 191.472 141.781 191.744 142.162 192.016C142.053 191.581 141.944 190.928 141.944 190.547C141.944 190.22 142.162 189.948 142.488 189.948H142.543C142.869 189.948 143.087 190.166 143.087 190.547C143.087 190.928 142.978 191.526 142.869 192.016C143.305 191.744 143.794 191.472 144.121 191.363C144.448 191.254 144.72 191.363 144.829 191.69V191.744C144.937 192.071 144.829 192.343 144.448 192.452C144.121 192.561 143.522 192.669 143.033 192.669C143.413 192.942 143.849 193.377 144.067 193.649C144.284 193.921 144.23 194.248 143.958 194.411L143.903 194.465C143.631 194.683 143.359 194.629 143.141 194.302C142.924 194.03 142.706 193.54 142.488 192.996C142.271 193.486 142.053 193.976 141.835 194.302C141.617 194.574 141.345 194.683 141.073 194.465L141.019 194.411C140.747 194.193 140.747 193.921 140.91 193.649C141.128 193.377 141.563 192.942 141.944 192.669C141.454 192.615 140.855 192.561 140.529 192.452Z" fill="white"/>
<path d="M146.026 192.452C145.645 192.343 145.536 192.071 145.645 191.744L145.699 191.69C145.808 191.363 146.08 191.254 146.407 191.363C146.733 191.472 147.278 191.744 147.659 192.016C147.55 191.581 147.441 190.928 147.441 190.547C147.441 190.22 147.659 189.948 147.985 189.948H148.04C148.366 189.948 148.584 190.166 148.584 190.547C148.584 190.928 148.475 191.526 148.366 192.016C148.801 191.744 149.291 191.472 149.618 191.363C149.944 191.254 150.217 191.363 150.325 191.69V191.744C150.434 192.071 150.325 192.343 149.944 192.452C149.618 192.561 149.019 192.669 148.529 192.669C148.91 192.942 149.346 193.377 149.563 193.649C149.781 193.921 149.727 194.248 149.455 194.411L149.4 194.465C149.128 194.683 148.856 194.629 148.638 194.302C148.42 194.03 148.203 193.54 147.985 192.996C147.767 193.486 147.55 193.976 147.332 194.302C147.114 194.574 146.842 194.683 146.57 194.465L146.516 194.411C146.243 194.193 146.243 193.921 146.407 193.649C146.624 193.377 147.06 192.942 147.441 192.669C146.951 192.615 146.407 192.561 146.026 192.452Z" fill="white"/>
<path d="M151.577 192.452C151.197 192.343 151.088 192.071 151.197 191.744L151.251 191.69C151.36 191.363 151.632 191.254 151.958 191.363C152.285 191.472 152.829 191.744 153.21 192.016C153.101 191.581 152.993 190.928 152.993 190.547C152.993 190.22 153.21 189.948 153.537 189.948H153.591C153.918 189.948 154.136 190.166 154.136 190.547C154.136 190.928 154.027 191.526 153.918 192.016C154.353 191.744 154.843 191.472 155.17 191.363C155.496 191.254 155.768 191.363 155.877 191.69V191.744C155.986 192.071 155.877 192.343 155.496 192.452C155.17 192.561 154.571 192.669 154.081 192.669C154.462 192.942 154.898 193.377 155.115 193.649C155.333 193.921 155.278 194.248 155.006 194.411L154.952 194.465C154.68 194.683 154.408 194.629 154.19 194.302C153.972 194.03 153.755 193.54 153.537 192.996C153.319 193.486 153.101 193.976 152.884 194.302C152.666 194.574 152.394 194.683 152.122 194.465L152.067 194.411C151.795 194.193 151.795 193.921 151.958 193.649C152.176 193.377 152.612 192.942 152.993 192.669C152.503 192.615 151.904 192.561 151.577 192.452Z" fill="white"/>
<path d="M157.075 192.452C156.694 192.343 156.585 192.071 156.694 191.744L156.748 191.69C156.857 191.363 157.129 191.254 157.456 191.363C157.782 191.472 158.326 191.744 158.707 192.016C158.599 191.581 158.49 190.928 158.49 190.547C158.49 190.22 158.707 189.948 159.034 189.948H159.088C159.415 189.948 159.633 190.166 159.633 190.547C159.633 190.928 159.524 191.526 159.415 192.016C159.85 191.744 160.34 191.472 160.667 191.363C160.993 191.254 161.265 191.363 161.374 191.69V191.744C161.483 192.071 161.374 192.343 160.993 192.452C160.667 192.561 160.068 192.669 159.578 192.669C159.959 192.942 160.395 193.377 160.612 193.649C160.83 193.921 160.776 194.248 160.503 194.411L160.449 194.465C160.177 194.683 159.905 194.629 159.687 194.302C159.469 194.03 159.252 193.54 159.034 192.996C158.816 193.486 158.598 193.976 158.381 194.302C158.163 194.574 157.891 194.683 157.619 194.465L157.564 194.411C157.292 194.193 157.292 193.921 157.456 193.649C157.673 193.377 158.109 192.942 158.49 192.669C158 192.615 157.401 192.561 157.075 192.452Z" fill="white"/>
<path d="M162.626 192.452C162.245 192.343 162.136 192.071 162.245 191.744L162.299 191.69C162.408 191.363 162.68 191.254 163.007 191.363C163.333 191.472 163.878 191.744 164.259 192.016C164.15 191.581 164.041 190.928 164.041 190.547C164.041 190.22 164.259 189.948 164.585 189.948H164.64C164.966 189.948 165.184 190.166 165.184 190.547C165.184 190.928 165.075 191.526 164.966 192.016C165.402 191.744 165.891 191.472 166.218 191.363C166.545 191.254 166.817 191.363 166.926 191.69V191.744C167.034 192.071 166.926 192.343 166.545 192.452C166.218 192.561 165.619 192.669 165.129 192.669C165.51 192.942 165.946 193.377 166.164 193.649C166.381 193.921 166.327 194.248 166.055 194.411L166 194.465C165.728 194.683 165.456 194.629 165.238 194.302C165.021 194.03 164.803 193.54 164.585 192.996C164.367 193.486 164.15 193.976 163.932 194.302C163.714 194.574 163.442 194.683 163.17 194.465L163.116 194.411C162.844 194.193 162.844 193.921 163.007 193.649C163.225 193.377 163.66 192.942 164.041 192.669C163.551 192.615 162.952 192.561 162.626 192.452Z" fill="white"/>
<path d="M168.123 192.452C167.742 192.343 167.633 192.071 167.742 191.744L167.796 191.69C167.905 191.363 168.177 191.254 168.504 191.363C168.83 191.472 169.375 191.744 169.756 192.016C169.647 191.581 169.538 190.928 169.538 190.547C169.538 190.22 169.756 189.948 170.082 189.948H170.137C170.463 189.948 170.681 190.166 170.681 190.547C170.681 190.928 170.572 191.526 170.463 192.016C170.899 191.744 171.388 191.472 171.715 191.363C172.042 191.254 172.314 191.363 172.423 191.69V191.744C172.531 192.071 172.423 192.343 172.042 192.452C171.715 192.561 171.116 192.669 170.627 192.669C171.007 192.942 171.443 193.377 171.661 193.649C171.878 193.921 171.824 194.248 171.552 194.411L171.497 194.465C171.225 194.683 170.953 194.629 170.735 194.302C170.518 194.03 170.3 193.54 170.082 192.996C169.865 193.486 169.647 193.976 169.429 194.302C169.211 194.574 168.939 194.683 168.667 194.465L168.613 194.411C168.341 194.193 168.341 193.921 168.504 193.649C168.722 193.377 169.157 192.942 169.538 192.669C169.048 192.615 168.449 192.561 168.123 192.452Z" fill="white"/>
<path d="M173.62 192.452C173.239 192.343 173.13 192.071 173.239 191.744L173.294 191.69C173.403 191.363 173.675 191.254 174.001 191.363C174.328 191.472 174.872 191.744 175.253 192.016C175.144 191.581 175.035 190.928 175.035 190.547C175.035 190.22 175.253 189.948 175.58 189.948H175.634C175.961 189.948 176.178 190.166 176.178 190.547C176.178 190.928 176.069 191.526 175.961 192.016C176.396 191.744 176.886 191.472 177.212 191.363C177.539 191.254 177.811 191.363 177.92 191.69V191.744C178.029 192.071 177.92 192.343 177.539 192.452C177.212 192.561 176.614 192.669 176.124 192.669C176.505 192.942 176.94 193.377 177.158 193.649C177.376 193.921 177.321 194.248 177.049 194.411L176.995 194.465C176.723 194.683 176.45 194.629 176.233 194.302C176.015 194.03 175.797 193.54 175.58 192.996C175.362 193.486 175.144 193.976 174.926 194.302C174.709 194.574 174.437 194.683 174.164 194.465L174.11 194.411C173.838 194.193 173.838 193.921 174.001 193.649C174.219 193.377 174.654 192.942 175.035 192.669C174.545 192.615 174.001 192.561 173.62 192.452Z" fill="white"/>
</g>
<g opacity="0.2">
<path d="M223.039 165.674V161.81C223.039 159.415 224.999 157.456 227.448 157.456C229.897 157.456 231.856 159.415 231.856 161.81V165.674H233.598V161.81C233.598 158.49 230.822 155.768 227.393 155.768C223.964 155.768 221.189 158.49 221.189 161.81V165.674H223.039Z" stroke="white" stroke-width="0.544264" stroke-miterlimit="10"/>
<path d="M234.088 165.674H220.59V176.831H234.088V165.674Z" stroke="white" stroke-width="0.544264" stroke-miterlimit="10"/>
<path d="M228.754 170.3C228.754 169.484 228.101 168.885 227.285 168.885C226.468 168.885 225.815 169.538 225.815 170.3C225.815 170.844 226.142 171.334 226.577 171.552L226.305 174.11H228.21L227.938 171.552C228.482 171.334 228.754 170.844 228.754 170.3Z" stroke="white" stroke-width="0.544264" stroke-miterlimit="10"/>
</g>
<g opacity="0.2">
<path d="M31.5673 44.0853V40.2211C31.5673 37.8263 33.5266 35.867 35.9758 35.867C38.425 35.867 40.3844 37.8263 40.3844 40.2211V44.0853H42.126V40.2211C42.126 36.9011 39.3503 34.1797 35.9214 34.1797C32.4925 34.1797 29.7168 36.9011 29.7168 40.2211V44.0853H31.5673Z" stroke="white" stroke-width="0.544264" stroke-miterlimit="10"/>
<path d="M42.6701 44.0853H29.1724V55.2427H42.6701V44.0853Z" stroke="white" stroke-width="0.544264" stroke-miterlimit="10"/>
<path d="M37.3365 48.7116C37.3365 47.8952 36.6834 47.2965 35.867 47.2965C35.0506 47.2965 34.3975 47.9496 34.3975 48.7116C34.3975 49.2559 34.724 49.7457 35.1594 49.9634L34.8873 52.5214H36.7922L36.5201 49.9634C37.0099 49.7457 37.3365 49.2559 37.3365 48.7116Z" stroke="white" stroke-width="0.544264" stroke-miterlimit="10"/>
</g>
<g opacity="0.2">
<path d="M200.289 14.8039V12.2459C200.289 10.6675 201.595 9.41572 203.174 9.41572C204.752 9.41572 206.058 10.6675 206.058 12.2459V14.7495H207.201V12.2459C207.201 10.0688 205.405 8.27277 203.119 8.27277C200.888 8.27277 199.037 10.0688 199.037 12.2459V14.8039H200.289Z" stroke="white" stroke-width="0.544264" stroke-miterlimit="10"/>
<path d="M207.582 14.804H198.71V22.1515H207.582V14.804Z" stroke="white" stroke-width="0.544264" stroke-miterlimit="10"/>
<path d="M204.045 17.8518C204.045 17.3076 203.609 16.9266 203.065 16.9266C202.521 16.9266 202.085 17.362 202.085 17.8518C202.085 18.2328 202.303 18.5049 202.575 18.6682L202.412 20.3554H203.664L203.5 18.6682C203.881 18.5049 204.045 18.1784 204.045 17.8518Z" stroke="white" stroke-width="0.544264" stroke-miterlimit="10"/>
</g>
<path d="M226.359 37.3365H53.1201V129.317H226.359V37.3365Z" fill="white" stroke="white" stroke-width="0.544264" stroke-miterlimit="10" stroke-linecap="round" stroke-linejoin="round"/>
<path d="M226.305 37.3365H83.2725V45.9359H226.305V37.3365Z" fill="#D9D9D9" stroke="white" stroke-width="0.544264" stroke-miterlimit="10" stroke-linecap="round" stroke-linejoin="round"/>
<path d="M226.359 37.3365H113.642V45.9359H226.359V37.3365Z" fill="#A8A8A8" stroke="white" stroke-width="0.544264" stroke-miterlimit="10" stroke-linecap="round" stroke-linejoin="round"/>
<path d="M226.305 28.9004H52.957V37.4998H226.305V28.9004Z" fill="white" stroke="white" stroke-width="0.544264" stroke-miterlimit="10" stroke-linecap="round" stroke-linejoin="round"/>
<path d="M173.293 34.9417H60.5763C59.5422 34.9417 58.7258 34.1253 58.7258 33.0912C58.7258 32.0571 59.5422 31.2407 60.5763 31.2407H173.293C174.327 31.2407 175.144 32.0571 175.144 33.0912C175.198 34.1253 174.327 34.9417 173.293 34.9417Z" fill="#A8A8A8" stroke="white" stroke-width="0.544264" stroke-miterlimit="10" stroke-linecap="round" stroke-linejoin="round"/>
<path d="M207.31 34.8873C208.182 34.8873 208.889 34.1807 208.889 33.309C208.889 32.4372 208.182 31.7306 207.31 31.7306C206.439 31.7306 205.732 32.4372 205.732 33.309C205.732 34.1807 206.439 34.8873 207.31 34.8873Z" fill="white" stroke="white" stroke-width="0.544264" stroke-miterlimit="10" stroke-linecap="round" stroke-linejoin="round"/>
<path d="M215.42 33.309C215.42 32.4381 214.712 31.7306 213.841 31.7306C212.97 31.7306 212.263 32.4381 212.263 33.309C212.263 34.1798 212.97 34.8873 213.841 34.8873C214.767 34.8873 215.42 34.1798 215.42 33.309Z" fill="white" stroke="white" stroke-width="0.544264" stroke-miterlimit="10" stroke-linecap="round" stroke-linejoin="round"/>
<path d="M220.427 34.8873C221.298 34.8873 222.005 34.1807 222.005 33.309C222.005 32.4372 221.298 31.7306 220.427 31.7306C219.555 31.7306 218.848 32.4372 218.848 33.309C218.848 34.1807 219.555 34.8873 220.427 34.8873Z" fill="white" stroke="white" stroke-width="0.544264" stroke-miterlimit="10" stroke-linecap="round" stroke-linejoin="round"/>
<path d="M64.2776 74.1832H83.5445V61.1208H72.3871L71.2442 57.9097H64.2776V74.1832Z" fill="#D9D9D9" stroke="#B5B5B5" stroke-width="0.544264" stroke-miterlimit="10"/>
<path d="M64.2773 99.437H83.5443V86.3747H72.3869L71.2439 83.1635H64.2773V99.437Z" fill="#D9D9D9" stroke="#B5B5B5" stroke-width="0.544264" stroke-miterlimit="10"/>
<path d="M64.2773 124.691H83.5443V111.629H72.3869L71.2439 108.417H64.2773V124.691Z" fill="#D9D9D9" stroke="#B5B5B5" stroke-width="0.544264" stroke-miterlimit="10"/>
<path d="M91.0552 74.1832H110.322V61.1208H99.1103L97.9673 57.9097H91.0552V74.1832Z" fill="#D9D9D9" stroke="#B5B5B5" stroke-width="0.544264" stroke-miterlimit="10"/>
<path d="M91.0552 99.437H110.322V86.3747H99.1103L97.9673 83.1635H91.0552V99.437Z" fill="#D9D9D9" stroke="#B5B5B5" stroke-width="0.544264" stroke-miterlimit="10"/>
<path d="M91.0552 124.691H110.322V111.629H99.1103L97.9673 108.417H91.0552V124.691Z" fill="#D9D9D9" stroke="#B5B5B5" stroke-width="0.544264" stroke-miterlimit="10"/>
<path d="M117.778 74.1832H137.045V61.1208H125.888L124.745 57.9097H117.778V74.1832Z" fill="#D9D9D9" stroke="#B5B5B5" stroke-width="0.544264" stroke-miterlimit="10"/>
<path d="M117.778 99.437H137.045V86.3747H125.888L124.745 83.1635H117.778V99.437Z" fill="#D9D9D9" stroke="#B5B5B5" stroke-width="0.544264" stroke-miterlimit="10"/>
<path d="M117.778 124.691H137.045V111.629H125.888L124.745 108.417H117.778V124.691Z" fill="#D9D9D9" stroke="#B5B5B5" stroke-width="0.544264" stroke-miterlimit="10"/>
<path d="M144.556 74.1832H163.823V61.1208H152.665L151.522 57.9097H144.556V74.1832Z" fill="#D9D9D9" stroke="#B5B5B5" stroke-width="0.544264" stroke-miterlimit="10"/>
<path d="M144.556 99.437H163.823V86.3747H152.665L151.522 83.1635H144.556V99.437Z" fill="#D9D9D9" stroke="#B5B5B5" stroke-width="0.544264" stroke-miterlimit="10"/>
<path d="M144.556 124.691H163.823V111.629H152.665L151.522 108.417H144.556V124.691Z" fill="#D9D9D9" stroke="#B5B5B5" stroke-width="0.544264" stroke-miterlimit="10"/>
<path d="M171.334 74.1832H190.601V61.1208H179.389L178.246 57.9097H171.334V74.1832Z" fill="#D9D9D9" stroke="#B5B5B5" stroke-width="0.544264" stroke-miterlimit="10"/>
<path d="M171.334 99.437H190.601V86.3747H179.389L178.246 83.1635H171.334V99.437Z" fill="#D9D9D9" stroke="#B5B5B5" stroke-width="0.544264" stroke-miterlimit="10"/>
<path d="M171.334 124.691H190.601V111.629H179.389L178.246 108.417H171.334V124.691Z" fill="#D9D9D9" stroke="#B5B5B5" stroke-width="0.544264" stroke-miterlimit="10"/>
<path d="M198.057 74.1832H217.324V61.1208H206.167L205.024 57.9097H198.057V74.1832Z" fill="#D9D9D9" stroke="#B5B5B5" stroke-width="0.544264" stroke-miterlimit="10"/>
<path d="M198.057 99.437H217.324V86.3747H206.167L205.024 83.1635H198.057V99.437Z" fill="#D9D9D9" stroke="#B5B5B5" stroke-width="0.544264" stroke-miterlimit="10"/>
<path d="M198.057 124.691H217.324V111.629H206.167L205.024 108.417H198.057V124.691Z" fill="#D9D9D9" stroke="#B5B5B5" stroke-width="0.544264" stroke-miterlimit="10"/>
<path opacity="0.3" d="M172.096 55.5149H102.703V116.745H172.096V55.5149Z" fill="white"/>
<path d="M173.838 52.4126H104.445V113.642H173.838V52.4126Z" fill="white" stroke="white" stroke-width="0.544264" stroke-miterlimit="10" stroke-linecap="round" stroke-linejoin="round"/>
<path d="M173.838 52.4126H104.445V56.7667H173.838V52.4126Z" fill="white" stroke="white" stroke-width="0.544264" stroke-miterlimit="10" stroke-linecap="round" stroke-linejoin="round"/>
<path d="M134.815 78.5917V72.1149C134.815 69.7202 136.774 67.7608 139.223 67.7608C141.672 67.7608 143.632 69.7202 143.632 72.1149V75.8704H145.373V72.1149C145.373 68.7949 142.598 66.0736 139.169 66.0736C135.74 66.0736 132.964 68.7949 132.964 72.1149V78.5917H134.815Z" fill="white" stroke="white" stroke-width="0.544264" stroke-miterlimit="10" stroke-linecap="round" stroke-linejoin="round"/>
<path d="M145.917 77.993H132.42V89.1504H145.917V77.993Z" fill="url(#paint41_linear_101_10529)" stroke="white" stroke-width="0.544264" stroke-miterlimit="10" stroke-linecap="round" stroke-linejoin="round"/>
<path d="M147.822 73.8566L148.748 71.8972" stroke="white" stroke-width="0.544264" stroke-miterlimit="10" stroke-linecap="round" stroke-linejoin="round"/>
<path d="M147.986 76.2513H151.251" stroke="white" stroke-width="0.544264" stroke-miterlimit="10" stroke-linecap="round" stroke-linejoin="round"/>
<path d="M147.605 78.5372L149.346 80.3877" stroke="white" stroke-width="0.544264" stroke-miterlimit="10" stroke-linecap="round" stroke-linejoin="round"/>
<path d="M140.584 82.6193C140.584 81.8029 139.93 81.2042 139.114 81.2042C138.298 81.2042 137.645 81.8573 137.645 82.6193C137.645 83.1635 137.971 83.6534 138.407 83.8711L138.134 86.4291H140.039L139.767 83.8711C140.257 83.6534 140.584 83.1635 140.584 82.6193Z" fill="white" stroke="white" stroke-width="0.544264" stroke-miterlimit="10" stroke-linecap="round" stroke-linejoin="round"/>
<path d="M163.334 103.247H114.949C113.751 103.247 112.772 102.267 112.772 101.07V95.8993C112.772 94.7019 113.751 93.7222 114.949 93.7222H163.334C164.531 93.7222 165.511 94.7019 165.511 95.8993V101.07C165.511 102.267 164.586 103.247 163.334 103.247Z" fill="white" stroke="white" stroke-width="0.544264" stroke-miterlimit="10" stroke-linecap="round" stroke-linejoin="round"/>
<path d="M117.888 98.7839C117.507 98.675 117.398 98.4029 117.507 98.0763L117.561 98.0219C117.67 97.6954 117.942 97.5865 118.269 97.6954C118.595 97.8042 119.139 98.0763 119.52 98.3485C119.411 97.9131 119.303 97.26 119.303 96.879C119.303 96.5524 119.52 96.2803 119.847 96.2803H119.901C120.228 96.2803 120.446 96.498 120.446 96.879C120.446 97.26 120.337 97.8586 120.228 98.3485C120.663 98.0763 121.153 97.8042 121.48 97.6954C121.806 97.5865 122.078 97.6954 122.187 98.0219V98.0763C122.296 98.4029 122.187 98.675 121.806 98.7839C121.48 98.8927 120.881 99.0016 120.391 99.0016C120.772 99.2737 121.208 99.7091 121.425 99.9813C121.643 100.253 121.589 100.58 121.316 100.743L121.262 100.798C120.99 101.015 120.718 100.961 120.5 100.634C120.282 100.362 120.065 99.8724 119.847 99.3282C119.629 99.818 119.411 100.308 119.194 100.634C118.976 100.907 118.704 101.015 118.432 100.798L118.377 100.743C118.105 100.526 118.105 100.253 118.269 99.9813C118.486 99.7091 118.922 99.2737 119.303 99.0016C118.867 98.9472 118.269 98.8927 117.888 98.7839Z" fill="white"/>
<path d="M123.439 98.7839C123.058 98.675 122.949 98.4029 123.058 98.0763L123.113 98.0219C123.222 97.6954 123.494 97.5865 123.82 97.6954C124.147 97.8042 124.691 98.0763 125.072 98.3485C124.963 97.9131 124.854 97.26 124.854 96.879C124.854 96.5524 125.072 96.2803 125.399 96.2803H125.453C125.78 96.2803 125.997 96.498 125.997 96.879C125.997 97.26 125.888 97.8586 125.78 98.3485C126.215 98.0763 126.705 97.8042 127.031 97.6954C127.358 97.5865 127.63 97.6954 127.739 98.0219V98.0763C127.848 98.4029 127.739 98.675 127.358 98.7839C127.031 98.8927 126.433 99.0016 125.943 99.0016C126.324 99.2737 126.759 99.7091 126.977 99.9813C127.195 100.253 127.14 100.58 126.868 100.743L126.814 100.798C126.542 101.015 126.269 100.961 126.052 100.634C125.834 100.362 125.616 99.8724 125.399 99.3282C125.181 99.818 124.963 100.308 124.746 100.634C124.528 100.907 124.256 101.015 123.984 100.798L123.929 100.743C123.657 100.526 123.657 100.253 123.82 99.9813C124.038 99.7091 124.473 99.2737 124.854 99.0016C124.365 98.9472 123.766 98.8927 123.439 98.7839Z" fill="white"/>
<path d="M128.936 98.7839C128.555 98.675 128.446 98.4029 128.555 98.0763L128.609 98.0219C128.718 97.6954 128.99 97.5865 129.317 97.6954C129.643 97.8042 130.188 98.0763 130.569 98.3485C130.46 97.9131 130.351 97.26 130.351 96.879C130.351 96.5524 130.569 96.2803 130.895 96.2803H130.95C131.276 96.2803 131.494 96.498 131.494 96.879C131.494 97.26 131.385 97.8586 131.276 98.3485C131.712 98.0763 132.201 97.8042 132.528 97.6954C132.855 97.5865 133.127 97.6954 133.236 98.0219V98.0763C133.344 98.4029 133.236 98.675 132.855 98.7839C132.528 98.8927 131.929 99.0016 131.439 99.0016C131.82 99.2737 132.256 99.7091 132.474 99.9813C132.691 100.253 132.637 100.58 132.365 100.743L132.31 100.798C132.038 101.015 131.766 100.961 131.548 100.634C131.331 100.362 131.113 99.8724 130.895 99.3282C130.678 99.818 130.46 100.308 130.242 100.634C130.024 100.907 129.752 101.015 129.48 100.798L129.426 100.743C129.154 100.526 129.154 100.253 129.317 99.9813C129.535 99.7091 129.97 99.2737 130.351 99.0016C129.861 98.9472 129.317 98.8927 128.936 98.7839Z" fill="white"/>
<path d="M134.488 98.7839C134.107 98.675 133.998 98.4029 134.107 98.0763L134.161 98.0219C134.27 97.6954 134.542 97.5865 134.869 97.6954C135.195 97.8042 135.739 98.0763 136.12 98.3485C136.012 97.9131 135.903 97.26 135.903 96.879C135.903 96.5524 136.12 96.2803 136.447 96.2803H136.501C136.828 96.2803 137.046 96.498 137.046 96.879C137.046 97.26 136.937 97.8586 136.828 98.3485C137.263 98.0763 137.753 97.8042 138.08 97.6954C138.406 97.5865 138.678 97.6954 138.787 98.0219V98.0763C138.896 98.4029 138.787 98.675 138.406 98.7839C138.08 98.8927 137.481 99.0016 136.991 99.0016C137.372 99.2737 137.808 99.7091 138.025 99.9813C138.243 100.253 138.189 100.58 137.917 100.743L137.862 100.798C137.59 101.015 137.318 100.961 137.1 100.634C136.882 100.362 136.665 99.8724 136.447 99.3282C136.229 99.818 136.012 100.308 135.794 100.634C135.576 100.907 135.304 101.015 135.032 100.798L134.977 100.743C134.705 100.526 134.705 100.253 134.869 99.9813C135.086 99.7091 135.522 99.2737 135.903 99.0016C135.413 98.9472 134.814 98.8927 134.488 98.7839Z" fill="white"/>
<path d="M139.985 98.7839C139.604 98.675 139.495 98.4029 139.604 98.0763L139.658 98.0219C139.767 97.6954 140.039 97.5865 140.366 97.6954C140.692 97.8042 141.237 98.0763 141.618 98.3485C141.509 97.9131 141.4 97.26 141.4 96.879C141.4 96.5524 141.618 96.2803 141.944 96.2803H141.999C142.325 96.2803 142.543 96.498 142.543 96.879C142.543 97.26 142.434 97.8586 142.325 98.3485C142.761 98.0763 143.251 97.8042 143.577 97.6954C143.904 97.5865 144.176 97.6954 144.285 98.0219V98.0763C144.393 98.4029 144.285 98.675 143.904 98.7839C143.577 98.8927 142.978 99.0016 142.489 99.0016C142.87 99.2737 143.305 99.7091 143.523 99.9813C143.74 100.253 143.686 100.58 143.414 100.743L143.359 100.798C143.087 101.015 142.815 100.961 142.597 100.634C142.38 100.362 142.162 99.8724 141.944 99.3282C141.727 99.818 141.509 100.308 141.291 100.634C141.073 100.907 140.801 101.015 140.529 100.798L140.475 100.743C140.203 100.526 140.203 100.253 140.366 99.9813C140.584 99.7091 141.019 99.2737 141.4 99.0016C140.91 98.9472 140.312 98.8927 139.985 98.7839Z" fill="white"/>
<path d="M145.482 98.7839C145.101 98.675 144.992 98.4029 145.101 98.0763L145.155 98.0219C145.264 97.6954 145.536 97.5865 145.863 97.6954C146.19 97.8042 146.734 98.0763 147.115 98.3485C147.006 97.9131 146.897 97.26 146.897 96.879C146.897 96.5524 147.115 96.2803 147.441 96.2803H147.496C147.822 96.2803 148.04 96.498 148.04 96.879C148.04 97.26 147.931 97.8586 147.822 98.3485C148.258 98.0763 148.748 97.8042 149.074 97.6954C149.401 97.5865 149.673 97.6954 149.782 98.0219V98.0763C149.891 98.4029 149.782 98.675 149.401 98.7839C149.074 98.8927 148.475 99.0016 147.986 99.0016C148.367 99.2737 148.802 99.7091 149.02 99.9813C149.237 100.253 149.183 100.58 148.911 100.743L148.856 100.798C148.584 101.015 148.312 100.961 148.094 100.634C147.877 100.362 147.659 99.8724 147.441 99.3282C147.224 99.818 147.006 100.308 146.788 100.634C146.571 100.907 146.298 101.015 146.026 100.798L145.972 100.743C145.7 100.526 145.7 100.253 145.863 99.9813C146.081 99.7091 146.516 99.2737 146.897 99.0016C146.462 98.9472 145.863 98.8927 145.482 98.7839Z" fill="white"/>
<path d="M151.033 98.7839C150.652 98.675 150.543 98.4029 150.652 98.0763L150.707 98.0219C150.816 97.6954 151.088 97.5865 151.414 97.6954C151.741 97.8042 152.285 98.0763 152.666 98.3485C152.557 97.9131 152.448 97.26 152.448 96.879C152.448 96.5524 152.666 96.2803 152.993 96.2803H153.047C153.374 96.2803 153.591 96.498 153.591 96.879C153.591 97.26 153.482 97.8586 153.374 98.3485C153.809 98.0763 154.299 97.8042 154.625 97.6954C154.952 97.5865 155.224 97.6954 155.333 98.0219V98.0763C155.442 98.4029 155.333 98.675 154.952 98.7839C154.625 98.8927 154.027 99.0016 153.537 99.0016C153.918 99.2737 154.353 99.7091 154.571 99.9813C154.789 100.253 154.734 100.58 154.462 100.743L154.408 100.798C154.136 101.015 153.863 100.961 153.646 100.634C153.428 100.362 153.21 99.8724 152.993 99.3282C152.775 99.818 152.557 100.308 152.34 100.634C152.122 100.907 151.85 101.015 151.578 100.798L151.523 100.743C151.251 100.526 151.251 100.253 151.414 99.9813C151.632 99.7091 152.067 99.2737 152.448 99.0016C151.959 98.9472 151.36 98.8927 151.033 98.7839Z" fill="white"/>
<path d="M156.53 98.7839C156.149 98.675 156.041 98.4029 156.149 98.0763L156.204 98.0219C156.313 97.6954 156.585 97.5865 156.911 97.6954C157.238 97.8042 157.782 98.0763 158.163 98.3485C158.054 97.9131 157.945 97.26 157.945 96.879C157.945 96.5524 158.163 96.2803 158.49 96.2803H158.544C158.871 96.2803 159.088 96.498 159.088 96.879C159.088 97.26 158.98 97.8586 158.871 98.3485C159.306 98.0763 159.796 97.8042 160.123 97.6954C160.449 97.5865 160.721 97.6954 160.83 98.0219V98.0763C160.939 98.4029 160.83 98.675 160.449 98.7839C160.123 98.8927 159.524 99.0016 159.034 99.0016C159.415 99.2737 159.85 99.7091 160.068 99.9813C160.286 100.253 160.231 100.58 159.959 100.743L159.905 100.798C159.633 101.015 159.361 100.961 159.143 100.634C158.925 100.362 158.707 99.8724 158.49 99.3282C158.272 99.818 158.054 100.308 157.837 100.634C157.619 100.907 157.347 101.015 157.075 100.798L157.02 100.743C156.748 100.526 156.748 100.253 156.911 99.9813C157.129 99.7091 157.564 99.2737 157.945 99.0016C157.456 98.9472 156.911 98.8927 156.53 98.7839Z" fill="white"/>
<path d="M70.0468 237.571H71.9517C72.2238 237.571 72.4415 237.353 72.4415 237.136L73.911 221.624H68.0874L69.5569 237.136C69.6113 237.353 69.829 237.571 70.0468 237.571Z" fill="white" stroke="white" stroke-width="0.544264" stroke-miterlimit="10" stroke-linecap="round" stroke-linejoin="round"/>
<path d="M51.9227 237.571H53.8277C54.0998 237.571 54.3175 237.353 54.3175 237.136L55.787 221.624H49.9634L51.4329 237.136C51.4329 237.353 51.6506 237.571 51.9227 237.571Z" fill="white" stroke="white" stroke-width="0.544264" stroke-miterlimit="10" stroke-linecap="round" stroke-linejoin="round"/>
<path d="M81.4762 237.571H83.3811C83.6532 237.571 83.871 237.353 83.871 237.136L85.3405 221.624H79.5168L80.9864 237.136C81.0408 237.353 81.2585 237.571 81.4762 237.571Z" fill="white" stroke="white" stroke-width="0.544264" stroke-miterlimit="10" stroke-linecap="round" stroke-linejoin="round"/>
<path d="M100.362 237.571H102.267C102.539 237.571 102.757 237.353 102.757 237.136L104.226 221.624H98.4026L99.8721 237.136C99.8721 237.353 100.09 237.571 100.362 237.571Z" fill="white" stroke="white" stroke-width="0.544264" stroke-miterlimit="10" stroke-linecap="round" stroke-linejoin="round"/>
<path d="M72.8767 222.223H110.159C110.159 222.223 113.969 209.487 116.962 197.187C119.956 184.886 123.33 169.429 119.738 166.273C116.146 163.116 106.621 168.613 99.3824 170.082C92.1981 171.552 90.6741 169.865 85.8302 164.803C80.9318 159.741 76.741 151.469 68.4682 146.135C60.1954 140.855 54.0452 139.985 48.3304 143.577C48.3304 143.577 42.6156 148.475 42.1802 156.694C41.7448 164.966 44.0852 175.362 47.0786 181.077C50.0176 186.791 72.8767 222.223 72.8767 222.223Z" fill="white" stroke="white" stroke-width="0.544264" stroke-miterlimit="10" stroke-linecap="round" stroke-linejoin="round"/>
<path d="M67.6519 198.928H107.927C107.927 198.928 115.166 191.69 116.255 174.273" stroke="white" stroke-width="0.544264" stroke-miterlimit="10" stroke-linecap="round" stroke-linejoin="round"/>
<path d="M95.7904 128.446L91.2186 131.222C91.2186 131.222 94.3753 148.584 93.6133 157.728C92.8513 166.871 89.0415 175.579 89.0415 175.579H101.342C101.342 175.579 105.914 164.694 107.927 157.075C109.941 149.455 106.404 131.603 106.404 131.603L95.7904 128.446Z" fill="#757575" stroke="white" stroke-width="0.544264" stroke-miterlimit="10" stroke-linecap="round" stroke-linejoin="round"/>
<path d="M146.352 174.709C146.352 174.709 148.965 173.892 149.672 173.892C150.38 173.892 152.666 175.688 152.666 175.688C152.666 175.688 152.775 176.341 152.23 176.505C151.741 176.668 149.944 175.416 149.944 175.416L147.005 176.287L146.352 174.709Z" fill="#D9D9D9" stroke="white" stroke-width="0.544264" stroke-miterlimit="10" stroke-linecap="round" stroke-linejoin="round"/>
<path d="M146.679 173.076C146.679 173.076 149.4 173.511 149.999 173.783C150.652 174.11 151.904 176.722 151.904 176.722C151.904 176.722 151.686 177.376 151.196 177.267C150.652 177.158 149.618 175.307 149.618 175.307L146.57 174.763L146.679 173.076Z" fill="#D9D9D9" stroke="white" stroke-width="0.544264" stroke-miterlimit="10" stroke-linecap="round" stroke-linejoin="round"/>
<path d="M143.794 172.259L147.223 173.076L149.4 174.545L150.652 177.593C150.652 177.593 150.217 178.029 149.727 177.92C149.183 177.811 147.006 175.416 147.006 175.416L143.849 173.457L142.815 172.314H143.794V172.259Z" fill="#D9D9D9" stroke="white" stroke-width="0.544264" stroke-miterlimit="10" stroke-linecap="round" stroke-linejoin="round"/>
<path d="M136.284 171.28C136.284 171.28 141.617 171.497 142.76 171.497C143.903 171.497 146.951 173.892 147.441 174.11C147.985 174.328 150.162 177.43 150.162 177.43C150.162 177.43 150.271 177.43 149.509 177.648C148.802 177.865 147.604 177.103 147.604 177.103L146.135 175.307L142.597 174.654C142.597 174.654 145.209 176.015 145.863 176.233C146.516 176.45 146.897 177.158 146.679 177.593C146.461 178.029 143.305 176.668 143.305 176.668C143.305 176.668 142.107 177.321 140.855 176.668C139.604 176.015 139.44 176.015 138.08 175.416C136.773 174.817 134.106 173.239 134.106 173.239L136.284 171.28Z" fill="#D9D9D9" stroke="white" stroke-width="0.544264" stroke-miterlimit="10" stroke-linecap="round" stroke-linejoin="round"/>
<path d="M109.125 134.052C109.125 134.052 111.139 134.433 111.683 135.576C112.173 136.719 115.493 162.572 115.493 162.572L137.263 170.518L136.828 178.138C136.828 178.138 111.03 174.981 109.288 175.362C107.492 175.743 103.192 176.233 101.451 174.872C99.6546 173.457 106.403 167.633 107.655 162.299C110.54 149.618 110.213 140.91 110.213 140.91C110.213 140.91 106.567 132.528 109.125 134.052Z" fill="url(#paint42_linear_101_10529)" stroke="white" stroke-width="0.544264" stroke-miterlimit="10" stroke-linecap="round" stroke-linejoin="round"/>
<path d="M111.9 148.856C111.9 148.856 108.744 161.537 107.329 164.966C105.913 168.395 103.138 174.11 103.138 174.11L100.09 174.6C100.09 174.6 106.403 160.939 107.546 155.496C108.689 150.053 106.131 136.229 106.022 135.739C105.913 135.249 106.893 132.038 108.798 132.691" fill="url(#paint43_linear_101_10529)"/>
<path d="M111.9 148.856C111.9 148.856 108.744 161.537 107.329 164.966C105.913 168.395 103.138 174.11 103.138 174.11L100.09 174.6C100.09 174.6 106.403 160.939 107.546 155.496C108.689 150.053 106.131 136.229 106.022 135.739C105.913 135.249 106.893 132.038 108.798 132.691" stroke="white" stroke-width="0.544264" stroke-miterlimit="10" stroke-linecap="round" stroke-linejoin="round"/>
<path d="M106.186 145.318L102.539 154.571L98.6206 144.665L103.301 141.019L106.186 145.318Z" fill="white" stroke="white" stroke-width="0.544264" stroke-miterlimit="10" stroke-linecap="round" stroke-linejoin="round"/>
<path d="M107.111 137.862L108.472 148.638L102.539 144.067L107.111 137.862Z" fill="white" stroke="white" stroke-width="0.544264" stroke-miterlimit="10" stroke-linecap="round" stroke-linejoin="round"/>
<path d="M123.711 118.704C123.711 118.704 123.602 125.834 123.004 126.868C122.405 127.848 121.207 129.371 121.153 130.732C121.099 132.093 122.731 135.032 121.752 136.012C120.772 136.937 119.411 136.501 119.411 136.501C119.411 136.501 116.2 140.311 114.459 141.182C112.663 142.053 107.927 139.549 107.927 139.549L103.192 144.448L94.4297 128.61L99.4369 125.235C99.4369 125.235 101.342 115.275 107.546 113.207C113.751 111.084 122.731 116.2 123.711 118.704Z" fill="#D9D9D9" stroke="white" stroke-width="0.544264" stroke-miterlimit="10" stroke-linecap="round" stroke-linejoin="round"/>
<path d="M106.24 127.684C106.24 127.684 104.335 131.657 105.968 134.215" stroke="white" stroke-width="0.544264" stroke-miterlimit="10" stroke-linecap="round" stroke-linejoin="round"/>
<path d="M118.431 128.882C118.214 129.426 118.214 129.97 118.431 130.079C118.703 130.188 119.084 129.861 119.357 129.317C119.574 128.773 119.574 128.229 119.357 128.12C119.084 128.011 118.703 128.337 118.431 128.882Z" fill="white"/>
<path d="M117.289 136.773C117.289 136.773 115.384 136.392 115.384 134.869" stroke="white" stroke-width="0.544264" stroke-miterlimit="10" stroke-linecap="round" stroke-linejoin="round"/>
<path d="M117.18 129.372L118.54 130.678" stroke="white" stroke-width="0.544264" stroke-miterlimit="10" stroke-linecap="round" stroke-linejoin="round"/>
<path d="M121.044 126.813C121.044 126.813 120.99 124.909 117.942 125.725" stroke="white" stroke-width="0.544264" stroke-miterlimit="10" stroke-linecap="round" stroke-linejoin="round"/>
<path d="M127.848 113.316C126.487 113.479 125.181 114.513 124.745 113.588C124.31 112.717 124.582 109.451 122.351 109.125C120.119 108.853 120.282 109.887 119.52 109.996C118.758 110.159 117.888 106.73 115.057 107.166C112.227 107.601 110.486 108.798 110.322 109.397C105.478 109.343 102.485 111.356 100.308 115.329C97.9675 119.684 99.3826 125.181 99.3826 125.181C99.3826 125.181 97.1511 126.922 98.9472 127.412C100.743 127.902 106.186 127.63 106.186 127.63C106.186 127.63 106.186 127.63 105.587 127.358C104.989 127.086 104.063 125.181 105.968 122.405C107.873 119.629 109.179 122.024 109.343 123.221C109.506 124.419 109.615 125.398 110.322 125.725C111.03 126.051 111.52 125.289 111.683 124.255C111.846 123.221 113.969 123.167 115.493 122.514C117.071 121.806 115.547 120.446 114.295 118.377C112.989 116.255 116.255 115.819 119.303 117.67C121.044 118.758 121.97 119.357 122.84 119.466H122.895C122.895 119.466 124.364 120.663 125.562 119.629C126.759 118.595 127.467 118.432 128.555 117.234C129.644 116.146 129.208 113.207 127.848 113.316Z" fill="white" stroke="white" stroke-width="0.544264" stroke-miterlimit="10" stroke-linecap="round" stroke-linejoin="round"/>
<path d="M94.9197 127.739L103.301 143.958L97.9676 149.509C97.9676 149.509 93.3958 137.209 92.906 134.161C92.4161 131.113 92.0352 128.991 92.0352 128.991L94.9197 127.739Z" fill="white" stroke="white" stroke-width="0.544264" stroke-miterlimit="10" stroke-linecap="round" stroke-linejoin="round"/>
<path d="M99.7633 173.511C99.7633 173.511 124.255 172.259 127.357 173.511C130.46 174.763 131.167 178.029 130.786 181.294C130.405 184.56 128.609 203.772 127.902 209.215C127.194 214.658 126.813 221.352 127.357 222.658C127.902 223.91 129.535 226.087 128.99 227.393C128.446 228.645 127.521 229.189 127.521 229.734C127.521 230.278 128.228 231.203 128.228 231.203C128.228 231.203 134.923 234.088 137.318 235.013C139.658 235.938 139.876 236.646 139.331 237.027C138.787 237.408 127.521 237.027 125.561 237.027C123.548 237.027 119.738 235.775 119.738 235.775V236.7H114.839C114.839 236.7 114.839 235.068 114.839 233.271C114.839 231.475 115.003 230.006 115.003 230.006C115.003 230.006 114.077 227.666 114.295 226.74C114.458 225.815 115.547 223.856 115.928 222.005C116.309 220.209 115.928 217.651 115.765 215.637C115.601 213.624 115.765 212.372 115.928 211.283C116.091 210.195 114.839 190.438 114.839 190.438C114.839 190.438 100.525 194.792 99.0558 194.955C97.5862 195.119 85.8301 199.473 80.9318 198.221C76.0334 196.969 82.9455 181.512 88.3882 176.287C93.7764 170.953 99.7633 173.511 99.7633 173.511Z" fill="white" stroke="white" stroke-width="0.544264" stroke-miterlimit="10" stroke-linecap="round" stroke-linejoin="round"/>
<path d="M89.8033 171.715C89.8033 171.715 105.968 172.967 107.764 174.818C109.56 176.614 109.016 180.26 109.016 182.6C109.016 184.941 106.839 216.345 106.675 218.141C106.512 219.937 108.472 221.787 107.764 223.039C107.056 224.291 106.675 225.761 106.675 226.305C106.675 226.849 111.574 230.822 113.588 231.911C115.601 232.999 121.207 234.251 122.133 235.176C123.058 236.102 122.84 236.809 121.207 237.353C119.575 237.898 105.968 237.353 105.968 237.353C105.968 237.353 103.954 237.353 103.247 236.809C102.539 236.265 101.995 236.102 101.995 236.102L101.777 237.299H94.7017C94.7017 237.299 93.9941 233.163 93.9941 231.367C93.9941 229.57 94.5384 226.849 94.5384 226.849C94.5384 226.849 93.4499 225.216 93.6132 223.584C93.7764 221.951 95.0827 221.243 95.0827 220.155C95.0827 219.066 93.9942 215.801 94.1574 213.787C94.3207 211.773 94.5384 209.433 94.5384 209.433L92.9056 193.486C92.9056 193.486 82.0203 199.473 76.741 198.928C71.4616 198.384 70.0465 197.677 68.577 195.119C67.1075 192.56 67.1075 181.893 69.5023 177.702C71.8426 173.511 84.9049 169.701 89.8033 171.715Z" fill="white" stroke="white" stroke-width="0.544264" stroke-miterlimit="10" stroke-linecap="round" stroke-linejoin="round"/>
<path d="M92.0349 128.99C92.0349 128.99 95.8448 138.515 96.2258 144.175C96.6067 149.89 96.1169 163.17 94.7018 166.98C93.2867 170.79 92.688 173.185 92.688 173.185C92.688 173.185 80.0067 175.09 78.3739 175.743C76.7411 176.396 73.3122 181.294 72.6591 185.485C72.4959 186.682 72.3326 187.989 72.2781 189.24C72.0604 192.071 72.3326 194.901 72.9313 197.731C73.0401 198.275 73.0401 198.711 72.8768 198.82C72.387 199.309 65.5837 196.261 63.2978 188.424C61.0119 180.587 62.1548 171.334 64.1686 167.035C66.1824 162.735 74.0742 136.991 77.4487 133.562C80.8775 130.133 92.0349 128.99 92.0349 128.99Z" fill="url(#paint44_linear_101_10529)" stroke="white" stroke-width="0.544264" stroke-miterlimit="10" stroke-linecap="round" stroke-linejoin="round"/>
<path d="M134.868 174.6C134.868 174.6 139.658 175.199 140.909 175.525C142.161 175.852 142.978 176.94 142.978 176.94L142.488 177.376L139.005 176.069L134.868 174.6Z" fill="#D9D9D9" stroke="white" stroke-width="0.544264" stroke-miterlimit="10" stroke-linecap="round" stroke-linejoin="round"/>
<path d="M136.828 175.362C136.828 175.362 139.767 175.525 140.093 175.906C140.42 176.287 141.998 178.9 141.998 178.9L141.291 179.389L139.331 177.539L136.828 176.178V175.362Z" fill="#D9D9D9" stroke="white" stroke-width="0.544264" stroke-miterlimit="10" stroke-linecap="round" stroke-linejoin="round"/>
<path d="M131.439 174.328C131.439 174.328 136.882 174.763 137.97 175.416C139.059 176.015 140.42 178.791 140.42 178.791L139.658 179.117L137.045 176.505L130.568 175.416L131.439 174.328Z" fill="#D9D9D9" stroke="white" stroke-width="0.544264" stroke-miterlimit="10" stroke-linecap="round" stroke-linejoin="round"/>
<path d="M131.221 177.049C131.221 177.049 132.691 177.811 133.507 177.811C134.323 177.811 136.718 176.995 136.718 176.995C136.718 176.995 134.269 175.961 133.779 175.906C133.289 175.852 131.221 177.049 131.221 177.049Z" fill="#D9D9D9" stroke="white" stroke-width="0.544264" stroke-miterlimit="10" stroke-linecap="round" stroke-linejoin="round"/>
<path d="M124.799 171.824C124.799 171.824 131.276 173.348 132.038 173.838C132.8 174.328 136.501 176.178 136.991 176.45C137.481 176.777 138.841 179.226 138.841 179.226C138.841 179.226 137.916 180.315 137.59 179.553C137.263 178.791 135.902 177.376 135.902 177.376L133.127 176.45C133.127 176.45 131.603 177.212 129.861 177.212C128.174 177.212 126.323 175.525 126.323 175.525L123.221 176.287L124.799 171.824Z" fill="#D9D9D9" stroke="white" stroke-width="0.544264" stroke-miterlimit="10" stroke-linecap="round" stroke-linejoin="round"/>
<path d="M86.4288 135.631C86.4288 135.631 90.2931 139.005 90.6196 142.76C90.9462 146.57 90.8918 148.094 90.9462 148.693C91.0006 149.346 93.2321 165.946 93.2321 165.946L125.561 171.171L124.963 178.355L88.116 177.648C88.116 177.648 85.6124 178.138 84.2518 176.341C82.8911 174.491 74.9993 146.679 74.9993 146.679" fill="url(#paint45_linear_101_10529)"/>
<path d="M86.4288 135.631C86.4288 135.631 90.2931 139.005 90.6196 142.76C90.9462 146.57 90.8918 148.094 90.9462 148.693C91.0006 149.346 93.2321 165.946 93.2321 165.946L125.561 171.171L124.963 178.355L88.116 177.648C88.116 177.648 85.6124 178.138 84.2518 176.341C82.8911 174.491 74.9993 146.679 74.9993 146.679" stroke="white" stroke-width="0.544264" stroke-miterlimit="10" stroke-linecap="round" stroke-linejoin="round"/>
<path d="M86.8642 168.559C86.5376 168.831 86.2111 169.212 85.8845 169.593" stroke="white" stroke-width="0.544264" stroke-miterlimit="10" stroke-linecap="round" stroke-linejoin="round"/>
<path d="M92.6875 166.599C92.6875 166.599 90.2928 166.49 88.1157 167.688" stroke="white" stroke-width="0.544264" stroke-miterlimit="10" stroke-linecap="round" stroke-linejoin="round"/>
<path d="M90.5108 167.96C90.5108 167.96 87.4085 168.994 86.7554 171.171" stroke="white" stroke-width="0.544264" stroke-miterlimit="10" stroke-linecap="round" stroke-linejoin="round"/>
<path d="M72.8767 222.223C72.8767 222.223 72.2236 199.527 66.5089 184.669C60.7941 169.81 57.4196 167.905 55.0793 168.558C52.739 169.212 49.3645 173.239 47.2419 170.463C45.1193 167.688 41.9626 160.068 43.2144 153.319C44.4662 146.516 47.0242 145.264 48.276 143.577C49.5278 141.89 42.7789 145.917 39.7855 150.38C36.792 154.843 36.792 165.619 38.5337 176.886C40.2209 188.098 44.4662 219.937 45.9357 221.189C47.4052 222.441 50.9973 222.441 50.9973 222.441H70.482L72.8767 222.223Z" fill="white" stroke="white" stroke-width="0.544264" stroke-miterlimit="10" stroke-linecap="round" stroke-linejoin="round"/>
<path d="M178.627 177.702H128.827V179.879H178.627V177.702Z" fill="white" stroke="white" stroke-width="0.544264" stroke-miterlimit="10" stroke-linecap="round" stroke-linejoin="round"/>
<path d="M178.628 177.702H154.517V179.879H178.628V177.702Z" fill="#B2B2B2" stroke="white" stroke-width="0.544264" stroke-miterlimit="10" stroke-linecap="round" stroke-linejoin="round"/>
<path d="M185.54 158.272H161.429L154.517 177.702H178.628L185.54 158.272Z" fill="#D9D9D9" stroke="white" stroke-width="0.544264" stroke-miterlimit="10" stroke-linecap="round" stroke-linejoin="round"/>
<path d="M160.286 237.626H160.612C161.374 237.626 162.027 236.972 162.027 236.21V181.24H158.871V236.21C158.871 236.972 159.469 237.626 160.286 237.626Z" fill="#525252" stroke="white" stroke-width="0.544264" stroke-miterlimit="10" stroke-linecap="round" stroke-linejoin="round"/>
<path d="M166 237.626H166.327C167.089 237.626 167.742 236.972 167.742 236.21V181.24H164.585V236.21C164.585 236.972 165.238 237.626 166 237.626Z" fill="#525252" stroke="white" stroke-width="0.544264" stroke-miterlimit="10" stroke-linecap="round" stroke-linejoin="round"/>
<path d="M121.316 237.626H121.643C122.405 237.626 123.058 236.972 123.058 236.21V181.24H119.901V236.21C119.901 236.972 120.554 237.626 121.316 237.626Z" fill="#525252" stroke="white" stroke-width="0.544264" stroke-miterlimit="10" stroke-linecap="round" stroke-linejoin="round"/>
<path d="M199.962 237.626H200.289C201.051 237.626 201.704 236.972 201.704 236.21V181.24H198.547V236.21C198.547 236.972 199.146 237.626 199.962 237.626Z" fill="#525252" stroke="white" stroke-width="0.544264" stroke-miterlimit="10" stroke-linecap="round" stroke-linejoin="round"/>
<path d="M116.205 182.511H204.648V179.953H116.205V182.511Z" fill="white" stroke="white" stroke-width="0.544264" stroke-miterlimit="10" stroke-linecap="round" stroke-linejoin="round"/>
<path d="M116.205 209.765H204.648V207.207H116.205V209.765Z" fill="white" stroke="white" stroke-width="0.544264" stroke-miterlimit="10" stroke-linecap="round" stroke-linejoin="round"/>
<path d="M155.061 204.589H131.984V207.147H155.061V204.589Z" fill="white" stroke="white" stroke-width="0.544264" stroke-miterlimit="10" stroke-linecap="round" stroke-linejoin="round"/>
<path d="M155.115 204.589H144.72V207.147H155.115V204.589Z" fill="white" stroke="white" stroke-width="0.544264" stroke-miterlimit="10" stroke-linecap="round" stroke-linejoin="round"/>
<path d="M190.165 204.589H167.089V207.147H190.165V204.589Z" fill="white" stroke="white" stroke-width="0.544264" stroke-miterlimit="10" stroke-linecap="round" stroke-linejoin="round"/>
<path d="M190.165 204.589H179.77V207.147H190.165V204.589Z" fill="white" stroke="white" stroke-width="0.544264" stroke-miterlimit="10" stroke-linecap="round" stroke-linejoin="round"/>
<path d="M153.156 201.867H130.079V204.425H153.156V201.867Z" fill="white" stroke="white" stroke-width="0.544264" stroke-miterlimit="10" stroke-linecap="round" stroke-linejoin="round"/>
<path d="M153.21 201.867H142.814V204.425H153.21V201.867Z" fill="white" stroke="white" stroke-width="0.544264" stroke-miterlimit="10" stroke-linecap="round" stroke-linejoin="round"/>
<path d="M9.63354 237.626H248.021" stroke="white" stroke-width="0.544264" stroke-miterlimit="10" stroke-linecap="round" stroke-linejoin="round"/>
</g>
<defs>
<linearGradient id="paint0_linear_101_10529" x1="262.326" y1="-3.27004" x2="204.238" y2="282.517" gradientUnits="userSpaceOnUse">
<stop stop-color="#933BCB"/>
<stop offset="1" stop-color="#A636FF"/>
</linearGradient>
<linearGradient id="paint1_linear_101_10529" x1="21.3111" y1="178.459" x2="20.1656" y2="186.365" gradientUnits="userSpaceOnUse">
<stop stop-color="#933BCB"/>
<stop offset="1" stop-color="#A636FF"/>
</linearGradient>
<linearGradient id="paint2_linear_101_10529" x1="22.4537" y1="189.398" x2="21.3082" y2="197.305" gradientUnits="userSpaceOnUse">
<stop stop-color="#933BCB"/>
<stop offset="1" stop-color="#A636FF"/>
</linearGradient>
<linearGradient id="paint3_linear_101_10529" x1="18.535" y1="151.79" x2="17.3965" y2="159.673" gradientUnits="userSpaceOnUse">
<stop stop-color="#933BCB"/>
<stop offset="1" stop-color="#A636FF"/>
</linearGradient>
<linearGradient id="paint4_linear_101_10529" x1="19.6778" y1="162.73" x2="18.5393" y2="170.613" gradientUnits="userSpaceOnUse">
<stop stop-color="#933BCB"/>
<stop offset="1" stop-color="#A636FF"/>
</linearGradient>
<linearGradient id="paint5_linear_101_10529" x1="16.6846" y1="134.047" x2="15.5461" y2="141.93" gradientUnits="userSpaceOnUse">
<stop stop-color="#933BCB"/>
<stop offset="1" stop-color="#A636FF"/>
</linearGradient>
<linearGradient id="paint6_linear_101_10529" x1="14.7795" y1="116.195" x2="13.6409" y2="124.078" gradientUnits="userSpaceOnUse">
<stop stop-color="#933BCB"/>
<stop offset="1" stop-color="#A636FF"/>
</linearGradient>
<linearGradient id="paint7_linear_101_10529" x1="34.6126" y1="169.835" x2="32.7913" y2="179.146" gradientUnits="userSpaceOnUse">
<stop stop-color="#933BCB"/>
<stop offset="1" stop-color="#A636FF"/>
</linearGradient>
<linearGradient id="paint8_linear_101_10529" x1="31.6194" y1="141.044" x2="29.7981" y2="150.355" gradientUnits="userSpaceOnUse">
<stop stop-color="#933BCB"/>
<stop offset="1" stop-color="#A636FF"/>
</linearGradient>
<linearGradient id="paint9_linear_101_10529" x1="30.2999" y1="128.417" x2="28.4762" y2="137.727" gradientUnits="userSpaceOnUse">
<stop stop-color="#933BCB"/>
<stop offset="1" stop-color="#A636FF"/>
</linearGradient>
<linearGradient id="paint10_linear_101_10529" x1="28.353" y1="109.857" x2="26.5318" y2="119.168" gradientUnits="userSpaceOnUse">
<stop stop-color="#933BCB"/>
<stop offset="1" stop-color="#A636FF"/>
</linearGradient>
<linearGradient id="paint11_linear_101_10529" x1="24.489" y1="101.911" x2="22.6635" y2="111.232" gradientUnits="userSpaceOnUse">
<stop stop-color="#933BCB"/>
<stop offset="1" stop-color="#A636FF"/>
</linearGradient>
<linearGradient id="paint12_linear_101_10529" x1="16.3742" y1="100.649" x2="13.4306" y2="111.248" gradientUnits="userSpaceOnUse">
<stop stop-color="#933BCB"/>
<stop offset="1" stop-color="#A636FF"/>
</linearGradient>
<linearGradient id="paint13_linear_101_10529" x1="32.4253" y1="189.592" x2="30.5997" y2="198.913" gradientUnits="userSpaceOnUse">
<stop stop-color="#933BCB"/>
<stop offset="1" stop-color="#A636FF"/>
</linearGradient>
<linearGradient id="paint14_linear_101_10529" x1="35.2009" y1="162.923" x2="33.3797" y2="172.234" gradientUnits="userSpaceOnUse">
<stop stop-color="#933BCB"/>
<stop offset="1" stop-color="#A636FF"/>
</linearGradient>
<linearGradient id="paint15_linear_101_10529" x1="34.0579" y1="173.863" x2="32.2366" y2="183.174" gradientUnits="userSpaceOnUse">
<stop stop-color="#933BCB"/>
<stop offset="1" stop-color="#A636FF"/>
</linearGradient>
<linearGradient id="paint16_linear_101_10529" x1="37.0512" y1="145.126" x2="35.2259" y2="154.447" gradientUnits="userSpaceOnUse">
<stop stop-color="#933BCB"/>
<stop offset="1" stop-color="#A636FF"/>
</linearGradient>
<linearGradient id="paint17_linear_101_10529" x1="38.902" y1="127.274" x2="37.0767" y2="136.595" gradientUnits="userSpaceOnUse">
<stop stop-color="#933BCB"/>
<stop offset="1" stop-color="#A636FF"/>
</linearGradient>
<linearGradient id="paint18_linear_101_10529" x1="48.2441" y1="185.317" x2="47.1055" y2="193.2" gradientUnits="userSpaceOnUse">
<stop stop-color="#933BCB"/>
<stop offset="1" stop-color="#A636FF"/>
</linearGradient>
<linearGradient id="paint19_linear_101_10529" x1="51.2372" y1="156.525" x2="50.0987" y2="164.408" gradientUnits="userSpaceOnUse">
<stop stop-color="#933BCB"/>
<stop offset="1" stop-color="#A636FF"/>
</linearGradient>
<linearGradient id="paint20_linear_101_10529" x1="52.5434" y1="143.844" x2="51.3978" y2="151.75" gradientUnits="userSpaceOnUse">
<stop stop-color="#933BCB"/>
<stop offset="1" stop-color="#A636FF"/>
</linearGradient>
<linearGradient id="paint21_linear_101_10529" x1="54.4483" y1="125.339" x2="53.3098" y2="133.222" gradientUnits="userSpaceOnUse">
<stop stop-color="#933BCB"/>
<stop offset="1" stop-color="#A636FF"/>
</linearGradient>
<linearGradient id="paint22_linear_101_10529" x1="52.2713" y1="116.794" x2="51.1328" y2="124.677" gradientUnits="userSpaceOnUse">
<stop stop-color="#933BCB"/>
<stop offset="1" stop-color="#A636FF"/>
</linearGradient>
<linearGradient id="paint23_linear_101_10529" x1="43.2929" y1="112.994" x2="39.1628" y2="124.042" gradientUnits="userSpaceOnUse">
<stop stop-color="#933BCB"/>
<stop offset="1" stop-color="#A636FF"/>
</linearGradient>
<linearGradient id="paint24_linear_101_10529" x1="28.3966" y1="176.98" x2="26.9511" y2="185.606" gradientUnits="userSpaceOnUse">
<stop stop-color="#933BCB"/>
<stop offset="1" stop-color="#A636FF"/>
</linearGradient>
<linearGradient id="paint25_linear_101_10529" x1="28.3966" y1="154.121" x2="26.9511" y2="162.747" gradientUnits="userSpaceOnUse">
<stop stop-color="#933BCB"/>
<stop offset="1" stop-color="#A636FF"/>
</linearGradient>
<linearGradient id="paint26_linear_101_10529" x1="28.3966" y1="127.289" x2="26.9511" y2="135.915" gradientUnits="userSpaceOnUse">
<stop stop-color="#933BCB"/>
<stop offset="1" stop-color="#A636FF"/>
</linearGradient>
<linearGradient id="paint27_linear_101_10529" x1="28.3966" y1="109.438" x2="26.9564" y2="118.048" gradientUnits="userSpaceOnUse">
<stop stop-color="#933BCB"/>
<stop offset="1" stop-color="#A636FF"/>
</linearGradient>
<linearGradient id="paint28_linear_101_10529" x1="28.3966" y1="91.4766" x2="26.9511" y2="100.102" gradientUnits="userSpaceOnUse">
<stop stop-color="#933BCB"/>
<stop offset="1" stop-color="#A636FF"/>
</linearGradient>
<linearGradient id="paint29_linear_101_10529" x1="43.1004" y1="184.002" x2="41.6615" y2="192.612" gradientUnits="userSpaceOnUse">
<stop stop-color="#933BCB"/>
<stop offset="1" stop-color="#A636FF"/>
</linearGradient>
<linearGradient id="paint30_linear_101_10529" x1="43.1004" y1="147.645" x2="41.6615" y2="156.255" gradientUnits="userSpaceOnUse">
<stop stop-color="#933BCB"/>
<stop offset="1" stop-color="#A636FF"/>
</linearGradient>
<linearGradient id="paint31_linear_101_10529" x1="43.1004" y1="129.684" x2="41.6615" y2="138.295" gradientUnits="userSpaceOnUse">
<stop stop-color="#933BCB"/>
<stop offset="1" stop-color="#A636FF"/>
</linearGradient>
<linearGradient id="paint32_linear_101_10529" x1="43.1004" y1="105.954" x2="41.6563" y2="114.58" gradientUnits="userSpaceOnUse">
<stop stop-color="#933BCB"/>
<stop offset="1" stop-color="#A636FF"/>
</linearGradient>
<linearGradient id="paint33_linear_101_10529" x1="43.1009" y1="87.2858" x2="41.6567" y2="95.9116" gradientUnits="userSpaceOnUse">
<stop stop-color="#933BCB"/>
<stop offset="1" stop-color="#A636FF"/>
</linearGradient>
<linearGradient id="paint34_linear_101_10529" x1="40.054" y1="79.013" x2="38.6094" y2="87.6407" gradientUnits="userSpaceOnUse">
<stop stop-color="#933BCB"/>
<stop offset="1" stop-color="#A636FF"/>
</linearGradient>
<linearGradient id="paint35_linear_101_10529" x1="31.4207" y1="76.5079" x2="27.9106" y2="87.3983" gradientUnits="userSpaceOnUse">
<stop stop-color="#933BCB"/>
<stop offset="1" stop-color="#A636FF"/>
</linearGradient>
<linearGradient id="paint36_linear_101_10529" x1="203.863" y1="157.089" x2="203.126" y2="162.811" gradientUnits="userSpaceOnUse">
<stop stop-color="#933BCB"/>
<stop offset="1" stop-color="#A636FF"/>
</linearGradient>
<linearGradient id="paint37_linear_101_10529" x1="194.916" y1="157.184" x2="193.063" y2="163.466" gradientUnits="userSpaceOnUse">
<stop stop-color="#933BCB"/>
<stop offset="1" stop-color="#A636FF"/>
</linearGradient>
<linearGradient id="paint38_linear_101_10529" x1="190.106" y1="157.41" x2="189.392" y2="163.01" gradientUnits="userSpaceOnUse">
<stop stop-color="#933BCB"/>
<stop offset="1" stop-color="#A636FF"/>
</linearGradient>
<linearGradient id="paint39_linear_101_10529" x1="190.002" y1="164.22" x2="187.659" y2="171.392" gradientUnits="userSpaceOnUse">
<stop stop-color="#933BCB"/>
<stop offset="1" stop-color="#A636FF"/>
</linearGradient>
<linearGradient id="paint40_linear_101_10529" x1="201.465" y1="164.39" x2="200.469" y2="169.953" gradientUnits="userSpaceOnUse">
<stop stop-color="#933BCB"/>
<stop offset="1" stop-color="#A636FF"/>
</linearGradient>
<linearGradient id="paint41_linear_101_10529" x1="146.259" y1="77.8418" x2="143.878" y2="91.194" gradientUnits="userSpaceOnUse">
<stop stop-color="#933BCB"/>
<stop offset="1" stop-color="#A636FF"/>
</linearGradient>
<linearGradient id="paint42_linear_101_10529" x1="138.178" y1="133.267" x2="124.665" y2="184.357" gradientUnits="userSpaceOnUse">
<stop stop-color="#933BCB"/>
<stop offset="1" stop-color="#A636FF"/>
</linearGradient>
<linearGradient id="paint43_linear_101_10529" x1="112.2" y1="132.035" x2="87.1566" y2="164.677" gradientUnits="userSpaceOnUse">
<stop stop-color="#933BCB"/>
<stop offset="1" stop-color="#A636FF"/>
</linearGradient>
<linearGradient id="paint44_linear_101_10529" x1="97.2195" y1="128.044" x2="65.4418" y2="200.366" gradientUnits="userSpaceOnUse">
<stop stop-color="#933BCB"/>
<stop offset="1" stop-color="#A636FF"/>
</linearGradient>
<linearGradient id="paint45_linear_101_10529" x1="126.842" y1="135.052" x2="117.534" y2="186.11" gradientUnits="userSpaceOnUse">
<stop stop-color="#933BCB"/>
<stop offset="1" stop-color="#A636FF"/>
</linearGradient>
<clipPath id="clip0_101_10529">
<rect width="255.804" height="241" fill="white"/>
</clipPath>
</defs>
</svg>
